<svg xmlns="http://www.w3.org/2000/svg" xmlns:xlink="http://www.w3.org/1999/xlink" viewBox="0 0 512 352.73"><defs><style>.cls-1{isolation:isolate;}.cls-2{fill:#6366f1;}.cls-3,.cls-4,.cls-5,.cls-6{mix-blend-mode:multiply;}.cls-3{fill:url(#linear-gradient);}.cls-4{fill:url(#linear-gradient-2);}.cls-5{fill:url(#linear-gradient-3);}.cls-6{fill:url(#linear-gradient-4);}</style><linearGradient id="linear-gradient" x1="405.41" y1="67.21" x2="267" y2="105.14" gradientUnits="userSpaceOnUse"><stop offset="0" stop-color="#6366f1" stop-opacity="0"/><stop offset="1" stop-color="#666"/></linearGradient><linearGradient id="linear-gradient-2" x1="366.94" y1="259.8" x2="218.28" y2="154.2" xlink:href="#linear-gradient"/><linearGradient id="linear-gradient-3" x1="41.89" y1="63.86" x2="41.89" y2="205.86" xlink:href="#linear-gradient"/><linearGradient id="linear-gradient-4" x1="186.77" y1="281.13" x2="169.85" y2="177.71" xlink:href="#linear-gradient"/></defs><g class="cls-1"><g id="Layer_2" data-name="Layer 2"><g id="Layer_1-2" data-name="Layer 1"><path class="cls-2" d="M512,128.84H423.35q-9.78-24.07-30.15-37.74C379.61,82,363.59,77.39,344.92,77.39c-22.64,0-41.19,7.62-55.8,23a127.92,127.92,0,0,0-16.24-54,107.13,107.13,0,0,0-17.44-22.82c.71-.49,1.51-.89,2.34-1.41A158.93,158.93,0,0,1,303.7,4.46,196.36,196.36,0,0,1,346.42,0q66.21,0,109.47,34.79C484.8,57.92,503.59,89.26,512,128.84Z"/><path class="cls-3" d="M512,128.84H423.35q-9.78-24.07-30.15-37.74C379.61,82,363.59,77.39,344.92,77.39c-22.64,0-41.19,7.62-55.8,23a127.92,127.92,0,0,0-16.24-54,107.13,107.13,0,0,0-17.44-22.82c.71-.49,1.51-.89,2.34-1.41A158.93,158.93,0,0,1,303.7,4.46,196.36,196.36,0,0,1,346.42,0q66.21,0,109.47,34.79C484.8,57.92,503.59,89.26,512,128.84Z"/><path class="cls-2" d="M393.2,261.12c-13.59,9.13-29.62,13.7-48.29,13.7-24.44,0-44.23-8.83-59.24-26.69-12.48-14.91-19.78-33.88-21.81-57.31-11.67,14.5-26.89,25.87-45.35,33.88L287.8,339.34l3.35,5.58c16.94,5.27,35.4,7.81,55.29,7.81q66.19,0,109.46-35T512,223.89H423.33A81.36,81.36,0,0,1,393.2,261.12Z"/><path class="cls-4" d="M393.2,261.12c-13.59,9.13-29.62,13.7-48.29,13.7-24.44,0-44.23-8.83-59.24-26.69-12.48-14.91-19.78-33.88-21.81-57.31-11.67,14.5-26.89,25.87-45.35,33.88L287.8,339.34l3.35,5.58c16.94,5.27,35.4,7.81,55.29,7.81q66.19,0,109.46-35T512,223.89H423.33A81.36,81.36,0,0,1,393.2,261.12Z"/><path class="cls-2" d="M259.19,331.23,188.08,213.55q39.72-9.74,60.56-36.23t20.8-64.22q0-31.8-14.21-56.6a89.47,89.47,0,0,0-16.64-21,109.68,109.68,0,0,0-26-18C193.65,8.12,170.52,3.35,143,3.35H0V352.73H83.78V219h19.07l76.77,133.71h92.62ZM183.81,124.88a121.62,121.62,0,0,0-2.52,12.05c0,.13-.13.13-.13.22a34.13,34.13,0,0,1-8.7,13.5c-7.81,7.29-20.09,11-36.73,11H83.78V73.94h51.95c16.34,0,28.52,4,36.42,11.78s12.06,18.55,12.06,32.36A49.64,49.64,0,0,1,183.81,124.88Z"/><path class="cls-5" d="M83.78,44v61.27A83.81,83.81,0,0,1,0,189V44Z"/><path class="cls-6" d="M102.85,219h0a140.7,140.7,0,0,1,129.42,67.61l40,66.1H179.62Z"/></g></g></g></svg>