<?xml version="1.0" standalone="no"?>
<!DOCTYPE svg PUBLIC "-//W3C//DTD SVG 20010904//EN"
 "http://www.w3.org/TR/2001/REC-SVG-20010904/DTD/svg10.dtd">
<svg version="1.0" xmlns="http://www.w3.org/2000/svg"
 width="726.000000pt" height="726.000000pt" viewBox="0 0 726.000000 726.000000"
 preserveAspectRatio="xMidYMid meet">
<metadata>
Created by potrace 1.14, written by Peter Selinger 2001-2017
</metadata>
<g transform="translate(0.000000,726.000000) scale(0.100000,-0.100000)"
fill="#000000" stroke="none">
<path d="M3500 7249 c-58 -13 -74 -17 -77 -19 -2 -2 -6 -3 -10 -5 -41 -11
-149 -63 -228 -110 -38 -22 -77 -44 -85 -48 -8 -4 -29 -15 -45 -26 -17 -10
-136 -79 -265 -153 -129 -75 -302 -175 -385 -223 -82 -48 -190 -110 -240 -138
-49 -29 -99 -57 -110 -64 -11 -7 -27 -15 -35 -19 -8 -4 -43 -25 -78 -46 -34
-21 -67 -38 -72 -38 -6 0 -10 -4 -10 -8 0 -4 -15 -15 -32 -23 -47 -22 -102
-53 -108 -60 -3 -4 -15 -9 -27 -13 -13 -4 -23 -12 -23 -17 0 -5 -4 -9 -9 -9
-6 0 -60 -29 -122 -65 -61 -36 -113 -65 -115 -65 -2 0 -28 -16 -58 -35 -30
-19 -57 -35 -60 -35 -3 0 -30 -16 -60 -35 -30 -19 -57 -35 -60 -35 -3 0 -43
-22 -90 -50 -47 -27 -89 -50 -95 -50 -5 0 -11 -4 -13 -8 -4 -10 -146 -92 -159
-92 -5 0 -9 -3 -9 -7 0 -5 -23 -19 -50 -32 -28 -14 -50 -28 -50 -32 0 -4 -8
-10 -19 -14 -10 -3 -50 -37 -89 -75 -107 -105 -173 -229 -208 -385 -21 -94
-19 -3081 1 -3178 16 -75 69 -210 91 -232 8 -7 14 -17 14 -21 0 -10 66 -91
110 -134 37 -38 141 -109 227 -156 28 -16 88 -50 132 -77 44 -26 85 -47 91
-47 5 0 10 -4 10 -8 0 -4 12 -13 27 -20 16 -6 44 -21 63 -33 119 -72 411 -239
419 -239 5 0 11 -3 13 -7 2 -5 18 -16 35 -25 18 -10 48 -26 65 -35 18 -10 35
-21 38 -24 3 -3 17 -12 32 -20 31 -16 80 -44 348 -199 107 -62 211 -122 230
-133 19 -11 49 -28 65 -38 17 -10 39 -23 50 -29 11 -5 43 -23 70 -40 28 -16
84 -49 125 -72 41 -23 77 -44 80 -47 3 -3 19 -13 35 -21 17 -8 46 -24 65 -36
78 -48 380 -220 445 -255 69 -36 146 -64 215 -77 45 -9 234 -8 281 1 47 8 180
57 199 72 8 6 34 21 57 33 52 26 87 46 93 52 4 4 39 24 95 54 11 6 27 16 35
22 8 7 42 26 75 43 66 35 97 53 105 61 7 7 67 39 108 59 17 8 32 19 32 23 0 4
4 8 10 8 5 0 33 14 62 31 60 36 87 51 173 99 33 19 62 36 65 39 3 4 21 14 40
25 28 14 301 171 523 300 110 63 505 291 522 300 11 6 22 13 25 16 3 3 21 13
40 24 43 23 48 26 290 166 282 163 313 187 407 311 46 61 105 181 117 239 3
14 10 43 15 65 13 50 14 3069 1 3135 -22 116 -20 111 -65 205 -73 150 -185
263 -360 360 -27 15 -140 79 -250 143 -110 64 -211 122 -225 129 -14 8 -38 23
-55 33 -16 11 -37 23 -45 27 -8 3 -69 38 -135 76 -136 79 -181 105 -210 121
-35 20 -139 80 -170 99 -16 10 -38 20 -47 23 -10 4 -18 10 -18 15 0 5 -4 9 -9
9 -6 0 -60 29 -121 65 -61 36 -114 65 -117 65 -4 0 -14 6 -22 14 -9 7 -41 27
-71 43 -30 17 -95 53 -144 82 -49 28 -93 51 -97 51 -5 0 -9 3 -9 8 0 4 -10 12
-23 18 -33 15 -111 58 -117 64 -10 10 -65 41 -82 47 -10 3 -18 9 -18 14 0 5
-5 9 -10 9 -6 0 -119 63 -252 140 -226 131 -311 173 -373 184 -13 3 -29 8 -35
11 -18 11 -242 14 -290 4z m239 -414 c9 -2 41 -17 71 -35 30 -17 67 -36 83
-43 15 -6 27 -15 27 -19 0 -4 6 -8 14 -8 7 0 24 -8 37 -19 13 -10 48 -31 77
-47 29 -16 61 -34 70 -39 9 -6 64 -37 122 -70 58 -33 107 -63 108 -67 2 -4 8
-8 13 -8 5 0 61 -30 125 -67 63 -38 144 -84 179 -103 35 -19 70 -41 77 -48 6
-6 15 -12 19 -12 3 0 147 -81 318 -180 172 -99 316 -180 321 -180 6 0 10 -4
10 -9 0 -5 8 -11 18 -15 22 -7 82 -42 96 -56 5 -5 18 -10 27 -10 10 0 19 -4
21 -8 2 -5 34 -26 71 -48 38 -21 85 -49 105 -61 21 -11 48 -27 62 -35 93 -52
286 -164 290 -168 3 -3 26 -17 52 -30 204 -109 286 -182 302 -272 3 -13 5 -23
6 -23 9 0 10 -241 11 -1530 0 -1624 3 -1540 -56 -1625 -32 -47 -74 -84 -123
-111 -20 -11 -59 -34 -87 -50 -27 -17 -58 -33 -67 -36 -10 -3 -18 -9 -18 -14
0 -5 -4 -9 -10 -9 -5 0 -47 -22 -92 -49 -71 -41 -280 -162 -385 -222 -18 -11
-48 -27 -65 -38 -18 -10 -94 -53 -168 -96 -74 -43 -144 -83 -155 -89 -11 -6
-22 -13 -25 -16 -3 -3 -20 -13 -38 -22 -69 -38 -96 -53 -106 -61 -6 -4 -67
-40 -136 -79 -69 -39 -143 -82 -165 -94 -22 -13 -76 -44 -120 -69 -44 -26 -93
-54 -110 -64 -16 -10 -52 -30 -80 -45 -27 -16 -54 -32 -60 -36 -5 -4 -41 -25
-80 -45 -38 -21 -72 -41 -75 -44 -3 -3 -18 -13 -35 -21 -16 -8 -32 -18 -35
-21 -3 -3 -18 -12 -35 -21 -16 -8 -105 -58 -197 -111 -198 -114 -243 -131
-336 -125 -68 5 -108 19 -197 71 -27 17 -66 39 -85 50 -19 10 -78 45 -130 75
-52 31 -107 63 -122 72 -16 8 -49 27 -75 41 -27 15 -102 58 -168 97 l-120 70
-3 1571 c-1 1046 1 1571 8 1571 5 0 10 -4 10 -10 0 -5 8 -17 18 -27 10 -10 42
-47 72 -83 30 -36 60 -70 65 -76 6 -6 28 -32 50 -59 22 -27 49 -58 60 -71 57
-63 75 -84 75 -89 0 -2 12 -17 28 -33 15 -16 45 -50 67 -77 60 -73 220 -262
279 -328 28 -33 53 -63 56 -67 3 -4 26 -32 52 -61 25 -30 75 -88 109 -129 35
-41 68 -80 74 -86 5 -6 28 -32 50 -59 22 -27 54 -65 71 -84 17 -20 42 -49 55
-65 13 -16 33 -39 44 -51 11 -13 38 -44 60 -71 58 -69 117 -138 124 -144 3 -3
35 -41 71 -85 36 -44 74 -90 85 -101 11 -12 34 -39 52 -60 17 -22 43 -52 58
-69 14 -16 40 -47 58 -68 49 -59 66 -79 95 -112 15 -17 47 -55 72 -85 54 -67
121 -130 138 -130 6 0 12 -3 12 -8 0 -21 120 -54 204 -57 196 -5 350 98 428
289 21 49 22 68 23 522 1 259 6 477 10 484 5 7 4 11 -1 7 -8 -4 -11 78 -4 108
1 6 2 12 0 15 -6 16 -4 167 2 163 5 -2 4 6 0 19 -10 29 -8 320 2 336 4 7 4 12
-1 12 -10 0 -10 211 0 227 4 6 4 14 0 16 -10 6 -9 369 1 385 4 7 4 12 -1 12
-10 0 -10 211 0 227 4 6 4 14 0 16 -10 6 -9 369 1 385 4 7 4 12 -1 12 -4 0 -8
50 -8 110 0 61 4 110 8 110 5 0 5 5 1 12 -4 6 -8 63 -9 127 -1 64 -5 134 -10
156 -36 181 -236 343 -420 340 -69 -1 -154 -15 -161 -26 -3 -5 -12 -9 -20 -9
-37 0 -155 -100 -198 -168 -59 -93 -70 -164 -66 -427 0 -49 1 -97 1 -105 0 -8
0 -152 0 -320 0 -168 0 -312 0 -320 0 -8 0 -152 0 -320 0 -168 0 -312 0 -320
-1 -8 -1 -111 -1 -228 l-1 -214 -23 25 c-12 13 -66 76 -119 139 -52 63 -103
120 -111 127 -9 8 -16 17 -16 22 0 5 -13 21 -28 36 -15 16 -59 66 -97 113 -39
46 -77 92 -85 101 -8 9 -24 27 -35 40 -19 23 -33 39 -129 153 -70 84 -287 339
-320 377 -17 20 -47 55 -66 79 -19 24 -54 64 -77 89 -23 25 -43 50 -43 55 0 5
-8 16 -17 25 -20 18 -64 68 -133 151 -25 29 -85 101 -135 160 -49 58 -108 127
-130 154 -22 26 -49 58 -60 70 -11 11 -40 46 -65 76 -25 30 -49 60 -55 66 -5
6 -30 35 -55 65 -195 231 -221 256 -309 297 -76 35 -191 47 -280 28 -100 -20
-226 -115 -280 -209 -62 -110 -58 32 -57 -2105 1 -1493 -2 -1951 -11 -1948
-13 6 -507 289 -666 382 -59 35 -109 64 -112 64 -11 0 -142 91 -161 112 -26
28 -64 94 -70 120 -2 10 -6 28 -9 41 -4 19 -6 53 -5 107 1 8 0 35 -1 60 -2 25
1 51 5 58 4 7 3 12 -1 12 -5 0 -7 26 -5 58 1 31 3 62 3 67 -6 151 -5 233 2
248 4 9 4 17 0 17 -10 0 -9 133 1 149 4 6 4 11 -1 11 -10 0 -9 62 1 78 4 7 3
12 -1 12 -5 0 -7 26 -5 58 1 31 3 62 3 67 -6 151 -5 233 2 248 4 9 4 17 0 17
-4 0 -8 18 -8 40 0 22 4 40 9 40 5 0 4 6 -1 13 -5 6 -7 32 -6 57 3 55 3 63 0
168 -1 45 2 82 7 82 5 0 4 6 -1 13 -5 6 -7 32 -6 57 2 25 3 56 3 70 0 14 0 75
0 135 0 61 0 124 -1 140 -5 122 -3 273 4 288 4 9 4 17 0 17 -10 0 -9 63 1 78
4 7 3 12 -1 12 -5 0 -7 26 -5 58 1 31 3 62 3 67 -6 151 -5 233 2 248 4 10 4
17 -2 17 -7 0 -7 9 -1 25 5 14 6 25 2 25 -10 0 -5 71 9 124 18 67 89 166 134
188 11 5 36 19 57 31 20 12 96 56 170 99 73 42 174 100 223 128 270 158 468
270 475 270 5 0 10 4 12 8 2 4 53 36 113 69 61 34 115 66 120 70 6 4 24 15 40
23 17 8 53 29 82 47 29 18 54 33 57 33 3 0 40 21 83 46 471 280 1133 654 1174
663 65 16 100 17 138 8 18 -5 41 -10 50 -12z"/>
</g>
</svg>
