<svg xmlns="http://www.w3.org/2000/svg" width="208" height="159" viewBox="0 0 208 159" fill="none">
    <g clip-path="url(#clip0_491_2685)">
        <path
            d="M168.443 48.1905H179.129L164.19 30.3837L164.264 30.2986L179.01 12.4417H168.32L155.456 28.8722V0.120117H147.202V48.1905H155.456V31.7049L168.448 48.1905H168.443Z"
            fill="white"></path>
        <path
            d="M70.3105 30.0634C70.3105 19.9538 62.9378 11.7561 53.847 11.7561C49.767 11.7561 46.0336 13.4076 43.1568 16.1402V0H34.9275V48.1805H43.1568V43.9915C46.0336 46.7241 49.767 48.3756 53.847 48.3756C62.9378 48.3756 70.3105 40.1779 70.3105 30.0684V30.0634ZM62.21 30.2085C62.21 35.5385 57.9369 39.8526 52.6685 39.8526C47.4002 39.8526 43.5381 35.9339 43.1568 30.9592V29.4528C43.5381 24.4781 47.6478 20.5594 52.6685 20.5594C57.9418 20.5594 62.21 24.8785 62.21 30.2035V30.2085Z"
            fill="white"></path>
        <path
            d="M81.7038 30.2536C81.7038 24.9235 85.9769 20.4143 91.2453 20.4143C96.2661 20.4143 100.376 24.5282 100.757 29.5029V31.0093C100.376 35.984 96.2661 39.9027 91.2453 39.9027C85.972 39.9027 81.7038 35.5836 81.7038 30.2586V30.2536ZM73.6033 30.3987C73.6033 40.5082 80.976 48.706 90.0668 48.706C94.1468 48.706 97.8802 47.0544 100.757 44.3218V48.2205H108.986V12.2816H100.757V16.4706C97.8802 13.738 94.1468 12.0864 90.0668 12.0864C80.976 12.0864 73.6033 20.2842 73.6033 30.3937V30.3987Z"
            fill="white"></path>
        <path
            d="M121.068 158.36C125.148 158.36 128.881 156.708 131.758 153.975V158.164H139.987V109.984H131.758V126.124C128.881 123.392 125.148 121.74 121.068 121.74C111.977 121.74 104.604 129.938 104.604 140.047C104.604 150.157 111.977 158.355 121.068 158.355V158.36ZM122.246 130.548C127.267 130.548 131.377 134.467 131.758 139.442V140.948C131.377 145.923 127.267 149.841 122.246 149.841C116.973 149.841 112.705 145.522 112.705 140.197C112.705 134.867 116.978 130.553 122.246 130.553V130.548Z"
            fill="white"></path>
        <path
            d="M28.7728 77.8935H34.8383V96.9265C34.8383 102.237 39.0965 106.541 44.35 106.541H55.1987V99.2787H46.5633C44.6323 99.2787 43.0627 97.6972 43.0627 95.7404V77.8935H55.1987V70.6317H43.0627V58.5503L34.8333 61.5281V70.6267H28.7678V77.8885L28.7728 77.8935Z"
            fill="white"></path>
        <path
            d="M51.4159 122.525C41.622 122.525 33.6501 130.583 33.6501 140.482C33.6501 150.382 41.622 158.439 51.4159 158.439H63.1162V150.121H51.4159C46.1575 150.121 41.8795 145.797 41.8795 140.482C41.8795 135.167 46.1575 130.843 51.4159 130.843H63.1162V122.525H51.4159Z"
            fill="white"></path>
        <path
            d="M130.788 12.3066C120.994 12.3066 113.022 20.3642 113.022 30.2636C113.022 40.1629 120.994 48.2205 130.788 48.2205H142.488V39.9027H130.788C125.529 39.9027 121.251 35.5786 121.251 30.2636C121.251 24.9486 125.529 20.6245 130.788 20.6245H142.488V12.3066H130.788Z"
            fill="white"></path>
        <path
            d="M101.445 140.472C101.445 150.707 93.4931 159 83.6794 159C73.8656 159 65.9136 150.702 65.9136 140.472C65.9136 130.243 73.8656 121.945 83.6794 121.945C93.4931 121.945 101.445 130.243 101.445 140.472ZM83.6447 130.533C78.3714 130.533 74.1033 134.987 74.1033 140.487C74.1033 145.987 78.3764 150.442 83.6447 150.442C88.913 150.442 93.1862 145.987 93.1862 140.487C93.1862 134.987 88.913 130.533 83.6447 130.533Z"
            fill="white"></path>
        <path
            d="M93.8251 88.3434C93.8251 98.5781 85.873 106.871 76.0593 106.871C66.2455 106.871 58.2935 98.573 58.2935 88.3434C58.2935 78.1137 66.2455 69.8159 76.0593 69.8159C85.873 69.8159 93.8251 78.1137 93.8251 88.3434ZM76.0246 78.404C70.7513 78.404 66.4832 82.8582 66.4832 88.3584C66.4832 93.8586 70.7562 98.3128 76.0246 98.3128C81.2929 98.3128 85.566 93.8586 85.566 88.3584C85.566 82.8582 81.2929 78.404 76.0246 78.404Z"
            fill="white"></path>
        <path
            d="M152.921 142.514H179.817L179.832 142.394C179.96 141.113 180 140.473 180 139.542C180 134.642 178.287 130.068 175.177 126.659C171.949 123.121 167.443 121.174 162.497 121.174C157.55 121.174 152.921 123.156 149.578 126.75C146.296 130.283 144.488 135.042 144.488 140.162C144.488 140.958 144.538 141.739 144.622 142.514H152.921ZM162.462 128.746C167.027 128.746 171.018 131.884 171.439 135.773H153.277C154.555 131.369 157.971 128.746 162.457 128.746H162.462Z"
            fill="white"></path>
        <path
            d="M152.713 140.482C152.713 140.377 152.713 140.272 152.722 140.162H144.493C144.493 140.267 144.493 140.372 144.493 140.482C144.493 150.382 152.465 158.439 162.259 158.439H176.658V150.122H162.259C157.001 150.122 152.722 145.797 152.722 140.482H152.713Z"
            fill="white"></path>
        <path d="M9.04134 48.1354H0L18.766 0H27.8073L9.04134 48.1354Z" fill="#3C8ACC"></path>
    </g>
    <defs>
        <clipPath id="clip0_491_2685">
            <rect width="180" height="159" fill="white"></rect>
        </clipPath>
    </defs>
</svg>