<svg xmlns="http://www.w3.org/2000/svg" width="349" height="63" viewBox="0 0 349 63" fill="none">
    <script xmlns="" />
    <path d="M277.838 31.4434L267.524 31.4922V26.9734H277.838V31.4434Z" fill="white" />
    <path d="M266.032 0H261.318L278.535 39.4142H283.591L266.032 0Z" fill="white" />
    <path d="M270.356 0H275.077L257.852 39.4142H252.796L270.356 0Z" fill="white" />
    <path
        d="M80.2304 39.8535C75.6627 39.8535 72.2806 38.5494 70.0979 35.9413C67.9082 33.3333 66.8203 29.7768 66.8203 25.2719V6.8479H71.7785V25.1254C71.7785 28.3681 72.4758 30.8437 73.8705 32.5662C75.2652 34.2817 77.3852 35.1394 80.2373 35.1394C83.0895 35.1394 85.2513 34.2817 86.632 32.5662C88.0058 30.8507 88.6962 28.3681 88.6962 25.1254V6.8479H93.6543V25.2719C93.6543 29.7768 92.5595 33.3333 90.3768 35.9413C88.1871 38.5494 84.8119 39.8535 80.2443 39.8535H80.2304Z"
        fill="white" />
    <path
        d="M123.571 39.3514H105.6C103.912 39.3514 102.734 38.9469 102.05 38.138C101.367 37.3291 101.032 36.2482 101.032 34.8883V11.3109C101.032 9.92321 101.374 8.82838 102.05 8.0334C102.734 7.23842 103.912 6.8479 105.6 6.8479H123.229V11.3598H105.983V34.8395H123.564V39.3514H123.571ZM122.26 25.3277H104.679L104.094 20.8158H122.26V25.3277Z"
        fill="white" />
    <path
        d="M142.204 39.9512C139.449 39.9512 137.001 39.3515 134.861 38.1521C132.72 36.9526 131.151 35.2371 130.146 32.9986L134.324 30.9554C134.937 32.3501 135.928 33.417 137.287 34.1632C138.647 34.9094 140.286 35.279 142.197 35.279C143.459 35.279 144.596 35.0907 145.6 34.7211C146.604 34.3515 147.406 33.7797 148.006 33.0196C148.605 32.2594 148.905 31.3389 148.905 30.272C148.905 29.0726 148.577 28.159 147.929 27.5244C147.28 26.8899 146.416 26.4226 145.328 26.1158C144.24 25.809 143.047 25.537 141.757 25.3138C140.523 25.0558 139.268 24.735 137.992 24.3654C136.709 23.9958 135.523 23.4659 134.421 22.7894C133.319 22.113 132.434 21.2064 131.771 20.0907C131.109 18.9749 130.774 17.5523 130.774 15.8369C130.774 14.0237 131.269 12.3989 132.259 10.9763C133.25 9.55373 134.575 8.42402 136.248 7.60115C137.915 6.77827 139.791 6.35986 141.862 6.35986C144.358 6.35986 146.625 6.93169 148.668 8.08232C150.711 9.23295 152.218 10.9275 153.187 13.159L149.059 15.2999C148.445 13.9401 147.504 12.8801 146.241 12.113C144.979 11.3529 143.452 10.9693 141.674 10.9693C140.572 10.9693 139.575 11.1716 138.689 11.576C137.796 11.9805 137.078 12.5314 136.527 13.2288C135.976 13.9261 135.704 14.742 135.704 15.6834C135.704 16.848 136.046 17.7476 136.722 18.3822C137.406 19.0168 138.298 19.4979 139.421 19.8396C140.537 20.1813 141.764 20.4812 143.089 20.7392C144.317 20.9972 145.572 21.318 146.834 21.6876C148.096 22.0572 149.254 22.5872 150.307 23.2706C151.36 23.954 152.218 24.8466 152.88 25.9693C153.543 27.0851 153.877 28.5077 153.877 30.2232C153.877 32.1339 153.361 33.8145 152.322 35.2511C151.283 36.6946 149.881 37.8313 148.117 38.6751C146.353 39.5189 144.386 39.9373 142.211 39.9373L142.204 39.9512Z"
        fill="white" />
    <path
        d="M182.106 6.8479V11.4155H157.169V6.8479H182.106ZM167.134 6.8479H172.092V39.4141H167.134V6.8479Z"
        fill="white" />
    <path
        d="M201.304 40C199.003 40 196.848 39.5676 194.84 38.7099C192.831 37.8522 191.074 36.6527 189.568 35.1116C188.061 33.5704 186.876 31.7713 186.018 29.7141C185.16 27.6569 184.728 25.4463 184.728 23.0823C184.728 20.7183 185.153 18.5635 186.018 16.5202C186.876 14.477 188.061 12.6848 189.568 11.1506C191.074 9.60949 192.831 8.41005 194.84 7.5523C196.848 6.69456 199.003 6.26221 201.304 6.26221C203.152 6.26221 204.923 6.56207 206.625 7.16179C208.326 7.76151 209.861 8.6332 211.22 9.78383C212.58 10.9345 213.668 12.3013 214.477 13.8912L210.446 16.2273C209.47 14.5746 208.201 13.2845 206.632 12.364C205.056 11.4435 203.222 10.9763 201.116 10.9763C199.526 10.9763 198.054 11.2831 196.695 11.8968C195.335 12.5105 194.142 13.3752 193.124 14.47C192.106 15.5718 191.304 16.8619 190.718 18.3333C190.132 19.8117 189.84 21.3877 189.84 23.0753C189.84 24.7629 190.126 26.4435 190.69 27.9358C191.255 29.4282 192.05 30.7183 193.075 31.7992C194.093 32.887 195.293 33.7378 196.674 34.3515C198.054 34.9651 199.533 35.2789 201.123 35.2789C203.229 35.2789 205.077 34.8187 206.667 33.8912C208.25 32.9707 209.519 31.6946 210.46 30.0767L214.491 32.4128C213.682 34.0028 212.594 35.3626 211.234 36.4923C209.874 37.629 208.34 38.4937 206.639 39.0935C204.937 39.6932 203.159 39.993 201.318 39.993L201.304 40Z"
        fill="white" />
    <path
        d="M234.066 40C231.702 40 229.505 39.5676 227.483 38.7099C225.453 37.8521 223.682 36.6597 222.162 35.1395C220.642 33.6192 219.449 31.827 218.591 29.7699C217.734 27.7127 217.301 25.4812 217.301 23.0892C217.301 20.6973 217.727 18.5286 218.591 16.5063C219.449 14.4839 220.642 12.7057 222.162 11.1855C223.682 9.66526 225.46 8.47279 227.483 7.61505C229.505 6.75731 231.702 6.32495 234.066 6.32495C236.43 6.32495 238.619 6.75033 240.628 7.61505C242.636 8.47279 244.4 9.66526 245.928 11.1855C247.448 12.7057 248.633 14.4839 249.477 16.5063C250.321 18.5286 250.739 20.7252 250.739 23.0892C250.739 25.4533 250.321 27.7127 249.477 29.7699C248.633 31.827 247.448 33.6192 245.928 35.1395C244.4 36.6597 242.636 37.8521 240.628 38.7099C238.619 39.5676 236.43 40 234.066 40ZM234.066 35.2859C235.656 35.2859 237.155 34.9721 238.563 34.3375C239.972 33.7029 241.213 32.8382 242.28 31.7364C243.347 30.6346 244.177 29.3445 244.756 27.8731C245.342 26.4017 245.635 24.8047 245.635 23.0892C245.635 21.3738 245.342 19.8326 244.756 18.3752C244.17 16.9177 243.347 15.6346 242.28 14.5328C241.213 13.4309 239.979 12.5732 238.584 11.9595C237.19 11.3459 235.683 11.039 234.066 11.039C232.448 11.039 230.921 11.3459 229.498 11.9595C228.075 12.5732 226.834 13.4379 225.781 14.5328C224.728 15.6346 223.905 16.9177 223.305 18.3752C222.706 19.8326 222.406 21.4086 222.406 23.0892C222.406 24.7699 222.706 26.4017 223.305 27.8731C223.905 29.3515 224.728 30.6346 225.781 31.7364C226.834 32.8382 228.075 33.7029 229.498 34.3375C230.921 34.9721 232.448 35.2859 234.066 35.2859Z"
        fill="white" />
    <path
        d="M302.308 40C300.007 40 297.852 39.5676 295.844 38.7099C293.836 37.8522 292.078 36.6527 290.572 35.1116C289.066 33.5704 287.88 31.7713 287.023 29.7141C286.165 27.6569 285.732 25.4463 285.732 23.0823C285.732 20.7183 286.158 18.5635 287.023 16.5202C287.88 14.477 289.066 12.6848 290.572 11.1506C292.078 9.60949 293.836 8.41005 295.844 7.5523C297.852 6.69456 300.007 6.26221 302.308 6.26221C304.156 6.26221 305.928 6.56207 307.629 7.16179C309.331 7.76151 310.865 8.6332 312.225 9.78383C313.585 10.9345 314.672 12.3013 315.481 13.8912L311.451 16.2273C310.474 14.5746 309.205 13.2845 307.636 12.364C306.06 11.4435 304.226 10.9763 302.12 10.9763C300.53 10.9763 299.059 11.2831 297.699 11.8968C296.339 12.5105 295.147 13.3752 294.129 14.47C293.11 15.5718 292.308 16.8619 291.723 18.3333C291.137 19.8117 290.844 21.3877 290.844 23.0753C290.844 24.7629 291.13 26.4435 291.695 27.9358C292.26 29.4282 293.055 30.7183 294.08 31.7992C295.098 32.887 296.297 33.7378 297.678 34.3515C299.059 34.9651 300.537 35.2789 302.127 35.2789C304.233 35.2789 306.081 34.8187 307.671 33.8912C309.254 32.9707 310.523 31.6946 311.465 30.0767L315.495 32.4128C314.686 34.0028 313.599 35.3626 312.239 36.4923C310.879 37.629 309.345 38.4937 307.643 39.0935C305.942 39.6932 304.163 39.993 302.322 39.993L302.308 40Z"
        fill="white" />
    <path
        d="M326.464 39.4141H321.506V6.8479H326.464V20.8925H343.717V6.8479H348.675V39.4141H343.717V25.4671H326.464V39.4141Z"
        fill="white" />
    <path
        d="M33.0894 35.8927C31.2902 34.3515 29.9095 32.5942 28.9262 30.6277C27.9499 28.6542 27.3781 26.597 27.2107 24.4491C27.0434 22.3013 27.3084 20.1674 27.9988 18.0475C28.6891 15.9275 29.8119 13.954 31.3739 12.1339C32.9151 10.3418 34.6654 8.95403 36.6389 7.97077C38.6124 6.9875 40.6696 6.42265 42.8174 6.25529C44.9653 6.08792 47.0852 6.33897 49.1842 7.00843C51.2833 7.67788 53.2289 8.77969 55.0211 10.3208C56.8133 11.862 58.201 13.6123 59.1633 15.5719C60.1326 17.5314 60.6975 19.5816 60.8579 21.7295C61.0183 23.8773 60.7672 25.9973 60.0838 28.0823C59.4074 30.1674 58.2916 32.1061 56.7575 33.9052C55.1954 35.7253 53.4241 37.1409 51.4506 38.1591C49.4702 39.1702 47.406 39.763 45.2582 39.9233C43.1103 40.0907 40.9974 39.8397 38.9123 39.1842C36.8272 38.5286 34.8886 37.4268 33.0964 35.8927H33.0894ZM36.1577 32.3153C37.3642 33.3473 38.7031 34.0865 40.1884 34.5189C41.6668 34.9582 43.1731 35.1047 44.7073 34.9652C46.2345 34.8257 47.6989 34.3864 49.1075 33.6472C50.5092 32.908 51.7714 31.8899 52.8872 30.5858C53.982 29.3097 54.784 27.922 55.293 26.4366C55.8021 24.9512 56.0043 23.438 55.9137 21.9108C55.8161 20.3766 55.4395 18.9261 54.784 17.5524C54.1285 16.1786 53.187 14.9652 51.9527 13.9122C50.7184 12.8592 49.3656 12.0991 47.8802 11.6388C46.3949 11.1786 44.8955 11.0252 43.3823 11.1716C41.869 11.325 40.4046 11.7574 39.0029 12.4756C37.5943 13.1939 36.346 14.1911 35.2512 15.4673C34.1354 16.7713 33.3195 18.18 32.8174 19.6862C32.3084 21.1995 32.0992 22.7127 32.1829 24.233C32.2665 25.7532 32.6431 27.2176 33.3126 28.6263C33.982 30.0349 34.9304 31.2692 36.1647 32.3222L36.1577 32.3153Z"
        fill="white" />
    <path d="M54.3746 28.855L51.4009 32.322L60.3252 39.9765L63.2989 36.5095L54.3746 28.855Z"
        fill="white" />
    <path
        d="M9.0795 23.1938C10.523 23.1938 11.8131 23.4449 12.9498 23.947C14.0865 24.4491 15.0628 25.1534 15.8647 26.053C16.6667 26.9526 17.2803 28.0056 17.6987 29.212C18.1172 30.4184 18.3264 31.7294 18.3264 33.152V39.3584H0V33.0125C0 31.046 0.376569 29.3236 1.13668 27.8591C1.88982 26.3947 2.94979 25.251 4.30962 24.4282C5.66946 23.6053 7.25941 23.2008 9.0795 23.2008V23.1938ZM9.0795 26.0669C7.78243 26.0669 6.65272 26.3598 5.67643 26.9386C4.70014 27.5244 3.94003 28.3333 3.39609 29.3724C2.85216 30.4114 2.57322 31.6248 2.57322 33.0125V36.569H15.781V33.152C15.781 32.1478 15.6276 31.2203 15.3138 30.3626C15.007 29.5049 14.5676 28.7517 14.0028 28.1032C13.4379 27.4547 12.7336 26.9526 11.8968 26.5969C11.06 26.2413 10.1186 26.0669 9.0795 26.0669Z"
        fill="white" />
    <path
        d="M18.3194 6.8479V17.0989C18.3194 18.0473 18.0893 18.7098 17.636 19.0934C17.1827 19.4769 16.569 19.6652 15.802 19.6652H2.51743C1.7364 19.6652 1.11576 19.4769 0.669456 19.0934C0.223152 18.7098 0 18.0473 0 17.0989V7.03619H2.54533V16.8828H15.781V6.8479H18.3264H18.3194ZM10.4184 7.58709V17.622L7.87308 17.9497V7.58709H10.4184Z"
        fill="white" />
    <path
        d="M33.4346 57.9937C33.0411 57.8237 32.5394 57.6537 31.9296 57.4937C31.4672 57.3637 31.1229 57.2537 30.8967 57.1637C30.6606 57.0737 30.4639 56.9537 30.3065 56.8037C30.1491 56.6437 30.0606 56.4537 30.0606 56.2337C30.0606 55.9437 30.1786 55.7137 30.4245 55.5337C30.6705 55.3537 31.0147 55.2737 31.4771 55.2737C31.9394 55.2737 32.3132 55.3837 32.5886 55.6137C32.864 55.8437 33.0116 56.1437 33.0411 56.5337H34.7822C34.7428 55.6837 34.4281 55.0137 33.8477 54.5237C33.2673 54.0337 32.4902 53.7837 31.5361 53.7837C30.8967 53.7837 30.3262 53.8937 29.8343 54.1137C29.3425 54.3337 28.9589 54.6337 28.6933 55.0037C28.4277 55.3837 28.2998 55.7937 28.2998 56.2537C28.2998 56.8137 28.4474 57.2637 28.7326 57.6037C29.0179 57.9437 29.3622 58.2037 29.7655 58.3637C30.159 58.5237 30.6705 58.7037 31.3098 58.8737C31.9591 59.0637 32.4312 59.2337 32.7362 59.3837C33.0313 59.5437 33.1886 59.7737 33.1886 60.0937C33.1886 60.3937 33.0509 60.6437 32.7853 60.8337C32.5198 61.0237 32.1361 61.1237 31.6443 61.1237C31.1525 61.1237 30.7885 61.0037 30.4737 60.7637C30.159 60.5237 29.9917 60.2137 29.9622 59.8537H28.1621C28.1818 60.3737 28.349 60.8437 28.6539 61.2537C28.9589 61.6737 29.372 62.0037 29.8934 62.2437C30.4147 62.4837 31.0049 62.6137 31.6738 62.6137C32.3427 62.6137 32.8935 62.5037 33.3755 62.2837C33.8575 62.0637 34.2313 61.7637 34.4969 61.3837C34.7625 61.0037 34.8904 60.5637 34.8904 60.0837C34.8806 59.5337 34.733 59.0937 34.4477 58.7637C34.1625 58.4337 33.828 58.1837 33.4346 58.0137V57.9937Z"
        fill="white" />
    <path
        d="M43.3797 55.1437C43.0846 54.7537 42.6912 54.4237 42.1993 54.1637C41.7075 53.9037 41.1271 53.7637 40.4681 53.7637C39.7402 53.7637 39.0713 53.9437 38.4614 54.3137C37.8515 54.6837 37.3794 55.1937 37.0252 55.8537C36.6711 56.5137 36.5039 57.2737 36.5039 58.1337C36.5039 58.9937 36.681 59.7637 37.0252 60.4337C37.3794 61.1137 37.8515 61.6437 38.4516 62.0137C39.0516 62.3937 39.7107 62.5837 40.4386 62.5837C41.0878 62.5837 41.6682 62.4537 42.1797 62.1837C42.6912 61.9137 43.0945 61.5837 43.3896 61.1737V62.4437H45.1405V53.8937H43.3896V55.1337L43.3797 55.1437ZM43.0256 59.7137C42.7895 60.1537 42.4748 60.4837 42.0911 60.7137C41.7075 60.9437 41.2845 61.0537 40.8419 61.0537C40.3992 61.0537 39.9861 60.9437 39.6025 60.7037C39.209 60.4737 38.8942 60.1337 38.6581 59.6837C38.4221 59.2337 38.304 58.7237 38.304 58.1337C38.304 57.5437 38.4221 57.0337 38.6581 56.6037C38.8942 56.1737 39.209 55.8437 39.5926 55.6237C39.9763 55.4037 40.3992 55.2937 40.8419 55.2937C41.2845 55.2937 41.7075 55.4037 42.0911 55.6337C42.4748 55.8637 42.7895 56.1937 43.0256 56.6237C43.2617 57.0537 43.3797 57.5737 43.3797 58.1537C43.3797 58.7337 43.2617 59.2637 43.0256 59.6937V59.7137Z"
        fill="white" />
    <path
        d="M59.6787 54.1837C59.1573 53.9037 58.5573 53.7637 57.8982 53.7637C57.2785 53.7637 56.6982 53.9137 56.1572 54.2237C55.6161 54.5237 55.2227 54.9437 54.9669 55.4537C54.6816 54.9037 54.2783 54.4837 53.7472 54.1937C53.216 53.9037 52.6159 53.7637 51.9471 53.7637C51.4454 53.7637 50.9831 53.8637 50.5404 54.0537C50.0978 54.2537 49.7436 54.5237 49.4584 54.8737V53.8937H47.7173V62.4437H49.4584V57.6637C49.4584 56.8937 49.6453 56.3137 50.0289 55.9037C50.4125 55.4937 50.924 55.2937 51.5831 55.2937C52.2422 55.2937 52.7438 55.4937 53.1275 55.9037C53.5012 56.3137 53.6881 56.9037 53.6881 57.6637V62.4437H55.4096V57.6637C55.4096 56.8937 55.5965 56.3137 55.9801 55.9037C56.3637 55.4937 56.8752 55.2937 57.5244 55.2937C58.1737 55.2937 58.6852 55.4937 59.0688 55.9037C59.4426 56.3137 59.6295 56.9037 59.6295 57.6637V62.4437H61.3509V57.4037C61.3509 56.6237 61.2034 55.9637 60.8984 55.4237C60.6033 54.8737 60.1902 54.4637 59.659 54.1837H59.6787Z"
        fill="white" />
    <path
        d="M69.614 54.2937C68.9943 53.9437 68.286 53.7637 67.4991 53.7637C66.7122 53.7637 65.9449 53.9437 65.3055 54.3037C64.676 54.6637 64.1743 55.1837 63.83 55.8437C63.4759 56.5137 63.2988 57.2837 63.2988 58.1637C63.2988 59.0437 63.4759 59.8137 63.8398 60.4837C64.2038 61.1537 64.6956 61.6637 65.335 62.0337C65.9744 62.4037 66.6925 62.5837 67.4991 62.5837C68.4828 62.5837 69.309 62.3337 69.9779 61.8337C70.6468 61.3337 71.1092 60.6937 71.3551 59.9037H69.4763C69.0926 60.7037 68.4237 61.1037 67.4893 61.1037C66.84 61.1037 66.2892 60.8937 65.8367 60.4837C65.394 60.0737 65.1383 59.5237 65.0891 58.8337H71.5125C71.5518 58.5737 71.5715 58.2837 71.5715 57.9637C71.5715 57.1337 71.4042 56.4037 71.0501 55.7737C70.7058 55.1337 70.2238 54.6437 69.6041 54.2937H69.614ZM65.1088 57.4137C65.1875 56.7537 65.4432 56.2237 65.876 55.8437C66.299 55.4537 66.8204 55.2637 67.4204 55.2637C68.0795 55.2637 68.6401 55.4637 69.0828 55.8537C69.5254 56.2437 69.7615 56.7737 69.7714 57.4237H65.1186L65.1088 57.4137Z"
        fill="white" />
    <path
        d="M79.6177 54.1837C79.0964 53.9037 78.4963 53.7637 77.8373 53.7637C77.3356 53.7637 76.8733 53.8637 76.4306 54.0537C75.988 54.2537 75.624 54.5237 75.3387 54.8737V53.8937H73.5977V62.4437H75.3387V57.6637C75.3387 56.8937 75.5256 56.3137 75.9093 55.9037C76.2929 55.4937 76.8044 55.2937 77.4536 55.2937C78.1029 55.2937 78.6144 55.4937 78.998 55.9037C79.3718 56.3137 79.5587 56.9037 79.5587 57.6637V62.4437H81.2801V57.4037C81.2801 56.6237 81.1325 55.9637 80.8374 55.4237C80.5423 54.8737 80.1292 54.4637 79.6079 54.1837H79.6177Z"
        fill="white" />
    <path d="M94.0975 50.9736H92.3564V62.4536H94.0975V50.9736Z" fill="white" />
    <path
        d="M102.419 54.2937C101.8 53.9437 101.091 53.7637 100.295 53.7637C99.4977 53.7637 98.7403 53.9437 98.1009 54.3037C97.4615 54.6637 96.9697 55.1837 96.6254 55.8437C96.2713 56.5137 96.0942 57.2837 96.0942 58.1637C96.0942 59.0437 96.2713 59.8137 96.6353 60.4837C96.9992 61.1537 97.491 61.6637 98.1304 62.0337C98.7698 62.4037 99.4879 62.5837 100.295 62.5837C101.278 62.5837 102.104 62.3337 102.773 61.8337C103.442 61.3337 103.895 60.6937 104.15 59.9037H102.272C101.888 60.7037 101.229 61.1037 100.285 61.1037C99.6354 61.1037 99.0846 60.8937 98.6419 60.4837C98.1895 60.0737 97.9435 59.5237 97.8944 58.8337H104.318C104.357 58.5737 104.377 58.2837 104.377 57.9637C104.377 57.1337 104.2 56.4037 103.855 55.7737C103.511 55.1437 103.029 54.6437 102.409 54.2937H102.419ZM97.914 57.4137C97.9927 56.7537 98.2485 56.2237 98.6813 55.8437C99.1043 55.4537 99.6256 55.2637 100.226 55.2637C100.885 55.2637 101.436 55.4637 101.888 55.8537C102.331 56.2437 102.567 56.7737 102.577 57.4237H97.9239L97.914 57.4137Z"
        fill="white" />
    <path
        d="M108.144 55.1539V53.9139H106.403V62.4639H108.144V57.9639C108.144 57.0939 108.321 56.4839 108.666 56.1339C109.02 55.7839 109.531 55.6039 110.21 55.6039H110.653V53.7739C110.072 53.7739 109.571 53.8939 109.148 54.1339C108.725 54.3739 108.39 54.7139 108.135 55.1539H108.144Z"
        fill="white" />
    <path
        d="M118.305 54.2937C117.686 53.9437 116.977 53.7637 116.181 53.7637C115.384 53.7637 114.626 53.9437 113.997 54.3037C113.358 54.6637 112.866 55.1837 112.512 55.8437C112.157 56.5137 111.99 57.2837 111.99 58.1637C111.99 59.0437 112.167 59.8137 112.531 60.4837C112.895 61.1537 113.387 61.6637 114.026 62.0337C114.666 62.4037 115.384 62.5837 116.19 62.5837C117.174 62.5837 118 62.3337 118.669 61.8337C119.338 61.3337 119.791 60.6937 120.046 59.9037H118.168C117.784 60.7037 117.125 61.1037 116.181 61.1037C115.531 61.1037 114.981 60.8937 114.538 60.4837C114.085 60.0737 113.84 59.5237 113.79 58.8337H120.214C120.253 58.5737 120.273 58.2837 120.273 57.9637C120.273 57.1337 120.096 56.4037 119.751 55.7737C119.407 55.1437 118.925 54.6437 118.305 54.2937ZM113.8 57.4137C113.879 56.7537 114.135 56.2237 114.567 55.8437C114.99 55.4537 115.512 55.2637 116.112 55.2637C116.771 55.2637 117.322 55.4637 117.774 55.8537C118.227 56.2437 118.453 56.7737 118.463 57.4237H113.81L113.8 57.4137Z"
        fill="white" />
    <path
        d="M128.309 54.1837C127.788 53.9037 127.188 53.7637 126.529 53.7637C126.027 53.7637 125.565 53.8637 125.122 54.0537C124.679 54.2537 124.315 54.5237 124.03 54.8737V53.8937H122.289V62.4437H124.03V57.6637C124.03 56.8937 124.217 56.3137 124.601 55.9037C124.984 55.4937 125.496 55.2937 126.145 55.2937C126.794 55.2937 127.306 55.4937 127.689 55.9037C128.063 56.3137 128.25 56.9037 128.25 57.6637V62.4437H129.972V57.4037C129.972 56.6237 129.824 55.9637 129.529 55.4237C129.234 54.8737 128.821 54.4637 128.299 54.1837H128.309Z"
        fill="white" />
    <path d="M142.779 50.9736H141.038V62.4536H142.779V50.9736Z" fill="white" />
    <path
        d="M151.111 54.2937C150.491 53.9437 149.783 53.7637 148.986 53.7637C148.189 53.7637 147.432 53.9437 146.792 54.3037C146.153 54.6637 145.661 55.1837 145.317 55.8437C144.963 56.5137 144.786 57.2837 144.786 58.1637C144.786 59.0437 144.963 59.8137 145.327 60.4837C145.691 61.1537 146.182 61.6637 146.822 62.0337C147.461 62.4037 148.179 62.5837 148.986 62.5837C149.97 62.5837 150.796 62.3337 151.465 61.8337C152.134 61.3337 152.596 60.6937 152.842 59.9037H150.963C150.579 60.7037 149.911 61.1037 148.976 61.1037C148.327 61.1037 147.776 60.8937 147.324 60.4837C146.881 60.0737 146.625 59.5237 146.576 58.8337H152.999C153.039 58.5737 153.058 58.2837 153.058 57.9637C153.058 57.1337 152.891 56.4037 152.537 55.7737C152.193 55.1337 151.711 54.6437 151.091 54.2937H151.111ZM146.605 57.4137C146.684 56.7537 146.94 56.2237 147.373 55.8437C147.796 55.4537 148.317 55.2637 148.917 55.2637C149.576 55.2637 150.137 55.4637 150.579 55.8537C151.022 56.2437 151.258 56.7737 151.268 57.4237H146.615L146.605 57.4137Z"
        fill="white" />
    <path
        d="M158.341 60.8738L155.96 53.9038H154.101L157.288 62.4538H159.364L162.57 53.9038H160.721L158.341 60.8738Z"
        fill="white" />
    <path
        d="M169.918 54.2937C169.299 53.9437 168.59 53.7637 167.794 53.7637C166.997 53.7637 166.239 53.9437 165.6 54.3037C164.961 54.6637 164.469 55.1837 164.124 55.8437C163.77 56.5137 163.593 57.2837 163.593 58.1637C163.593 59.0437 163.77 59.8137 164.134 60.4837C164.498 61.1537 164.99 61.6637 165.629 62.0337C166.269 62.4037 166.987 62.5837 167.794 62.5837C168.777 62.5837 169.603 62.3337 170.272 61.8337C170.941 61.3337 171.404 60.6937 171.65 59.9037H169.771C169.387 60.7037 168.718 61.1037 167.784 61.1037C167.134 61.1037 166.584 60.8937 166.131 60.4837C165.688 60.0737 165.433 59.5237 165.384 58.8337H171.807C171.846 58.5737 171.866 58.2837 171.866 57.9637C171.866 57.1337 171.699 56.4037 171.345 55.7737C171 55.1337 170.518 54.6437 169.899 54.2937H169.918ZM165.413 57.4137C165.492 56.7537 165.748 56.2237 166.18 55.8437C166.603 55.4537 167.125 55.2637 167.725 55.2637C168.384 55.2637 168.944 55.4637 169.387 55.8537C169.83 56.2437 170.066 56.7737 170.076 57.4237H165.423L165.413 57.4137Z"
        fill="white" />
    <path
        d="M179.922 54.1837C179.401 53.9037 178.801 53.7637 178.142 53.7637C177.64 53.7637 177.178 53.8637 176.735 54.0537C176.293 54.2537 175.929 54.5237 175.643 54.8737V53.8937H173.902V62.4437H175.643V57.6637C175.643 56.8937 175.84 56.3137 176.214 55.9037C176.598 55.4937 177.109 55.2937 177.758 55.2937C178.408 55.2937 178.919 55.4937 179.303 55.9037C179.676 56.3137 179.863 56.9037 179.863 57.6637V62.4437H181.585V57.4037C181.585 56.6237 181.437 55.9637 181.142 55.4237C180.847 54.8737 180.434 54.4637 179.913 54.1837H179.922Z"
        fill="white" />
    <script xmlns="" />
</svg>