<svg xmlns="http://www.w3.org/2000/svg" width="305.038" height="90.265" viewBox="0 0 305.038 90.265"><g transform="translate(0.1 0.044)"><g transform="translate(0.139 -0.044)"><g transform="translate(49.89)"><g transform="translate(0 17.715)"><g transform="translate(0.52)"><path d="M126.4,44.2h4.324q13.753,1.5,14.574,14.294-.841,12.792-14.574,14.294H126.4Zm5.645,23.983c5.645-1.121,8.608-4.324,8.849-9.689-.24-5.325-3.2-8.568-8.849-9.689h-1.361V68.183Z" transform="translate(-126.4 -44.2)" fill="#006a32"/><path d="M183.2,44.2h4.284V72.628H183.2Z" transform="translate(-160.458 -44.2)" fill="#006a32"/><path d="M203.5,44.7h13.093v4.324h-8.768v7.687h8.768V61h-8.768v7.687h8.768v4.284H203.5Z" transform="translate(-172.63 -44.5)" fill="#006a32"/><path d="M245.9,44.2h4.324a9.863,9.863,0,0,1,8.809,5.125,9.427,9.427,0,0,1,1.241,4.965c0,3.884-1.361,6.727-4.084,8.568l5.245,9.809h-4.6l-4.284-8.048a7.406,7.406,0,0,1-2.322.08v7.968H245.9V44.2Zm4.324,4V60.456a6.408,6.408,0,0,0,3.4-.881,5.791,5.791,0,0,0,2.923-5.165,5.627,5.627,0,0,0-.8-3.083A5.954,5.954,0,0,0,250.224,48.2Z" transform="translate(-198.054 -44.2)" fill="#006a32"/><path d="M294.3,44.7h13.093v4.324h-8.769v7.687h8.769V61h-8.769v7.687h8.769v4.284H294.3Z" transform="translate(-227.075 -44.5)" fill="#006a32"/><path d="M336.6,44.28h3.964L349.813,61.3V44.2H354.1V72.628l-3.163.04-10.01-17.577V72.668H336.6V44.28Z" transform="translate(-252.438 -44.2)" fill="#006a32"/><path d="M390,44.2h4.324a9.863,9.863,0,0,1,8.808,5.125,9.427,9.427,0,0,1,1.241,4.965c0,3.6-1,6.246-3.043,7.848a11.129,11.129,0,0,1-7.007,2.522v7.968H390Zm4.324,4V60.456a6.408,6.408,0,0,0,3.4-.881,5.791,5.791,0,0,0,2.923-5.165,5.627,5.627,0,0,0-.8-3.083A5.954,5.954,0,0,0,394.324,48.2Z" transform="translate(-284.458 -44.2)" fill="#006a32"/><path d="M464.508,58.454a13.532,13.532,0,0,1-1.161,5.525,14.291,14.291,0,0,1-3.123,4.524,15.121,15.121,0,0,1-4.6,3.043,14.876,14.876,0,0,1-11.331,0,15.122,15.122,0,0,1-4.6-3.043,13.856,13.856,0,0,1-3.123-4.524,13.532,13.532,0,0,1-1.161-5.525,13.217,13.217,0,0,1,1.161-5.565,13.856,13.856,0,0,1,3.123-4.524,15.122,15.122,0,0,1,4.6-3.043,14.876,14.876,0,0,1,11.331,0,15.121,15.121,0,0,1,4.6,3.043,14.291,14.291,0,0,1,3.123,4.524A13.217,13.217,0,0,1,464.508,58.454Zm-24.424,0a9.548,9.548,0,0,0,.761,3.844A9.712,9.712,0,0,0,446.13,67.5a10.091,10.091,0,0,0,7.687,0,9.922,9.922,0,0,0,3.123-2.082,10.029,10.029,0,0,0,2.122-3.123,10.091,10.091,0,0,0,0-7.687,9.392,9.392,0,0,0-2.122-3.123,9.288,9.288,0,0,0-3.123-2.082,10.091,10.091,0,0,0-7.687,0,9.876,9.876,0,0,0-3.163,2.082,10.029,10.029,0,0,0-2.122,3.123A10.278,10.278,0,0,0,440.085,58.454Z" transform="translate(-311.68 -44.2)" fill="#006a32"/><path d="M517.7,44.7h4.324V68.683h9.809v4.284H517.7Z" transform="translate(-361.028 -44.5)" fill="#006a32"/><path d="M562.6,44.2h4.284V72.628H562.6Z" transform="translate(-387.951 -44.2)" fill="#006a32"/></g><g transform="translate(0 36.115)"><path d="M134.349,145.331a4.179,4.179,0,0,1-.4,1.882,3.679,3.679,0,0,1-1.081,1.4,3.852,3.852,0,0,1-1.6.841,6.371,6.371,0,0,1-2,.28,7.938,7.938,0,0,1-1.4-.12,8.074,8.074,0,0,1-1.161-.32,4.1,4.1,0,0,1-.841-.4,1.932,1.932,0,0,1-.48-.32.774.774,0,0,1-.2-.36,2.087,2.087,0,0,1-.08-.561,1.5,1.5,0,0,1,.04-.44.579.579,0,0,1,.08-.28.553.553,0,0,1,.12-.16.241.241,0,0,1,.16-.04,1,1,0,0,1,.44.2c.2.12.44.28.761.44a10.97,10.97,0,0,0,1.121.44,5.607,5.607,0,0,0,1.521.2,3.794,3.794,0,0,0,1.2-.16,2.858,2.858,0,0,0,.921-.48,2.8,2.8,0,0,0,.6-.761,2.836,2.836,0,0,0,.2-1.041,1.812,1.812,0,0,0-.28-1.081,3.563,3.563,0,0,0-.761-.8,7,7,0,0,0-1.081-.641c-.4-.2-.8-.36-1.241-.561a12.069,12.069,0,0,1-1.241-.641,5.585,5.585,0,0,1-1.081-.841,4.265,4.265,0,0,1-.761-1.121,3.753,3.753,0,0,1-.28-1.562,3.836,3.836,0,0,1,.36-1.682,3.781,3.781,0,0,1,2.4-2,6.532,6.532,0,0,1,1.8-.24,8.426,8.426,0,0,1,1,.08,4.224,4.224,0,0,1,.961.24,4.773,4.773,0,0,1,.8.32c.24.12.4.2.44.28l.16.16c.04.04.04.08.04.16s.04.16.04.24v.721c0,.12-.04.2-.04.28-.04.08-.04.12-.08.16s-.08.04-.16.04a.873.873,0,0,1-.4-.16,3.491,3.491,0,0,0-.681-.36c-.28-.12-.561-.24-.921-.36a3.794,3.794,0,0,0-1.2-.16,3.068,3.068,0,0,0-1.081.16,2.719,2.719,0,0,0-.761.44,1.544,1.544,0,0,0-.44.681,2.589,2.589,0,0,0-.16.8,1.983,1.983,0,0,0,.28,1.081,3.563,3.563,0,0,0,.761.8,7,7,0,0,0,1.081.641c.4.2.841.4,1.241.6a12.069,12.069,0,0,1,1.241.641,5.586,5.586,0,0,1,1.081.841,3.7,3.7,0,0,1,.761,1.121A3.155,3.155,0,0,1,134.349,145.331Z" transform="translate(-125.1 -134.4)" fill="#006a32"/><path d="M183.632,149.014a.871.871,0,0,1,.08.4.338.338,0,0,1-.08.24,1.356,1.356,0,0,1-.32.12c-.16,0-.32.04-.561.04h-.561c-.16,0-.24-.04-.32-.04a.553.553,0,0,1-.16-.12.3.3,0,0,1-.08-.16l-1.281-3.6h-6.206l-1.241,3.563c-.04.08-.04.12-.08.16a.553.553,0,0,1-.16.12,1.813,1.813,0,0,1-.32.08c-.12,0-.32.04-.52.04a2.291,2.291,0,0,1-.561-.04c-.16,0-.24-.04-.28-.12a.339.339,0,0,1-.08-.24,1.763,1.763,0,0,1,.08-.4l5-13.853a.481.481,0,0,1,.32-.32,2.551,2.551,0,0,1,.36-.08h1.161a1.185,1.185,0,0,1,.4.08,1.335,1.335,0,0,1,.24.12.876.876,0,0,1,.12.2ZM177.226,136.8h0l-2.6,7.447h5.205Z" transform="translate(-152.562 -134.64)" fill="#006a32"/><path d="M238.129,139.264a5.249,5.249,0,0,1-.36,2,4.121,4.121,0,0,1-1.041,1.521,3.872,3.872,0,0,1-1.682.961,6.978,6.978,0,0,1-2.362.36H231v5.365c0,.08,0,.12-.04.16a.553.553,0,0,1-.16.12,1.819,1.819,0,0,1-.32.08c-.12,0-.28.04-.48.04a1.65,1.65,0,0,1-.48-.04.755.755,0,0,1-.32-.08.553.553,0,0,1-.16-.12c-.04-.04-.04-.08-.04-.16V135.741a.737.737,0,0,1,.24-.641.957.957,0,0,1,.561-.2H233a6.789,6.789,0,0,1,.921.04c.28.04.641.08,1.041.16a4.391,4.391,0,0,1,1.241.48,4.539,4.539,0,0,1,1.081.881,4.125,4.125,0,0,1,.681,1.241A9.357,9.357,0,0,1,238.129,139.264Zm-2.082.16a3.425,3.425,0,0,0-.32-1.521,2.7,2.7,0,0,0-.841-.921,2.49,2.49,0,0,0-1.041-.36,9.857,9.857,0,0,0-1.041-.08h-1.842v5.966h1.8a3.956,3.956,0,0,0,1.481-.24,2.867,2.867,0,0,0,1-.641,2.434,2.434,0,0,0,.6-.961A4.239,4.239,0,0,0,236.047,139.424Z" transform="translate(-187.4 -134.7)" fill="#006a32"/><path d="M288.629,139.264a5.249,5.249,0,0,1-.36,2,4.121,4.121,0,0,1-1.041,1.521,3.872,3.872,0,0,1-1.682.961,6.979,6.979,0,0,1-2.362.36H281.5v5.365c0,.08,0,.12-.04.16a.553.553,0,0,1-.16.12,1.82,1.82,0,0,1-.32.08c-.12,0-.28.04-.48.04a1.65,1.65,0,0,1-.48-.04.754.754,0,0,1-.32-.08.552.552,0,0,1-.16-.12c-.04-.04-.04-.08-.04-.16V135.741a.737.737,0,0,1,.24-.641.957.957,0,0,1,.561-.2h3.2a6.789,6.789,0,0,1,.921.04c.28.04.641.08,1.041.16a4.391,4.391,0,0,1,1.241.48,4.538,4.538,0,0,1,1.081.881,4.125,4.125,0,0,1,.681,1.241A9.361,9.361,0,0,1,288.629,139.264Zm-2.122.16a2.951,2.951,0,0,0-.36-1.521,2.7,2.7,0,0,0-.841-.921,2.49,2.49,0,0,0-1.041-.36,9.859,9.859,0,0,0-1.041-.08h-1.842v5.966h1.8a3.956,3.956,0,0,0,1.481-.24,2.867,2.867,0,0,0,1-.641,2.434,2.434,0,0,0,.6-.961A2.648,2.648,0,0,0,286.507,139.424Z" transform="translate(-217.68 -134.7)" fill="#006a32"/><path d="M338.188,148.994a1.108,1.108,0,0,1-.04.36.338.338,0,0,1-.08.24.554.554,0,0,1-.12.16.241.241,0,0,1-.16.04h-7.167a.7.7,0,0,1-.48-.16.737.737,0,0,1-.24-.641V135.7a.788.788,0,0,1,.24-.641.8.8,0,0,1,.521-.16h7.087c.08,0,.12,0,.16.04a.552.552,0,0,1,.12.16c.04.08.04.16.08.24,0,.12.04.24.04.4a1.108,1.108,0,0,1-.04.36.338.338,0,0,1-.08.24.553.553,0,0,1-.12.16.241.241,0,0,1-.16.04H331.9v4.685h5c.08,0,.12,0,.16.04a.554.554,0,0,1,.12.16c.04.08.04.16.08.24,0,.12.04.24.04.36a1.108,1.108,0,0,1-.04.36.43.43,0,0,1-.08.24q-.06.12-.12.12a.241.241,0,0,1-.16.04h-5v5.365h5.926c.08,0,.12,0,.16.04a.553.553,0,0,1,.12.16.569.569,0,0,1,.08.24A1.335,1.335,0,0,0,338.188,148.994Z" transform="translate(-247.901 -134.7)" fill="#006a32"/><path d="M394.876,149.354c0,.08,0,.12-.04.16a.552.552,0,0,1-.16.12c-.08.04-.2.04-.32.08-.12,0-.28.04-.48.04a1.651,1.651,0,0,1-.481-.04.754.754,0,0,1-.32-.08.553.553,0,0,1-.16-.12c-.04-.04-.04-.08-.04-.16V136.382h-.04l-5.205,13.053c-.04.04-.04.12-.08.12a.306.306,0,0,1-.2.08.594.594,0,0,1-.28.04h-.4a1.235,1.235,0,0,1-.4-.04.579.579,0,0,1-.28-.08c-.08-.04-.12-.08-.2-.08-.04-.04-.08-.08-.08-.12l-5-13.053h0v12.973c0,.08,0,.12-.04.16a.552.552,0,0,1-.16.12c-.08.04-.2.04-.32.08-.12,0-.28.04-.48.04a1.65,1.65,0,0,1-.48-.04.755.755,0,0,1-.32-.08.554.554,0,0,1-.16-.12c-.04-.04-.04-.08-.04-.16V135.581a.825.825,0,0,1,.24-.681.957.957,0,0,1,.561-.2h1.2a2.785,2.785,0,0,1,.641.08,1.336,1.336,0,0,1,.48.2c.16.08.24.24.36.4a3.906,3.906,0,0,1,.24.561l4.244,10.81h.04l4.444-10.77a2.094,2.094,0,0,1,.28-.6,3.5,3.5,0,0,1,.32-.4,1.254,1.254,0,0,1,.4-.2,2.028,2.028,0,0,1,.521-.08h1.281a.78.78,0,0,1,.32.04.645.645,0,0,1,.28.16,1.7,1.7,0,0,1,.2.28,1.186,1.186,0,0,1,.08.4v13.773Z" transform="translate(-277.162 -134.58)" fill="#006a32"/><path d="M457.228,148.994a1.11,1.11,0,0,1-.04.36.338.338,0,0,1-.08.24.554.554,0,0,1-.12.16.241.241,0,0,1-.16.04h-7.167a.881.881,0,0,1-.521-.16.737.737,0,0,1-.24-.641V135.7a.788.788,0,0,1,.24-.641.8.8,0,0,1,.521-.16h7.087c.08,0,.12,0,.16.04a.552.552,0,0,1,.12.16c.04.08.04.16.08.24,0,.12.04.24.04.4a1.108,1.108,0,0,1-.04.36.339.339,0,0,1-.08.24.554.554,0,0,1-.12.16.241.241,0,0,1-.16.04h-5.806v4.685h5c.08,0,.12,0,.16.04a.555.555,0,0,1,.12.16c.04.08.04.16.08.24,0,.12.04.24.04.36a1.11,1.11,0,0,1-.04.36.429.429,0,0,1-.08.24q-.06.12-.12.12a.241.241,0,0,1-.16.04h-5v5.365h5.926c.08,0,.12,0,.16.04a.554.554,0,0,1,.12.16.569.569,0,0,1,.08.24Z" transform="translate(-319.254 -134.7)" fill="#006a32"/><path d="M506.088,148.994a1.108,1.108,0,0,1-.04.36.338.338,0,0,1-.08.24.553.553,0,0,1-.12.16.241.241,0,0,1-.16.04h-7.167a.7.7,0,0,1-.481-.16.737.737,0,0,1-.24-.641V135.7a.788.788,0,0,1,.24-.641.8.8,0,0,1,.521-.16h7.087c.08,0,.12,0,.16.04a.551.551,0,0,1,.12.16c.04.08.04.16.08.24,0,.12.04.24.04.4a1.108,1.108,0,0,1-.04.36.339.339,0,0,1-.08.24.552.552,0,0,1-.12.16.24.24,0,0,1-.16.04H499.8v4.685h5c.08,0,.12,0,.16.04a.553.553,0,0,1,.12.16c.04.08.04.16.08.24,0,.12.04.24.04.36a1.107,1.107,0,0,1-.04.36.43.43,0,0,1-.08.24q-.06.12-.12.12a.241.241,0,0,1-.16.04h-5v5.365h5.926c.08,0,.12,0,.16.04a.553.553,0,0,1,.12.16.569.569,0,0,1,.08.24Z" transform="translate(-348.575 -134.7)" fill="#006a32"/><path d="M556.53,149.354c0,.08,0,.12-.04.16a.551.551,0,0,1-.16.12c-.08.04-.2.04-.32.08-.12,0-.32.04-.561.04a1.651,1.651,0,0,1-.48-.04.755.755,0,0,1-.32-.08.313.313,0,0,1-.16-.16,1.333,1.333,0,0,1-.12-.24l-1.361-3.523a9.594,9.594,0,0,0-.521-1.121,3.425,3.425,0,0,0-.6-.881,2.385,2.385,0,0,0-.841-.561,3.348,3.348,0,0,0-1.161-.2h-1.321v6.366c0,.08,0,.12-.04.16a.552.552,0,0,1-.16.12,2.556,2.556,0,0,1-.28.08c-.12,0-.28.04-.481.04a1.648,1.648,0,0,1-.48-.04.755.755,0,0,1-.32-.08.551.551,0,0,1-.16-.12c-.04-.04-.04-.08-.04-.16V135.5a.788.788,0,0,1,.24-.641.8.8,0,0,1,.521-.16h3.163a6.213,6.213,0,0,1,.921.04,3.528,3.528,0,0,1,.681.08,4.523,4.523,0,0,1,1.521.48,3.8,3.8,0,0,1,1.121.8,4,4,0,0,1,.681,1.121,3.962,3.962,0,0,1,.24,1.4,4.86,4.86,0,0,1-.2,1.361,2.459,2.459,0,0,1-.6,1.041,3.589,3.589,0,0,1-.921.8,5.52,5.52,0,0,1-1.2.561,3.8,3.8,0,0,1,.681.4,2.7,2.7,0,0,1,.561.6,7.069,7.069,0,0,1,.48.8c.16.28.32.641.48,1l1.321,3.283a5.038,5.038,0,0,1,.2.6A1.055,1.055,0,0,1,556.53,149.354Zm-2.963-10.45a2.484,2.484,0,0,0-.4-1.481,2.213,2.213,0,0,0-1.321-.881c-.2-.04-.4-.08-.641-.12a6.514,6.514,0,0,0-.961-.04h-1.682v5h1.922a4.64,4.64,0,0,0,1.361-.2,3.687,3.687,0,0,0,.961-.521,2.235,2.235,0,0,0,.56-.8A2.419,2.419,0,0,0,553.567,138.9Z" transform="translate(-377.837 -134.58)" fill="#006a32"/></g></g><g transform="translate(185.04 14.874)"><g transform="translate(0)"><g transform="translate(12.672)"><path d="M647.14,65.2c.08-.4.04.16.12.12.32,1.4,1.522,2.723,3.043,2.082,2.042-.841,3.083-3.924,2.723-6.606,1.361,3.123-1.8,9.049-4.724,6.727a4.607,4.607,0,0,1-1.2-2.282C647.14,65.244,647.14,65.244,647.14,65.2Z" transform="translate(-635.809 -51.312)" fill="#fff" fill-rule="evenodd"/><path d="M664.7,56.481c1.642,7.567,2.242,17.016,3.043,25.5a16.344,16.344,0,0,1,.28,3.563,4.8,4.8,0,0,1-2.082,2.362,4.548,4.548,0,0,1-2.723.2c1.361-6.727.16-14.614-3.884-17.937-.521,4.284-.16,11.131-2.482,14.454a4.287,4.287,0,0,1-5.846.961c-.16-3.243,3.083-3.283,3.8-5.405,1.361-4-2.843-6.406-3.283-10.01a40.544,40.544,0,0,1-8.288,3.764c-.28,6.046,2.082,16.576-5.365,17.1.24-2.763.881-5.846.961-8.608.12-3.323-.16-6.246-2-7.848-1.281,5.045,1.521,17.217-5.766,15.015,2.643-4.765,1.241-11.211-.4-15.855-1.682-4.765-3.8-9.85-3.483-15.7a3.7,3.7,0,0,0-1.121-.761c-1.4.761-5.165.841-4.164-1.6a5.381,5.381,0,0,1-3-2.923c.2-1.121,1.2-1.842,1.882-2.643,1.682-2,3.083-5.525,5.565-6.967.44-.24,1.241-.48,1.882-.761a6.786,6.786,0,0,1,8.769,3.2c.16.921.641,2.8.08,3.884a9.59,9.59,0,0,0,2.843,3.764,13.129,13.129,0,0,0,4.645,1.962c6.887,1.962,15.455.48,21.14-2.643,2.723-1.481,5.485-3.8,6.606-6.526s.16-6.086-1.722-7.447c.16-.44-.561-.881-.28-1.441,1.562-.32,3,1.441,3.8,2.482a8.163,8.163,0,0,1,1.962,4.244c.28,3.523-2.122,5.886-4.244,7.768A35.094,35.094,0,0,1,664.7,56.481Zm-34.473-5.405a3.805,3.805,0,0,0,1.2,2.282c2.923,2.282,6.086-3.644,4.724-6.727.36,2.683-.681,5.766-2.723,6.606-1.562.641-2.763-.681-3.043-2.082-.12,0-.08-.521-.12-.12C630.231,51.036,630.231,51.036,630.231,51.076Z" transform="translate(-618.9 -37.104)" fill="#95c11f" fill-rule="evenodd"/></g><g transform="translate(0 17.676)"><path d="M615.727,99.794c-.16,1-1.441,1.6-2.843,1.361l-20.82-3.724c-1.4-.24-2.4-1.241-2.2-2.242l1.4-7.808c.16-1,1.441-1.6,2.843-1.361l20.82,3.724c1.4.24,2.4,1.241,2.2,2.242Z" transform="translate(-588.802 -84.08)" fill="#e5004b" fill-rule="evenodd"/><rect width="12.052" height="26.305" transform="matrix(0.175, -0.985, 0.985, 0.175, 0, 17.041)" fill="#e5004b"/><path d="M623.633,86.6c-.12.641-1.161.961-2.362.761l-5.725-1.041c-1.2-.2-2.082-.881-1.962-1.521l.481-2.723c.12-.641,1.161-.961,2.362-.761l5.726,1.041c1.2.2,2.082.881,1.962,1.521Z" transform="translate(-603.034 -81.252)" fill="none" stroke="#e5004b" stroke-width="4.435" fill-rule="evenodd"/></g><g transform="translate(10.555 25.496)"><rect width="2.522" height="7.207" transform="translate(0 4.397) rotate(-79.909)" fill="#fff"/><rect width="7.207" height="2.522" transform="translate(1.892 7.095) rotate(-79.909)" fill="#fff"/></g></g></g><path d="M468.963,56.283a4.65,4.65,0,0,1,.48,2.162,6.874,6.874,0,0,1-.2,1.041.306.306,0,0,0-.08.2,1.2,1.2,0,0,0-.16.4v.04c-.08,0-.04.16-.12.12.04-.24.08-.521.12-.761.16-.48-.12-.641-.04-1.081a4.431,4.431,0,0,0-.28-1.041A4.941,4.941,0,0,0,467.8,56.2c-.16-.12-.24-.32-.44-.36-.04-.08-.16-.12-.28-.16-.16-.08-.32-.16-.521-.24-.04-.12-.16-.16-.32-.2a2.242,2.242,0,0,0-1.6-.16.6.6,0,0,0-.56.44c-.08.04-.08.16-.08.28a3.8,3.8,0,0,0,.04,1.361,3.071,3.071,0,0,0,.32,1.121c-.08.12.04.16,0,.24a2.335,2.335,0,0,0,.36.921.984.984,0,0,0,.2.6v.04a3.854,3.854,0,0,0,.28.721,1.543,1.543,0,0,0,.24.721c0,.2.16.32.16.521.24.561.36,1.2.6,1.722a.711.711,0,0,0,.16.4,13.549,13.549,0,0,1,.44,2.282c0,.24.16.36.04.681a5.449,5.449,0,0,1-.36,1.682c0,.32-.16.44-.2.681a.547.547,0,0,0,.2.921,3,3,0,0,1,.961.761,3.378,3.378,0,0,0,.2.681c.12.12-.04.44.08.561-.04.6-.2,1.321.32,1.521,0,.16.24.2.24.36-.08,0-.24-.16-.32-.04-.08.04-.04.08-.04.16,0,.28.44.52.4.721-.32-.12-.48-.6-.841-.6-.08.04-.32.16-.2.28-.04.16,0,.44-.12.48-.2-.36-.12-.961-.721-1.081-.2,0-.32.28-.521.08a.664.664,0,0,0,.04-.8c.12-.16.4-.12.521-.32v-.04c.12.04.04-.16.08-.24.08-.08.16-.521.08-.6v-.04a.991.991,0,0,0-.4-.641c-.08,0-.08-.08-.16-.08-.04-.12-.12-.16-.28-.2a8.554,8.554,0,0,0-.36,1.081c-.08.2-.16.44-.24.641a2.8,2.8,0,0,0-.52.641v.04a1.885,1.885,0,0,0-.6.521,4.724,4.724,0,0,1-1.281,1.081c-.24.12-.44.28-.681.4a.712.712,0,0,0-.4.16,18.231,18.231,0,0,1-2.643.4c-.36-.08-.44.08-.761-.08,0,.12-.12.12-.24.12a.6.6,0,0,1-.32-.16.612.612,0,0,1-.4.16c-.08,0-.12-.04-.2-.04a14.369,14.369,0,0,1-3.043-.44c-.04.521.48.961.08,1.441v.04a2.727,2.727,0,0,1-1.922,1.521c-.16,0-.24.08-.36.08v-.12c.04-.2-.2-.24-.4-.28-.16-.12-.32,0-.4-.16a.255.255,0,0,1,.24,0,.329.329,0,0,0,.28-.04c.561-.08-.2-.44.04-.641.24-.08.4.12.521.28.16.08.24.2.48.24.24-.32.48-.681.721-1v-.04c.08-.04.12-.12.16-.28a2.249,2.249,0,0,0-.561-1c-.16,0-.08-.12-.2-.12,0-.12-.24-.04-.36-.12a3.215,3.215,0,0,0-1.4-.44c-.28-.12-.44-.04-.8-.12a3.794,3.794,0,0,0-.8-.24c-.32-.08-.681-.4-1.041-.32a1.109,1.109,0,0,0-.36-.04c-.16-.2-.521-.24-.761-.36a4.669,4.669,0,0,1-1.161-.681c-.12-.08-.2-.2-.36-.2a2.224,2.224,0,0,1-.841-1.481V71.7c.12-.04.08-.32.16-.4.4-.2,1.241-.08,1.161-.761.08-.44.48-.44.8-.521.12,0,.12.04.2.08.16.12.24.32.44.44.721,0,1.441.4,1.8-.08v-.12c-.12-.24-.721-.32-.561-.6.28.08.521.32.841.24.08-.16-.24-.32-.04-.4h.04a1.527,1.527,0,0,0,.56.44.641.641,0,0,0,.44.16l.841.12c.44.2,1.161.16,1.361.561a.455.455,0,0,0,.12.32c.08.12,0,.36.08.48v.04c-.04.16.08.2.12.32.12,0,.2.04.28.04.16,0,.12.12.28.08.721.04,1.481.521,2,.32.2-.04.48.04.641-.04.08-.08.28-.04.36-.08a1.1,1.1,0,0,0,.521-.08,9.677,9.677,0,0,0,1.922-.52c.16-.12.44-.16.561-.32a2.529,2.529,0,0,0,1.241-1,7.5,7.5,0,0,1,1.281-1.241v-.04c.12,0,.12-.12.12-.24a1.383,1.383,0,0,0-.36-.32c-.44-.36-.961-.961-1.682-.681h-.04c-.32,0-.681.24-.561.641,0,.08-.04.2,0,.2,0,.08,0,.16-.08.16-.16,0-.08-.16-.28-.16,0,.08-.16.04-.12.2h-.04c-.04.12.04.4-.16.32-.12-.16-.08-.44-.2-.6-.12,0-.32-.12-.36,0-.28-.08-.36.04-.521.12a.241.241,0,0,1-.16-.04c.04-.2.24-.16.32-.32a.278.278,0,0,0-.12-.521c-.16-.08-.2.04-.36,0-.08-.04-.32,0-.28-.08.04-.16.36.04.44-.12h.04c.2.08.48-.36.16-.44h-.12c-.12-.2.2-.2.44-.12a1.152,1.152,0,0,0,.641.12h.04a6.728,6.728,0,0,1,1.281-.36c.08,0,.28.12.32,0l.841.12c.36.16.8.2,1,.48v.04c.24.12.32.36.6.44q.3,0,.36-.36c.12-.04.16-.16.2-.32.08,0,.08-.12.08-.2a.682.682,0,0,0,.08-.561c0-.12.12-.36,0-.4a5.743,5.743,0,0,0-.16-.881,6.03,6.03,0,0,0-.24-1.481c-.04-.24-.16-.4-.2-.6,0-.12-.04-.2-.04-.32a2.631,2.631,0,0,0-.16-.6,1.419,1.419,0,0,0-.12-.44c-.08-.48-.28-.881-.4-1.361v-.04a8.377,8.377,0,0,1-.32-1.441c-.12-.08.08-.36-.04-.4-.04-.16.04-.4-.04-.521a10.131,10.131,0,0,1,0-1.562c.04-.2.04-.36.08-.561a.3.3,0,0,1,.04-.16h.04a5.045,5.045,0,0,1,.48-1.161h.04c.24-.44.761-.561,1.121-.841.08,0,.08-.08.16-.08.16.04.28.04.36-.04a.441.441,0,0,0,.4-.04c.12,0,.36.12.4,0a3.963,3.963,0,0,1,1.041.32.306.306,0,0,0,.2.08v.04a4.436,4.436,0,0,1,.761.36c.12.08.16.16.32.2v.04a5.383,5.383,0,0,1,.561.44C468.523,55.482,468.683,55.962,468.963,56.283Zm-22.3,16.176c1.081.6.681-1.241-.08-.36C446.5,72.3,446.542,72.418,446.662,72.458Z" transform="translate(-316.856 -32.121)" fill="#95c11f" fill-rule="evenodd"/><path d="M542.336,1.215a1.465,1.465,0,0,1,.641-1.081c1.722-.761,1.8,1.081,2,2.442.28,1.6,1.562,2.843,1.8,4.8.44,3.684-1.441,5.485-3.4,6.286a13.635,13.635,0,0,0-.761,3.844,22.16,22.16,0,0,1,2.963.2c-.8.24-1.441-.28-2.562.12,1-.08,1.682.16,2.643.12-.08.24-.6.04-.841.12-.6.08-1.481-.16-1.922.12a9.451,9.451,0,0,1,2.322.521c-1.842,0-2.923-.761-4.8-.761.08.4-.12.521-.12.841a5.924,5.924,0,0,1,1.722.12H543.1c.16,0,.4.04.2.12a13.1,13.1,0,0,0-2.562.12,6.385,6.385,0,0,1,1.8.12h.961c-.08.24-.6.04-.841.12-.6.08-1.481-.16-1.922.12a11.264,11.264,0,0,1,2.362.521c-2-.04-3.323-.761-5.325-.841a11.24,11.24,0,0,1,2.122-.32,27.131,27.131,0,0,0,.521-4.484,22.907,22.907,0,0,0-5.766,1.722c-1.842.8-4,2.843-6.166,2.322.881-.521,2.242-1.081,2.643-1.682-1.642.44-3.6,2.442-5.325,1.481,7.287-3.644,14.494-7.167,16.216-16.176-.761-.08-1.6.32-2.242,0A12.024,12.024,0,0,1,542.336,1.215Zm1.281-.2c-.12.32-.04.36.12.641.28,0,.44-.2.44-.521A.662.662,0,0,0,543.617,1.014Zm-5.405,12.973c3.724.521,3.323-3.243,4.564-5.645.6-1.121,2.643-3.243,3.523-1.081.721-2.282-2.4-1.281-3.2-.2C541.535,9.222,541.295,13.907,538.212,13.987Zm3.4-5.405c-2.122,3.243-4.885,5.846-9.369,6.686C536.61,14.708,540.414,12.666,541.615,8.582Zm1.041,5.285c-.4.12-.881.16-1.281.32a15.2,15.2,0,0,0-.761,3.523,6.486,6.486,0,0,1,1.6-.2A33.629,33.629,0,0,0,542.656,13.867Z" transform="translate(-365.365 0.044)" fill="#95c11f" fill-rule="evenodd"/></g><path d="M41.3,45.5c2.643,1.682,3.844,5.245,4.084,9.409.16,2.963-.04,6.206.44,9.129.16,1,.48,1.882.561,2.8a15.525,15.525,0,0,1-.681,6.006,9.6,9.6,0,0,1-.641,1.081,22.636,22.636,0,0,0-1.481,5.445c-.961,5.045-.6,10.69,1.6,14.334.36.6,1.321,1.562,1.281,2.162-.08,1.441-2.843,1.562-3.844.761.521-2.282-.681-4.284-1.2-5.966a25.985,25.985,0,0,0-1.562-5c-.24-.48-.6-1.2-.921-1.2-.6,0-.681,1.2-.681,1.882a17.982,17.982,0,0,0,2.362,9.449c.2.32.521.6.561.961a2.81,2.81,0,0,1-3.043.36,5.169,5.169,0,0,1-.921-1.081,11.792,11.792,0,0,1-1.842-4.2,18.819,18.819,0,0,1-.841-3.443,15.115,15.115,0,0,1,0-3.8c-2.6-.48-4.2,3.483-3.4,5.445.761,1.842,5.045,1,3.884,4.524-1.562.521-2.883-.4-4.524-.761a17,17,0,0,0-3.6-.44c-.521,0-2.082.08-2.162.561-.16.681,1.041.921,1.562,1.241.721.44,1.842,1.241,1.722,2.122-.12.8-.761.961-1.481,1.441-4.4-2.883-10.931-4.044-16.856-5.525-1-.24-1.962-.521-2.923-.8-.921-.28-1.842-.721-2.763-.961-1.161-.32-2.482-.36-2.963-1.441C-.7,83.777,1.94,77.931,7.425,77.131a9.965,9.965,0,0,1,5.525.961c-1.4,2.282-5.205,1.521-7.327,2.883a3.874,3.874,0,0,0-1.882,3.4c.04,2.883,2.683,4.124,5.605,4.4a5.335,5.335,0,0,0,2.883-.561c1.922-13.053,7.007-22.942,20.019-24.9-.641-6.046-1.281-11.531-2.122-17.257.32-.04.641.28.961.44a21.691,21.691,0,0,0,3.483,1.481c2.683.921,7.367,1.722,6.767-2.482C41.3,45.62,41.3,45.58,41.3,45.5Z" transform="translate(-0.497 -27.265)" fill="#95c11f" fill-rule="evenodd"/><path d="M601.3,137.96a5.885,5.885,0,0,1,2.923,1.722c.16.16.32.521.521.6.521.2.761-.881,1.081.04a4.886,4.886,0,0,1-.44,3.884c-.28.48-.721.6-1.2.841-.16.08-1.321.961-.761,1.241,1.041.561,1.4,1.121.52,1.962a11.824,11.824,0,0,0-1,1c-.28.36-.44.921-.921,1.161-.6.32-2.963.561-3.043-.44-.08-.8,1.441-.921,1.722-1.481.561-1.121-.8-2.122-1.8-2-.24.04-.36.2-.561.32a.075.075,0,0,0-.12,0,46.648,46.648,0,0,0-4.725.841c-1.081.28-1.4.881-2.082,1.762-.6.8-.921,1.281-2,1.281-.841,0-1.642-.24-1.241-1.161.36-.8,1.8-.8,2.482-1.441,1.161-1.161.04-1.922-.921-2.683a2.708,2.708,0,0,0-1.482-.8c-.6-.12-1.6.24-2.042-.48a4.653,4.653,0,0,1-.881-.24,1.8,1.8,0,0,0-.24-.48,1.739,1.739,0,0,1,.24-1.081c.08-.16.24-.24.28-.36l.12-.36a2.073,2.073,0,0,1,.761-.881c.04-.04.12-.04.16-.08.16-.08.24-.24.36-.32a6.526,6.526,0,0,1,1.241-.44,1.6,1.6,0,0,0,.521-.16c.28-.24.28-1,.44-1.441.2-.721.6-3,1.521-3.083,1.2-.08.6,3.083.2,3.2.24-.08.24-.36.36-.561a.872.872,0,0,0,.16-.2,2.514,2.514,0,0,1,.44-.48c.4-.28.841-.48,1.281-.761.4-.04.721-.28,1.121-.32.16,1.642-1.682,2.8-2.843,3.684a1.857,1.857,0,0,0-.4.4c-.04.24.16.28.32.4.04.04,0,.08.04.08a.823.823,0,0,0,.721.16c.28-.04.681-.08.921-.12h.36c.24-.04.4-.24.561-.32,0-.08.08-.08.08-.2.2-.04.24-.28.44-.32,0-.08.04-.08.04-.12a12.853,12.853,0,0,1,1.2-.841,23.412,23.412,0,0,1,2.682-.881c.28-.04.561-.04.921-.08A4.671,4.671,0,0,1,601.3,137.96Z" transform="translate(-351.021 -81.048)" fill="#95c11f" fill-rule="evenodd"/></g><g transform="translate(-0.1 77.128)"><path d="M1.7,194.1a14.436,14.436,0,0,1,2.362-.2,4.524,4.524,0,0,1,3.523,1.241,3.586,3.586,0,0,1,.921,2.563,6.131,6.131,0,0,1-1.922,4.564,6.463,6.463,0,0,1-4.364,1.321,19.416,19.416,0,0,1-2.322-.12Zm-.4,8.448c.44.04.881.08,1.241.08a4.5,4.5,0,0,0,3.443-1.281,5.13,5.13,0,0,0,1.321-3.6c0-1.682-.841-2.883-3.2-2.883a12.32,12.32,0,0,0-1.321.08Z" transform="translate(0.1 -193.419)" fill="#575757"/><path d="M27.6,203.369l1.321-6.887h1.2L28.8,203.369Zm2.2-8.168a.7.7,0,0,1-.681-.761.813.813,0,0,1,.8-.841.7.7,0,0,1,.721.761.778.778,0,0,1-.841.841Z" transform="translate(-16.509 -193.24)" fill="#575757"/><path d="M45.585,207.106a5.024,5.024,0,0,1-2.282.561,2.48,2.48,0,0,1-2.6-2.763c0-2.082,1.521-4.4,3.764-4.4a1.756,1.756,0,0,1,2,1.762c0,1.8-2.042,2.282-4.564,2.242a3.218,3.218,0,0,0,.16,1.321,1.5,1.5,0,0,0,1.521.921,3.748,3.748,0,0,0,1.842-.48Zm-.24-4.845c0-.561-.44-.881-1.041-.881a2.628,2.628,0,0,0-2.242,2.162c1.842.04,3.283-.2,3.283-1.281Z" transform="translate(-24.364 -197.377)" fill="#575757"/><path d="M61.4,207.447,62.241,203c.16-.881.28-1.8.36-2.442h1.041a10.073,10.073,0,0,1-.2,1.481h.04A2.422,2.422,0,0,1,65.6,200.4a1.108,1.108,0,0,1,.36.04l-.24,1.161c-.08,0-.2-.04-.32-.04-1,0-1.922,1.241-2.2,2.843l-.561,3.043Z" transform="translate(-36.776 -197.317)" fill="#575757"/><path d="M82.285,207.106a5.024,5.024,0,0,1-2.282.561,2.48,2.48,0,0,1-2.6-2.763c0-2.082,1.562-4.4,3.764-4.4a1.756,1.756,0,0,1,2,1.762c0,1.8-2.042,2.282-4.564,2.242a3.218,3.218,0,0,0,.16,1.321,1.537,1.537,0,0,0,1.521.921,3.626,3.626,0,0,0,1.842-.48Zm-.24-4.845c0-.561-.44-.881-1.041-.881a2.628,2.628,0,0,0-2.242,2.162c1.842.04,3.283-.2,3.283-1.281Z" transform="translate(-46.37 -197.377)" fill="#575757"/><path d="M98.2,207.447l.921-4.885c.16-.761.24-1.441.32-2h1.081l-.2,1.361h.04a3.115,3.115,0,0,1,2.562-1.521,1.693,1.693,0,0,1,1.722,1.922,5.631,5.631,0,0,1-.12,1.121l-.761,4H102.6l.761-3.964a6,6,0,0,0,.08-.881c0-.681-.28-1.2-1.081-1.2-.841,0-2.042,1-2.362,2.723l-.641,3.323Z" transform="translate(-58.842 -197.317)" fill="#575757"/><path d="M126.524,207.447c0-.4.08-1.081.16-1.762h-.04a3,3,0,0,1-2.683,1.922c-1.241,0-1.962-.961-1.962-2.282a4.8,4.8,0,0,1,4.765-4.925,7.916,7.916,0,0,1,1.842.24l-.681,3.6a14.015,14.015,0,0,0-.28,3.2Zm.761-6.006a2.786,2.786,0,0,0-.8-.12c-1.762,0-3.243,1.842-3.243,3.764,0,.761.28,1.521,1.161,1.521,1,0,2.162-1.281,2.482-3.123Z" transform="translate(-73.113 -197.317)" fill="#575757"/><path d="M145.1,207.447l.841-4.444c.16-.881.28-1.8.36-2.442h1.041c-.04.48-.12.961-.2,1.481h.04A2.468,2.468,0,0,1,149.3,200.4a.78.78,0,0,1,.32.04l-.24,1.161c-.08,0-.2-.04-.32-.04-1,0-1.922,1.241-2.2,2.843l-.561,3.043Z" transform="translate(-86.964 -197.317)" fill="#575757"/><path d="M165.423,196.7l-.32,1.642h1.642l-.2.921H164.9l-.641,3.363a5.435,5.435,0,0,0-.16,1.081.6.6,0,0,0,.641.681,2.46,2.46,0,0,0,.561-.04l-.08.921a2.85,2.85,0,0,1-.921.12,1.274,1.274,0,0,1-1.441-1.321,5.092,5.092,0,0,1,.16-1.281l.681-3.483h-1l.16-.921h.961l.24-1.281Z" transform="translate(-97.517 -195.098)" fill="#575757"/><path d="M177.36,206.246a3.086,3.086,0,0,0,1.481.44,1.2,1.2,0,0,0,1.321-1.121c0-.561-.24-.881-.961-1.281a2.04,2.04,0,0,1-1.241-1.762,2.262,2.262,0,0,1,2.482-2.122,2.712,2.712,0,0,1,1.441.36l-.32.881a2.271,2.271,0,0,0-1.2-.32,1.117,1.117,0,0,0-1.241,1.041c0,.521.32.8.961,1.161a2.173,2.173,0,0,1,1.281,1.842c0,1.441-1.161,2.242-2.643,2.242a3.15,3.15,0,0,1-1.722-.48Z" transform="translate(-106.091 -197.317)" fill="#575757"/><path d="M200.885,207.106a5.024,5.024,0,0,1-2.282.561A2.48,2.48,0,0,1,196,204.9c0-2.082,1.521-4.4,3.764-4.4a1.756,1.756,0,0,1,2,1.762c0,1.8-2.042,2.282-4.564,2.242a3.218,3.218,0,0,0,.16,1.321,1.537,1.537,0,0,0,1.521.921,3.626,3.626,0,0,0,1.842-.48Zm-.28-4.845c0-.561-.44-.881-1.041-.881a2.628,2.628,0,0,0-2.242,2.162c1.842.04,3.283-.2,3.283-1.281Z" transform="translate(-117.484 -197.377)" fill="#575757"/><path d="M216.6,207.447l.921-4.885c.16-.761.24-1.441.32-2h1.081l-.2,1.361h.04a3.115,3.115,0,0,1,2.562-1.521,1.693,1.693,0,0,1,1.722,1.922,5.632,5.632,0,0,1-.12,1.121l-.761,4H221l.761-3.964a6,6,0,0,0,.08-.881c0-.681-.28-1.2-1.081-1.2-.841,0-2.042,1-2.362,2.723l-.641,3.323Z" transform="translate(-129.836 -197.317)" fill="#575757"/><path d="M253.741,200.8l.6,3.924a13.67,13.67,0,0,1,.2,1.682h.04c.16-.36.36-.841.761-1.6l2.082-4h1.281l-3.844,6.887H253.7l-1.2-6.887Z" transform="translate(-151.362 -197.557)" fill="#575757"/><path d="M275.083,207.607a2.627,2.627,0,0,1-2.683-2.843c0-2.282,1.561-4.364,3.8-4.364a2.621,2.621,0,0,1,2.683,2.843c.04,2.122-1.481,4.364-3.8,4.364Zm.16-.961c1.4,0,2.442-1.8,2.442-3.4,0-.8-.36-1.922-1.6-1.922-1.481,0-2.442,1.8-2.442,3.4a1.656,1.656,0,0,0,1.6,1.922Z" transform="translate(-163.294 -197.317)" fill="#575757"/><path d="M298.483,207.607a2.627,2.627,0,0,1-2.683-2.843c0-2.282,1.6-4.364,3.8-4.364a2.621,2.621,0,0,1,2.683,2.843c0,2.122-1.481,4.364-3.8,4.364Zm.16-.961c1.4,0,2.442-1.8,2.442-3.4,0-.8-.36-1.922-1.6-1.922-1.481,0-2.442,1.8-2.442,3.4a1.656,1.656,0,0,0,1.6,1.922Z" transform="translate(-177.325 -197.317)" fill="#575757"/><path d="M318.9,207.447l.841-4.444c.16-.881.28-1.8.36-2.442h1.041a10.082,10.082,0,0,1-.2,1.481h.04A2.422,2.422,0,0,1,323.1,200.4a.78.78,0,0,1,.32.04l-.24,1.161c-.08,0-.2-.04-.32-.04-1,0-1.922,1.241-2.242,2.843l-.561,3.043Z" transform="translate(-191.176 -197.317)" fill="#575757"/><path d="M350.924,207.447c0-.4.08-1.081.16-1.762h-.04a3,3,0,0,1-2.683,1.922c-1.241,0-1.962-.961-1.962-2.282a4.8,4.8,0,0,1,4.765-4.925,8.223,8.223,0,0,1,1.842.24l-.681,3.6a14.015,14.015,0,0,0-.28,3.2Zm.761-6.006a2.786,2.786,0,0,0-.8-.12c-1.762,0-3.243,1.842-3.243,3.764,0,.761.28,1.521,1.161,1.521,1,0,2.162-1.281,2.482-3.123Z" transform="translate(-207.666 -197.317)" fill="#575757"/><path d="M369.6,202.89l1.922-10.09h1.2L370.8,202.89Z" transform="translate(-221.577 -192.76)" fill="#575757"/><path d="M382.5,202.89l1.922-10.09h1.161l-1.922,10.09Z" transform="translate(-229.312 -192.76)" fill="#575757"/><path d="M400.485,207.106a5.024,5.024,0,0,1-2.282.561,2.48,2.48,0,0,1-2.6-2.763c0-2.082,1.521-4.4,3.764-4.4a1.756,1.756,0,0,1,2,1.762c0,1.8-2.042,2.282-4.564,2.242a3.218,3.218,0,0,0,.16,1.321,1.537,1.537,0,0,0,1.521.921,3.748,3.748,0,0,0,1.842-.48Zm-.24-4.845c0-.561-.44-.881-1.041-.881a2.628,2.628,0,0,0-2.242,2.162c1.8.04,3.283-.2,3.283-1.281Z" transform="translate(-237.167 -197.377)" fill="#575757"/><path d="M427.26,209.008a3.426,3.426,0,0,0,1.8.44c1.161,0,2.082-.6,2.482-2.442l.24-1.041h-.04a2.738,2.738,0,0,1-2.4,1.481,2.151,2.151,0,0,1-2.082-2.4,4.485,4.485,0,0,1,4.364-4.645,5.776,5.776,0,0,1,2.2.48l-1.081,5.686a5.4,5.4,0,0,1-1.361,3.083,3.59,3.59,0,0,1-2.4.761,4.206,4.206,0,0,1-2.082-.48Zm5.285-7.447a2.6,2.6,0,0,0-1.121-.24c-1.722,0-2.923,1.8-2.923,3.523,0,.761.28,1.642,1.321,1.642,1,0,2.042-1.281,2.282-2.643Z" transform="translate(-255.934 -197.317)" fill="#575757"/><path d="M456.085,207.106a5.024,5.024,0,0,1-2.282.561,2.48,2.48,0,0,1-2.6-2.763c0-2.082,1.521-4.4,3.764-4.4a1.756,1.756,0,0,1,2,1.762c0,1.8-2.042,2.282-4.564,2.242a3.218,3.218,0,0,0,.16,1.321,1.537,1.537,0,0,0,1.521.921,3.748,3.748,0,0,0,1.842-.48Zm-.24-4.845c0-.561-.44-.881-1.041-.881a2.628,2.628,0,0,0-2.242,2.162c1.8.04,3.283-.2,3.283-1.281Z" transform="translate(-270.505 -197.377)" fill="#575757"/><path d="M470.28,206.966l3.323-3.724c.6-.641.961-1,1.441-1.441v-.04h-3.523l.2-.961h4.925l-.16.761-3.283,3.684c-.641.681-1,1.041-1.4,1.441v.04h3.844l-.2.961H470.2Z" transform="translate(-281.898 -197.557)" fill="#575757"/><path d="M496.185,207.106a5.024,5.024,0,0,1-2.282.561,2.48,2.48,0,0,1-2.6-2.763c0-2.082,1.521-4.4,3.764-4.4,1.321,0,2.042.761,2.042,1.762,0,1.8-2.042,2.282-4.564,2.242a2.66,2.66,0,0,0,.16,1.321,1.537,1.537,0,0,0,1.521.921,3.626,3.626,0,0,0,1.842-.48Zm-.24-4.845c0-.561-.44-.881-1.041-.881a2.628,2.628,0,0,0-2.242,2.162c1.842.04,3.283-.2,3.283-1.281Z" transform="translate(-294.549 -197.377)" fill="#575757"/><path d="M512,202.89l1.922-10.09h1.161L513.2,202.89Z" transform="translate(-306.961 -192.76)" fill="#575757"/><path d="M524.62,206.246a3.087,3.087,0,0,0,1.481.44,1.2,1.2,0,0,0,1.321-1.121c0-.561-.24-.881-.961-1.281a2.039,2.039,0,0,1-1.241-1.762,2.276,2.276,0,0,1,2.522-2.122,2.458,2.458,0,0,1,1.4.36l-.32.881a2.227,2.227,0,0,0-1.161-.32,1.117,1.117,0,0,0-1.241,1.041c0,.521.32.8.961,1.161a2.173,2.173,0,0,1,1.281,1.842c0,1.441-1.161,2.242-2.643,2.242a3.15,3.15,0,0,1-1.722-.48Z" transform="translate(-314.337 -197.317)" fill="#575757"/><path d="M547.744,207.226a4.345,4.345,0,0,1-2,.44,2.477,2.477,0,0,1-2.643-2.643,4.353,4.353,0,0,1,4.2-4.524,3.315,3.315,0,0,1,1.441.32l-.32.921a2.8,2.8,0,0,0-1.161-.24c-1.8,0-2.923,1.762-2.923,3.4a1.634,1.634,0,0,0,1.722,1.842,3.22,3.22,0,0,0,1.6-.4Z" transform="translate(-325.609 -197.377)" fill="#575757"/><path d="M562.7,202.89l1.922-10.09h1.2l-.841,4.4h.04a2.978,2.978,0,0,1,2.442-1.361,1.667,1.667,0,0,1,1.722,1.842,5.713,5.713,0,0,1-.12,1.161l-.761,4.044h-1.161l.761-3.964a5.749,5.749,0,0,0,.08-.961.982.982,0,0,0-1.081-1.121c-.921,0-2.082,1.081-2.362,2.6l-.641,3.443Z" transform="translate(-337.362 -192.76)" fill="#575757"/><path d="M591.124,207.447c0-.4.08-1.081.16-1.762h-.04a3,3,0,0,1-2.683,1.922c-1.241,0-1.962-.961-1.962-2.282a4.8,4.8,0,0,1,4.765-4.925,8.223,8.223,0,0,1,1.842.24l-.681,3.6a14.025,14.025,0,0,0-.28,3.2Zm.721-6.006a2.786,2.786,0,0,0-.8-.12c-1.762,0-3.243,1.842-3.243,3.764,0,.761.28,1.521,1.161,1.521,1,0,2.162-1.281,2.482-3.123Z" transform="translate(-351.693 -197.317)" fill="#575757"/><path d="M608.2,210.309l1.361-7.247c.16-.841.28-1.762.4-2.442h1.081l-.2,1.321h.04a2.99,2.99,0,0,1,2.482-1.441c1.482,0,2.122,1.2,2.122,2.482,0,2.442-1.722,4.725-4.044,4.725a3,3,0,0,1-1.481-.32h-.04l-.56,2.963H608.2Zm1.922-3.964a2.161,2.161,0,0,0,1.321.4c1.522,0,2.8-1.882,2.8-3.684,0-.721-.32-1.6-1.321-1.6-.921,0-2.082,1.041-2.442,3Z" transform="translate(-364.644 -197.377)" fill="#575757"/><path d="M632.86,206.246a3.086,3.086,0,0,0,1.482.44,1.2,1.2,0,0,0,1.321-1.121c0-.561-.24-.881-.961-1.281a2.039,2.039,0,0,1-1.241-1.762,2.262,2.262,0,0,1,2.482-2.122,2.711,2.711,0,0,1,1.441.36l-.32.881a2.27,2.27,0,0,0-1.2-.32,1.117,1.117,0,0,0-1.241,1.041c0,.521.32.8.961,1.161a2.173,2.173,0,0,1,1.281,1.842c0,1.441-1.161,2.242-2.643,2.242a3.044,3.044,0,0,1-1.722-.48Z" transform="translate(-379.215 -197.317)" fill="#575757"/><path d="M658.647,192.7l-1.521,7.928c-.12.721-.24,1.521-.28,2.162h-1.081l.2-1.361h-.04a2.987,2.987,0,0,1-2.482,1.521c-1.321,0-2.042-1.081-2.042-2.482a4.507,4.507,0,0,1,4.244-4.685,2.984,2.984,0,0,1,1.241.24l.6-3.283h1.161Zm-2,4.324a2.092,2.092,0,0,0-1.121-.28c-1.642,0-2.923,1.762-2.923,3.6,0,.841.28,1.682,1.281,1.682.921,0,2-1.041,2.282-2.6Z" transform="translate(-390.547 -192.7)" fill="#575757"/><path d="M674.6,203.369l1.321-6.887h1.161l-1.321,6.887Zm2.2-8.168a.7.7,0,0,1-.681-.761.813.813,0,0,1,.8-.841.7.7,0,0,1,.721.761.8.8,0,0,1-.841.841Z" transform="translate(-404.458 -193.24)" fill="#575757"/><path d="M692.585,207.106a5.024,5.024,0,0,1-2.282.561,2.46,2.46,0,0,1-2.6-2.763c0-2.082,1.521-4.4,3.764-4.4a1.756,1.756,0,0,1,2,1.762c0,1.8-2.042,2.282-4.565,2.242a3.218,3.218,0,0,0,.16,1.321,1.537,1.537,0,0,0,1.521.921,3.626,3.626,0,0,0,1.842-.48Zm-.24-4.845c0-.561-.44-.881-1.041-.881a2.628,2.628,0,0,0-2.242,2.162c1.842.04,3.283-.2,3.283-1.281Z" transform="translate(-412.313 -197.377)" fill="#575757"/><path d="M708.4,207.447l.841-4.444c.16-.881.28-1.8.36-2.442h1.041a10.091,10.091,0,0,1-.2,1.481h.04A2.422,2.422,0,0,1,712.6,200.4a.78.78,0,0,1,.32.04l-.24,1.161c-.08,0-.2-.04-.32-.04-1,0-1.922,1.241-2.2,2.843l-.561,3.043Z" transform="translate(-424.725 -197.317)" fill="#575757"/><path d="M729.225,207.106a5.024,5.024,0,0,1-2.282.561A2.49,2.49,0,0,1,724.3,204.9c0-2.082,1.562-4.4,3.764-4.4a1.756,1.756,0,0,1,2,1.762c0,1.8-2.042,2.282-4.564,2.242a2.66,2.66,0,0,0,.16,1.321,1.537,1.537,0,0,0,1.521.921,3.626,3.626,0,0,0,1.842-.48Zm-.24-4.845c0-.561-.44-.881-1.041-.881a2.628,2.628,0,0,0-2.242,2.162c1.842.04,3.283-.2,3.283-1.281Z" transform="translate(-434.259 -197.377)" fill="#575757"/><path d="M745.1,207.447l.921-4.885c.16-.761.24-1.441.32-2h1.081l-.2,1.361h.04a3.115,3.115,0,0,1,2.563-1.521,1.693,1.693,0,0,1,1.722,1.922,5.636,5.636,0,0,1-.12,1.121l-.761,4H749.5l.761-3.964a5.988,5.988,0,0,0,.08-.881c0-.681-.28-1.2-1.081-1.2-.841,0-2.042,1-2.362,2.723l-.641,3.323Z" transform="translate(-446.731 -197.317)" fill="#575757"/></g></g></svg>