<svg width="357px" height="101px" viewBox="0 0 357 101" version="1.1"
    xmlns="http://www.w3.org/2000/svg" xmlns:xlink="http://www.w3.org/1999/xlink">
    <title>Group 28</title>
    <defs>
        <polygon id="path-1"
            points="0.2079 0.334022727 35.8879091 0.334022727 35.8879091 35.6430682 0.2079 35.6430682"></polygon>
        <polygon id="path-3"
            points="0.240488372 0.13521741 35.7967541 0.13521741 35.7967541 58 0.240488372 58"></polygon>
        <polygon id="path-5"
            points="8.31775701e-05 0.349278351 88.7617794 0.349278351 88.7617794 79.6401649 8.31775701e-05 79.6401649"></polygon>
    </defs>
    <g id="Symbols" stroke="none" stroke-width="1" fill="none" fill-rule="evenodd">
        <g id="EL-logo" transform="translate(-1.000000, 0.000000)">
            <g id="Group-28" transform="translate(1.000000, 0.000000)">
                <path
                    d="M263.64915,31.4681344 L255.35085,31.4681344 C255.156816,31.4681344 255,31.6235748 255,31.8159064 L255,79.1203624 C255,79.3122795 255.156816,79.4681344 255.35085,79.4681344 L263.64915,79.4681344 C263.843184,79.4681344 264,79.3122795 264,79.1203624 L264,31.8159064 C264,31.6235748 263.843184,31.4681344 263.64915,31.4681344"
                    id="Fill-1" fill="#C0C834"></path>
                <path
                    d="M270,36.4682933 C270,43.1347481 280,43.1347481 280,36.4682933 C280,29.8014148 270,29.8014148 270,36.4682933"
                    id="Fill-3" fill="#C0C834"></path>
                <path
                    d="M200,36.4682933 C200,43.1347481 210,43.1347481 210,36.4682933 C210,29.8014148 200,29.8014148 200,36.4682933"
                    id="Fill-5" fill="#2F0051"></path>
                <path
                    d="M278.635798,45.4681344 L270.364202,45.4681344 C270.163218,45.4681344 270,45.6236127 270,45.8159913 L270,79.1202776 C270,79.3122415 270.163218,79.4681344 270.364202,79.4681344 L278.635798,79.4681344 C278.836782,79.4681344 279,79.3122415 279,79.1202776 L279,45.8159913 C279,45.6236127 278.836782,45.4681344 278.635798,45.4681344"
                    id="Fill-7" fill="#C0C834"></path>
                <path
                    d="M311.948356,45.4681344 C311.807173,45.4681344 311.679816,45.5517172 311.624934,45.6799879 L306.874155,56.7782963 L301.863633,70.0307242 C301.750101,70.3311258 301.319011,70.3315396 301.205479,70.0311379 L296.124575,56.6417501 L291.375052,45.6787466 C291.319333,45.5508897 291.192394,45.4681344 291.051631,45.4681344 L282.351923,45.4681344 C282.098465,45.4681344 281.928375,45.7246757 282.029758,45.9539078 L296.744187,79.2600049 C296.800325,79.3866205 296.926845,79.4681344 297.066771,79.4681344 L306.00276,79.4681344 C306.142686,79.4681344 306.269625,79.3862067 306.325344,79.2595912 L320.970647,45.953494 C321.071193,45.724262 320.901103,45.4681344 320.648063,45.4681344 L311.948356,45.4681344 Z"
                    id="Fill-9" fill="#C0C834"></path>
                <g id="Group-13" transform="translate(321.000000, 44.468134)">
                    <mask id="mask-2" fill="white">
                        <use xlink:href="#path-1"></use>
                    </mask>
                    <g id="Clip-12"></g>
                    <path
                        d="M27.1976727,14.15925 L9.57403636,14.15925 C9.34249091,14.15925 9.1719,13.9322045 9.24635455,13.7129318 C10.6209,9.67315909 14.2716273,7.65347727 18.7000364,7.65347727 C23.4156273,7.65347727 26.8258091,9.68952273 27.5380364,13.7628409 C27.5744455,13.9698409 27.4079455,14.15925 27.1976727,14.15925 M18.4218545,0.334022727 C7.29867273,0.334022727 0.2079,7.65347727 0.2079,17.8193864 C0.2079,28.5269318 7.22953636,35.6430682 19.0473545,35.6430682 C24.1409455,35.6430682 29.8989,33.9617045 33.5320364,30.4713409 C33.6723545,30.3363409 33.6686727,30.1092955 33.5287636,29.9747045 L28.5992182,25.2304773 C28.4674909,25.10325 28.2621273,25.1065227 28.1259,25.22925 C26.0980364,27.05625 22.1928545,28.1207045 19.1864455,28.1207045 C13.4023091,28.1207045 9.76549091,25.3290682 9.03158182,21.4034318 C8.99230909,21.1956136 9.15921818,21.0045682 9.37112727,21.0045682 L35.4163091,21.0045682 C35.5942636,21.0045682 35.7452182,20.8658864 35.7607636,20.6883409 C36.9418091,7.14047727 29.8035818,0.334022727 18.4218545,0.334022727"
                        id="Fill-11" fill="#C0C834" mask="url(#mask-2)"></path>
                </g>
                <path
                    d="M120.231436,58.5639044 L102.45,58.5639044 C102.216381,58.5639044 102.044263,58.3324159 102.119384,58.1088523 C103.506237,53.9900262 107.190065,51.9308217 111.657713,51.9308217 C116.41594,51.9308217 119.856243,54.00671 120.574848,58.159738 C120.611583,58.3707888 120.444005,58.5639044 120.231436,58.5639044 M111.377453,44.4681344 C100.154263,44.4681344 93,51.9308217 93,62.2956651 C93,73.212744 100.084507,80.4681344 112.008141,80.4681344 C117.14734,80.4681344 122.957263,78.7538686 126.622517,75.1952028 C126.764092,75.057561 126.76079,74.8260726 126.619628,74.6888479 L121.645944,69.8517819 C121.512625,69.722065 121.305835,69.7254017 121.168388,69.8505306 C119.121954,71.7132828 115.181806,72.7985674 112.148477,72.7985674 C106.312551,72.7985674 102.643169,69.9523021 101.902688,65.9498459 C101.863477,65.737961 102.03188,65.543177 102.245274,65.543177 L128.523662,65.543177 C128.703622,65.543177 128.855929,65.4017813 128.871613,65.2207615 C130.063234,51.4077829 122.861091,44.4681344 111.377453,44.4681344"
                    id="Fill-14" fill="#2F0051"></path>
                <path
                    d="M152.218655,44.4681344 C148.935337,44.4681344 145.590404,45.018441 142.997186,48.5962689 C142.815624,48.8472053 142.428264,48.7570185 142.379382,48.4492978 L141.934514,45.6610221 C141.907402,45.4915043 141.763221,45.3670798 141.593982,45.3670798 L134.34464,45.3670798 C134.15404,45.3670798 134,45.5236542 134,45.7169713 L134,79.1178254 C134,79.3111426 134.15404,79.4681344 134.34464,79.4681344 L142.17153,79.4681344 C142.362129,79.4681344 142.51617,79.3111426 142.51617,79.1178254 L142.51617,61.4837978 C142.51617,55.1890921 146.634591,52.8375544 151.10176,52.8375544 C153.720446,52.8375544 155.294943,53.5068575 156.920376,54.7882618 C157.090437,54.9222895 157.338134,54.8730207 157.439184,54.6797036 L160.958697,47.9574456 C161.032226,47.817155 161.006347,47.6417918 160.890919,47.5349037 C158.971782,45.7612296 155.660532,44.4681344 152.218655,44.4681344 Z"
                    id="Fill-16" fill="#2F0051"></path>
                <g id="Group-20" transform="translate(160.000000, 42.468134)">
                    <mask id="mask-4" fill="white">
                        <use xlink:href="#path-3"></use>
                    </mask>
                    <g id="Clip-19"></g>
                    <path
                        d="M18.0232326,28.6969603 C12.973186,28.6969603 8.8474186,25.2214851 8.8474186,19.3606057 C8.8474186,13.5001376 12.973186,9.88891773 18.0232326,9.88891773 C23.0029535,9.88891773 27.1283023,13.5684213 27.1283023,19.3606057 C27.1283023,25.1532014 23.0029535,28.6969603 18.0232326,28.6969603 L18.0232326,28.6969603 Z M35.718907,4.92189645 C35.8444884,4.76887518 35.8147674,4.54386809 35.6540233,4.42745674 L29.8174186,0.202506383 C29.6658837,0.0930879433 29.4544884,0.119825532 29.3360233,0.262974468 L26.2567674,3.99636454 C26.1454186,4.13128652 25.9503488,4.16008085 25.8000698,4.0687617 C23.4391395,2.64138582 20.6985349,2.32423688 18.0232326,2.32423688 C8.20695349,2.32423688 0.240488372,8.8663078 0.240488372,19.3606057 C0.240488372,29.8553149 7.06876744,36.2616411 18.0232326,36.2616411 C22.3620698,36.2616411 26.914814,38.3734993 26.914814,43.0077404 C26.914814,47.6415702 23.0029535,50.2310028 18.0232326,50.2310028 C13.1728605,50.2310028 9.06551163,47.5152865 8.8562093,43.3429887 C8.8465814,43.1566482 8.69672093,43.0077404 8.50667442,43.0077404 L0.598813953,43.0077404 C0.401651163,43.0077404 0.240069767,43.168166 0.243837209,43.3610879 C0.439744186,52.2252156 7.98467442,58.0001234 18.0232326,58.0001234 C28.1957442,58.0001234 35.5937442,52.2749887 35.5937442,43.0077404 C35.5937442,38.8712298 34.2726279,34.9881092 28.9596977,32.2111021 C28.7131395,32.0823504 28.7139767,31.7314709 28.9626279,31.6055986 C34.2186279,28.9454142 35.7356512,23.3634284 35.7356512,19.3606057 C35.7356512,15.7715986 34.7883488,12.506322 32.233186,9.62853475 C32.1214186,9.50266241 32.1143023,9.31673333 32.2210465,9.18674752 L35.718907,4.92189645 Z"
                        id="Fill-18" fill="#2F0051" mask="url(#mask-4)"></path>
                </g>
                <path
                    d="M209.635798,45.4681344 L201.364202,45.4681344 C201.163218,45.4681344 201,45.6236127 201,45.8159913 L201,79.1202776 C201,79.3122415 201.163218,79.4681344 201.364202,79.4681344 L209.635798,79.4681344 C209.837216,79.4681344 210,79.3122415 210,79.1202776 L210,45.8159913 C210,45.6236127 209.837216,45.4681344 209.635798,45.4681344"
                    id="Fill-21" fill="#2F0051"></path>
                <path
                    d="M241.231436,58.5639044 L223.45,58.5639044 C223.216381,58.5639044 223.044263,58.3324159 223.119384,58.1088523 C224.506237,53.9900262 228.190065,51.9308217 232.657713,51.9308217 C237.41594,51.9308217 240.856243,54.00671 241.574848,58.159738 C241.611583,58.3707888 241.444005,58.5639044 241.231436,58.5639044 M232.377453,44.4681344 C221.154263,44.4681344 214,51.9308217 214,62.2956651 C214,73.212744 221.084507,80.4681344 233.008141,80.4681344 C238.14734,80.4681344 243.957263,78.7538686 247.622517,75.1952028 C247.764092,75.057561 247.76079,74.8260726 247.619628,74.6888479 L242.645944,69.8517819 C242.512625,69.722065 242.305835,69.7254017 242.168388,69.8505306 C240.121954,71.7132828 236.181806,72.7985674 233.148477,72.7985674 C227.312551,72.7985674 223.643169,69.9523021 222.902688,65.9498459 C222.863477,65.737961 223.03188,65.543177 223.245274,65.543177 L249.523662,65.543177 C249.703622,65.543177 249.855929,65.4017813 249.871613,65.2207615 C251.063234,51.4077829 243.861091,44.4681344 232.377453,44.4681344"
                    id="Fill-23" fill="#2F0051"></path>
                <g id="Group-27" transform="translate(0.000000, 0.468134)">
                    <mask id="mask-6" fill="white">
                        <use xlink:href="#path-5"></use>
                    </mask>
                    <g id="Clip-26"></g>
                    <path
                        d="M17.8932421,28.9733608 C23.2103682,24.6851134 27.6516346,22.3016082 34.1149477,22.9543918 C39.0735785,23.4558351 41.5476953,27.3181031 41.2495037,29.5189278 C40.5612093,34.6042887 32.7554103,34.3090309 31.373415,34.2467629 C26.7129757,34.036866 21.3180785,32.1556289 17.8894991,29.2962474 C17.789686,29.2129485 17.7917654,29.0550103 17.8932421,28.9733608 M73.9911065,44.9383093 C69.8530224,44.9383093 66.4710224,46.4616082 63.1310271,49.451299 C62.8827421,49.673567 62.4834897,49.5197526 62.4427327,49.190268 L62.0210224,45.7787216 C61.9956533,45.5721237 61.818485,45.4166598 61.6084617,45.4166598 L54.6893355,45.4166598 C54.4593495,45.4166598 54.2734477,45.6014021 54.2734477,45.8290309 L54.2734477,48.8261443 C54.4481206,61.8809897 43.8637748,71.7337732 31.0877,71.3927423 C18.3906439,71.0537732 8.33405981,61.6389278 8.31784019,48.8150103 C8.31160187,43.8282062 8.73788692,39.6339794 12.1722888,35.0822268 C12.245485,34.985732 12.3856393,34.9696495 12.4779664,35.0484124 C17.3604897,39.225732 26.2588262,42.1176907 32.5125318,42.1115052 C41.8666813,42.102433 48.3141907,37.6030515 49.1060411,30.3556289 C49.4533075,27.1259381 48.4011112,23.830268 46.1449196,21.0760412 C43.4245972,17.7560412 39.3281019,15.5993402 34.9051346,15.1585155 C27.4935972,14.4211959 21.2956206,16.3849072 14.2030692,21.8677938 C14.0637467,21.9754227 13.8553869,21.8776907 13.8595458,21.7028454 C14.0175832,14.8364536 19.6607654,10.0677938 25.0581579,7.49129897 C25.2627748,7.39356701 25.3505271,7.15397938 25.254457,6.9494433 L22.2791953,0.58985567 C22.1818776,0.381608247 21.9286019,0.290061856 21.7198262,0.389443299 C11.9373121,5.0265567 5.90485888,13.2216082 5.94686355,21.8599588 C5.95850841,24.179134 6.46090093,26.3366598 7.34258318,28.3176907 C7.37419065,28.3890309 7.36171402,28.4710928 7.31055981,28.5300619 C2.49624206,34.0954227 8.31775701e-05,40.4414021 8.31775701e-05,48.8150103 C8.31775701e-05,65.7251134 13.9456346,79.6401649 31.0877,79.6401649 C39.9178308,79.6401649 47.8966393,75.9675876 53.5606159,70.0855258 C53.8184664,69.8178969 54.2734477,70.0022268 54.2734477,70.3721237 L54.2734477,78.7523299 C54.2734477,78.9799588 54.4593495,79.164701 54.6893355,79.164701 L62.4086299,79.164701 C62.6382,79.164701 62.8245178,78.9799588 62.8245178,78.7523299 L62.8245178,61.9490309 C62.8245178,56.8253196 66.4290178,52.5214021 71.7290925,52.5214021 C77.241686,52.5214021 80.1395925,56.4158351 80.1395925,61.539134 L80.1395925,78.7523299 C80.1395925,78.9799588 80.3254944,79.164701 80.5554804,79.164701 L88.3458916,79.164701 C88.5754617,79.164701 88.7617794,78.9799588 88.7617794,78.7523299 L88.7617794,61.4706804 C88.7617794,50.8818144 82.1890879,44.9383093 73.9911065,44.9383093"
                        id="Fill-25" fill="#2F0051" mask="url(#mask-6)"></path>
                </g>
            </g>
        </g>
    </g>
</svg>