<svg width="237" height="58" viewBox="0 0 237 58" fill="none" xmlns="http://www.w3.org/2000/svg">
    <g clip-path="url(#clip0_136_2606)">
        <path
            d="M23.1355 4.99266V10.9381C23.1355 11.2747 22.8616 11.5469 22.5227 11.5469H9.32923C8.99038 11.5469 8.71642 11.8191 8.71642 12.1558V18.1012C8.71642 18.4379 8.99038 18.7101 9.32923 18.7101H19.6389C19.9778 18.7101 20.2517 18.9823 20.2517 19.3189V25.2644C20.2517 25.601 19.9778 25.8732 19.6389 25.8732H9.32923C8.99038 25.8732 8.71642 26.1454 8.71642 26.4821V38.1294C8.71642 38.466 8.44245 38.7382 8.10361 38.7382H0.677754C0.338905 38.7382 0.0649414 38.466 0.0649414 38.1294V4.99266C0.0649414 4.65599 0.338905 4.38379 0.677754 4.38379H22.5227C22.8616 4.38379 23.1355 4.65599 23.1355 4.99266Z"
            fill="black" />
        <path
            d="M33.2289 13.5742V38.1581C33.2289 38.4805 32.9549 38.7455 32.6161 38.7455H25.1902C24.8514 38.7455 24.5774 38.4805 24.5774 38.1581V13.5742C24.5774 13.2519 24.8514 12.9868 25.1902 12.9868H32.6161C32.9549 12.9868 33.2289 13.2519 33.2289 13.5742Z"
            fill="black" />
        <path
            d="M73.6747 12.736C75.5564 14.3835 77.3155 16.7975 77.9067 19.4192C77.9932 19.7917 77.712 20.1427 77.3443 20.1427H71.2667C70.9999 20.1427 70.8269 19.935 70.7115 19.6842C70.5025 19.2401 70.0483 17.5281 68.6929 16.8047C67.9719 16.4178 66.4435 16.1456 65.2467 16.1456C64.3094 16.1456 63.5957 16.3605 63.1127 16.7832C62.6296 17.2058 62.3845 17.8075 62.3845 18.5883C62.3845 19.4693 62.8315 20.1355 63.7183 20.5725C64.605 21.0166 66.0109 21.4535 67.9214 21.8977C69.9906 22.4062 71.692 22.922 73.0186 23.4521C74.3452 23.9821 75.4915 24.8345 76.4648 26.0236C77.4381 27.2127 77.9211 28.8101 77.9211 30.8086C77.9211 32.4418 77.5029 33.8816 76.6594 35.1423C75.8159 36.3959 74.6047 37.3844 73.0186 38.1007C71.4325 38.817 69.558 39.168 67.3879 39.168C63.7327 39.168 60.7984 38.3228 58.5995 36.6179C56.5664 35.0492 55.2687 32.8573 54.6991 30.0493C54.627 29.6768 54.9082 29.333 55.2614 29.333H62.0889C62.3557 29.333 62.5936 29.5192 62.644 29.7914C62.8387 30.7943 63.3073 31.5751 64.0571 32.1338C64.915 32.7785 66.0253 33.1008 67.3807 33.1008C68.318 33.1008 69.0317 32.8716 69.5147 32.4132C69.9978 31.9547 70.2429 31.353 70.2429 30.608C70.2429 29.6267 69.7959 28.9175 68.9091 28.4949C68.0224 28.0723 66.5732 27.621 64.5618 27.1482C62.5575 26.7041 60.9065 26.2314 59.6088 25.7228C58.3111 25.2142 57.1936 24.3904 56.2564 23.2515C55.3191 22.1125 54.8505 20.5581 54.8505 18.5883C54.8505 16.0382 55.7733 13.9752 57.619 12.3993C59.4646 10.8234 62.0673 10.0283 65.4341 10.0283C68.801 10.0283 71.6055 10.9309 73.6675 12.7288L73.6747 12.736Z"
            fill="black" />
        <path
            d="M47.7273 13.6961C48.3761 13.4311 50.9788 13.0801 52.7812 12.9798C53.1272 12.9583 53.4156 13.2449 53.4156 13.5887V19.5341C53.4156 19.8708 53.1417 20.143 52.8028 20.143H50.8706C48.5203 20.143 46.0619 20.5799 44.7641 21.5756C43.4664 22.5713 43.452 24.8348 43.452 27.2058V38.1296C43.452 38.4663 43.178 38.7385 42.8392 38.7385H35.1826C34.8438 38.7385 34.5698 38.4663 34.5698 38.1296L34.6708 13.5815C34.6708 13.2449 34.9447 12.9727 35.2836 12.9727H42.7166C43.0555 12.9727 43.3294 13.2449 43.3294 13.5815V15.0786C43.3294 15.6445 44.1081 15.8451 44.5262 15.4654C45.2904 14.7849 46.4151 14.219 47.7345 13.689L47.7273 13.6961Z"
            fill="black" />
        <path
            d="M96.6731 32.2126V38.158C96.6731 38.4947 96.3991 38.7669 96.0603 38.7669H95.0509C91.6624 38.7669 88.4614 37.936 86.5797 36.267C84.6908 34.5979 83.6959 33.3014 83.6959 29.4476V20.7516C83.6959 20.4149 83.4219 20.1427 83.083 20.1427H79.9829C79.6441 20.1427 79.3701 19.8705 79.3701 19.5338V13.5884C79.3701 13.2518 79.6441 12.9796 79.9829 12.9796H83.083C83.4219 12.9796 83.6959 12.7074 83.6959 12.3707V4.99266C83.6959 4.65599 83.9698 4.38379 84.3087 4.38379H90.2926C90.6315 4.38379 90.9054 4.65599 90.9054 4.99266V12.3707C90.9054 12.7074 91.1794 12.9796 91.5182 12.9796H96.0603C96.3991 12.9796 96.6731 13.2518 96.6731 13.5884V19.5338C96.6731 19.8705 96.3991 20.1427 96.0603 20.1427H91.5182C91.1794 20.1427 90.9054 20.4149 90.9054 20.7516V28.7385C90.9054 29.8703 91.1361 30.6654 91.6047 31.1095C92.0734 31.5536 94.0921 31.6037 95.2023 31.6037H96.0603C96.3991 31.6037 96.6731 31.8759 96.6731 32.2126Z"
            fill="black" />
        <path
            d="M115.418 15.365C115.454 13.0298 113.63 11.5542 111.691 11.5542C106.06 11.5542 105.44 16.461 105.325 18.1371C105.303 18.4595 105.036 18.7173 104.712 18.7173H98.8216C98.4684 18.7173 98.18 18.4165 98.2088 18.0655C98.5188 14.0828 99.8526 9.68462 102.217 7.62163C115.295 -3.15891 129.953 13.3163 118.828 25.8805C117.408 27.5996 114.632 29.1684 112.808 30.5007C112.318 30.8589 112.541 31.611 113.147 31.611H122.022C122.361 31.611 122.635 31.8832 122.635 32.2199V38.1366C122.635 38.4733 122.361 38.7455 122.022 38.7455H98.7351C98.3963 38.7455 98.1223 38.4733 98.1223 38.1366V32.1124C98.1223 31.9119 98.2088 31.7041 98.3891 31.611C107.754 26.5108 114.091 23.0296 115.425 15.365H115.418Z"
            fill="black" />
        <path
            d="M147.14 4.96434V10.9384C147.14 11.2751 146.866 11.5473 146.527 11.5473H131.892C131.553 11.5473 131.279 11.8195 131.279 12.1561V18.1015C131.279 18.4382 131.553 18.7104 131.892 18.7104H143.643C143.982 18.7104 144.256 18.9826 144.256 19.3193V25.2647C144.256 25.6014 143.982 25.8736 143.643 25.8736H131.892C131.553 25.8736 131.279 26.1458 131.279 26.4824V38.1297C131.279 38.4664 131.005 38.7386 130.666 38.7386H124.682C124.343 38.7386 124.069 38.4664 124.069 38.1297V4.96434C124.069 4.62767 124.343 4.35547 124.682 4.35547H146.527C146.866 4.35547 147.14 4.62767 147.14 4.96434Z"
            fill="black" />
        <path
            d="M157.233 13.574V38.1794C157.233 38.5089 156.959 38.774 156.621 38.774H149.188C148.849 38.774 148.575 38.5089 148.575 38.1794V13.574C148.575 13.2445 148.849 12.9795 149.188 12.9795H156.621C156.959 12.9795 157.233 13.2445 157.233 13.574Z"
            fill="black" />
        <path
            d="M183.138 15.8449C185.091 18.0583 186.072 19.5411 186.072 23.4092V38.1295C186.072 38.4661 185.798 38.7383 185.459 38.7383H179.425C179.086 38.7383 178.812 38.4661 178.812 38.1295V25.4579C178.812 16.8549 165.835 16.8549 165.734 25.8733V38.1295C165.734 38.4661 165.46 38.7383 165.121 38.7383H159.238C158.899 38.7383 158.625 38.4661 158.625 38.1295V13.5957C158.625 13.259 158.899 12.9868 159.238 12.9868H165.222C165.561 12.9868 165.835 13.259 165.835 13.5957V14.4194C165.835 15.014 166.577 15.2432 166.938 14.7776C167.601 14.0828 171.869 12.9868 173.044 12.9868C176.123 12.9868 180.254 12.9868 183.138 15.8521V15.8449Z"
            fill="black" />
        <path
            d="M215.739 4.38379H209.748C209.409 4.38379 209.135 4.6345 209.135 4.94968V15.3362C209.135 15.8735 208.515 15.9809 208.046 15.6801C207.34 15.2288 206.677 14.8635 205.725 14.3047C202.38 12.3062 196.951 12.514 193.606 14.5698C189.424 17.0554 187.506 21.518 187.506 26.5752C187.506 33.0292 193.274 38.7597 200.015 38.7311C202.228 38.7311 204.124 38.3586 205.725 37.4417C206.561 36.9618 207.693 36.3314 208.119 36.0807C208.594 35.8014 209.135 35.8873 209.135 36.4245V38.158C209.135 38.4732 209.409 38.7239 209.748 38.7239H215.739C216.078 38.7239 216.352 38.4732 216.352 38.158V4.94968C216.352 4.6345 216.078 4.38379 215.739 4.38379ZM200.902 33.2155C196.987 33.2155 193.815 30.0637 193.815 26.1741C193.815 22.2845 196.987 19.1327 200.902 19.1327C204.817 19.1327 207.989 22.2845 207.989 26.1741C207.989 30.0637 204.817 33.2155 200.902 33.2155Z"
            fill="black" />
        <path
            d="M32.6161 4.38379H25.1902C24.8518 4.38379 24.5774 4.65639 24.5774 4.99266V10.9381C24.5774 11.2743 24.8518 11.5469 25.1902 11.5469H32.6161C32.9545 11.5469 33.2289 11.2743 33.2289 10.9381V4.99266C33.2289 4.65639 32.9545 4.38379 32.6161 4.38379Z"
            fill="black" />
        <path
            d="M156.621 4.38379H149.195C148.856 4.38379 148.582 4.65639 148.582 4.99266V10.9381C148.582 11.2743 148.856 11.5469 149.195 11.5469H156.621C156.959 11.5469 157.234 11.2743 157.234 10.9381V4.99266C157.234 4.65639 156.959 4.38379 156.621 4.38379Z"
            fill="black" />
        <path
            d="M233.172 26.9049L228.622 30.422C228.19 30.7515 227.57 30.6584 227.26 30.2143L223.972 25.5081C223.821 25.286 223.77 25.0138 223.828 24.7559L228.363 5.37247C228.392 5.25786 228.392 5.13608 228.377 5.02147L227.808 1.1677C227.714 0.544507 228.262 0.00727083 228.889 0.100392L236.128 1.20352C236.755 1.29664 237.115 1.96997 236.841 2.54302L235.14 6.05297C235.089 6.16041 235.061 6.27502 235.046 6.38963L233.539 26.2316C233.518 26.4966 233.388 26.7401 233.179 26.9049H233.172Z"
            fill="black" />
        <path d="M234.7 11.096L228.002 6.89835L228.399 5.20068L234.844 9.01864L234.7 11.096Z"
            fill="#EDC413" />
        <path d="M234.138 18.3163L226.503 13.3164L226.972 11.2964L234.311 16.0026L234.138 18.3163Z"
            fill="#EDC413" />
        <path
            d="M232.069 26.2816L224.78 20.5511L225.284 18.5454L233.684 24.2759L233.554 25.9449C233.554 25.9449 233.554 26.4177 233.395 26.6613C233.237 26.9048 233.02 27.0266 233.02 27.0266L232.069 26.2888V26.2816Z"
            fill="#EDC413" />
        <path
            d="M227.065 40.2641C229.16 40.2641 230.857 38.5772 230.857 36.4963C230.857 34.4154 229.16 32.7285 227.065 32.7285C224.971 32.7285 223.273 34.4154 223.273 36.4963C223.273 38.5772 224.971 40.2641 227.065 40.2641Z"
            fill="black" />
        <path
            d="M2.50892 47.5776C2.97033 47.2982 3.52547 47.1621 4.15991 47.1621V48.473H3.78501C3.1001 48.473 2.53776 48.6449 2.10518 48.9959C1.67261 49.3469 1.44911 49.9199 1.44911 50.7222V54.5545H0.245117V47.2767H1.45632V48.7452C1.69424 48.2437 2.04751 47.8498 2.50892 47.5704V47.5776Z"
            fill="black" />
        <path
            d="M12.0473 51.1735H6.19313C6.22196 52.0044 6.45988 52.6276 6.90687 53.043C7.35387 53.4585 7.90179 53.6662 8.55065 53.6662C9.13463 53.6662 9.63209 53.5158 10.0214 53.2221C10.4179 52.9284 10.6558 52.5345 10.7496 52.033H12.0401C11.9536 52.5345 11.7517 52.9857 11.4489 53.3869C11.1389 53.7808 10.7424 54.096 10.2521 54.3109C9.76186 54.533 9.21393 54.6404 8.60112 54.6404C7.90179 54.6404 7.27456 54.49 6.73384 54.1892C6.19313 53.8883 5.76776 53.4585 5.45775 52.8998C5.14774 52.3411 4.99634 51.682 4.99634 50.9156C4.99634 50.1491 5.14774 49.4901 5.45775 48.9314C5.76776 48.3727 6.18592 47.9357 6.73384 47.6349C7.27456 47.334 7.90179 47.1836 8.60112 47.1836C9.30045 47.1836 9.93489 47.334 10.4612 47.6349C10.9875 47.9357 11.3912 48.3369 11.6724 48.8383C11.9536 49.3397 12.0905 49.8984 12.0905 50.5073C12.0905 50.7652 12.0761 50.9872 12.0401 51.1663L12.0473 51.1735ZM10.6054 49.2394C10.4035 48.8813 10.1223 48.6091 9.76186 48.43C9.40859 48.2509 9.01927 48.1649 8.60112 48.1649C7.93063 48.1649 7.37549 48.3727 6.92129 48.781C6.46709 49.1893 6.22196 49.7981 6.18592 50.5932H10.8649C10.8938 50.056 10.8 49.6047 10.5982 49.2394H10.6054Z"
            fill="black" />
        <path
            d="M18.4926 47.7138C18.9829 48.0648 19.3289 48.5376 19.5236 49.1321V47.2769H20.7348V54.5546H19.5236V52.6994C19.3289 53.2939 18.9829 53.7667 18.4926 54.1177C18.0024 54.4687 17.3968 54.6478 16.683 54.6478C16.0342 54.6478 15.4574 54.4973 14.9455 54.1965C14.4409 53.8956 14.0443 53.4658 13.7487 52.9071C13.4604 52.3484 13.3162 51.6894 13.3162 50.9229C13.3162 50.1565 13.4604 49.4975 13.7487 48.9387C14.0371 48.38 14.4336 47.9431 14.9455 47.6422C15.4502 47.3413 16.027 47.1909 16.683 47.1909C17.3968 47.1909 17.9952 47.37 18.4926 47.721V47.7138ZM15.2411 48.9674C14.7941 49.4401 14.5706 50.092 14.5706 50.9229C14.5706 51.7538 14.7941 52.4057 15.2411 52.8785C15.6881 53.3512 16.2865 53.5876 17.0363 53.5876C17.5193 53.5876 17.9447 53.4802 18.3268 53.2581C18.7017 53.036 18.9973 52.728 19.2136 52.3269C19.4299 51.9258 19.5308 51.4602 19.5308 50.9301C19.5308 50.4 19.4227 49.9344 19.2136 49.5261C18.9973 49.1178 18.7017 48.8098 18.3268 48.5949C17.9519 48.38 17.5193 48.2726 17.0363 48.2726C16.2865 48.2726 15.6881 48.5089 15.2411 48.9817V48.9674Z"
            fill="black" />
        <path d="M23.8926 44.748V54.5544H22.6814V44.748H23.8926Z" fill="black" />
        <path
            d="M29.3358 53.4946V54.5547H28.4274C27.6776 54.5547 27.1224 54.3756 26.7548 54.0246C26.3871 53.6736 26.1996 53.0791 26.1996 52.2482V48.3228H25.1038V47.277H26.1996V45.4575H27.4252V47.277H29.3214V48.3228H27.4252V52.2697C27.4252 52.7353 27.5118 53.0576 27.6848 53.2295C27.8578 53.4014 28.1606 53.4874 28.586 53.4874H29.3358V53.4946Z"
            fill="black" />
        <path
            d="M30.828 44.6047C30.9794 44.4686 31.1813 44.397 31.4264 44.397C31.6715 44.397 31.8734 44.4686 32.0248 44.6047C32.1762 44.7408 32.2483 44.9199 32.2483 45.1419C32.2483 45.364 32.1762 45.5431 32.0248 45.6792C31.8734 45.8153 31.6715 45.8869 31.4264 45.8869C31.1813 45.8869 30.9794 45.8153 30.828 45.6792C30.6766 45.5431 30.6045 45.364 30.6045 45.1419C30.6045 44.9199 30.6766 44.7408 30.828 44.6047ZM32.032 47.2766V54.5543H30.8208V47.2766H32.032Z"
            fill="black" />
        <path
            d="M45.0382 47.9715C45.5573 48.5159 45.8169 49.2967 45.8169 50.3211V54.5473H44.6057V50.4285C44.6057 49.7122 44.4326 49.1678 44.0794 48.7881C43.7261 48.4085 43.243 48.2223 42.6302 48.2223C42.0174 48.2223 41.4767 48.43 41.0874 48.8526C40.6981 49.2752 40.5106 49.8913 40.5106 50.7007V54.5545H39.2994V50.4357C39.2994 49.7194 39.1192 49.175 38.7659 48.7953C38.4126 48.4157 37.9296 48.2294 37.324 48.2294C36.6751 48.2294 36.156 48.4372 35.7667 48.8598C35.3774 49.2824 35.19 49.8984 35.19 50.7079V54.5616H33.9788V47.2839H35.19V48.9386C35.3702 48.3655 35.6874 47.9214 36.1416 47.6206C36.5958 47.3125 37.1293 47.1621 37.7205 47.1621C38.3117 47.1621 38.8813 47.3197 39.3427 47.6349C39.7969 47.9501 40.1285 48.4085 40.3232 49.0174C40.525 48.4228 40.8711 47.9715 41.3469 47.6492C41.8228 47.3269 42.3707 47.1621 42.9763 47.1621C43.827 47.1621 44.5191 47.4343 45.0382 47.9787V47.9715Z"
            fill="black" />
        <path
            d="M54.3818 51.1735H48.5276C48.5564 52.0044 48.7944 52.6276 49.2413 53.043C49.6883 53.4585 50.2363 53.6662 50.8851 53.6662C51.4691 53.6662 51.9666 53.5158 52.3559 53.2221C52.7524 52.9284 52.9903 52.5345 53.084 52.033H54.3746C54.288 52.5345 54.0862 52.9857 53.7834 53.3869C53.4734 53.7808 53.0768 54.096 52.5866 54.3109C52.0963 54.533 51.5484 54.6404 50.9356 54.6404C50.2363 54.6404 49.609 54.49 49.0683 54.1892C48.5276 53.8883 48.1022 53.4585 47.7922 52.8998C47.4822 52.3411 47.3308 51.682 47.3308 50.9156C47.3308 50.1491 47.4822 49.4901 47.7922 48.9314C48.1022 48.3727 48.5204 47.9357 49.0683 47.6349C49.609 47.334 50.2363 47.1836 50.9356 47.1836C51.6349 47.1836 52.2694 47.334 52.7957 47.6349C53.322 47.9357 53.7257 48.3369 54.0069 48.8383C54.288 49.3397 54.425 49.8984 54.425 50.5073C54.425 50.7652 54.4106 50.9872 54.3746 51.1663L54.3818 51.1735ZM52.9399 49.2394C52.738 48.8813 52.4568 48.6091 52.0963 48.43C51.7431 48.2509 51.3537 48.1649 50.9356 48.1649C50.2651 48.1649 49.71 48.3727 49.2558 48.781C48.8016 49.1893 48.5564 49.7981 48.5204 50.5932H53.1994C53.2282 50.056 53.1345 49.6047 52.9326 49.2394H52.9399Z"
            fill="black" />
        <path
            d="M56.9122 54.7478C56.9122 55.2063 56.7969 55.5787 56.5662 55.8509C56.3355 56.1231 55.9894 56.2664 55.528 56.2664V55.7507C55.7515 55.7507 55.9101 55.6934 56.0182 55.5716C56.1192 55.4498 56.1696 55.2636 56.1696 55.0057V54.8839H55.4919V53.6519H56.732C56.8546 54.0387 56.9194 54.404 56.9194 54.7407L56.9122 54.7478Z"
            fill="black" />
        <path
            d="M63.9199 47.5776C64.3814 47.2982 64.9365 47.1621 65.5709 47.1621V48.473H65.196C64.5111 48.473 63.9488 48.6449 63.5162 48.9959C63.0836 49.3469 62.8601 49.9199 62.8601 50.7222V54.5545H61.6489V47.2767H62.8601V48.7452C63.098 48.2437 63.4513 47.8498 63.9127 47.5704L63.9199 47.5776Z"
            fill="black" />
        <path
            d="M73.4511 51.1735H67.5969C67.6258 52.0044 67.8637 52.6276 68.3107 53.043C68.7577 53.4585 69.3056 53.6662 69.9545 53.6662C70.5384 53.6662 71.0359 53.5158 71.4252 53.2221C71.8217 52.9284 72.0597 52.5345 72.1534 52.033H73.4439C73.3574 52.5345 73.1555 52.9857 72.8527 53.3869C72.5427 53.7808 72.1462 54.096 71.6559 54.3109C71.1657 54.533 70.6177 54.6404 70.0049 54.6404C69.3056 54.6404 68.6784 54.49 68.1377 54.1892C67.5969 53.8883 67.1716 53.4585 66.8616 52.8998C66.5515 52.3411 66.4001 51.682 66.4001 50.9156C66.4001 50.1491 66.5515 49.4901 66.8616 48.9314C67.1716 48.3727 67.5897 47.9357 68.1377 47.6349C68.6784 47.334 69.3056 47.1836 70.0049 47.1836C70.7043 47.1836 71.3387 47.334 71.865 47.6349C72.3913 47.9357 72.795 48.3369 73.0762 48.8383C73.3574 49.3397 73.4944 49.8984 73.4944 50.5073C73.4944 50.7652 73.4799 50.9872 73.4439 51.1663L73.4511 51.1735ZM72.0092 49.2394C71.8073 48.8813 71.5261 48.6091 71.1657 48.43C70.8124 48.2509 70.4231 48.1649 70.0049 48.1649C69.3344 48.1649 68.7793 48.3727 68.3251 48.781C67.8709 49.1893 67.6258 49.7981 67.5897 50.5932H72.2687C72.2976 50.056 72.2038 49.6047 72.002 49.2394H72.0092Z"
            fill="black" />
        <path
            d="M79.9035 47.7138C80.3938 48.0648 80.7398 48.5376 80.9345 49.1321V47.2769H82.1457V54.5546H80.9345V52.6994C80.7398 53.2939 80.3938 53.7667 79.9035 54.1177C79.4133 54.4687 78.8077 54.6478 78.0939 54.6478C77.4451 54.6478 76.8683 54.4973 76.3564 54.1965C75.8517 53.8956 75.4552 53.4658 75.1596 52.9071C74.8712 52.3484 74.7271 51.6894 74.7271 50.9229C74.7271 50.1565 74.8712 49.4975 75.1596 48.9387C75.448 48.38 75.8445 47.9431 76.3564 47.6422C76.8611 47.3413 77.4378 47.1909 78.0939 47.1909C78.8077 47.1909 79.4061 47.37 79.9035 47.721V47.7138ZM76.652 48.9674C76.205 49.4401 75.9815 50.092 75.9815 50.9229C75.9815 51.7538 76.205 52.4057 76.652 52.8785C77.099 53.3512 77.6974 53.5876 78.4472 53.5876C78.9302 53.5876 79.3556 53.4802 79.7377 53.2581C80.1126 53.036 80.4082 52.728 80.6245 52.3269C80.8408 51.9258 80.9417 51.4602 80.9417 50.9301C80.9417 50.4 80.8336 49.9344 80.6245 49.5261C80.4082 49.1178 80.1126 48.8098 79.7377 48.5949C79.3628 48.38 78.9302 48.2726 78.4472 48.2726C77.6974 48.2726 77.099 48.5089 76.652 48.9817V48.9674Z"
            fill="black" />
        <path d="M85.2964 44.748V54.5544H84.0852V44.748H85.2964Z" fill="black" />
        <path
            d="M97.2209 51.1735H91.3667C91.3956 52.0044 91.6335 52.6276 92.0805 53.043C92.5275 53.4585 93.0754 53.6662 93.7242 53.6662C94.3082 53.6662 94.8057 53.5158 95.195 53.2221C95.5915 52.9284 95.8294 52.5345 95.9232 52.033H97.2137C97.1271 52.5345 96.9253 52.9857 96.6225 53.3869C96.3125 53.7808 95.9159 54.096 95.4257 54.3109C94.9354 54.533 94.3875 54.6404 93.7747 54.6404C93.0754 54.6404 92.4481 54.49 91.9074 54.1892C91.3667 53.8883 90.9413 53.4585 90.6313 52.8998C90.3213 52.3411 90.1699 51.682 90.1699 50.9156C90.1699 50.1491 90.3213 49.4901 90.6313 48.9314C90.9413 48.3727 91.3595 47.9357 91.9074 47.6349C92.4481 47.334 93.0754 47.1836 93.7747 47.1836C94.474 47.1836 95.1085 47.334 95.6348 47.6349C96.1611 47.9357 96.5648 48.3369 96.846 48.8383C97.1272 49.3397 97.2641 49.8984 97.2641 50.5073C97.2641 50.7652 97.2497 50.9872 97.2137 51.1663L97.2209 51.1735ZM95.779 49.2394C95.5771 48.8813 95.2959 48.6091 94.9354 48.43C94.5822 48.2509 94.1929 48.1649 93.7747 48.1649C93.1042 48.1649 92.5491 48.3727 92.0949 48.781C91.6407 49.1893 91.3955 49.7981 91.3595 50.5932H96.0385C96.0674 50.056 95.9736 49.6047 95.7718 49.2394H95.779Z"
            fill="black" />
        <path
            d="M103.666 47.7138C104.156 48.0648 104.503 48.5376 104.697 49.1321V47.2769H105.908V54.5546H104.697V52.6994C104.503 53.2939 104.156 53.7667 103.666 54.1177C103.176 54.4687 102.57 54.6478 101.857 54.6478C101.208 54.6478 100.631 54.4973 100.119 54.1965C99.6144 53.8956 99.2179 53.4658 98.9223 52.9071C98.6339 52.3484 98.4897 51.6894 98.4897 50.9229C98.4897 50.1565 98.6339 49.4975 98.9223 48.9387C99.2107 48.38 99.6072 47.9431 100.119 47.6422C100.624 47.3413 101.201 47.1909 101.857 47.1909C102.57 47.1909 103.169 47.37 103.666 47.721V47.7138ZM100.415 48.9674C99.9677 49.4401 99.7442 50.092 99.7442 50.9229C99.7442 51.7538 99.9677 52.4057 100.415 52.8785C100.862 53.3512 101.46 53.5876 102.21 53.5876C102.693 53.5876 103.118 53.4802 103.5 53.2581C103.875 53.036 104.171 52.728 104.387 52.3269C104.603 51.9258 104.704 51.4602 104.704 50.9301C104.704 50.4 104.596 49.9344 104.387 49.5261C104.171 49.1178 103.875 48.8098 103.5 48.5949C103.125 48.38 102.693 48.2726 102.21 48.2726C101.46 48.2726 100.862 48.5089 100.415 48.9817V48.9674Z"
            fill="black" />
        <path
            d="M112.138 47.8284C112.642 48.2582 112.945 48.8313 113.053 49.5548H111.892C111.842 49.125 111.662 48.7668 111.352 48.4875C111.042 48.2081 110.631 48.072 110.119 48.072C109.686 48.072 109.34 48.1794 109.095 48.3872C108.85 48.5949 108.727 48.8743 108.727 49.2253C108.727 49.4903 108.807 49.7052 108.973 49.8699C109.138 50.0347 109.34 50.1565 109.585 50.2424C109.83 50.3284 110.162 50.4143 110.595 50.5146C111.135 50.6364 111.575 50.7653 111.907 50.8943C112.238 51.0232 112.527 51.2309 112.758 51.5103C112.995 51.7897 113.111 52.1693 113.111 52.6492C113.111 53.2438 112.887 53.7237 112.44 54.0962C111.993 54.4687 111.395 54.6549 110.645 54.6549C109.773 54.6549 109.059 54.4472 108.511 54.0317C107.963 53.6163 107.639 53.036 107.538 52.2982H108.713C108.756 52.7424 108.951 53.1005 109.29 53.3727C109.629 53.6449 110.083 53.781 110.645 53.781C111.063 53.781 111.388 53.6736 111.626 53.4658C111.864 53.2581 111.979 52.9787 111.979 52.6277C111.979 52.3484 111.892 52.1192 111.727 51.9544C111.561 51.7897 111.352 51.6607 111.099 51.5676C110.847 51.4745 110.508 51.3885 110.076 51.2882C109.535 51.1665 109.102 51.0375 108.778 50.9158C108.453 50.794 108.179 50.5934 107.949 50.3284C107.725 50.0562 107.61 49.698 107.61 49.2324C107.61 48.6236 107.833 48.1293 108.288 47.7568C108.742 47.3843 109.362 47.1909 110.14 47.1909C110.97 47.1909 111.633 47.4058 112.138 47.8356V47.8284Z"
            fill="black" />
        <path
            d="M115.252 47.2769L117.624 53.0002L119.823 47.2769H121.171L116.824 58.0001H115.447L116.968 54.4328L113.889 47.2769H115.252Z"
            fill="black" />
        <path
            d="M127.847 47.5776C128.309 47.2982 128.864 47.1621 129.498 47.1621V48.473H129.123C128.438 48.473 127.876 48.6449 127.443 48.9959C127.011 49.3469 126.787 49.9199 126.787 50.7222V54.5545H125.576V47.2767H126.787V48.7452C127.025 48.2437 127.379 47.8498 127.84 47.5704L127.847 47.5776Z"
            fill="black" />
        <path
            d="M137.378 51.1735H131.524C131.553 52.0044 131.791 52.6276 132.238 53.043C132.685 53.4585 133.233 53.6662 133.889 53.6662C134.473 53.6662 134.97 53.5158 135.36 53.2221C135.749 52.9284 135.994 52.5345 136.088 52.033H137.378C137.292 52.5345 137.09 52.9857 136.787 53.3869C136.484 53.788 136.081 54.096 135.59 54.3109C135.1 54.533 134.552 54.6404 133.939 54.6404C133.24 54.6404 132.613 54.49 132.072 54.1892C131.531 53.8883 131.106 53.4585 130.796 52.8998C130.486 52.3411 130.334 51.682 130.334 50.9156C130.334 50.1491 130.486 49.4901 130.796 48.9314C131.106 48.3727 131.524 47.9357 132.072 47.6349C132.613 47.334 133.24 47.1836 133.939 47.1836C134.639 47.1836 135.273 47.334 135.799 47.6349C136.326 47.9357 136.729 48.3369 137.011 48.8383C137.292 49.3397 137.429 49.8984 137.429 50.5073C137.429 50.7652 137.407 50.9872 137.378 51.1663V51.1735ZM135.936 49.2394C135.734 48.8813 135.453 48.6091 135.093 48.43C134.732 48.2509 134.35 48.1649 133.932 48.1649C133.269 48.1649 132.706 48.3727 132.252 48.781C131.798 49.1893 131.553 49.7981 131.517 50.5932H136.196C136.225 50.056 136.131 49.6047 135.929 49.2394H135.936Z"
            fill="black" />
        <path
            d="M144.581 47.9284C145.193 48.4227 145.575 49.0888 145.712 49.9198H144.429C144.343 49.3968 144.098 48.9885 143.701 48.6949C143.304 48.4012 142.814 48.2507 142.23 48.2507C141.805 48.2507 141.416 48.351 141.062 48.5444C140.709 48.7378 140.428 49.0387 140.219 49.4398C140.002 49.841 139.902 50.3352 139.902 50.9298C139.902 51.5243 140.01 52.0186 140.219 52.4197C140.435 52.8208 140.716 53.1217 141.062 53.3151C141.416 53.5085 141.805 53.6088 142.23 53.6088C142.814 53.6088 143.312 53.4583 143.701 53.1575C144.09 52.8566 144.335 52.4483 144.429 51.9254H145.712C145.568 52.7635 145.193 53.4297 144.581 53.9168C143.968 54.4039 143.196 54.6546 142.259 54.6546C141.56 54.6546 140.933 54.5042 140.392 54.2033C139.851 53.9025 139.426 53.4727 139.116 52.9139C138.806 52.3552 138.654 51.6962 138.654 50.9298C138.654 50.1633 138.806 49.5043 139.116 48.9456C139.426 48.3868 139.844 47.9499 140.392 47.649C140.933 47.3482 141.56 47.1978 142.259 47.1978C143.189 47.1978 143.968 47.4485 144.581 47.9427V47.9284Z"
            fill="black" />
        <path
            d="M149.57 47.5776C150.031 47.2982 150.586 47.1621 151.221 47.1621V48.473H150.846C150.161 48.473 149.598 48.6449 149.166 48.9959C148.733 49.3469 148.51 49.9199 148.51 50.7222V54.5545H147.299V47.2767H148.51V48.7452C148.748 48.2437 149.101 47.8498 149.562 47.5704L149.57 47.5776Z"
            fill="black" />
        <path
            d="M158.935 47.2769V54.5546H157.724V52.8426C157.536 53.4372 157.205 53.8884 156.729 54.2036C156.253 54.5188 155.698 54.6764 155.071 54.6764C154.227 54.6764 153.542 54.4042 153.016 53.8598C152.49 53.3154 152.23 52.5346 152.23 51.5246V47.284H153.441V51.4028C153.441 52.1263 153.629 52.685 154.004 53.079C154.378 53.473 154.883 53.6664 155.525 53.6664C156.166 53.6664 156.729 53.4515 157.125 53.0217C157.529 52.5919 157.724 51.9687 157.724 51.145V47.2769H158.935Z"
            fill="black" />
        <path
            d="M160.896 44.6047C161.047 44.4686 161.249 44.397 161.494 44.397C161.739 44.397 161.941 44.4686 162.093 44.6047C162.244 44.7408 162.316 44.9199 162.316 45.1419C162.316 45.364 162.237 45.5431 162.093 45.6792C161.941 45.8153 161.739 45.8869 161.494 45.8869C161.249 45.8869 161.047 45.8153 160.896 45.6792C160.744 45.5431 160.672 45.364 160.672 45.1419C160.672 44.9199 160.744 44.7408 160.896 44.6047ZM162.1 47.2766V54.5543H160.889V47.2766H162.1Z"
            fill="black" />
        <path
            d="M167.536 53.4946V54.5547H166.627C165.878 54.5547 165.322 54.3756 164.955 54.0246C164.587 53.6736 164.4 53.0791 164.4 52.2482V48.3228H163.304V47.277H164.4V45.4575H165.625V47.277H167.521V48.3228H165.625V52.2697C165.625 52.7353 165.712 53.0576 165.885 53.2295C166.058 53.4014 166.361 53.4874 166.786 53.4874H167.536V53.4946Z"
            fill="black" />
        <path
            d="M180.08 47.9715C180.599 48.5159 180.859 49.2967 180.859 50.3211V54.5473H179.648V50.4285C179.648 49.7122 179.475 49.1678 179.121 48.7881C178.768 48.4085 178.285 48.2223 177.672 48.2223C177.06 48.2223 176.519 48.43 176.13 48.8526C175.74 49.2752 175.546 49.8913 175.546 50.7007V54.5545H174.334V50.4357C174.334 49.7194 174.154 49.175 173.801 48.7953C173.448 48.4157 172.965 48.2294 172.359 48.2294C171.71 48.2294 171.191 48.4372 170.802 48.8598C170.412 49.2824 170.225 49.8984 170.225 50.7079V54.5616H169.014V47.2839H170.225V48.9386C170.405 48.3655 170.722 47.9214 171.177 47.6206C171.638 47.3125 172.164 47.1621 172.755 47.1621C173.347 47.1621 173.916 47.3197 174.378 47.6349C174.832 47.9501 175.163 48.4085 175.358 49.0174C175.56 48.4228 175.906 47.9715 176.382 47.6492C176.858 47.3269 177.406 47.1621 178.011 47.1621C178.862 47.1621 179.554 47.4343 180.073 47.9787L180.08 47.9715Z"
            fill="black" />
        <path
            d="M189.424 51.1735H183.57C183.599 52.0044 183.837 52.6276 184.284 53.043C184.731 53.4585 185.279 53.6662 185.935 53.6662C186.519 53.6662 187.016 53.5158 187.405 53.2221C187.795 52.9284 188.04 52.5345 188.134 52.033H189.424C189.338 52.5345 189.136 52.9857 188.833 53.3869C188.53 53.788 188.126 54.096 187.636 54.3109C187.146 54.533 186.598 54.6404 185.985 54.6404C185.286 54.6404 184.659 54.49 184.118 54.1892C183.577 53.8883 183.152 53.4585 182.842 52.8998C182.532 52.3411 182.38 51.682 182.38 50.9156C182.38 50.1491 182.532 49.4901 182.842 48.9314C183.152 48.3727 183.57 47.9357 184.118 47.6349C184.659 47.334 185.286 47.1836 185.985 47.1836C186.684 47.1836 187.319 47.334 187.845 47.6349C188.372 47.9357 188.775 48.3369 189.056 48.8383C189.338 49.3397 189.475 49.8984 189.475 50.5073C189.475 50.7652 189.453 50.9872 189.424 51.1663V51.1735ZM187.982 49.2394C187.78 48.8813 187.499 48.6091 187.139 48.43C186.778 48.2509 186.396 48.1649 185.978 48.1649C185.315 48.1649 184.752 48.3727 184.298 48.781C183.844 49.1893 183.599 49.7981 183.563 50.5932H188.242C188.271 50.056 188.177 49.6047 187.975 49.2394H187.982Z"
            fill="black" />
        <path
            d="M196.987 47.9717C197.513 48.5161 197.773 49.2969 197.773 50.3212V54.5475H196.562V50.4287C196.562 49.7052 196.374 49.1465 195.999 48.7597C195.624 48.3728 195.12 48.1794 194.478 48.1794C193.836 48.1794 193.274 48.3943 192.877 48.8241C192.481 49.2539 192.279 49.8771 192.279 50.7009V54.5546H191.068V47.2769H192.279V48.996C192.467 48.4015 192.798 47.9502 193.274 47.6279C193.75 47.3127 194.298 47.1479 194.925 47.1479C195.776 47.1479 196.468 47.4201 196.994 47.9645L196.987 47.9717Z"
            fill="black" />
        <path
            d="M203.137 53.4946V54.5547H202.228C201.479 54.5547 200.923 54.3756 200.556 54.0246C200.188 53.6736 200.001 53.0791 200.001 52.2482V48.3228H198.905V47.277H200.001V45.4575H201.226V47.277H203.122V48.3228H201.226V52.2697C201.226 52.7353 201.313 53.0576 201.486 53.2295C201.659 53.4014 201.962 53.4874 202.387 53.4874H203.137V53.4946Z"
            fill="black" />
    </g>
    <defs>
        <clipPath id="clip0_136_2606">
            <rect width="237" height="58" fill="white" />
        </clipPath>
    </defs>
</svg>