<svg xmlns="http://www.w3.org/2000/svg" width="202.983" height="65.619" viewBox="0 0 202.983 65.619"><path d="M272.284,324.621a10.5,10.5,0,1,1,10.5-10.5h5.25A15.731,15.731,0,0,0,280.988,301a15.744,15.744,0,0,0,3.032-23.623h3.138v-5.25H272.284A15.748,15.748,0,0,0,263.58,301a15.748,15.748,0,0,0,8.7,28.872Zm-10.5-36.747a10.5,10.5,0,1,1,10.5,10.5A10.5,10.5,0,0,1,261.785,287.875Z" transform="translate(-256.535 -264.252)" fill="#fff"/><path d="M403.577,259.37v11.888a15.747,15.747,0,1,0,5.25,11.736V259.37Zm-10.5,34.122a10.5,10.5,0,1,1,10.5-10.5A10.5,10.5,0,0,1,393.078,293.492Z" transform="translate(-302.762 -259.37)" fill="#fff"/><path d="M491.047,272.126a15.749,15.749,0,1,0,10.5,27.484v3.138h5.25V287.875A15.749,15.749,0,0,0,491.047,272.126Zm0,26.248a10.5,10.5,0,1,1,10.5-10.5A10.5,10.5,0,0,1,491.047,298.374Z" transform="translate(-340.254 -264.252)" fill="#fff"/><path d="M446.3,276.139V273h-5.25v30.623h5.25V287.875a10.5,10.5,0,0,1,10.5-10.5v-5.25A15.688,15.688,0,0,0,446.3,276.139Z" transform="translate(-327.147 -264.252)" fill="#fff"/><path d="M333.773,272.126a15.749,15.749,0,1,0,11.7,26.286l-3.909-3.52a10.477,10.477,0,0,1-17.948-4.392H349.3a15.738,15.738,0,0,0-15.527-18.374ZM323.618,285.25a10.485,10.485,0,0,1,20.309,0Z" transform="translate(-280.066 -264.252)" fill="#fff"/><g transform="translate(171.486 7.874)"><path d="M561.815,277.376h3.138v-5.25H550.08a15.754,15.754,0,1,0,11.735,5.25Zm-11.735,21a10.5,10.5,0,1,1,10.5-10.5A10.5,10.5,0,0,1,550.08,298.374Z" transform="translate(-534.331 -272.126)" fill="#fff"/><path d="M559.843,350.656v5.25a15.748,15.748,0,0,0,15.748-15.749h-5.25A10.5,10.5,0,0,1,559.843,350.656Z" transform="translate(-544.094 -298.161)" fill="#fff"/></g></svg>