<svg width="224" height="48" viewBox="0 0 224 48" fill="none" xmlns="http://www.w3.org/2000/svg">
<path d="M33.5046 24.6716C33.2031 23.6789 29.3214 20.1431 23.9888 16.4088C19.6832 19.7083 16.0087 23.0739 15.5848 24.0949V34.6927C16.753 35.364 18.025 35.8461 19.3534 36.1203V28.1034C19.3534 27.2431 20.0506 26.534 20.9174 26.534H27.0791C27.9364 26.534 28.643 27.2336 28.643 28.1034V34.343C31.6674 32.2158 33.4763 28.6139 33.5046 24.6716Z" fill="#225B91"/>
<path d="M25.5057 35.865V29.6727H22.4719V36.385C23.5177 36.3377 24.5352 36.1581 25.5057 35.865Z" fill="#225B91"/>
<path d="M23.9794 47.3894H24.1207C24.1867 47.3894 24.2338 47.3894 24.2809 47.3894C37.1319 47.3894 47.5898 36.8955 47.5898 24.0003C47.5898 17.7702 45.1025 11.8993 40.5896 7.46543C36.0955 3.05044 30.1788 0.611328 23.9323 0.611328C17.7235 0.611328 11.9386 3.04099 7.62356 7.45597C3.32733 11.8521 0.962524 17.7229 0.962524 24.0003V24.1422C1.69741 35.1276 10.7421 43.7402 21.558 43.7402C31.7145 43.7402 39.9866 35.3072 39.9866 24.9457C39.9866 15.5485 32.9299 8.18393 23.9323 8.18393C15.8015 8.18393 8.93316 15.0191 8.93316 23.1117C8.93316 26.5056 10.1768 29.7105 12.4474 32.178V23.972C12.4474 22.0812 15.9993 18.4603 22.9995 13.2229C23.5366 12.8258 24.262 12.8069 24.8085 13.1851C24.8367 13.204 27.6067 15.0947 30.4614 17.3637C35.8788 21.6841 36.6137 23.4426 36.6137 24.5959C36.6137 32.9627 30.1693 39.5237 21.9349 39.5237C13.041 39.5237 5.8052 32.1591 5.8052 23.1117C5.8052 13.3269 14.1056 5.05467 23.9228 5.05467C34.6728 5.05467 43.1051 13.7901 43.1051 24.9457C43.1051 36.1108 34.8895 45.4702 23.9982 46.7276C23.8004 46.7276 23.6496 46.8694 23.6496 47.0585C23.6496 47.2381 23.8004 47.3799 23.9794 47.3894Z" fill="#225B91"/>
<path d="M70.6298 8.296C73.8218 8.296 76.4498 9.076 78.5138 10.636C80.5778 12.196 81.8618 14.308 82.3658 16.972H75.8498C75.4178 16.06 74.7578 15.34 73.8698 14.812C72.9818 14.26 71.9138 13.984 70.6658 13.984C68.7218 13.984 67.1618 14.644 65.9858 15.964C64.8098 17.26 64.2218 19.024 64.2218 21.256C64.2218 23.68 64.8338 25.54 66.0578 26.836C67.3058 28.132 69.0698 28.78 71.3498 28.78C72.8138 28.78 74.0978 28.384 75.2018 27.592C76.3058 26.776 77.0858 25.624 77.5418 24.136H69.7658V19.708H82.6898V25.792C82.2098 27.28 81.4418 28.66 80.3858 29.932C79.3298 31.204 77.9738 32.236 76.3178 33.028C74.6858 33.82 72.8138 34.216 70.7018 34.216C68.1338 34.216 65.8898 33.676 63.9698 32.596C62.0498 31.492 60.5618 29.956 59.5058 27.988C58.4738 26.02 57.9578 23.776 57.9578 21.256C57.9578 18.736 58.4738 16.492 59.5058 14.524C60.5618 12.556 62.0378 11.032 63.9338 9.952C65.8538 8.848 68.0858 8.296 70.6298 8.296ZM105.216 23.416C105.216 23.92 105.156 24.472 105.036 25.072H91.1037C91.1757 26.584 91.5597 27.676 92.2557 28.348C92.9517 28.996 93.8397 29.32 94.9197 29.32C95.8317 29.32 96.5877 29.092 97.1877 28.636C97.7877 28.18 98.1837 27.592 98.3757 26.872H104.892C104.628 28.288 104.052 29.56 103.164 30.688C102.276 31.792 101.148 32.668 99.7797 33.316C98.4117 33.94 96.8877 34.252 95.2077 34.252C93.2397 34.252 91.4877 33.844 89.9517 33.028C88.4397 32.188 87.2517 30.988 86.3877 29.428C85.5237 27.868 85.0917 26.044 85.0917 23.956C85.0917 21.844 85.5117 20.02 86.3517 18.484C87.2157 16.924 88.4157 15.736 89.9517 14.92C91.4877 14.08 93.2397 13.66 95.2077 13.66C97.1997 13.66 98.9517 14.068 100.464 14.884C101.976 15.7 103.14 16.852 103.956 18.34C104.796 19.804 105.216 21.496 105.216 23.416ZM98.9877 22.48C99.0117 21.16 98.6517 20.176 97.9077 19.528C97.1877 18.856 96.2877 18.52 95.2077 18.52C94.0797 18.52 93.1437 18.856 92.3997 19.528C91.6557 20.2 91.2357 21.184 91.1397 22.48H98.9877Z" fill="#00C49A"/>
<path d="M143.021 8.548L136.937 34H129.305L125.237 16.972L121.133 34H113.501L107.417 8.548H114.113L117.389 26.98L121.853 8.548H128.585L133.049 26.98L136.361 8.548H143.021ZM155.649 13.66C157.641 13.66 159.417 14.08 160.977 14.92C162.561 15.736 163.797 16.924 164.685 18.484C165.597 20.044 166.053 21.868 166.053 23.956C166.053 26.044 165.597 27.868 164.685 29.428C163.797 30.988 162.561 32.188 160.977 33.028C159.417 33.844 157.641 34.252 155.649 34.252C153.657 34.252 151.869 33.844 150.285 33.028C148.701 32.188 147.453 30.988 146.541 29.428C145.653 27.868 145.209 26.044 145.209 23.956C145.209 21.868 145.653 20.044 146.541 18.484C147.453 16.924 148.701 15.736 150.285 14.92C151.869 14.08 153.657 13.66 155.649 13.66ZM155.649 18.988C154.473 18.988 153.477 19.42 152.661 20.284C151.869 21.124 151.473 22.348 151.473 23.956C151.473 25.564 151.869 26.788 152.661 27.628C153.477 28.468 154.473 28.888 155.649 28.888C156.825 28.888 157.809 28.468 158.601 27.628C159.393 26.788 159.789 25.564 159.789 23.956C159.789 22.348 159.393 21.124 158.601 20.284C157.809 19.42 156.825 18.988 155.649 18.988ZM178.641 13.66C180.633 13.66 182.409 14.08 183.969 14.92C185.553 15.736 186.789 16.924 187.677 18.484C188.589 20.044 189.045 21.868 189.045 23.956C189.045 26.044 188.589 27.868 187.677 29.428C186.789 30.988 185.553 32.188 183.969 33.028C182.409 33.844 180.633 34.252 178.641 34.252C176.649 34.252 174.861 33.844 173.277 33.028C171.693 32.188 170.445 30.988 169.533 29.428C168.645 27.868 168.201 26.044 168.201 23.956C168.201 21.868 168.645 20.044 169.533 18.484C170.445 16.924 171.693 15.736 173.277 14.92C174.861 14.08 176.649 13.66 178.641 13.66ZM178.641 18.988C177.465 18.988 176.469 19.42 175.653 20.284C174.861 21.124 174.465 22.348 174.465 23.956C174.465 25.564 174.861 26.788 175.653 27.628C176.469 28.468 177.465 28.888 178.641 28.888C179.817 28.888 180.801 28.468 181.593 27.628C182.385 26.788 182.781 25.564 182.781 23.956C182.781 22.348 182.385 21.124 181.593 20.284C180.801 19.42 179.817 18.988 178.641 18.988ZM204.981 13.696C207.285 13.696 209.109 14.464 210.453 16C211.821 17.536 212.505 19.648 212.505 22.336V34H206.349V23.056C206.349 21.712 205.989 20.668 205.269 19.924C204.573 19.156 203.637 18.772 202.461 18.772C201.213 18.772 200.217 19.168 199.473 19.96C198.753 20.752 198.393 21.88 198.393 23.344V34H192.237V13.912H198.393V17.584C198.969 16.384 199.821 15.436 200.949 14.74C202.101 14.044 203.445 13.696 204.981 13.696ZM221.857 27.844V34H215.485V27.844H221.857Z" fill="#225B91"/>
</svg>
