<svg width="204" height="52" viewBox="0 0 204 52" fill="none" xmlns="http://www.w3.org/2000/svg">
    <path
        d="M44.3722 7.32856C39.6978 2.62225 32.0934 2.62225 27.4231 7.32856L22.9336 11.8487L26.3298 15.2722L30.8193 10.7521C32.1658 9.39642 33.9704 8.64778 35.8956 8.64778C37.8208 8.64778 39.6255 9.39642 40.9719 10.7521C43.7733 13.5686 43.7733 18.1575 40.9719 20.974L36.4824 25.4942L39.8827 28.9177L44.3722 24.3975C49.0465 19.6912 49.0465 12.0349 44.3722 7.32856Z"
        fill="#056063"></path>
    <path
        d="M20.4579 7.32856C15.7876 2.62225 8.17916 2.62225 3.5048 7.32856C-1.16957 12.0349 -1.16957 19.6912 3.5048 24.3975L7.99428 28.9136L11.3905 25.4942L6.90105 20.974C4.09964 18.1575 4.09964 13.5686 6.90105 10.7521C8.24749 9.39642 10.0521 8.64778 11.9773 8.64778C13.9025 8.64778 15.7072 9.39642 17.0536 10.7521L21.0367 14.7623L21.5511 15.1346L22.0455 14.7623L24.9393 11.8487L20.4499 7.32856H20.4579Z"
        fill="#056063"></path>
    <path
        d="M35.1038 26.8862L23.9424 38.1239L12.777 26.8862L9.87909 29.7998L9.4209 30.4271L9.88311 30.8156L23.227 44.2465L23.9424 44.9669L38.5 30.3057L35.1038 26.8862Z"
        fill="#056063"></path>
    <path
        d="M44.3723 31.4023L24.445 11.3388L24.232 11.1284H23.6411L3.5048 31.4023C-1.16957 36.1087 -1.16957 43.765 3.5048 48.4713C5.83997 50.8224 8.91066 52 11.9814 52C15.052 52 18.1227 50.8224 20.4579 48.4713L23.9426 44.9628L27.4232 48.4713C32.0936 53.1776 39.702 53.1776 44.3723 48.4713C49.0467 43.765 49.0467 36.1087 44.3723 31.4023ZM22.0535 40.0946L21.4064 40.6693L17.0617 45.0478C15.7152 46.4034 13.9106 47.1521 11.9854 47.1521C10.0602 47.1521 8.25553 46.4034 6.90908 45.0478C4.1117 42.2273 4.1117 37.6423 6.90908 34.8258L23.9426 17.676L40.9801 34.8258C43.7775 37.6464 43.7775 42.2313 40.9801 45.0478C39.6336 46.4034 37.829 47.1521 35.9038 47.1521C33.9786 47.1521 32.174 46.4034 30.8275 45.0478L23.9466 38.1239L22.0576 40.0946H22.0535Z"
        fill="#A6CB3A"></path>
    <path
        d="M60.5175 10.7319C60.5175 12.3021 61.5464 13.2409 63.2626 13.2409C64.9788 13.2409 66.0359 12.298 66.0359 10.7319C66.0359 9.16586 65.007 8.19061 63.2626 8.19061C61.5183 8.19061 60.5175 9.13349 60.5175 10.7319ZM67.7159 22.8801C67.7159 22.0343 67.0929 21.5609 65.7224 21.5609H62.0769C60.7988 21.5609 60.0512 22.095 60.0512 22.9732C60.0512 24.1346 61.4861 24.7618 63.9177 24.7618C66.3494 24.7618 67.7199 24.1022 67.7199 22.8801M72.4546 22.2205C72.4546 25.7654 69.3075 27.6512 63.978 27.6512C58.6485 27.6512 55.3447 26.1458 55.3447 23.5721C55.3447 21.9413 56.4058 20.9377 58.118 20.7475V20.7151C57.1815 20.1203 56.6831 19.2705 56.6831 18.1738C56.6831 16.6968 57.4307 15.7903 58.5842 15.2561V15.2238C56.9645 14.2809 56.0601 12.7431 56.0601 10.736C56.0601 7.25178 58.741 5.17987 63.2626 5.17987C65.0713 5.17987 66.5664 5.49551 67.7199 6.12275L67.7521 6.058C67.1291 5.49147 66.8478 4.86423 66.8478 4.30174C66.8478 3.01489 68.1259 2.26221 70.0873 2.26221C70.9273 2.26221 71.3654 2.32695 71.8035 2.42003V5.43481C71.5221 5.37007 71.2126 5.34174 70.867 5.34174C69.8702 5.34174 69.404 5.78283 69.404 6.50314C69.404 6.87948 69.5286 7.3489 69.7456 7.91544C70.244 8.70049 70.4932 9.64337 70.4932 10.74C70.4932 14.2242 67.8124 16.2638 63.2626 16.2638C62.3261 16.2638 61.4861 16.1707 60.7064 16.0129C60.5818 16.2031 60.425 16.5794 60.425 17.0164C60.425 17.7084 60.9877 18.1131 61.9202 18.1131H66.9081C70.4008 18.1131 72.4586 19.6508 72.4586 22.2245"
        fill="#056063"></path>
    <path
        d="M74.1104 5.43058H78.849L78.6601 9.85766H78.7244C79.3796 6.90763 81.0315 5.17969 84.0539 5.17969C87.0764 5.17969 89.0418 7.21922 89.0418 11.2376C89.0418 12.1157 88.9493 13.4956 88.885 14.3131H84.5845C84.6488 13.5604 84.6769 12.7753 84.6769 12.3059C84.6769 10.0479 83.7726 9.13735 82.2774 9.13735C80.2517 9.13735 78.849 10.8005 78.849 14.2524V20.9375H74.1104V5.43058Z"
        fill="#056063"></path>
    <path
        d="M102.663 13.2124C102.663 10.4525 101.325 8.81766 99.018 8.81766C96.711 8.81766 95.3726 10.4485 95.3726 13.2124C95.3726 15.9763 96.711 17.5423 99.018 17.5423C101.325 17.5423 102.663 15.9398 102.663 13.2124ZM90.6299 13.2124C90.6299 8.15805 93.9337 5.17969 99.014 5.17969C104.094 5.17969 107.398 8.1621 107.398 13.2124C107.398 18.2626 104.094 21.1844 99.014 21.1844C93.9337 21.1844 90.6299 18.2343 90.6299 13.2124Z"
        fill="#056063"></path>
    <path
        d="M109.331 5.43058H114.07L113.881 9.54202H113.945C114.725 6.59198 116.534 5.17969 120.022 5.17969C123.732 5.17969 126.132 7.21922 126.132 11.2376V20.9335H121.393V12.3019C121.393 10.1045 120.147 9.13331 118.057 9.13331C115.561 9.13331 114.066 10.6063 114.066 13.5563V20.9335H109.327V5.43058H109.331Z"
        fill="#056063"></path>
    <path d="M128.317 5.43066H133.056V20.9335H128.317V5.43066ZM128.317 0H133.056V3.7958H128.317V0Z"
        fill="#056063"></path>
    <path
        d="M135.392 5.43058H140.13L139.941 9.54202H140.006C140.786 6.59198 142.594 5.17969 146.083 5.17969C149.793 5.17969 152.192 7.21922 152.192 11.2376V20.9335H147.453V12.3019C147.453 10.1045 146.207 9.13331 144.117 9.13331C141.626 9.13331 140.126 10.6063 140.126 13.5563V20.9335H135.388V5.43058H135.392Z"
        fill="#056063"></path>
    <path
        d="M159.02 10.7319C159.02 12.3021 160.049 13.2409 161.766 13.2409C163.482 13.2409 164.539 12.298 164.539 10.7319C164.539 9.16586 163.51 8.19061 161.766 8.19061C160.021 8.19061 159.02 9.13349 159.02 10.7319ZM166.219 22.8801C166.219 22.0343 165.596 21.5609 164.225 21.5609H160.58C159.302 21.5609 158.554 22.095 158.554 22.9732C158.554 24.1346 159.989 24.7618 162.421 24.7618C164.852 24.7618 166.223 24.1022 166.223 22.8801M170.958 22.2205C170.958 25.7654 167.81 27.6512 162.481 27.6512C157.151 27.6512 153.848 26.1458 153.848 23.5721C153.848 21.9413 154.909 20.9377 156.621 20.7475V20.7151C155.684 20.1203 155.186 19.2705 155.186 18.1738C155.186 16.6968 155.934 15.7903 157.087 15.2561V15.2238C155.467 14.2809 154.563 12.7431 154.563 10.736C154.563 7.25178 157.244 5.17987 161.766 5.17987C163.574 5.17987 165.069 5.49551 166.223 6.12275L166.255 6.058C165.632 5.49147 165.351 4.86423 165.351 4.30174C165.351 3.01489 166.629 2.26221 168.594 2.26221C169.434 2.26221 169.872 2.32695 170.31 2.42003V5.43481C170.029 5.37007 169.72 5.34174 169.374 5.34174C168.377 5.34174 167.907 5.78283 167.907 6.50314C167.907 6.87948 168.032 7.3489 168.249 7.91544C168.747 8.70049 168.996 9.64337 168.996 10.74C168.996 14.2242 166.315 16.2638 161.766 16.2638C160.829 16.2638 159.989 16.1707 159.209 16.0129C159.085 16.2031 158.928 16.5794 158.928 17.0164C158.928 17.7084 159.491 18.1131 160.423 18.1131H165.411C168.904 18.1131 170.962 19.6508 170.962 22.2245"
        fill="#056063"></path>
    <path
        d="M182.959 11.2983C182.959 9.54202 181.773 8.63152 179.812 8.63152C177.85 8.63152 176.693 9.50965 176.319 11.5492H182.959V11.2983ZM187.139 14.0905H176.199C176.416 16.6318 177.694 17.7325 179.816 17.7325C181.657 17.7325 182.838 17.0729 182.963 15.5675H187.139C187.046 19.1125 184.116 21.1844 179.719 21.1844C174.607 21.1844 171.428 18.2667 171.428 13.3378C171.428 8.40895 174.607 5.17969 179.812 5.17969C184.112 5.17969 187.135 7.66031 187.135 12.743V14.0905H187.139Z"
        fill="#056063"></path>
    <path
        d="M189.072 5.43058H193.811L193.622 9.85766H193.686C194.341 6.90763 195.993 5.17969 199.016 5.17969C202.038 5.17969 204.004 7.21922 204.004 11.2376C204.004 12.1157 203.911 13.4956 203.847 14.3131H199.546C199.611 13.5604 199.639 12.7753 199.639 12.3059C199.639 10.0479 198.734 9.13735 197.239 9.13735C195.214 9.13735 193.811 10.8005 193.811 14.2524V20.9375H189.072V5.43058Z"
        fill="#056063"></path>
    <path
        d="M55.3447 29.4233H60.0834V43.1376H60.1115L66.691 35.6714H72.4546L65.9716 42.4173L72.8284 51.1743H66.5946L62.5753 45.4604L60.0834 48.0017V51.1743H55.3447V29.4233Z"
        fill="#056063"></path>
    <path
        d="M74.2949 35.6718H79.0336L78.8447 40.0989H78.909C79.5641 37.1488 81.216 35.4209 84.2385 35.4209C87.261 35.4209 89.2264 37.4604 89.2264 41.4788C89.2264 42.3569 89.1339 43.7369 89.0696 44.5543H84.769C84.8333 43.8016 84.8615 43.0165 84.8615 42.5471C84.8615 40.2891 83.9571 39.3786 82.462 39.3786C80.4363 39.3786 79.0336 41.0418 79.0336 44.4936V51.1787H74.2949V35.6758V35.6718Z"
        fill="#056063"></path>
    <path
        d="M101.819 45.2095V44.8939H97.2375C95.9594 44.8939 95.1797 45.4887 95.1797 46.3709C95.1797 47.5647 96.2086 48.1919 97.9208 48.1919C100.385 48.1919 101.815 47.0953 101.815 45.2095M90.9112 46.7149C90.9112 44.1735 92.7199 42.3202 96.8034 42.3202H101.823V41.2842C101.823 39.4025 100.762 38.6498 98.5799 38.6498C96.8034 38.6498 95.7745 39.4025 95.7745 40.657C95.7745 40.75 95.7745 41.0009 95.8067 41.3166H91.4418C91.4096 41.0657 91.3775 40.7217 91.3775 40.4061C91.3775 37.2658 94.1226 35.4165 98.797 35.4165C103.471 35.4165 106.558 37.6139 106.558 41.7577V51.1743H101.819C101.912 50.3893 102.036 48.977 102.036 48.0341H102.004C101.538 50.2314 99.7897 51.4252 96.9843 51.4252C93.3992 51.4252 90.9072 49.8551 90.9072 46.7189"
        fill="#056063"></path>
    <path
        d="M108.334 43.4536C108.334 38.3993 111.606 35.4209 116.344 35.4209C121.083 35.4209 123.824 37.9622 123.824 42.2639H119.648C119.616 40.2567 118.43 39.0629 116.501 39.0629C114.287 39.0629 113.073 40.6007 113.073 43.4253C113.073 46.2498 114.319 47.7876 116.409 47.7876C118.499 47.7876 119.652 46.6262 119.68 44.6514H123.856C123.856 49.1068 120.709 51.4296 116.156 51.4296C111.602 51.4296 108.33 48.4796 108.33 43.4576"
        fill="#056063"></path>
    <path
        d="M125.854 29.4233H130.592V36.2663C130.592 36.8612 130.5 38.6215 130.403 39.7829H130.468C131.247 36.8328 133.056 35.4205 136.545 35.4205C140.255 35.4205 142.654 37.4601 142.654 41.4784V51.1743H137.915V42.5427C137.915 40.3454 136.702 39.3742 134.579 39.3742C132.087 39.3742 130.588 40.8512 130.588 43.8012V51.1743H125.85V29.4274L125.854 29.4233Z"
        fill="#056063"></path>
    <path
        d="M146.023 45.8367V39.37H143.748V35.6673H145.585C146.304 35.6673 146.549 35.2586 146.646 34.3198L146.863 32.1548H150.758V35.6714H155.681V39.3741H150.758V45.5898C150.758 47.1883 151.505 47.6941 153.374 47.6941C154.029 47.6941 154.994 47.601 155.524 47.4756V51.0852C155.118 51.1783 153.808 51.4292 152.534 51.4292C147.735 51.4292 146.019 49.2925 146.019 45.8407"
        fill="#056063"></path>
</svg>