<svg id="Group_2" data-name="Group 2" xmlns="http://www.w3.org/2000/svg"
    xmlns:xlink="http://www.w3.org/1999/xlink" width="107.232" height="75.846"
    viewBox="0 0 107.232 75.846">
    <path id="Path_1" data-name="Path 1"
        d="M328.833,230.758v-9.342a15.692,15.692,0,0,0,15.674-15.675h9.342a25.045,25.045,0,0,1-25.017,25.017"
        transform="translate(-247.593 -154.911)" fill="#1B2655"></path>
    <path id="Path_2" data-name="Path 2"
        d="M390.439,53.982a5.955,5.955,0,0,0,4.357-1.788,6.375,6.375,0,0,0,0-8.855,6.2,6.2,0,0,0-8.714,0,6.374,6.374,0,0,0,0,8.854,5.951,5.951,0,0,0,4.357,1.788"
        transform="translate(-289.352 -31.287)" fill="#1B2655"></path>
    <path id="Path_3" data-name="Path 3"
        d="M18.45.256V9.369H23.8V33.9a10.2,10.2,0,0,1-1.795,6.426c-1.16,1.471-2.906,2.186-5.339,2.186a7.149,7.149,0,0,1-2.97-.6,6.672,6.672,0,0,1-2.229-1.6,7.272,7.272,0,0,1-1.423-2.375,8.524,8.524,0,0,1-.511-2.987v-.824H0v.824a17.079,17.079,0,0,0,1.26,6.583,16.525,16.525,0,0,0,3.483,5.3,15.76,15.76,0,0,0,5.31,3.53,17.355,17.355,0,0,0,6.615,1.259,17.723,17.723,0,0,0,7.015-1.334,14.859,14.859,0,0,0,5.29-3.765,16.328,16.328,0,0,0,3.265-5.708,22.3,22.3,0,0,0,1.1-7.13V.256Z"
        transform="translate(0 -0.193)" fill="#1B2655"></path>
    <path id="Path_4" data-name="Path 4"
        d="M179.8,41.553a5.954,5.954,0,0,0-4.357,1.788,6.374,6.374,0,0,0,0,8.854,6.2,6.2,0,0,0,8.714,0,6.375,6.375,0,0,0,0-8.854,5.958,5.958,0,0,0-4.357-1.787"
        transform="translate(-130.752 -31.287)" fill="#1B2655"></path>
    <path id="Path_5" data-name="Path 5" d="M282.612,41.482h-5.372V0h-9.776V50.839h15.148Z"
        transform="translate(-201.385 0)" fill="#1B2655"></path>
    <rect id="Rectangle_100" data-name="Rectangle 100" width="9.636" height="32.459"
        transform="translate(44.23 28.791)" fill="#1B2655"></rect>
</svg>