<?xml version="1.0" encoding="UTF-8"?>
<svg width="220" height="48" viewBox="0 0 220 48" version="1.1" xmlns="http://www.w3.org/2000/svg" xmlns:svg="http://www.w3.org/2000/svg">
<g fill="#dcbc00">
<path d="m23.169 36.756a0.885 0.885 0 0 1-0.876 0.876 0.874 0.874 0 0 1-0.863-0.876 0.861 0.861 0 0 1 0.863-0.86 0.872 0.872 0 0 1 0.876 0.86m-1.383 2.5h1.047v8.163h-1.042z"/>
<path d="m30.657 40.723a3.761 3.761 0 0 1 3.06-1.675c1.782 0 3.027 1.229 3.027 3.8v4.581h-1.046v-4.446c0-1.923-0.6-2.983-2.184-2.983a2.624 2.624 0 0 0-2.153 1.106 4.254 4.254 0 0 0-0.7 2.891v3.428h-1.051v-8.164h1.047z"/>
<path d="m50.691 39.263h1.032v8.163h-1.032v-1.4a4.139 4.139 0 0 1-3.29 1.6 4.29 4.29 0 0 1 0.033-8.577 3.862 3.862 0 0 1 3.257 1.706zm-6.4 4.089a3.276 3.276 0 0 0 3.213 3.321 3.306 3.306 0 1 0-3.209-3.318"/>
<path d="m59.739 40.723a3.768 3.768 0 0 1 3.062-1.675c1.782 0 3.024 1.229 3.024 3.8v4.581h-1.043v-4.446c0-1.923-0.6-2.983-2.184-2.983a2.624 2.624 0 0 0-2.153 1.106 4.242 4.242 0 0 0-0.707 2.891v3.428h-1.044v-8.164h1.045z"/>
<path d="m80.605 45.78a4.386 4.386 0 0 1-3.828 1.844 4.257 4.257 0 0 1-4.488-4.212 4.371 4.371 0 0 1 4.564-4.364 4.229 4.229 0 0 1 3.752 1.907l-0.845 0.522a3.513 3.513 0 0 0-2.95-1.413 3.307 3.307 0 1 0 0.013 6.609 3.619 3.619 0 0 0 2.937-1.429z"/>
<path d="m88.467 36.756a0.883 0.883 0 0 1-0.874 0.876 0.873 0.873 0 0 1-0.863-0.876 0.859 0.859 0 0 1 0.863-0.86 0.87 0.87 0 0 1 0.874 0.86m-1.381 2.5h1.047v8.163h-1.046z"/>
<path d="m95.598 43.429a3.1 3.1 0 0 0 3.075 3.244 3.423 3.423 0 0 0 3.119-1.953l0.876 0.463a4.077 4.077 0 0 1-3.887 2.441 4.141 4.141 0 0 1-4.26-4.258 4.208 4.208 0 0 1 4.2-4.319 4.16 4.16 0 0 1 4.225 4.383zm6.194-0.924a3.117 3.117 0 0 0-6.086 0z"/>
<path d="m110.19 43.429a3.1 3.1 0 0 0 3.073 3.244 3.429 3.429 0 0 0 3.121-1.953l0.876 0.463a4.08 4.08 0 0 1-3.889 2.441 4.139 4.139 0 0 1-4.258-4.258 4.208 4.208 0 0 1 4.2-4.319 4.16 4.16 0 0 1 4.225 4.383zm6.194-0.924a3.117 3.117 0 0 0-6.086 0z"/>
<rect x="123.94" y="36.111" width="1.047" height="11.314"/>
<path d="m145.33 36.388 5.149 11.036h-1.181l-1.736-3.626h-4.765l-1.723 3.626h-1.229l5.226-11.036zm-0.138 2.335-1.905 4h3.779z"/>
<path d="m163.74 46.027a4.139 4.139 0 0 1-3.29 1.6 4.29 4.29 0 0 1 0.031-8.577 3.863 3.863 0 0 1 3.259 1.706v-4.645h1.045v11.314h-1.045zm-6.4-2.675a3.276 3.276 0 0 0 3.213 3.321 3.306 3.306 0 0 0 0.015-6.611 3.241 3.241 0 0 0-3.229 3.29"/>
<path d="m170.98 39.262h1.124l2.735 5.935 2.7-5.935h1.131l-3.736 8.163h-0.184z"/>
<path d="m186.12 36.756a0.887 0.887 0 0 1-0.878 0.876 0.872 0.872 0 0 1-0.86-0.876 0.859 0.859 0 0 1 0.86-0.86 0.874 0.874 0 0 1 0.878 0.86m-1.385 2.5h1.047v8.163h-1.047z"/>
<path d="m193.25 43.429a3.1 3.1 0 0 0 3.073 3.244 3.429 3.429 0 0 0 3.121-1.953l0.876 0.463a4.08 4.08 0 0 1-3.889 2.441 4.139 4.139 0 0 1-4.258-4.258 4.208 4.208 0 0 1 4.2-4.319 4.161 4.161 0 0 1 4.225 4.383zm6.194-0.924a3.117 3.117 0 0 0-6.086 0z"/>
<path d="m207.04 45.718a2.318 2.318 0 0 0 1.705 0.906 1.442 1.442 0 0 0 1.508-1.352 1.316 1.316 0 0 0-0.676-1.139c-1.874-1.045-2.829-1.49-2.829-2.917a2.146 2.146 0 0 1 2.245-2.171 3.16 3.16 0 0 1 2.254 1.109l-0.676 0.694a2.288 2.288 0 0 0-1.646-0.786 1.161 1.161 0 0 0-1.223 1.092 1.347 1.347 0 0 0 0.63 1.093c1.875 1.09 2.915 1.507 2.915 2.98a2.4 2.4 0 0 1-2.458 2.412 3.077 3.077 0 0 1-2.414-1.168z"/>
<path d="m19.578 0.0038787h-3.644l-13.015 16.634h-0.088v-16.634h-2.831v48h2.831v-26.985l3.687-4.6275 9.482 12.564h3.578l-11.26-14.823z" stroke-width="1.0093"/>
<path d="m36.249-2e-3a14.931 14.931 0 0 1 15.057 14.714 14.958 14.958 0 0 1-15.057 14.712c-8.066 0-15.019-6.569-15.019-14.558a14.92 14.92 0 0 1 15.019-14.868m0 26.849a12.221 12.221 0 0 0 12.214-12.1 12.2 12.2 0 1 0-24.391 0.116 12.242 12.242 0 0 0 12.177 11.986"/>
<path d="m55.835 0.499h3.841l15.865 23.586h0.079v-23.586h2.842v28.426h-2.842l-16.865-25.006h-0.077v25.006h-2.843z"/>
<path d="m84.066 0.499h14.366v2.571h-11.523v10.3h11.1v2.575h-11.1v12.98h-2.843z"/>
<path d="m116.68-2e-3a14.933 14.933 0 0 1 15.059 14.714 14.958 14.958 0 0 1-15.059 14.712c-8.068 0-15.019-6.569-15.019-14.558a14.922 14.922 0 0 1 15.019-14.868m0 26.849a12.219 12.219 0 0 0 12.214-12.1 12.195 12.195 0 1 0-24.389 0.116 12.24 12.24 0 0 0 12.175 11.986"/>
<path d="m136.08 0.498h7.22c3.8 0 5.682 0.461 6.99 1.075a8.8 8.8 0 0 1 5.07 8.105 8.631 8.631 0 0 1-8.45 8.643l8.029 10.6h-3.573l-9.642-12.866c3.613 0 4.84-0.037 6.108-0.421a6.272 6.272 0 0 0 1.574-11.486 10.712 10.712 0 0 0-5.526-1.079h-4.961v25.854h-2.839z"/>
<path d="m159.62 0.499h4.376l10.333 24.2 10.374-24.2h4.379v28.426h-2.84v-25.315h-0.079l-10.639 25.315h-2.421l-10.564-25.315h-0.079v25.315h-2.84z"/>
<path d="m204.59 0.501h3.191l12.215 28.425h-3.114l-4.107-9.565h-13.209l-4.153 9.565h-2.96zm-3.957 16.286h11.025l-5.452-13.06z"/>
<path d="m10.573 36.212h5.713v1.111h-4.571v3.571h4.571v1.113h-4.571v5.6h-1.142z"/>
</g>
</svg>