<svg width="202" height="48" viewBox="0 0 202 48" fill="none" xmlns="http://www.w3.org/2000/svg">
    <path
        d="M18.26 47.969C18.019 47.969 17.777 47.89 17.574 47.728C17.531 47.694 13.184 44.222 8.898 39.891C2.994 33.925 0 29.203 0 25.856V0H42.014V25.856C42.014 29.203 39.02 33.925 33.116 39.891C28.83 44.222 24.483 47.694 24.439 47.728C23.964 48.107 23.27 48.029 22.89 47.553C22.511 47.077 22.589 46.383 23.066 46.003C27.723 42.294 39.809 31.442 39.809 25.856V2.206H2.205V25.856C2.205 31.446 14.291 42.295 18.948 46.003C19.424 46.383 19.503 47.076 19.123 47.553C18.906 47.826 18.584 47.969 18.26 47.969Z"
        fill="#E97649"></path>
    <path
        d="M23.035 40.966C22.706 40.966 22.381 40.82 22.164 40.541C21.79 40.06 21.876 39.367 22.357 38.993C22.389 38.969 25.522 36.523 28.606 33.462C33.82 28.286 34.599 25.679 34.599 24.586V7.415H7.41596V24.586C7.41596 25.679 8.19296 28.286 13.408 33.462C16.493 36.523 19.626 38.969 19.657 38.993C20.138 39.367 20.224 40.06 19.85 40.541C19.476 41.021 18.783 41.107 18.303 40.734C16.962 39.691 5.20996 30.381 5.20996 24.586V5.209H36.804V24.586C36.804 30.381 25.052 39.691 23.711 40.734C23.51 40.89 23.272 40.966 23.035 40.966Z"
        fill="#E97649"></path>
    <path
        d="M19.6969 33.946C19.4699 33.946 19.2409 33.877 19.0439 33.731C17.6039 32.67 10.4189 27.179 10.4189 23.316V10.418H31.5949V23.316C31.5949 23.926 31.1009 24.419 30.4919 24.419C29.8829 24.419 29.3889 23.926 29.3889 23.316V12.624H12.6249V23.316C12.6249 25.347 17.1439 29.591 20.3519 31.956C20.8429 32.317 20.9469 33.008 20.5859 33.498C20.3699 33.792 20.0359 33.946 19.6969 33.946Z"
        fill="#E97649"></path>
    <path
        d="M21.5969 28.137C21.3009 28.137 21.0049 28.018 20.7879 27.783C20.3739 27.336 20.4009 26.639 20.8479 26.225C22.5669 24.634 24.1549 22.642 24.1799 22.045V17.833H17.8339V22.047C17.8339 22.657 17.3399 23.15 16.7309 23.15C16.1229 23.15 15.6279 22.657 15.6279 22.047V15.627H26.3849V22.047C26.3849 23.907 23.5599 26.721 22.3459 27.844C22.1329 28.04 21.8649 28.137 21.5969 28.137Z"
        fill="#E97649"></path>
    <path
        d="M55.559 44.971C55.256 44.971 55.007 44.928 54.812 44.838V44.403C55.069 44.469 55.315 44.502 55.549 44.502C56.348 44.502 56.747 44.067 56.747 43.196V35.914H57.251V43.146C57.251 44.363 56.687 44.971 55.559 44.971Z"
        fill="#E97649"></path>
    <path
        d="M65.581 35.914V40.594C65.581 41.425 65.339 42.075 64.858 42.542C64.377 43.012 63.705 43.245 62.845 43.245C62.007 43.245 61.353 43.012 60.884 42.542C60.413 42.071 60.178 41.415 60.178 40.574V35.914H60.688V40.594C60.688 41.29 60.881 41.832 61.267 42.22C61.653 42.607 62.198 42.8 62.904 42.8C63.594 42.8 64.127 42.61 64.506 42.23C64.886 41.848 65.076 41.319 65.076 40.644V35.914H65.581Z"
        fill="#E97649"></path>
    <path
        d="M69.066 39.996V43.146H68.562V35.914H70.284C71.18 35.914 71.843 36.08 72.27 36.412C72.701 36.745 72.915 37.242 72.915 37.908C72.915 38.393 72.786 38.802 72.531 39.135C72.276 39.468 71.888 39.707 71.367 39.852L73.331 43.146H72.727L70.862 39.996H69.066ZM69.066 39.56H70.446C71.057 39.56 71.529 39.425 71.866 39.153C72.202 38.881 72.372 38.478 72.372 37.947C72.372 37.396 72.206 36.997 71.876 36.746C71.546 36.495 71.009 36.369 70.263 36.369H69.066V39.56Z"
        fill="#E97649"></path>
    <path d="M75.595 43.146V35.914H76.1V43.146H75.595Z" fill="#E97649"></path>
    <path
        d="M84.6509 39.461C84.6509 40.675 84.3319 41.593 83.6959 42.215C83.0599 42.837 82.1239 43.146 80.8919 43.146H79.1609V35.914H81.1139C82.2679 35.914 83.1449 36.216 83.7479 36.82C84.3499 37.423 84.6509 38.303 84.6509 39.461ZM84.1019 39.481C84.1019 38.445 83.8379 37.667 83.3119 37.145C82.7869 36.622 82.0139 36.36 80.9959 36.36H79.6649V42.702H80.8619C83.0209 42.702 84.1019 41.627 84.1019 39.481Z"
        fill="#E97649"></path>
    <path d="M87.3269 43.146V35.914H87.8309V43.146H87.3269Z" fill="#E97649"></path>
    <path
        d="M94.884 41.282C94.884 41.884 94.662 42.363 94.219 42.716C93.775 43.069 93.185 43.245 92.45 43.245C91.566 43.245 90.888 43.148 90.416 42.954V42.448C90.937 42.67 91.602 42.78 92.411 42.78C93.004 42.78 93.475 42.645 93.823 42.373C94.17 42.101 94.345 41.743 94.345 41.301C94.345 41.027 94.287 40.803 94.171 40.622C94.056 40.442 93.868 40.278 93.608 40.129C93.347 39.981 92.964 39.82 92.459 39.649C91.722 39.395 91.211 39.121 90.93 38.826C90.647 38.531 90.506 38.137 90.506 37.645C90.506 37.105 90.718 36.664 91.141 36.323C91.565 35.982 92.11 35.81 92.777 35.81C93.456 35.81 94.094 35.939 94.69 36.196L94.508 36.632C93.908 36.381 93.333 36.256 92.786 36.256C92.252 36.256 91.827 36.38 91.511 36.627C91.194 36.874 91.035 37.21 91.035 37.635C91.035 37.903 91.084 38.122 91.181 38.294C91.279 38.465 91.438 38.62 91.659 38.756C91.879 38.894 92.259 39.058 92.796 39.248C93.36 39.443 93.784 39.633 94.068 39.815C94.352 39.999 94.558 40.206 94.689 40.439C94.818 40.672 94.884 40.951 94.884 41.282Z"
        fill="#E97649"></path>
    <path
        d="M100.511 36.266C99.605 36.266 98.8911 36.556 98.37 37.136C97.849 37.717 97.588 38.511 97.588 39.52C97.588 40.553 97.834 41.354 98.325 41.924C98.817 42.495 99.519 42.78 100.433 42.78C101.04 42.78 101.596 42.703 102.105 42.548V42.994C101.626 43.161 101.03 43.245 100.313 43.245C99.298 43.245 98.498 42.917 97.915 42.261C97.331 41.605 97.04 40.688 97.04 39.511C97.04 38.776 97.179 38.127 97.457 37.566C97.736 37.006 98.136 36.575 98.66 36.269C99.1821 35.964 99.79 35.81 100.482 35.81C101.187 35.81 101.819 35.943 102.376 36.207L102.174 36.662C101.646 36.398 101.093 36.266 100.511 36.266Z"
        fill="#E97649"></path>
    <path
        d="M109.969 43.146H109.459V39.59H105.235V43.146H104.73V35.914H105.235V39.125H109.459V35.914H109.969V43.146Z"
        fill="#E97649"></path>
    <path
        d="M116.674 35.914H118.658C119.552 35.914 120.207 36.066 120.626 36.369C121.045 36.673 121.254 37.132 121.254 37.745C121.254 38.164 121.127 38.513 120.872 38.792C120.615 39.071 120.242 39.248 119.75 39.328V39.357C120.328 39.443 120.752 39.626 121.025 39.905C121.296 40.184 121.433 40.57 121.433 41.069C121.433 41.735 121.212 42.248 120.769 42.607C120.328 42.967 119.701 43.146 118.89 43.146H116.674V35.914ZM117.178 39.135H118.77C119.451 39.135 119.944 39.023 120.253 38.796C120.561 38.571 120.715 38.217 120.715 37.735C120.715 37.253 120.542 36.904 120.194 36.686C119.845 36.469 119.327 36.36 118.638 36.36H117.178V39.135ZM117.178 39.58V42.702H118.881C120.22 42.702 120.889 42.157 120.889 41.069C120.889 40.076 120.184 39.58 118.77 39.58H117.178Z"
        fill="#E97649"></path>
    <path
        d="M127.991 43.146H124.039V35.914H127.991V36.38H124.543V39.115H127.798V39.58H124.543V42.682H127.991V43.146Z"
        fill="#E97649"></path>
    <path
        d="M136.132 39.461C136.132 40.675 135.814 41.593 135.178 42.215C134.541 42.837 133.606 43.146 132.373 43.146H130.641V35.914H132.595C133.748 35.914 134.627 36.216 135.229 36.82C135.831 37.423 136.132 38.303 136.132 39.461ZM135.582 39.481C135.582 38.445 135.32 37.667 134.794 37.145C134.268 36.622 133.495 36.36 132.476 36.36H131.146V42.702H132.343C134.502 42.702 135.582 41.627 135.582 39.481Z"
        fill="#E97649"></path>
    <path
        d="M139.311 39.996V43.146H138.808V35.914H140.528C141.426 35.914 142.088 36.08 142.518 36.412C142.945 36.745 143.161 37.242 143.161 37.908C143.161 38.393 143.033 38.802 142.777 39.135C142.521 39.468 142.133 39.707 141.612 39.852L143.575 43.146H142.973L141.107 39.996H139.311ZM139.311 39.56H140.691C141.302 39.56 141.775 39.425 142.112 39.153C142.448 38.881 142.616 38.478 142.616 37.947C142.616 37.396 142.452 36.997 142.121 36.746C141.792 36.495 141.254 36.369 140.508 36.369H139.311V39.56Z"
        fill="#E97649"></path>
    <path d="M145.84 43.146V35.914H146.345V43.146H145.84Z" fill="#E97649"></path>
    <path
        d="M148.218 44.971C147.915 44.971 147.666 44.928 147.472 44.838V44.403C147.729 44.469 147.974 44.502 148.208 44.502C149.007 44.502 149.406 44.067 149.406 43.196V35.914H149.91V43.146C149.91 44.363 149.347 44.971 148.218 44.971Z"
        fill="#E97649"></path>
    <path
        d="M153.427 43.146H152.922V35.914H156.884V36.38H153.427V39.446H156.691V39.917H153.427V43.146Z"
        fill="#E97649"></path>
    <path
        d="M163.012 41.282C163.012 41.884 162.79 42.363 162.347 42.716C161.903 43.069 161.313 43.245 160.578 43.245C159.695 43.245 159.016 43.148 158.545 42.954V42.448C159.065 42.67 159.73 42.78 160.538 42.78C161.132 42.78 161.602 42.645 161.95 42.373C162.298 42.101 162.472 41.743 162.472 41.301C162.472 41.027 162.414 40.803 162.299 40.622C162.183 40.442 161.996 40.278 161.735 40.129C161.474 39.981 161.092 39.82 160.589 39.649C159.849 39.395 159.339 39.121 159.057 38.826C158.775 38.531 158.634 38.137 158.634 37.645C158.634 37.105 158.846 36.664 159.27 36.323C159.693 35.982 160.238 35.81 160.904 35.81C161.584 35.81 162.222 35.939 162.818 36.196L162.635 36.632C162.036 36.381 161.462 36.256 160.914 36.256C160.38 36.256 159.955 36.38 159.638 36.627C159.321 36.874 159.164 37.21 159.164 37.635C159.164 37.903 159.211 38.122 159.309 38.294C159.407 38.465 159.565 38.62 159.786 38.756C160.007 38.894 160.387 39.058 160.925 39.248C161.488 39.443 161.911 39.633 162.195 39.815C162.479 39.999 162.687 40.206 162.816 40.439C162.946 40.672 163.012 40.951 163.012 41.282Z"
        fill="#E97649"></path>
    <path
        d="M169.035 40.594H166.097L165.088 43.146H164.53L167.437 35.886H167.76L170.608 43.146H170.04L169.035 40.594ZM166.28 40.139H168.868L167.884 37.533C167.8 37.328 167.702 37.044 167.586 36.681C167.497 36.998 167.4 37.284 167.295 37.542L166.28 40.139Z"
        fill="#E97649"></path>
    <path
        d="M178.136 39.461C178.136 40.675 177.818 41.593 177.182 42.215C176.545 42.837 175.61 43.146 174.376 43.146H172.645V35.914H174.599C175.754 35.914 176.632 36.216 177.233 36.82C177.834 37.423 178.136 38.303 178.136 39.461ZM177.587 39.481C177.587 38.445 177.325 37.667 176.799 37.145C176.272 36.622 175.499 36.36 174.479 36.36H173.15V42.702H174.348C176.508 42.702 177.587 41.627 177.587 39.481Z"
        fill="#E97649"></path>
    <path
        d="M185.085 35.914H185.635L182.929 43.146H182.483L179.788 35.914H180.327L182.147 40.836C182.424 41.578 182.61 42.136 182.706 42.508C182.772 42.261 182.902 41.877 183.097 41.356L185.085 35.914Z"
        fill="#E97649"></path>
    <path d="M187.672 43.146V35.914H188.178V43.146H187.672Z" fill="#E97649"></path>
    <path
        d="M195.188 43.146H191.236V35.914H195.188V36.38H191.741V39.115H194.996V39.58H191.741V42.682H195.188V43.146Z"
        fill="#E97649"></path>
    <path
        d="M201.831 41.282C201.831 41.884 201.61 42.363 201.166 42.716C200.723 43.069 200.133 43.245 199.397 43.245C198.515 43.245 197.836 43.148 197.364 42.954V42.448C197.886 42.67 198.55 42.78 199.358 42.78C199.952 42.78 200.422 42.645 200.77 42.373C201.118 42.101 201.292 41.743 201.292 41.301C201.292 41.027 201.234 40.803 201.119 40.622C201.004 40.442 200.816 40.278 200.556 40.129C200.295 39.981 199.912 39.82 199.408 39.649C198.669 39.395 198.158 39.121 197.876 38.826C197.595 38.531 197.453 38.137 197.453 37.645C197.453 37.105 197.666 36.664 198.089 36.323C198.514 35.982 199.058 35.81 199.724 35.81C200.403 35.81 201.042 35.939 201.638 36.196L201.455 36.632C200.856 36.381 200.281 36.256 199.734 36.256C199.2 36.256 198.775 36.38 198.458 36.627C198.142 36.874 197.983 37.21 197.983 37.635C197.983 37.903 198.032 38.122 198.128 38.294C198.227 38.465 198.385 38.62 198.606 38.756C198.827 38.894 199.207 39.058 199.745 39.248C200.308 39.443 200.731 39.633 201.016 39.815C201.3 39.999 201.506 40.206 201.636 40.439C201.766 40.672 201.831 40.951 201.831 41.282Z"
        fill="#E97649"></path>
    <path
        d="M54.844 3.582H58.899V15.301L69.897 3.582H75.053L65.395 14.098L75.19 27.605H70.378L62.405 17.088L58.899 20.869V27.605H54.844V3.582Z"
        fill="#E97649"></path>
    <path
        d="M86.153 22.106C87.253 23.39 88.742 24.031 90.622 24.031C92.499 24.031 93.989 23.39 95.089 22.106C96.189 20.823 96.739 19.082 96.739 16.882V3.582H100.794V17.054C100.794 20.514 99.843 23.177 97.942 25.044C96.04 26.912 93.6 27.845 90.622 27.845C87.643 27.845 85.203 26.912 83.301 25.044C81.398 23.177 80.449 20.514 80.449 17.054V3.582H84.504V16.882C84.504 19.082 85.054 20.823 86.153 22.106Z"
        fill="#E97649"></path>
    <path
        d="M125.092 5.678C126.764 7.076 127.601 9.23 127.601 12.139C127.601 15.049 126.747 17.18 125.041 18.532C123.333 19.884 120.716 20.56 117.188 20.56H112.926V27.605H108.871V3.582H117.119C120.762 3.582 123.419 4.281 125.092 5.678ZM122.223 15.593C123.036 14.734 123.442 13.474 123.442 11.813C123.442 10.152 122.927 8.977 121.896 8.29C120.865 7.602 119.249 7.259 117.05 7.259H112.926V16.882H117.634C119.879 16.882 121.409 16.453 122.223 15.593Z"
        fill="#E97649"></path>
    <path
        d="M150.97 3.582V7.396H138.151V13.755H149.665V17.363H138.151V23.79H151.383V27.605H134.096V3.582H150.97Z"
        fill="#E97649"></path>
    <path
        d="M177.469 11.383C177.469 15.348 175.738 17.845 172.279 18.876L178.568 27.605H173.413L167.673 19.528H162.346V27.605H158.291V3.582H167.227C170.893 3.582 173.516 4.2 175.097 5.438C176.678 6.675 177.469 8.656 177.469 11.383ZM172.073 14.786C172.897 14.076 173.31 12.935 173.31 11.366C173.31 9.797 172.885 8.72 172.038 8.136C171.19 7.551 169.678 7.259 167.501 7.259H162.346V15.851H167.398C169.689 15.851 171.248 15.496 172.073 14.786Z"
        fill="#E97649"></path>
    <path
        d="M192.298 6.744C191.118 6.744 190.15 6.984 189.394 7.465C188.638 7.946 188.26 8.674 188.26 9.648C188.26 10.622 188.638 11.366 189.394 11.882C190.15 12.397 191.76 12.953 194.223 13.549C196.686 14.145 198.542 14.98 199.791 16.058C201.04 17.134 201.663 18.721 201.663 20.817C201.663 22.914 200.873 24.615 199.292 25.921C197.711 27.227 195.637 27.879 193.071 27.879C189.313 27.879 185.979 26.586 183.07 23.996L185.614 20.938C188.042 23.046 190.562 24.1 193.175 24.1C194.48 24.1 195.517 23.819 196.285 23.257C197.053 22.696 197.436 21.952 197.436 21.023C197.436 20.095 197.076 19.373 196.353 18.858C195.632 18.343 194.389 17.873 192.624 17.449C190.86 17.025 189.519 16.636 188.604 16.28C187.687 15.926 186.873 15.461 186.164 14.889C184.743 13.811 184.033 12.162 184.033 9.94C184.033 7.717 184.84 6.004 186.456 4.802C188.071 3.599 190.07 2.998 192.453 2.998C193.988 2.998 195.512 3.25 197.024 3.753C198.536 4.258 199.842 4.968 200.942 5.884L198.777 8.943C198.066 8.302 197.104 7.775 195.89 7.362C194.675 6.95 193.478 6.744 192.298 6.744Z"
        fill="#E97649"></path>
</svg>