<svg width="290" height="48" viewBox="0 0 290 48" fill="none" xmlns="http://www.w3.org/2000/svg">
    <path
        d="M71.1174 38.7606C71.1174 37.9048 72.1082 37.6805 74.7626 37.5912C75.3026 37.3212 75.4376 35.0718 75.4376 32.3717V16.8482C75.4376 13.1594 75.2569 11.4044 74.6276 10.7751C72.1517 10.6401 71.1174 10.4593 71.1174 9.60573C71.1174 8.4364 73.3232 8.07493 76.2477 8.07493C79.1721 8.07493 80.2064 8.34494 81.1972 10.4593C84.1216 16.8482 87.316 24.4521 90.9154 32.1017C93.6156 26.6122 96.7643 19.189 100.229 10.6836C101.128 8.61278 102.3 8.07275 105.224 8.07275C108.148 8.07275 110.398 8.43204 110.398 9.55782C110.398 10.4571 109.318 10.6836 106.933 10.7729C106.348 11.3586 106.213 13.0223 106.213 16.4431V32.3717C106.213 36.1519 106.348 37.3648 106.842 37.637C109.226 37.7262 110.352 37.9527 110.352 38.8063C110.352 39.9299 108.011 40.3371 103.872 40.3371C99.7322 40.3371 97.3478 39.9778 97.3478 38.8063C97.3478 37.9505 98.4279 37.7262 101.172 37.637C101.666 37.367 101.847 35.4311 101.847 32.3717V17.6125C101.847 16.2624 101.847 15.1366 101.757 14.0588C98.2036 22.697 95.412 29.0423 92.3983 35.4769C91.7233 36.8727 91.2726 37.502 90.1925 37.502C89.2017 37.502 88.7074 36.9619 88.0324 35.6119C84.6572 28.7265 81.3735 21.1226 78.4034 14.0588C78.3141 15.7224 78.3141 18.2875 78.3141 21.6169V32.3717C78.3141 35.2068 78.4949 37.3212 79.1242 37.5912C81.8678 37.6805 82.9043 37.907 82.9043 38.7606C82.9043 39.9299 80.655 40.3349 76.8748 40.3349C73.3211 40.3349 71.1152 39.9299 71.1152 38.7606H71.1174Z"
        fill="white"></path>
    <path
        d="M120.967 27.3304C122.765 27.3304 124.477 27.6462 126.141 28.0055V25.3968C126.141 23.4174 126.051 19.548 122.317 19.548C120.472 19.548 118.852 20.8087 117.278 22.6531C116.557 23.5982 115.839 24.2732 114.669 24.2732C113.724 24.2732 113.006 23.6439 113.006 22.6988C113.006 20.5387 118.676 17.2986 123.175 17.2986C127.674 17.2986 130.193 19.7722 130.193 24.2275V32.8657C130.193 35.6115 130.239 37.3644 133.163 37.9502C133.387 38.0395 133.479 38.1745 133.479 38.3552C133.479 39.2545 132.31 40.4696 130.33 40.4696C128.351 40.4696 126.82 39.3895 126.236 36.6894C124.481 39.4353 121.646 40.7832 118.722 40.7832C114.267 40.7832 111.434 38.0373 111.434 34.3943C111.434 30.1656 115.168 27.3304 120.973 27.3304H120.967ZM120.111 38.0395C123.44 38.0395 126.141 35.2936 126.141 31.7399V30.3898C125.015 29.8955 123.262 29.4905 121.461 29.4905C117.637 29.4905 115.612 31.2456 115.612 33.8107C115.612 36.3758 117.322 38.0395 120.111 38.0395Z"
        fill="white"></path>
    <path
        d="M134.689 38.8955C134.689 38.0855 135.634 37.8612 137.524 37.7719C137.975 37.5476 138.065 36.3326 138.065 32.5981V26.7036C138.065 24.4977 137.975 21.6648 137.524 21.3033C134.916 21.214 134.33 20.7633 134.33 20.1797C134.33 19.729 134.554 19.4154 135.186 19.1454C136.625 18.4246 139.776 17.706 140.856 17.706C141.936 17.706 142.206 18.4268 142.206 19.7311L142.16 23.2849C143.691 19.4154 146.794 17.436 149.046 17.436C150.709 17.436 152.24 18.4704 152.24 20.4497C152.24 22.1591 151.206 23.1499 149.945 23.1499C149.046 23.1499 148.46 22.6991 148.011 22.2048C147.652 21.7998 147.336 21.349 146.572 21.349C144.908 21.349 142.117 23.8684 142.117 28.6372V32.5959C142.117 35.7904 142.298 37.4997 142.703 37.7262C145.538 37.8155 146.483 38.0855 146.483 38.8955C146.483 39.9756 144.323 40.3349 140.138 40.3349C136.627 40.3349 134.694 39.9298 134.694 38.8955H134.689Z"
        fill="white"></path>
    <path
        d="M152.414 29.5363C152.414 22.2916 157.453 17.2986 163.618 17.2986C169.107 17.2986 172.617 21.168 172.617 25.1268C172.617 27.0626 171.718 28.3212 170.098 28.3212H156.284C156.373 33.495 159.3 37.1402 164.112 37.1402C167.441 37.1402 169.466 35.3851 170.771 33.9893C171.222 33.5385 171.492 33.225 171.94 33.225C172.434 33.225 172.75 33.5843 172.75 34.17C172.75 34.8908 172.21 36.0144 171.265 37.1402C169.691 38.9845 166.81 40.8289 162.805 40.8289C156.597 40.8289 152.412 36.1951 152.412 29.5341L152.414 29.5363ZM166.904 26.0261C168.164 26.0261 168.837 25.5318 168.837 24.3167C168.837 21.8431 166.769 19.4565 163.302 19.4565C159.613 19.4565 157.048 22.1109 156.419 26.1611L166.904 26.0261Z"
        fill="white"></path>
    <path
        d="M189.939 38.8954C189.939 38.0853 190.795 37.861 193.134 37.7718C193.539 37.5475 193.628 35.2959 193.628 32.598V27.4242C193.628 22.6097 192.143 20.4496 188.633 20.4496C185.484 20.4496 181.928 22.834 181.928 29.0443V32.598C181.928 35.8381 182.017 37.5475 182.422 37.7718C184.761 37.9068 185.617 38.0875 185.617 38.8954C185.617 40.0211 183.548 40.3347 179.903 40.3347C176.258 40.3347 174.503 39.9297 174.503 38.8954C174.503 38.0853 175.402 37.861 177.338 37.7718C177.789 37.5475 177.878 36.3324 177.878 32.598V26.6577C177.878 24.4519 177.789 21.6646 177.338 21.3032C174.683 21.2139 174.098 20.7631 174.098 20.1796C174.098 19.7288 174.368 19.4153 174.953 19.1452C176.484 18.3809 179.587 17.7059 180.667 17.7059C181.747 17.7059 182.017 18.4267 182.017 19.731L181.972 22.8819C183.502 19.2824 186.651 17.3923 190.34 17.3923C194.255 17.3923 197.674 19.6417 197.674 25.9413V32.6001C197.674 36.4261 197.719 37.5039 198.168 37.7739C200.102 37.8632 201.047 38.0897 201.047 38.8975C201.047 39.9776 199.022 40.3369 195.646 40.3369C191.866 40.3369 189.933 39.9776 189.933 38.8975L189.939 38.8954Z"
        fill="white"></path>
    <path
        d="M201.905 38.8955C201.905 38.0855 202.85 37.8612 204.829 37.7719C205.234 37.5476 205.369 36.3326 205.369 32.5981V16.1295C205.369 13.8801 205.28 11.1343 204.784 10.7293C202.129 10.64 201.5 10.1892 201.5 9.60565C201.5 9.20063 201.724 8.88489 202.356 8.57133C203.93 7.80702 207.035 7.17554 208.115 7.17554C209.195 7.17554 209.465 7.8963 209.465 9.20063C209.465 10.7314 209.42 13.3858 209.42 16.8503V32.5981C209.42 35.749 209.465 37.5019 209.914 37.7719C211.85 37.9069 212.793 38.0876 212.793 38.8955C212.793 39.9755 210.724 40.3348 207.392 40.3348C203.882 40.3348 201.903 39.9298 201.903 38.8955H201.905Z"
        fill="white"></path>
    <path
        d="M223.365 27.3304C225.164 27.3304 226.875 27.6462 228.539 28.0055V25.3968C228.539 23.4174 228.45 19.548 224.715 19.548C222.871 19.548 221.251 20.8087 219.677 22.6531C218.956 23.5982 218.237 24.2732 217.068 24.2732C216.123 24.2732 215.404 23.6439 215.404 22.6988C215.404 20.5387 221.074 17.2986 225.573 17.2986C230.072 17.2986 232.591 19.7722 232.591 24.2275V32.8657C232.591 35.6115 232.637 37.3644 235.562 37.9502C235.786 38.0395 235.877 38.1745 235.877 38.3552C235.877 39.2545 234.708 40.4696 232.729 40.4696C230.749 40.4696 229.218 39.3895 228.635 36.6894C226.88 39.4353 224.045 40.7832 221.12 40.7832C216.665 40.7832 213.832 38.0373 213.832 34.3943C213.832 30.1656 217.566 27.3304 223.372 27.3304H223.365ZM222.509 38.0395C225.839 38.0395 228.539 35.2936 228.539 31.7399V30.3898C227.413 29.8955 225.66 29.4905 223.86 29.4905C220.036 29.4905 218.011 31.2456 218.011 33.8107C218.011 36.3758 219.72 38.0395 222.509 38.0395Z"
        fill="white"></path>
    <path
        d="M252.295 38.8954C252.295 38.0853 253.15 37.861 255.489 37.7718C255.894 37.5475 255.983 35.2959 255.983 32.598V27.4242C255.983 22.6097 254.498 20.4496 250.988 20.4496C247.839 20.4496 244.283 22.834 244.283 29.0443V32.598C244.283 35.8381 244.373 37.5475 244.778 37.7718C247.116 37.9068 247.972 38.0875 247.972 38.8954C247.972 40.0211 245.904 40.3347 242.258 40.3347C238.613 40.3347 236.858 39.9297 236.858 38.8954C236.858 38.0853 237.757 37.861 239.693 37.7718C240.144 37.5475 240.233 36.3324 240.233 32.598V26.6577C240.233 24.4519 240.144 21.6646 239.693 21.3032C237.039 21.2139 236.453 20.7631 236.453 20.1796C236.453 19.7288 236.723 19.4153 237.309 19.1452C238.84 18.3809 241.943 17.7059 243.023 17.7059C244.103 17.7059 244.373 18.4267 244.373 19.731L244.327 22.8819C245.858 19.2824 249.007 17.3923 252.695 17.3923C256.61 17.3923 260.029 19.6417 260.029 25.9413V32.6001C260.029 36.4261 260.075 37.5039 260.523 37.7739C262.457 37.8632 263.402 38.0897 263.402 38.8975C263.402 39.9776 261.377 40.3369 258.002 40.3369C254.222 40.3369 252.288 39.9776 252.288 38.8975L252.295 38.8954Z"
        fill="white"></path>
    <path
        d="M263.766 29.4015C263.766 22.2919 267.994 17.2988 274.34 17.2988C277.488 17.2988 279.873 18.6032 281.449 20.539V16.173C281.449 14.0129 281.225 11.18 280.685 10.7728C277.85 10.6835 277.175 10.1892 277.175 9.60345C277.175 9.15271 277.399 8.88269 278.074 8.56913C279.694 7.84837 283.024 7.17334 284.239 7.17334C285.273 7.17334 285.589 7.84837 285.589 9.19843C285.589 10.7292 285.499 13.3379 285.499 16.8023V31.5159C285.499 33.946 285.589 36.5546 286.085 36.9161C288.694 37.0054 289.28 37.4561 289.28 38.0397C289.28 38.4905 289.055 38.804 288.424 39.074C286.893 39.8383 283.925 40.5134 282.845 40.5134C281.765 40.5134 281.495 39.7491 281.495 38.4883L281.541 35.2024C280.191 38.4883 276.996 40.7812 273.127 40.7812C267.727 40.7812 263.768 36.1017 263.768 29.3971L263.766 29.4015ZM274.564 37.9504C278.028 37.9504 281.582 35.0717 281.539 28.2322C281.449 22.024 278.523 19.5025 274.969 19.5025C270.47 19.5025 268.04 23.4177 268.04 28.905C268.04 34.6645 270.829 37.9482 274.564 37.9482V37.9504Z"
        fill="white"></path>
    <path
        d="M51.5593 30.719C49.556 31.2546 47.5897 31.7598 45.5385 32.0342C44.6348 32.1561 43.5961 32.265 42.5248 32.265C41.4534 32.265 40.3603 32.1561 39.3238 31.8426C38.7664 31.6727 38.2568 31.4419 37.8083 31.1545C34.9339 29.3145 34.5964 25.7716 34.2981 22.6469L34.2371 22.0045C34.2306 21.9479 34.1696 21.0878 34.1653 21.029C34.1653 20.9898 34.1544 20.9441 34.137 20.9332C34.1043 20.9158 33.9018 20.8592 33.1418 21.36C32.7564 21.6126 32.3949 21.8869 32.0444 22.1526C31.7656 22.3638 31.4869 22.575 31.2017 22.7754C30.6507 23.1586 30.0889 23.5266 29.5337 23.8707C28.6518 24.4172 27.8352 24.8418 27.0404 25.1707C26.4068 25.4341 25.4922 25.6954 24.8651 24.9268C24.5036 24.4869 24.2989 23.8772 24.2183 23.0106C24.0877 21.6256 24.079 20.2364 24.19 18.882C24.2597 18.0284 24.3642 17.1639 24.4666 16.3277C24.619 15.0691 24.7758 13.767 24.8172 12.4822C24.8324 11.9814 24.8324 11.4849 24.8302 10.9863V10.7816V10.7076C24.8324 10.3809 24.8389 9.77122 24.349 9.4337C24.1465 9.30087 23.8416 9.35967 23.6805 9.40539C23.0316 9.59048 22.4458 10.2416 21.9755 10.7642L21.8688 10.8818C20.6864 12.1861 19.7914 13.7975 18.927 15.3587L18.7049 15.7594C17.7446 17.4775 17.0347 18.858 16.2138 20.4563L15.6498 21.5494C15.051 22.7101 14.143 24.4608 12.3748 24.304C11.7128 24.2452 11.1206 23.8859 10.8309 23.3698C10.3628 22.5359 10.6872 21.4645 10.9224 20.6828C11.1271 20.0077 11.4602 19.3305 11.7825 18.6751C11.8674 18.5031 11.9524 18.3311 12.0329 18.1634C12.2812 17.6495 12.5076 17.251 12.7493 16.8286C12.8647 16.6261 12.9845 16.417 13.113 16.1818C13.9579 14.6532 14.9639 13.0767 16.3749 11.0668C17.6705 9.22248 19.1033 7.75266 20.6341 6.69656C22.6266 5.32036 25.4116 4.45589 27.2473 6.15871C27.5608 6.44832 27.8113 6.82503 27.9898 7.27796C28.2272 7.87677 28.3099 8.5039 28.3818 9.14845C28.7084 12.1317 28.7672 15.0212 28.556 17.7388C28.5451 17.8868 28.5277 18.0349 28.5102 18.183C28.4732 18.514 28.4362 18.8275 28.4602 19.1411C28.4689 19.2587 28.5015 19.4655 28.6191 19.52C28.6605 19.5396 28.7193 19.5439 28.7955 19.5352C29.1591 19.4873 29.5206 19.2173 29.8407 18.9778L29.9169 18.9212C30.2 18.7099 30.4787 18.4769 30.7466 18.2527C30.8598 18.159 30.9708 18.0632 31.0841 17.9718C32.0966 17.1378 33.1876 16.3909 34.3329 15.7485C34.7488 15.5155 35.2366 15.2586 35.7723 15.1519C36.4234 15.0234 36.959 15.1301 37.3684 15.4676C38.3439 16.2733 38.3374 18.1656 38.3309 19.4155V19.5875C38.3265 21.3992 38.3679 23.4874 38.9253 25.3601C39.1322 26.0525 39.5503 26.9954 40.3799 27.5442C40.9678 27.9339 41.7409 28.1125 42.6685 28.0798C44.8395 27.9993 47.0105 27.3068 49.1096 26.6361L49.5016 26.512C50.1918 26.2921 50.8778 26.0634 51.5637 25.8326C51.6094 25.8174 51.7292 25.7825 51.8881 25.7346C52.23 25.6345 53.0727 25.3862 53.3492 25.2643C53.138 19.1585 51.1586 13.0397 47.2413 8.61495C44.4258 5.4336 40.7871 3.40415 36.8567 1.90383C29.1003 -1.04235 20.0353 -0.604672 12.8081 3.46512C0.942815 10.1479 -3.67789 26.2855 3.23139 37.2733C9.48523 47.2181 22.1562 48.9056 32.8675 47.6296C40.6869 46.6976 49.4166 43.6578 52.0362 35.294C52.5327 33.7087 52.8898 32.0451 53.1075 30.3401C52.868 30.4119 52.4761 30.5078 51.8293 30.6558C51.6943 30.6863 51.5942 30.7103 51.5593 30.719ZM35.8049 38.9021C35.6395 38.9718 35.4827 39.0371 35.3411 39.1003C32.8675 40.1999 30.1695 40.7269 27.4759 40.7269C21.9973 40.7269 16.5426 38.5493 13.0542 34.5863L12.8038 34.3032C11.7651 33.1317 10.6916 31.9188 10.267 30.3597C10.1472 29.922 10.1929 29.5344 10.3954 29.2339C10.5914 28.9465 10.918 28.7701 11.3405 28.7222C12.2942 28.6133 13.0433 29.112 13.7096 29.6629C14.4587 30.2857 15.1381 30.9933 15.7957 31.6793C16.2138 32.1169 16.6471 32.5677 17.0913 32.9901C18.1561 34.0005 19.3603 34.804 20.7779 35.4486C23.0272 36.4698 25.5379 37.0011 28.053 36.9706C29.8059 36.9532 31.4891 36.5264 33.2006 36.0517C33.4118 35.9929 33.6209 35.932 33.8321 35.8732C34.9601 35.5487 36.125 35.2068 37.3423 35.2177C37.6471 35.2177 37.9629 35.246 38.2198 35.4311C38.4985 35.6315 38.6531 35.9995 38.627 36.3914C38.5312 37.7654 36.959 38.423 35.8093 38.9021H35.8049Z"
        fill="white"></path>
</svg>