<svg xmlns="http://www.w3.org/2000/svg" xmlns:xlink="http://www.w3.org/1999/xlink" width="278.978"
    height="110.66" viewBox="0 0 278.978 110.66">
    <defs>
        <clipPath id="a">
            <rect width="278.978" height="110.659" fill="none" />
        </clipPath>
    </defs>
    <g transform="translate(0 0.001)">
        <g clip-path="url(#a)">
            <path
                d="M167.034,39.148c2.025,0,3.21,1.2,3.21,2.88a2.36,2.36,0,0,1-1.59,2.3,2.559,2.559,0,0,1,1.92,2.566,2.978,2.978,0,0,1-3.285,2.894h-3.72V39.148Zm-.165,4.651a1.689,1.689,0,0,0,1.89-1.7c0-1.005-.735-1.665-1.95-1.665h-1.77V43.8Zm.21,4.694c1.185,0,2-.66,2-1.695a1.691,1.691,0,0,0-1.935-1.74h-2.1v3.435Z"
                fill="#fff" />
            <rect width="1.5" height="10.635" transform="translate(174.744 39.148)" fill="#fff" />
            <path
                d="M180.068,45.928l1.47-.33V46.6c0,1.409.765,2.039,1.83,2.039s1.74-.705,1.74-1.936V39.148h1.47V46.6a3.184,3.184,0,0,1-3.2,3.4,3.116,3.116,0,0,1-3.315-3.389Z"
                fill="#fff" />
        </g>
        <path d="M190.6,49.783v-1.47l6.345-7.8h-6.2V39.148h7.98v1.425l-6.375,7.83h6.45v1.38Z"
            fill="#fff" />
        <g clip-path="url(#a)">
            <path
                d="M207.278,38.924a5.3,5.3,0,0,1,5.34,5.534,5.344,5.344,0,1,1-10.68,0,5.3,5.3,0,0,1,5.34-5.534m0,9.734a3.844,3.844,0,0,0,3.84-4.2,3.854,3.854,0,1,0-7.68,0,3.844,3.844,0,0,0,3.84,4.2"
                fill="#fff" />
            <path d="M224,49.783l-5.745-8.67v8.67h-1.469V39.148h1.964l5.31,8.16v-8.16h1.47V49.783Z"
                fill="#fff" />
            <path
                d="M230.378,49.783V39.148h3.72c2.7,0,5.055,1.845,5.055,5.34a4.928,4.928,0,0,1-5.085,5.3Zm3.645-1.305c1.965,0,3.615-1.32,3.615-3.99s-1.62-4.035-3.585-4.035h-2.2v8.025Z"
                fill="#fff" />
            <path
                d="M243.323,49.783V39.148h6.464v1.365h-4.994v3.27h4.53v1.38h-4.53v3.255h4.994v1.365Z"
                fill="#fff" />
            <path
                d="M257.318,45.433h-1.59v4.35h-1.485V39.148h4a3.08,3.08,0,0,1,3.254,3.165,2.976,2.976,0,0,1-2.58,3.015l2.535,4.455h-1.709Zm.66-1.32a1.831,1.831,0,1,0,0-3.645h-2.25v3.645Z"
                fill="#fff" />
        </g>
        <path d="M170.378,61.24h1.545l-4.1,10.635h-1.455l-4-10.635h1.56l3.21,8.745Z" fill="#fff" />
        <path d="M175.569,71.875V61.24h6.464V62.6h-4.994v3.27h4.53v1.38h-4.53V70.51h4.994v1.365Z"
            fill="#fff" />
        <g clip-path="url(#a)">
            <path
                d="M189.534,67.525h-1.59v4.35h-1.485V61.24h4.005a3.08,3.08,0,0,1,3.255,3.165,2.977,2.977,0,0,1-2.58,3.015l2.534,4.455h-1.709Zm.66-1.32a1.831,1.831,0,1,0,0-3.645h-2.25v3.645Z"
                fill="#fff" />
            <path
                d="M205.853,71.875l-.135-1.5a3.784,3.784,0,0,1-3.4,1.725c-2.669,0-5.16-1.95-5.16-5.55a5.24,5.24,0,0,1,5.265-5.534,4.732,4.732,0,0,1,4.71,3.21l-1.335.569a3.356,3.356,0,0,0-3.375-2.43c-1.9,0-3.765,1.365-3.765,4.185s1.8,4.215,3.705,4.215a3.021,3.021,0,0,0,3.285-2.775h-3.69V66.67h5.085v5.205Z"
                fill="#fff" />
            <path
                d="M217.659,68.9h-4.71l-1.125,2.97h-1.575l4.23-10.635h1.695l4.23,10.635h-1.59Zm-4.185-1.365h3.66l-1.845-4.77Z"
                fill="#fff" />
            <path
                d="M224.048,71.875V61.24h3.72c2.7,0,5.055,1.845,5.055,5.34a4.928,4.928,0,0,1-5.085,5.295Zm3.645-1.305c1.965,0,3.615-1.32,3.615-3.99,0-2.685-1.62-4.035-3.585-4.035h-2.205V70.57Z"
                fill="#fff" />
            <path
                d="M236.993,71.875V61.24h6.464V62.6h-4.994v3.27h4.53v1.38h-4.53V70.51h4.994v1.365Z"
                fill="#fff" />
            <path
                d="M250.928,67.525h-1.59v4.35h-1.485V61.24h4.005a3.08,3.08,0,0,1,3.255,3.165,2.977,2.977,0,0,1-2.58,3.015l2.534,4.455h-1.709Zm.66-1.32a1.831,1.831,0,1,0,0-3.645h-2.25v3.645Z"
                fill="#fff" />
            <path
                d="M259.283,71.875V61.24h6.464V62.6h-4.994v3.27h4.53v1.38h-4.53V70.51h4.994v1.365Z"
                fill="#fff" />
        </g>
        <path d="M277.507,61.24V69.4L272.2,61.24h-1.965V71.874h1.47V63.2l5.745,8.669h1.53V61.24Z"
            fill="#fff" />
        <rect width="2.001" height="110.659" transform="translate(130.792 -0.001)" fill="#a87312" />
        <path
            d="M7.493,53.183,5.127,59.307,2.634,53.183H0v9.066H1.918V56.315l2.367,5.934H5.92l2.366-6.011v6.011h1.981V53.183Z"
            fill="#fff" />
        <path d="M19.832,62.248h-5.75V53.182h5.741v1.9H16.1v1.726h3.375v1.778H16.1v1.738h3.734Z"
            fill="#fff" />
        <path d="M29.127,62.248H23.375V53.182h5.741v1.9H25.4v1.726H28.77v1.778H25.4v1.738h3.732Z"
            fill="#fff" />
        <g clip-path="url(#a)">
            <path
                d="M37.029,62.248,35.4,58.876H34.69v3.375H32.671V53.182h3.593a2.9,2.9,0,0,1,2.128.806,2.744,2.744,0,0,1,.813,2.034,2.7,2.7,0,0,1-.473,1.592,2.634,2.634,0,0,1-1.318.965l1.841,3.669ZM34.69,57.133h1.189a1.361,1.361,0,0,0,.946-.3,1.135,1.135,0,0,0,0-1.6,1.38,1.38,0,0,0-.946-.294H34.69Z"
                fill="#fff" />
            <path
                d="M48.781,55.407l-1.816.511a1.385,1.385,0,0,0-.421-.78,1.482,1.482,0,0,0-1.087-.358,1.36,1.36,0,0,0-.9.287.866.866,0,0,0-.345.685q0,.7.9.869l1.214.231a3.352,3.352,0,0,1,1.938.978,2.509,2.509,0,0,1,.683,1.745,2.681,2.681,0,0,1-.907,2,3.4,3.4,0,0,1-2.442.864,3.714,3.714,0,0,1-2.653-.889,3.183,3.183,0,0,1-1.056-2.014l1.854-.447a1.708,1.708,0,0,0,.531,1.119,1.9,1.9,0,0,0,1.35.44,1.51,1.51,0,0,0,.933-.261A.819.819,0,0,0,46.9,59.7a.761.761,0,0,0-.256-.581,1.441,1.441,0,0,0-.717-.326l-1.24-.23a3.176,3.176,0,0,1-1.809-.934,2.462,2.462,0,0,1-.658-1.726,2.644,2.644,0,0,1,.959-2.084,3.378,3.378,0,0,1,2.289-.831,4.283,4.283,0,0,1,1.438.224,2.638,2.638,0,0,1,1,.594,3.294,3.294,0,0,1,.581.767,2.789,2.789,0,0,1,.287.831"
                fill="#fff" />
            <path d="M59.024,55.113h-2.8v7.135H54.2V55.113H51.416v-1.93h7.608Z" fill="#fff" />
            <path
                d="M67.335,62.248l-.652-1.841h-3.5l-.651,1.841H60.4l3.414-9.065h2.34l3.378,9.065Zm-2.378-6.815-1.112,3.133h2.2Z"
                fill="#fff" />
            <path
                d="M78.246,62.248H72.488V53.182h5.74v1.9h-3.72v1.726h3.376v1.778H74.508v1.738h3.738Z"
                fill="#fff" />
            <path d="M88.88,55.113h-2.8v7.135H84.06V55.113H81.273v-1.93h7.608Z" fill="#fff" />
            <path d="M97.7,62.248H91.95V53.182h5.74v1.9H93.97v1.726h3.376v1.778H93.97v1.738H97.7Z"
                fill="#fff" />
            <path
                d="M67.5,46.818V10.366L51.521,46.818H45.576L29.729,10.366V46.818H23.321V0H32.1l16.51,38.1L65.255,0H73.9V46.818Z"
                fill="#fff" />
            <path
                d="M66.682,106.843a2.323,2.323,0,0,0-.3.7c1.418.275,2.767.911,4.163.775.474-.045,1.049-.117,1.643-.157-.017-.016-.034-.033-.052-.048-.19-.177-.371-.344-.541-.531a.4.4,0,0,1-.11-.171.58.58,0,0,1,.083-.223,1.268,1.268,0,0,1,.264-.324c.054-.048.11-.094.163-.141-1.2.085-2.451.1-3.576.291-.569-.078-1.153-.124-1.737-.169"
                fill="#fff" />
            <path
                d="M26.44,105.668a.587.587,0,0,0-.155-.09,1.569,1.569,0,0,0-.555-.1,11.352,11.352,0,0,1-1.175-.172.57.57,0,0,0-.551.173c-.095,0-.189-.011-.284-.017.074.071.149.139.222.2.1.083.188.168.279.259a.92.92,0,0,1,.234,1.153c-.082.271-.176.533-.272.794-.006.014-.01.027-.015.041a5.881,5.881,0,0,0,2.018.224,13.993,13.993,0,0,1,3.316-.112l.128-.107a3.109,3.109,0,0,0,1.022-1.487c.119-.375.248-.724.388-1.052-1.519.1-3.144.1-4.581.288H26.44"
                fill="#fff" />
            <path
                d="M79.417,94.75h0c-.628-.292-1.283-.51-1.925-.772-.487-.2-1.123-.394-1.275-.964-.06-.217-.051-.445-.106-.664-.392-.07-.79-.124-1.185-.177l-.053-.007c-.276-.037-.552-.079-.827-.119-.132-.02-.262-.041-.393-.063a10.794,10.794,0,0,1-1.082-.233c.31-.367.787-.642.95-1.069q.669-.122,1.338-.233a1.191,1.191,0,0,0,.407-.234c.908-.835.486-2.106.068-3.083a3.98,3.98,0,0,0-1.748-2.08,14.393,14.393,0,0,0-1.9-.711c-.53-.178-1.511-.3-1.862-.776A9.922,9.922,0,0,1,71.6,82.483c.673-.4,1.363-.789,2-1.243,1.123-.8,2.031-2,1.331-3.4a10.067,10.067,0,0,0-1.2-1.543,5.447,5.447,0,0,1-.845-1.7c-.132-.413-.394-.968-.155-1.342a9.65,9.65,0,0,1,2.15-1.336c.954-.522,2.636-1.679,1.632-2.931a4.172,4.172,0,0,0-1.894-1.032q-1.226-.45-2.456-.889a3.543,3.543,0,0,0-1.146-.345H63.874a16.994,16.994,0,0,0,4.3,1.912,4.6,4.6,0,0,1,1.748.968c.3.32.164.435-.166.656-.256.184-.524.355-.784.534-.91.626-2.4,1.281-2.085,2.627.288,1.2,1.806.88,2.614,1.486.19.145.452.319.346.589a4.927,4.927,0,0,0-.3,1.066,3.508,3.508,0,0,0,.276,2.074c.228.469.808.846.1,1.248-.739.413-1.486.818-2.231,1.223q-.922.5-1.837,1.015a6.95,6.95,0,0,0-1.914,1.315c-1.113,1.316.777,2.357,1.8,2.749,1.186.454,2.429.819,3.571,1.382a3.8,3.8,0,0,1,1.176.9c.346.392.582.572.158.935-.739.626-1.659,1.176-1.948,2.165-.326,1.109.527,2.046,1.344,2.667a11.807,11.807,0,0,1-2.061-.845c-.324-.189-.629-.409-.934-.626-.338-.246-.081-.659.092-.923a3.076,3.076,0,0,0,.588-1.847,2.918,2.918,0,0,0-1.094-1.874,10.185,10.185,0,0,0-4.172-2c-.769-.231-1.548-.441-2.314-.683a6.2,6.2,0,0,1-1.973-.762,12.218,12.218,0,0,1-1.61-1.685c-.266-.305-.3-.314,0-.6a10.944,10.944,0,0,1,.963-.81,10.062,10.062,0,0,0,2.846-3.016c.845-1.5-.462-2.456-1.69-3.107-1.376-.729-2.765-1.223-3.77-2.469a12.937,12.937,0,0,1-1.065-1.911,7.212,7.212,0,0,0-1.45-1.893,8.671,8.671,0,0,0-2.11-1.209l-1.3-.631-.735-.354a2.037,2.037,0,0,0-.554-.266H43.373a2.533,2.533,0,0,0,.915,1.433c.248.216.551.358.8.571a8.727,8.727,0,0,1,.9.914,5.053,5.053,0,0,1,1.223,1.583,2.055,2.055,0,0,1-.48,2,10.736,10.736,0,0,1-2.889,2.085,11.189,11.189,0,0,0-3.1,2.744,8.538,8.538,0,0,1-3.589,2.483c-1.3.553-2.637.766-3.745,1.714a1.464,1.464,0,0,0-.358,1.683,2.529,2.529,0,0,0,1.148.907c1.2.611,2.485,1.069,3.727,1.582.461.19.347.256.09.634a8.352,8.352,0,0,1-1.272,1.2,22.8,22.8,0,0,0-2.693,2.752c-.73.968-1.227,2.053-.452,3.169a11.714,11.714,0,0,0,1.023,1.158c.2.221.274.242.075.474a6.54,6.54,0,0,1-.6.612,1.808,1.808,0,0,0-.8-1.7A11.544,11.544,0,0,1,31.363,93.1c-.567-.689.061-1.632.468-2.23a13.67,13.67,0,0,0,1.4-2.094c.762-1.768-1.635-2.439-2.794-3.009a18.221,18.221,0,0,0-2.092-.95c-.846-.291-1.747-.516-2.565-.878a5.49,5.49,0,0,1,1.376-.78c.543-.274,1.085-.551,1.6-.867a3.983,3.983,0,0,0,1.6-2.034c.314-.83.4-1.727.713-2.561a6.323,6.323,0,0,1,1.752-2.3,1.956,1.956,0,0,0,.522-2.488c-.531-.884-1.5-1.435-2.1-2.287a7.438,7.438,0,0,0-2.1-2.3c-.456-.285-.936-.517-1.383-.82a2.041,2.041,0,0,1-.489-.372,1.109,1.109,0,0,1,.57-.411H21.9c-.624,0-.955-.126-1,.7-.064,1.351,1.772,1.818,2.725,2.3a6.837,6.837,0,0,1,1.538,1.038c.579.53.953,1.216,1.5,1.77.415.42.911.782,1.285,1.243a1.908,1.908,0,0,1,.251.4c-.133.133-.269.267-.408.4-.321.311-.661.6-1.007.881a24.859,24.859,0,0,0-3.648,3.171c-.744.9-1.6,2.059-1.31,3.277.112.471-.862,1.059-1.109,1.391a1.545,1.545,0,0,0-.075,1.872,8.141,8.141,0,0,0,3.767,2.554c.72.268,1.451.5,2.157.806a6.334,6.334,0,0,1,.964.5c.2.126.007.311-.1.455-.839,1.123-2.172,2.347-1.835,3.892.32,1.461,2.142,2.168,3.283,2.846a2.237,2.237,0,0,1,.668.621c.154.2-.086.34-.239.5a22.431,22.431,0,0,1-1.9,1.493,25.15,25.15,0,0,0-3.252,3.142,9.1,9.1,0,0,0-.953,1.2c-.2.332-.514,1.331.055,1.381.321.028.642.063.962.1l1.075.125.319.034c.265.028.531.05.8.069.133.009.267.017.4.024.225.01.451.009.676.007.278,0,.557,0,.834-.016.659-.03,1.416-.064,2.174-.065h.05c.25,0,.5,0,.749.014a7.876,7.876,0,0,1,.45-.782,6.606,6.606,0,0,1,1.077-1.247c-.292.024-.582.051-.862.09-.216-.025-.442-.033-.661-.051a33.33,33.33,0,0,1-3.639-.29c.125-.065.275-.125.421-.185a2.931,2.931,0,0,0,.356-.163.7.7,0,0,0,.172-.133l.367-.029c.142-.016.29-.024.45-.036h.016c.2-.016.4-.033.6-.047l.667.083c.39.039.78.087,1.173.119.108.008.216.016.324.021a10.593,10.593,0,0,0,1.113,0h.009c.331-.017.637-.447.873-.671.607-.579,1.168-1.223,1.807-1.77a11.426,11.426,0,0,1,3.113-1.653c.723-.308,1.445-.622,2.145-.984a2.345,2.345,0,0,0,1.025-.811,1.8,1.8,0,0,0,.057-1.663,2.888,2.888,0,0,0-1.253-.963,13.032,13.032,0,0,1-1.969-1.156c-.155-.133-.475-.359-.54-.563,0-.223.319-.492.469-.6a49.067,49.067,0,0,1,4.129-2.8c1.127-.66,2.516-1.6,2.184-3.108-.253-1.163-1.456-1.8-2.357-2.43a1.4,1.4,0,0,1-.431-.416c-.17-.274.323-.448.525-.548.741-.366,1.487-.728,2.241-1.074a17.462,17.462,0,0,0,4.02-2.169,5.093,5.093,0,0,0,1.043-1.02,3.94,3.94,0,0,0,.481-1.457l1.549,1.084c.32.223.651.426.968.653.759.549.6,1.094.026,1.75-.826.937-2.4,2.248-1.922,3.656a2.723,2.723,0,0,0,1.355,1.456,18.851,18.851,0,0,0,1.835.516,4.785,4.785,0,0,1,1.644.991,8.376,8.376,0,0,0,.71.7,5.779,5.779,0,0,0,1,.526,7.482,7.482,0,0,1,2.024.987c.388.375-.065,1.158-.123,1.6a1.55,1.55,0,0,0,.475,1.409c.2.177.446.255.651.416.226.179.223.406.267.667.019.117.05.157.1.17l.247-.014h.065c.1-.008.192-.014.287-.02.053,0,.1-.008.157-.01h.033c.3-.014.591-.015.882,0h.08c.027,0,.053.006.079.008.073.006.144.014.215.021.092.01.184.021.275.037.068.011.132.027.2.041.09.02.179.041.267.066a6.729,6.729,0,0,1,.426.166,2.086,2.086,0,0,1,.388.239,5.049,5.049,0,0,1-.668.276c-.186.062-.376.108-.568.153-.044.01-.086.025-.13.035a13.4,13.4,0,0,1-1.465.216,11.862,11.862,0,0,0,2.641,1.443A6.472,6.472,0,0,0,68,96.241l.118-.012c1.4-.152,3.267-.5,4.453.434a5.248,5.248,0,0,1-.635.264l-.052.016A17.686,17.686,0,0,1,68.3,97.5c-.169.02-.337.045-.5.071-.044.007-.089.011-.134.019a12.143,12.143,0,0,0-2.578.943c-.778.327-1.582.784-1.594,1.746-.01,1.672,2.358,2.187,3.561,2.62a3.975,3.975,0,0,1,1.916,1.1c.315.4-1.288,1.69-1.587,2a14.933,14.933,0,0,0,3.084.106H70.5c.466-.026.967-.048,1.466-.05h.171l.193.006a.831.831,0,0,0,.646-.185,4.3,4.3,0,0,0,1.475-1.922,3.943,3.943,0,0,0-.136-2.305c-.1-.33-.384-.867-.164-1.2.232-.354.818-.541,1.182-.718,1.029-.5,2.085-.931,3.139-1.374.773-.324,1.866-.621,2.213-1.487.358-.9-.513-1.768-1.265-2.118m-5.215,2.319a1.373,1.373,0,0,0,.017-.429.645.645,0,0,0-.015-.118,1.242,1.242,0,0,0-.149-.416,4.826,4.826,0,0,1,1.173.513q-.512.227-1.026.451"
                fill="#fff" />
            <path d="M79.411,94.749h0c-.206-.1-.1-.048,0,0" fill="#fff" />
            <path d="M79.416,94.747h0c.1.045.193.089,0,0" fill="#fff" />
            <path d="M79.416,94.747" fill="#fff" />
            <path d="M74.2,97.068c.344-.15.023-.1,0,0" fill="#fff" />
            <path d="M74.205,96.521c.008.038.011.078.016.118a.578.578,0,0,0-.016-.118"
                fill="#fff" />
            <path
                d="M66.868,109.463a2.6,2.6,0,0,0,.813.48c.318.133.628.283.941.434.2.1.394.19.593.282h4.824a3.212,3.212,0,0,0-.689-1.3c-.019-.023-.039-.045-.062-.068a28.893,28.893,0,0,0-3.949.579,24.009,24.009,0,0,0-2.471-.407"
                fill="#fff" />
            <path
                d="M24.425,109.572c-.192-.036-.388-.064-.581-.093a2.5,2.5,0,0,0,.279,1.056l.064.123h4.449v-.011a4.415,4.415,0,0,0-.328-.6,2.145,2.145,0,0,1-.281-.539.982.982,0,0,1,.2-.3,20.848,20.848,0,0,0-3.025.421c-.259-.027-.519-.046-.778-.057"
                fill="#fff" />
        </g>
    </g>
</svg>