<svg xmlns="http://www.w3.org/2000/svg" width="58.143" height="36" viewBox="0 0 58.143 36">
  <path id="Path_95" data-name="Path 95" d="M-1061.709-58.3a17.209,17.209,0,0,0-13.768,6.866,17.21,17.21,0,0,0-13.768-6.866,17.232,17.232,0,0,0-15.3,9.308v26.648h3.155a21.691,21.691,0,0,1,1.4-2.281c2.128-3.026,5.573-6.138,10.746-6.138h.013c5.168,0,8.612,3.106,10.74,6.129a21.644,21.644,0,0,1,1.4,2.29h.083v.044h3.155a21.634,21.634,0,0,1,1.4-2.281c2.127-3.025,5.573-6.138,10.746-6.138h.013c5.168,0,8.612,3.106,10.74,6.129a21.678,21.678,0,0,1,1.4,2.29h3.155V-48.992A17.231,17.231,0,0,0-1061.709-58.3Zm-16.567,27.468a15.259,15.259,0,0,0-10.969-4.644,15.258,15.258,0,0,0-10.984,4.66l-.384-15.859c.193-.308.395-.619.615-.933,2.128-3.025,5.573-6.138,10.746-6.138h.013c5.168,0,8.612,3.106,10.74,6.129.212.3.406.6.592.894Zm27.9-15.873-.369,15.917a15.258,15.258,0,0,0-10.969-4.644,15.259,15.259,0,0,0-10.984,4.66l-.385-15.9c.193-.309.4-.621.616-.935,2.127-3.025,5.573-6.138,10.746-6.138h.013c5.168,0,8.612,3.106,10.74,6.129.216.307.414.611.6.912Z" transform="translate(1104.548 58.299)" fill="#fc4b33"/>
</svg>
