<svg xmlns="http://www.w3.org/2000/svg" width="69.312" height="69.34" viewBox="0 0 69.312 69.34">
    <path
        d="M-366.888,1403.711l-22.216-37.839h-27.113v69.34h32.64v-9.4l-4.028-6.863v12.234h-24.582V1369.9h20.778l21.047,35.846a4.453,4.453,0,0,1,.024,4.512,4.449,4.449,0,0,1-3.9,2.263h-4.288l2.365,4.028h1.922a8.437,8.437,0,0,0,7.4-4.288A8.433,8.433,0,0,0-366.888,1403.711Z"
        transform="translate(416.218 -1365.872)" fill="#fff" />
    <path
        d="M-386,1372.365v2.909l4.03,6.862v-8.988a3.246,3.246,0,0,1,3.246-3.246h18.037a3.247,3.247,0,0,1,3.246,3.246v54.787a3.246,3.246,0,0,1-3.246,3.246h-15.623a3.246,3.246,0,0,1-2.8-1.6l-20.106-34.245a4.469,4.469,0,0,1,.305-5.013,4.663,4.663,0,0,1,3.755-1.761h4.1l-2.365-4.03h-1.576a8.867,8.867,0,0,0-7.682,4.183,8.437,8.437,0,0,0-.015,8.659l20.334,34.633a6.491,6.491,0,0,0,5.6,3.205H-359.9a6.492,6.492,0,0,0,6.493-6.493v-56.354a6.493,6.493,0,0,0-6.493-6.493h-19.6A6.493,6.493,0,0,0-386,1372.365Z"
        transform="translate(422.722 -1365.872)" fill="#fff" />
</svg>