<svg width="260" height="91" viewBox="0 0 260 91" fill="none" xmlns="http://www.w3.org/2000/svg">
    <path
        d="M52.0496 19.3411C72.0327 -4.27051 95.368 19.0805 71.6137 39.1453C73.9544 41.505 76.1507 43.7344 78.0291 45.6309C110.93 18.429 72.943 -19.8475 45.6919 12.7542C45.952 13.0726 46.2266 13.3911 46.4866 13.7241C47.5125 14.7664 49.4921 16.7642 52.0351 19.3411H52.0496Z"
        fill="#8A8ADA" />
    <path
        d="M13.4562 32.3702C1.56453 19.1963 19.0191 -4.08228 39.4502 19.2542C43.1925 15.4758 45.7211 12.9279 45.7211 12.9279C45.7211 12.9279 46.0101 13.2319 46.5158 13.7386C46.2557 13.4056 45.9812 13.0871 45.7211 12.7686C18.5134 -19.8185 -19.5312 18.3856 13.355 45.6164C15.3057 43.6476 17.5742 41.3602 19.9872 38.9137C17.473 36.3947 13.4562 32.3702 13.4562 32.3702Z"
        fill="#8A8ADA" />
    <path d="M45.7065 77.5664V77.5807H45.7209L45.7065 77.5664Z" fill="#5B4AAD" />
    <path
        d="M52.0926 71.1824L71.3678 51.8704C69.446 49.945 67.2353 47.73 64.9379 45.4282L45.7061 64.6968L26.4743 45.4282L20.0156 51.8993C23.8735 55.6633 33.0053 64.856 39.2763 71.1679C41.7615 68.7213 44.2323 66.2892 45.7061 64.7113C47.4978 66.1589 49.6796 68.6055 52.0926 71.1968V71.1824Z"
        fill="#5B4AAD" />
    <path
        d="M84.4011 52.0149C84.2855 51.9135 81.7569 49.3801 78.0434 45.6306C76.1506 43.7197 73.9544 41.5047 71.6281 39.145C65.0538 32.5002 57.3524 24.6972 52.064 19.3408C49.521 16.764 45.7208 12.7539 45.7208 12.7539C45.7208 12.7539 43.1922 15.4611 39.4499 19.254C34.2049 24.5525 26.5613 32.283 20.0014 38.9134C17.5739 41.36 15.3054 43.6473 13.3693 45.6161C9.58353 49.438 7.02604 52.0149 7.02604 52.0149C-7.42309 65.5217 3.64494 91.5219 23.0791 90.827C32.1676 91.4785 39.9123 83.9506 45.7208 77.5663C65.7618 107.157 107.491 80.3893 84.4156 52.0149H84.4011ZM45.7064 64.682C44.2326 66.26 41.7618 68.6921 39.2765 71.1386C36.7624 73.6142 34.2193 76.1042 32.6733 77.7256C20.406 90.3348 0.769568 70.8202 13.4415 58.457L20.0158 51.8701L26.4746 45.399L45.7064 26.1304C45.7064 26.1304 55.9797 36.4234 64.9382 45.399C67.2356 47.7008 69.4463 49.9157 71.368 51.8411C75.2259 55.7064 77.9567 58.4425 77.9567 58.4425C86.5395 66.5495 80.1242 82.0396 68.3482 81.6777C62.8575 82.3002 57.0056 76.4371 52.0929 71.1676C49.6799 68.5763 47.4981 66.1297 45.7064 64.6675V64.682Z"
        fill="#BACE03" />
    <path
        d="M102.159 1.24512H112.779L119.426 14.6216H119.498L119.281 1.24512H125.856V24.654H116.334L108.488 8.88884H108.459L108.704 24.654H102.173V1.24512H102.159Z"
        fill="#8A8ADA" />
    <path
        d="M146.908 16.8655H135.074C135.247 19.399 136.287 20.3544 138.195 20.3544C139.799 20.3544 140.781 19.7175 140.897 18.2264H146.893C146.821 22.3957 143.729 24.958 137.877 24.958C131.1 24.958 128.008 21.3244 128.008 16.0548C128.008 10.0036 131.808 6.8042 137.949 6.8042C143.527 6.8042 146.893 9.58374 146.893 15.2441V16.88L146.908 16.8655ZM140.911 13.5214C140.911 11.9145 139.914 11.1038 138.209 11.1038C136.504 11.1038 135.507 11.8855 135.189 13.9847H140.911V13.5214Z"
        fill="#8A8ADA" />
    <path
        d="M150.361 18.4721V12.3919H147.948V7.09341H149.87C150.823 7.09341 151.257 6.63016 151.358 5.3562L151.604 3.1123H157.398V7.09341H162.585V12.3919H157.398V17.8062C157.398 19.2684 158.077 19.7316 160.056 19.7316C160.88 19.7316 161.906 19.6303 162.368 19.5145V24.5669C161.834 24.7116 160.244 24.9577 158.323 24.9577C152.427 24.9577 150.361 22.4677 150.361 18.4866V18.4721Z"
        fill="#8A8ADA" />
    <path
        d="M163.813 7.0791H171.269L173.581 18.1828H173.653L176.24 7.0791H182.843L185.328 18.1828H185.4L187.813 7.0791H193.998L189.489 24.6539H180.964L178.725 14.7228H178.653L176.312 24.6539H168.321L163.813 7.0791Z"
        fill="#8A8ADA" />
    <path
        d="M213.432 16.8655H201.598C201.771 19.399 202.811 20.3544 204.719 20.3544C206.323 20.3544 207.305 19.7175 207.421 18.2264H213.417C213.345 22.3957 210.253 24.958 204.401 24.958C197.624 24.958 194.532 21.3244 194.532 16.0548C194.532 10.0036 198.332 6.8042 204.473 6.8042C210.05 6.8042 213.417 9.58374 213.417 15.2441V16.88L213.432 16.8655ZM207.421 13.5214C207.421 11.9145 206.424 11.1038 204.719 11.1038C203.014 11.1038 202.017 11.8855 201.699 13.9847H207.421V13.5214Z"
        fill="#8A8ADA" />
    <path
        d="M215.31 7.07909H222.347L222.13 11.9867H222.202C222.91 8.85973 224.587 6.78955 227.953 6.78955C231.652 6.78955 233.415 9.0624 233.415 13.7963C233.415 15.0703 233.314 16.8509 233.242 17.8498H227.202C227.274 17.0246 227.274 16.0691 227.274 15.5335C227.274 13.5068 226.523 12.6816 225.208 12.6816C223.474 12.6816 222.332 14.1437 222.332 17.2707V24.6394H215.296V7.07909H215.31Z"
        fill="#8A8ADA" />
    <path
        d="M235.308 0H242.344V15.1572H242.373L248.196 7.07913H256.013L249.685 14.8387L256.432 24.6539H247.878L244.252 18.7763L242.33 20.9479V24.6539H235.293V0H235.308Z"
        fill="#8A8ADA" />
    <path
        d="M101.278 31.7476H109.875L113.14 45.7031H113.285L116.623 31.7476H123.587L126.896 45.7031H127.04L130.234 31.7476H137.372L130.768 55.1565H122.316L119.267 42.2432H119.166L115.972 55.1565H107.881L101.307 31.7476H101.278Z"
        fill="#5B4AAD" />
    <path
        d="M138.99 31.1685H146.055V35.9747H138.99V31.1685ZM138.99 37.5817H146.026V55.1564H138.99V37.5817Z"
        fill="#5B4AAD" />
    <path
        d="M144.22 62.308V57.4003C144.827 57.5017 145.434 57.5741 146.098 57.5741C147.702 57.5741 148.41 56.6475 148.41 55.0406V37.5672H155.447V55.4315C155.447 59.7021 153.381 62.6554 148.454 62.6554C146.359 62.6554 144.899 62.4382 144.22 62.2935V62.308ZM148.41 31.1685H155.447V35.9747H148.41V31.1685Z"
        fill="#5B4AAD" />
    <path
        d="M157.745 30.5024H164.781V45.6596H164.81L170.633 37.5816H178.45L172.122 45.3411L178.869 55.1563H170.316L166.689 49.2788L164.767 51.4503V55.1563H157.73V30.5024H157.745Z"
        fill="#5B4AAD" />
    <path
        d="M179.982 50.9581L187.51 42.9524V42.88H180.271V37.5815H196.251V41.7074L188.651 49.8144V49.8434H196.251V55.1418H179.982V50.9436V50.9581Z"
        fill="#5B4AAD" />
    <path
        d="M197.408 46.3979C197.408 40.8822 200.919 37.292 207.493 37.292C214.067 37.292 217.55 40.8822 217.55 46.3979C217.55 51.9135 214.067 55.4314 207.493 55.4314C200.919 55.4314 197.408 51.8701 197.408 46.3979ZM210.513 46.3979C210.513 43.7341 209.444 42.3009 207.493 42.3009C205.542 42.3009 204.444 43.7197 204.444 46.3979C204.444 49.0761 205.514 50.4224 207.493 50.4224C209.473 50.4224 210.513 49.0037 210.513 46.3979Z"
        fill="#5B4AAD" />
    <path
        d="M219.428 37.5815H226.465L226.248 42.4891H226.32C227.028 39.3622 228.704 37.292 232.071 37.292C235.77 37.292 237.533 39.5648 237.533 44.2987C237.533 45.5727 237.431 47.3533 237.359 48.3522H231.32C231.392 47.5271 231.392 46.5716 231.392 46.0359C231.392 44.0092 230.64 43.184 229.326 43.184C227.592 43.184 226.45 44.6462 226.45 47.7732V55.1418H219.413V37.5671L219.428 37.5815Z"
        fill="#5B4AAD" />
    <path
        d="M259.25 56.4013C259.25 60.3535 255.84 62.8 249.049 62.8C241.867 62.8 238.674 61.0194 238.674 58.3557C238.674 56.7488 239.7 55.6196 241.694 55.4314V55.359C240.379 54.5338 239.917 53.4046 239.917 52.3044C239.917 50.5961 240.842 49.3222 242.575 48.8155V48.7865C240.408 47.7587 239.31 45.9781 239.31 43.5894C239.31 39.782 242.33 37.292 248.225 37.292C250.364 37.292 252.126 37.6105 253.557 38.2185V38.1896C252.878 37.6539 252.386 36.9446 252.386 36.1918C252.386 34.8454 253.701 33.8755 256.475 33.8755C257.472 33.8755 258.108 33.9479 258.571 34.0203V38.2475C258.253 38.2185 257.935 38.1751 257.617 38.1751C256.548 38.1751 256.056 38.5949 256.056 39.3187C256.056 39.6372 256.201 40.0715 256.345 40.4914C256.88 41.3744 257.169 42.4168 257.169 43.5894C257.169 47.4257 254.12 49.8578 248.254 49.8578C247.3 49.8578 246.376 49.7854 245.552 49.6841C245.451 49.8578 245.335 50.1763 245.335 50.5382C245.335 51.1752 245.826 51.5661 246.65 51.5661H252.444C257.025 51.5661 259.264 53.4915 259.264 56.4013H259.25ZM252.285 57.7187C252.285 56.937 251.678 56.5026 250.046 56.5026H247.271C246.246 56.5026 245.566 56.9659 245.566 57.7766C245.566 58.8045 246.78 59.3835 248.976 59.3835C251.173 59.3835 252.285 58.7755 252.285 57.7042V57.7187ZM245.928 43.5894C245.928 45.2687 246.78 46.1518 248.239 46.1518C249.699 46.1518 250.551 45.2687 250.551 43.5894C250.551 41.9101 249.728 41.027 248.239 41.027C246.751 41.027 245.928 41.8811 245.928 43.5894Z"
        fill="#5B4AAD" />
    <path
        d="M102.159 62.2354H112.779L119.426 75.6119H119.498L119.281 62.2354H125.856V85.6443H116.334L108.488 69.8791H108.459L108.704 85.6443H102.173V62.2354H102.159Z"
        fill="#8A8ADA" />
    <path
        d="M128.023 76.9003C128.023 71.3847 131.534 67.7944 138.108 67.7944C144.683 67.7944 148.165 71.3847 148.165 76.9003C148.165 82.4159 144.683 85.9338 138.108 85.9338C131.534 85.9338 128.023 82.3725 128.023 76.9003ZM141.128 76.9003C141.128 74.2366 140.059 72.8034 138.108 72.8034C136.158 72.8034 135.06 74.2221 135.06 76.9003C135.06 79.5785 136.129 80.9248 138.108 80.9248C140.088 80.9248 141.128 79.5061 141.128 76.9003Z"
        fill="#8A8ADA" />
    <path
        d="M149.725 76.9003C149.725 71.3847 153.237 67.7944 159.811 67.7944C166.385 67.7944 169.868 71.3847 169.868 76.9003C169.868 82.4159 166.385 85.9338 159.811 85.9338C153.237 85.9338 149.725 82.3725 149.725 76.9003ZM162.831 76.9003C162.831 74.2366 161.762 72.8034 159.811 72.8034C157.86 72.8034 156.762 74.2221 156.762 76.9003C156.762 79.5785 157.831 80.9248 159.811 80.9248C161.79 80.9248 162.831 79.5061 162.831 76.9003Z"
        fill="#8A8ADA" />
    <path
        d="M171.732 68.084H178.768L178.552 72.9916H178.624C179.332 69.8646 181.008 67.7944 184.375 67.7944C188.074 67.7944 189.836 70.0673 189.836 74.8012C189.836 76.0751 189.735 77.8558 189.663 78.8547H183.623C183.695 78.0295 183.695 77.074 183.695 76.5384C183.695 74.5116 182.944 73.6865 181.629 73.6865C179.895 73.6865 178.754 75.1486 178.754 78.2756V85.6443H171.717V68.0695L171.732 68.084Z"
        fill="#8A8ADA" />
    <path
        d="M191.382 76.7266C191.382 71.211 194.547 67.7945 199.402 67.7945C202.248 67.7945 203.953 68.7934 204.69 70.3569H204.719V61.0049H211.756V85.6588H204.719C204.791 85.0218 204.863 83.661 204.936 81.9962H204.864C204.184 84.2401 202.407 85.9483 199.185 85.9483C194.243 85.9483 191.368 82.4305 191.368 76.7266H191.382ZM204.733 77.0451V76.0173C204.705 74.1353 203.419 72.8179 201.497 72.8179C199.575 72.8179 198.376 74.2801 198.376 76.799C198.376 79.318 199.546 80.9249 201.425 80.9249C203.303 80.9249 204.733 79.5351 204.733 77.0451Z"
        fill="#8A8ADA" />
</svg>
    