<svg id="Laag_1" data-name="Laag 1" xmlns="http://www.w3.org/2000/svg" viewBox="0 0 970.89 215.35"
    fill="black">
    <path
        d="m41.69,127.87c7.17,0,12.77-4.29,16.82-12.89,4.04-8.59,6.06-21.63,6.06-39.12s-2.02-30.5-6.06-39.04c-4.04-8.54-9.65-12.81-16.82-12.81s-12.65,4.27-16.74,12.81c-4.09,8.55-6.14,21.56-6.14,39.04s2.05,30.52,6.14,39.12c4.09,8.59,9.67,12.89,16.74,12.89m0,4.09c-4.85,0-9.4-1.44-13.63-4.32-4.24-2.88-7.95-6.84-11.14-11.9-3.18-5.06-5.66-10.99-7.42-17.81-1.76-6.82-2.65-14.18-2.65-22.06s.88-15.21,2.65-21.99c1.77-6.77,4.25-12.71,7.42-17.81,3.19-5.1,6.89-9.08,11.14-11.9,4.24-2.84,8.78-4.26,13.63-4.26s9.36,1.41,13.56,4.24c4.19,2.83,7.9,6.8,11.14,11.9,3.23,5.1,5.73,11.04,7.5,17.81,1.76,6.77,2.65,14.1,2.65,21.99s-.88,15.24-2.65,22.06c-1.77,6.82-4.27,12.76-7.5,17.81-3.23,5.06-6.94,9.02-11.14,11.9-4.19,2.88-8.71,4.33-13.56,4.33"></path>
    <path
        d="m122.99,127.87c7.17,0,12.77-4.29,16.82-12.89,4.04-8.59,6.06-21.63,6.06-39.12s-2.02-30.5-6.06-39.04c-4.04-8.54-9.65-12.81-16.82-12.81s-12.65,4.27-16.74,12.81c-4.09,8.55-6.14,21.56-6.14,39.04s2.05,30.52,6.14,39.12c4.09,8.59,9.67,12.89,16.74,12.89m0,4.09c-4.85,0-9.4-1.44-13.63-4.32-4.24-2.88-7.95-6.84-11.14-11.9-3.18-5.06-5.66-10.99-7.42-17.81-1.76-6.82-2.65-14.18-2.65-22.06s.88-15.21,2.65-21.99c1.76-6.77,4.24-12.71,7.42-17.81,3.19-5.1,6.89-9.08,11.14-11.9,4.25-2.83,8.79-4.24,13.63-4.24s9.36,1.41,13.56,4.24c4.19,2.83,7.9,6.8,11.14,11.9,3.23,5.1,5.73,11.04,7.5,17.81,1.76,6.77,2.65,14.1,2.65,21.99s-.88,15.24-2.65,22.06c-1.76,6.82-4.27,12.76-7.5,17.81-3.23,5.06-6.94,9.02-11.14,11.9-4.19,2.88-8.71,4.32-13.56,4.32"></path>
    <path
        d="m208.08,131.97c-8.16,0-15.07-2.33-20.71-6.97-5.64-4.65-9.93-11.19-12.85-19.63-2.92-8.44-4.38-18.42-4.38-29.95s1.72-20.85,5.14-29.19c3.43-8.34,8.14-14.81,14.14-19.41,5.99-4.6,12.88-6.9,20.64-6.9,3.93,0,7.51.38,10.74,1.14,3.23.76,6.05,1.74,8.46,2.95,1.31.71,1.97,1.77,1.97,3.18l.46,23.04c0,1.72-.6,2.58-1.81,2.58-1.11,0-1.81-.66-2.12-1.97l-1.21-4.55c-2.21-8.39-4.73-14.15-7.56-17.28-2.82-3.13-6.7-4.7-11.64-4.7-7.36,0-13.43,4.37-18.22,13.12-4.79,8.75-7.18,21.41-7.18,37.98s2.45,30.1,7.33,39.05c4.89,8.95,11.16,13.42,18.82,13.42,4.13,0,7.25-.91,9.37-2.73,2.12-1.82,3.18-5.21,3.18-10.16v-33.2c0-2.13-.33-3.59-.99-4.4-.66-.81-2.04-1.32-4.16-1.52l-5.9-.61c-1.31-.1-1.97-.71-1.97-1.82s.75-1.67,2.27-1.67h27.67c1.51,0,2.26.6,2.26,1.82,0,.91-.55,1.47-1.66,1.67l-2.27.31c-2.21.31-3.53.91-3.93,1.82-.4.91-.6,2.42-.6,4.55v41.09c0,1.12-.3,2-.91,2.66-.6.66-1.66,1.39-3.18,2.2-2.42,1.21-5.19,2.2-8.31,2.96-3.12.76-6.76,1.14-10.88,1.14"></path>
    <path
        d="m450.42,132.3c-8.16,0-15.07-2.33-20.71-6.97-5.64-4.65-9.92-11.19-12.85-19.63-2.92-8.44-4.38-18.42-4.38-29.95s1.72-20.85,5.14-29.19c3.43-8.34,8.14-14.81,14.13-19.41,5.99-4.6,12.88-6.9,20.64-6.9,3.93,0,7.51.38,10.74,1.14,3.23.76,6.05,1.74,8.46,2.95,1.31.71,1.97,1.77,1.97,3.19l.46,23.04c0,1.72-.6,2.58-1.81,2.58-1.11,0-1.81-.66-2.12-1.97l-1.21-4.55c-2.21-8.39-4.73-14.15-7.56-17.28-2.82-3.13-6.7-4.7-11.64-4.7-7.36,0-13.43,4.37-18.22,13.12-4.79,8.75-7.18,21.41-7.18,37.98s2.45,30.1,7.33,39.05c4.89,8.95,11.16,13.42,18.82,13.42,4.13,0,7.25-.91,9.37-2.73,2.12-1.82,3.18-5.21,3.18-10.16v-33.2c0-2.13-.33-3.59-.98-4.4-.66-.81-2.04-1.32-4.16-1.52l-5.9-.61c-1.31-.1-1.96-.71-1.96-1.82s.75-1.67,2.27-1.67h27.67c1.51,0,2.27.6,2.27,1.82,0,.91-.55,1.47-1.66,1.67l-2.27.31c-2.21.31-3.52.91-3.93,1.82-.4.91-.6,2.42-.6,4.55v41.09c0,1.12-.31,2-.91,2.66-.6.66-1.66,1.39-3.18,2.2-2.41,1.21-5.19,2.2-8.31,2.96-3.12.76-6.75,1.14-10.88,1.14"></path>
    <path
        d="m488.51,130.26c-1.5,0-2.25-.55-2.25-1.64,0-.9.65-1.5,1.95-1.8l3.45-.6c2.1-.4,3.48-.95,4.12-1.65.65-.7.97-2.1.97-4.2V32.2c0-2.1-.32-3.5-.97-4.2-.65-.7-2.02-1.25-4.12-1.64l-3.45-.6c-1.3-.3-1.95-.9-1.95-1.8,0-1.1.75-1.65,2.25-1.65h50.35c2.29,0,3.55,1.15,3.75,3.45l1.2,24.89c.2,1.7-.45,2.55-1.95,2.55-1.2,0-1.9-.65-2.09-1.95l-.9-5.54c-1.1-6.8-3.35-11.77-6.75-14.92-3.39-3.15-8.09-4.73-14.08-4.73-4,0-6.77.58-8.32,1.72-1.55,1.15-2.32,3.18-2.32,6.07v36.13c0,1.4.7,2.1,2.09,2.1h7.49c4.4,0,7.09-2.35,8.09-7.04l1.5-7.5c.4-1.5,1.24-2.15,2.54-1.95,1.1.2,1.65,1.05,1.65,2.55v33.73c0,1.5-.55,2.35-1.65,2.55-1.3.2-2.15-.45-2.54-1.95l-1.5-7.35c-.7-3.5-1.67-5.79-2.92-6.9-1.25-1.1-3.03-1.65-5.32-1.65h-7.34c-1.4,0-2.09.7-2.09,2.1v37.63c0,3.6.92,6.2,2.77,7.8,1.85,1.6,5.22,2.4,10.12,2.4s9.27-1.28,12.81-3.83c3.55-2.55,6.02-7.32,7.41-14.31l1.8-8.84c.3-1.3,1.05-1.95,2.25-1.95,1.4,0,2,.85,1.8,2.55l-1.5,26.69c-.2,2.3-1.44,3.45-3.75,3.45h-52.6v-.02Z"></path>
    <path
        d="m569.32,130.26c-1.52,0-2.27-.55-2.27-1.65s.66-1.71,1.97-1.8l6.82-1.05c2.02-.31,3.39-.83,4.09-1.58.71-.75,1.06-2.18,1.06-4.29V29.51c0-1.4-.3-2.41-.91-3.01-.61-.6-1.87-.91-3.79-.91-3.74,0-7.42,1.61-11.06,4.82-3.64,3.21-6.01,8.38-7.12,15.51l-.76,4.97c-.2,1.31-.91,1.96-2.12,1.96-1.52,0-2.17-.85-1.97-2.56l1.36-27.26c.2-2.31,1.11-3.47,2.73-3.47.71,0,1.36.18,1.97.53.61.35,1.65.73,3.11,1.13,1.46.4,3.81.6,7.04.6h33.78c3.23,0,5.58-.2,7.04-.6,1.47-.4,2.53-.78,3.19-1.13.66-.35,1.28-.53,1.89-.53,1.61,0,2.53,1.15,2.73,3.47l1.36,27.26c.2,1.71-.46,2.56-1.97,2.56-1.21,0-1.92-.65-2.12-1.96l-.76-4.97c-1.01-7.12-3.33-12.3-6.96-15.51-3.63-3.21-7.37-4.82-11.21-4.82-1.92,0-3.18.31-3.79.91-.61.6-.91,1.6-.91,3.01v90.36c0,2.11.38,3.54,1.13,4.29.76.75,2.1,1.28,4.01,1.58l6.82,1.05c1.32.1,1.97.71,1.97,1.81s-.76,1.65-2.27,1.65h-34.12Z"></path>
    <path
        d="m663.18,132.3c-5.44,0-10.25-1.28-14.43-3.85-4.18-2.57-7.43-6.14-9.74-10.71-2.32-4.57-3.47-9.83-3.47-15.77V32.26c0-2.11-.33-3.52-.98-4.23-.66-.71-2.04-1.26-4.16-1.66l-3.47-.6c-1.31-.3-1.97-.91-1.97-1.81,0-1.11.75-1.66,2.27-1.66h27.65c1.51,0,2.26.6,2.26,1.81,0,.91-.55,1.46-1.66,1.66l-4.08.6c-2.01.3-3.38.86-4.08,1.66-.71.8-1.06,2.26-1.06,4.37v69.71c0,7.65,1.71,13.58,5.13,17.81,3.43,4.22,8.21,6.34,14.36,6.34s11.08-2.11,14.5-6.34c3.43-4.23,5.14-10.16,5.14-17.81V35.43c0-5.43-1.71-8.45-5.14-9.05l-4.08-.6c-1.11-.2-1.66-.75-1.66-1.66,0-1.2.75-1.81,2.26-1.81h21.75c1.51,0,2.26.55,2.26,1.66,0,.91-.66,1.51-1.97,1.81l-3.47.6c-3.43.6-5.14,3.57-5.14,8.91v66.69c0,9.15-2.47,16.5-7.41,22.03-4.93,5.54-11.48,8.3-19.64,8.3"></path>
    <path
        d="m707.82,130.26c-1.49,0-2.24-.55-2.24-1.64,0-.9.64-1.5,1.93-1.8l3.43-.6c2.09-.4,3.45-.95,4.09-1.65.64-.7.97-2.1.97-4.2V32.2c0-2.1-.32-3.5-.97-4.2-.64-.7-2.02-1.25-4.09-1.64l-3.43-.6c-1.29-.3-1.93-.9-1.93-1.8,0-1.1.75-1.65,2.24-1.65h26.96c1.49,0,2.23.55,2.23,1.65,0,.9-.64,1.5-1.93,1.8l-3.43.6c-2.09.4-3.45.95-4.1,1.64-.64.7-.97,2.1-.97,4.2v88.16c0,2.1.32,3.5.97,4.2.64.7,2.01,1.25,4.1,1.65l3.43.6c1.29.3,1.93.9,1.93,1.8,0,1.1-.75,1.65-2.23,1.65h-26.96Z"></path>
    <path
        d="m784.53,132.3c-8.16,0-15.07-2.33-20.71-6.97-5.64-4.65-9.92-11.19-12.85-19.63-2.92-8.44-4.38-18.42-4.38-29.95s1.72-20.85,5.14-29.19c3.43-8.34,8.14-14.81,14.13-19.41,5.99-4.6,12.88-6.9,20.64-6.9,3.93,0,7.51.38,10.74,1.14,3.23.76,6.05,1.74,8.47,2.95,1.31.71,1.97,1.77,1.97,3.19l.45,23.04c0,1.72-.6,2.58-1.81,2.58-1.11,0-1.81-.66-2.12-1.97l-1.21-4.55c-2.21-8.39-4.73-14.15-7.56-17.28-2.82-3.13-6.7-4.7-11.64-4.7-7.36,0-13.43,4.37-18.22,13.12-4.79,8.75-7.18,21.41-7.18,37.98s2.45,30.1,7.33,39.05c4.89,8.95,11.16,13.42,18.82,13.42,4.13,0,7.25-.91,9.37-2.73,2.12-1.82,3.18-5.21,3.18-10.16v-33.2c0-2.13-.33-3.59-.98-4.4-.66-.81-2.04-1.32-4.16-1.52l-5.9-.61c-1.31-.1-1.97-.71-1.97-1.82s.75-1.67,2.27-1.67h27.67c1.51,0,2.26.6,2.26,1.82,0,.91-.55,1.47-1.66,1.67l-2.26.31c-2.22.31-3.53.91-3.93,1.82-.4.91-.6,2.42-.6,4.55v41.09c0,1.12-.3,2-.91,2.66-.6.66-1.66,1.39-3.18,2.2-2.42,1.21-5.19,2.2-8.31,2.96-3.12.76-6.75,1.14-10.88,1.14"></path>
    <path
        d="m821.96,130.26c-1.52,0-2.27-.55-2.27-1.64,0-.9.66-1.5,1.97-1.8l3.48-.6c2.12-.4,3.51-.95,4.17-1.65.66-.7.99-2.1.99-4.2V32.2c0-2.1-.33-3.5-.99-4.2-.66-.7-2.05-1.25-4.17-1.64l-3.48-.6c-1.32-.3-1.97-.9-1.97-1.8,0-1.1.75-1.65,2.27-1.65h50.9c2.32,0,3.58,1.15,3.78,3.45l1.21,24.89c.2,1.7-.46,2.55-1.97,2.55-1.21,0-1.92-.65-2.12-1.95l-.91-5.54c-1.12-6.8-3.39-11.77-6.82-14.92-3.43-3.15-8.18-4.73-14.23-4.73-4.04,0-6.84.58-8.4,1.72-1.56,1.15-2.34,3.18-2.34,6.07v36.13c0,1.4.71,2.1,2.12,2.1h7.58c4.44,0,7.16-2.35,8.18-7.04l1.52-7.5c.41-1.5,1.26-2.15,2.58-1.95,1.12.2,1.66,1.05,1.66,2.55v33.73c0,1.5-.55,2.35-1.66,2.55-1.32.2-2.17-.45-2.58-1.95l-1.52-7.35c-.71-3.5-1.69-5.79-2.95-6.9-1.26-1.1-3.06-1.65-5.38-1.65h-7.42c-1.41,0-2.12.7-2.12,2.1v37.63c0,3.6.93,6.2,2.8,7.8,1.86,1.6,5.27,2.4,10.22,2.4s9.36-1.28,12.95-3.83c3.59-2.55,6.08-7.32,7.49-14.31l1.82-8.84c.3-1.3,1.06-1.95,2.27-1.95,1.41,0,2.02.85,1.82,2.55l-1.52,26.69c-.2,2.3-1.46,3.45-3.78,3.45h-53.17v-.02Z"></path>
    <path
        d="m950.78,132.3c-1.62,0-2.99-1.2-4.11-3.62l-41.18-88.73c-.3-.71-.69-1-1.14-.91-.46.1-.69.55-.69,1.36v77.56c0,2.82.48,4.95,1.44,6.41.96,1.46,2.71,2.39,5.25,2.79l1.97.31c1.32.1,1.98.71,1.98,1.81s-.76,1.66-2.28,1.66h-21.74c-1.53,0-2.28-.55-2.28-1.66s.66-1.71,1.98-1.81l1.97-.31c2.64-.4,4.46-1.33,5.47-2.79,1.01-1.46,1.52-3.59,1.52-6.41V32.26c0-2.11-.33-3.52-.99-4.23s-2.15-1.26-4.48-1.66l-3.49-.6c-1.32-.3-1.98-.91-1.98-1.81,0-1.11.75-1.66,2.28-1.66h16.27c2.53,0,4.3,1.11,5.31,3.32l35.87,78.31c.3.6.69.85,1.14.75.46-.1.69-.45.69-1.06V35.28c0-3.22-.55-5.46-1.67-6.72-1.11-1.26-2.53-2.04-4.26-2.34l-2.74-.45c-1.32-.3-1.98-.91-1.98-1.81,0-1.11.76-1.66,2.28-1.66h21.74c1.53,0,2.28.55,2.28,1.66s-.66,1.71-1.98,1.81l-1.97.31c-2.64.4-4.46,1.24-5.47,2.49-1.02,1.26-1.52,3.5-1.52,6.72v92.19c0,1.81-.32,3.06-.99,3.77-.66.71-1.49,1.06-2.5,1.06"></path>
    <path
        d="m260.3,58.32c-.35.32-.89-.08-.69-.52,10.01-21.14,36.42-39.25,67.53-39.25s57.3,17.88,67.48,38.78c.21.43-.33.84-.68.52-13.74-12.53-36.36-27.4-66.32-27.4s-53.41,15.24-67.32,27.87"></path>
    <path
        d="m395.55,93.62c-9.27,21.97-36.34,41.21-68.41,41.21s-58.99-19.04-68.41-40.8c13.54,12.8,36.77,28.9,67.93,28.9s55.17-16.44,68.88-29.31"></path>
    <path
        d="m440.01,169.86l-10.79,29.79h-6.68l-10.79-29.79h5.51l4.22,12.49c1.8,5.36,3.24,9.77,4.34,13.25h.12c1.56-4.96,2.99-9.38,4.28-13.25l4.28-12.49h5.51Z"></path>
    <path
        d="m458.59,186.92v-1.82c-3.01.23-5.61.55-7.8.94-2.5.39-4.27.98-5.31,1.76-1.04.78-1.55,1.92-1.55,3.4,0,1.56.54,2.81,1.61,3.72,1.07.92,2.57,1.38,4.48,1.38,2.62,0,4.67-.78,6.16-2.35.9-.94,1.53-1.91,1.88-2.9.35-1,.53-2.38.53-4.14m-6.74-17.88c3.71,0,6.6.97,8.65,2.9,2.05,1.94,3.08,4.82,3.08,8.65v11.43c0,3.01.23,5.55.7,7.62h-4.69c-.27-1.25-.41-2.7-.41-4.34h-.12c-2.15,3.32-5.59,4.98-10.32,4.98-3.05,0-5.49-.81-7.33-2.43-1.84-1.62-2.75-3.72-2.75-6.3s.85-4.62,2.55-6.13c1.7-1.51,4.62-2.59,8.77-3.25,2.89-.47,5.77-.8,8.62-1v-1.17c0-2.38-.6-4.14-1.79-5.28-1.19-1.13-2.84-1.7-4.95-1.7s-3.75.54-4.93,1.61c-1.17,1.07-1.8,2.51-1.88,4.31h-5.16c.16-2.93,1.27-5.32,3.34-7.16,2.07-1.84,4.94-2.76,8.62-2.76"></path>
    <path
        d="m484.16,169.21c3.44,0,6.1,1.04,7.97,3.11,1.88,2.07,2.81,5.12,2.81,9.15v18.18h-5.16v-17.77c0-3.01-.59-5.17-1.76-6.48-1.17-1.31-2.87-1.96-5.1-1.96s-4.08.8-5.54,2.4c-1.47,1.61-2.2,3.85-2.2,6.74v17.06h-5.16v-29.79h4.98v3.93h.12c1.99-3.05,5-4.57,9.03-4.57"></path>
    <path
        d="m524.21,173.26c-2.54,0-4.57,1.04-6.1,3.11-1.52,2.07-2.29,4.85-2.29,8.33s.76,6.26,2.29,8.36c1.53,2.09,3.56,3.14,6.1,3.14s4.44-1.04,5.92-3.11c1.48-2.07,2.23-4.87,2.23-8.39s-.74-6.3-2.23-8.36c-1.48-2.05-3.46-3.08-5.92-3.08m13.02-15.36v41.75h-5.04v-4.34h-.12c-.82,1.56-2.04,2.8-3.66,3.69-1.62.9-3.45,1.35-5.48,1.35-3.79,0-6.82-1.42-9.09-4.25-2.27-2.84-3.4-6.64-3.4-11.41s1.12-8.51,3.37-11.35c2.25-2.83,5.27-4.25,9.06-4.25,1.99,0,3.8.44,5.43,1.32,1.62.88,2.84,2.06,3.66,3.55h.12v-16.07h5.16Z"></path>
    <path
        d="m555.7,173.02c-2.43,0-4.4.77-5.92,2.32-1.52,1.54-2.42,3.72-2.7,6.54h17.12c-.28-2.85-1.17-5.04-2.7-6.57-1.52-1.52-3.46-2.29-5.8-2.29m.18,23.45c2.11,0,3.86-.53,5.25-1.58,1.39-1.06,2.26-2.44,2.61-4.16h5.28c-.55,2.78-1.97,5.09-4.25,6.95-2.29,1.86-5.25,2.79-8.88,2.79-4.34,0-7.76-1.46-10.26-4.37-2.5-2.91-3.75-6.83-3.75-11.76,0-4.49,1.24-8.17,3.72-11.02,2.48-2.85,5.85-4.28,10.12-4.28,3.32,0,6.13.92,8.41,2.76,2.29,1.84,3.82,4.38,4.6,7.62.39,1.6.59,3.73.59,6.39h-22.28c.12,3.52.99,6.18,2.61,7.98,1.62,1.8,3.7,2.7,6.24,2.7"></path>
    <path
        d="m596.33,173.37c-2.43,0-4.37.99-5.83,2.96-1.47,1.97-2.2,4.6-2.2,7.89s.73,5.85,2.2,7.83c1.47,1.97,3.41,2.96,5.83,2.96,2.58,0,4.61-.97,6.1-2.9,1.48-1.94,2.23-4.56,2.23-7.89s-.74-6.01-2.23-7.95c-1.49-1.94-3.52-2.9-6.1-2.9m-.82-4.28c3.91,0,6.88,1.7,8.91,5.1h.12v-4.34h4.98v27.97c0,4.34-1.11,7.61-3.34,9.82-2.23,2.21-5.45,3.31-9.67,3.31-3.79,0-6.77-.84-8.94-2.52-2.17-1.68-3.29-3.99-3.37-6.92h5.16c.08,1.72.75,3.06,2.02,4.02,1.27.96,3,1.44,5.19,1.44,2.7,0,4.69-.74,5.98-2.23,1.29-1.49,1.94-3.87,1.94-7.16v-3.22h-.12c-2.15,3.32-5.1,4.98-8.86,4.98s-6.89-1.38-9.18-4.13c-2.29-2.76-3.43-6.42-3.43-11s1.15-8.29,3.43-11.02c2.29-2.74,5.35-4.1,9.18-4.1"></path>
    <path
        d="m633.68,186.92v-1.82c-3.01.23-5.61.55-7.8.94-2.5.39-4.27.98-5.31,1.76-1.04.78-1.55,1.92-1.55,3.4,0,1.56.54,2.81,1.61,3.72,1.07.92,2.57,1.38,4.49,1.38,2.62,0,4.67-.78,6.16-2.35.9-.94,1.53-1.91,1.88-2.9.35-1,.53-2.38.53-4.14m-6.74-17.88c3.71,0,6.6.97,8.65,2.9,2.05,1.94,3.08,4.82,3.08,8.65v11.43c0,3.01.23,5.55.7,7.62h-4.69c-.27-1.25-.41-2.7-.41-4.34h-.12c-2.15,3.32-5.59,4.98-10.32,4.98-3.05,0-5.49-.81-7.33-2.43-1.84-1.62-2.75-3.72-2.75-6.3s.85-4.62,2.55-6.13c1.7-1.51,4.62-2.59,8.77-3.25,2.89-.47,5.76-.8,8.62-1v-1.17c0-2.38-.6-4.14-1.79-5.28-1.19-1.13-2.84-1.7-4.95-1.7s-3.75.54-4.93,1.61c-1.17,1.07-1.8,2.51-1.88,4.31h-5.16c.16-2.93,1.27-5.32,3.34-7.16,2.07-1.84,4.94-2.76,8.62-2.76"></path>
    <path
        d="m654.56,169.04c3.67,0,6.53.88,8.56,2.64,2.03,1.76,3.05,4.26,3.05,7.51h-5.04c0-1.99-.58-3.52-1.73-4.57-1.15-1.05-2.79-1.58-4.9-1.58-1.8,0-3.22.38-4.25,1.14-1.03.76-1.55,1.79-1.55,3.08,0,1.45.48,2.44,1.44,2.99.96.55,2.86,1.15,5.72,1.82,3.83.94,6.41,1.84,7.74,2.7,2.31,1.56,3.48,3.83,3.52,6.8,0,2.7-1.07,4.86-3.2,6.48-2.13,1.62-4.99,2.43-8.59,2.43-3.95,0-7.01-.92-9.18-2.76-2.17-1.84-3.28-4.5-3.32-7.98h5.22c0,2.11.64,3.74,1.91,4.9,1.27,1.15,3.08,1.73,5.42,1.73,1.96,0,3.52-.41,4.69-1.23,1.17-.82,1.76-1.89,1.76-3.22,0-1.6-.56-2.73-1.67-3.37-1.11-.65-3.29-1.36-6.54-2.14-3.44-.86-5.75-1.66-6.92-2.4-2.11-1.33-3.17-3.44-3.17-6.33,0-2.54,1.03-4.61,3.08-6.22,2.05-1.6,4.7-2.4,7.95-2.4"></path>
    <path
        d="m711.08,169.86l-7.92,29.79h-7.39l-3.52-12.9c-1.84-7.19-2.93-11.49-3.28-12.9h-.12c-.35,1.41-1.45,5.71-3.28,12.9l-3.52,12.9h-7.39l-7.91-29.79h5.22l3.17,12.43c.94,3.75,2.03,8.21,3.28,13.37h.12c1.05-4.46,2.15-8.82,3.28-13.08l3.4-12.72h7.39l3.4,12.72c1.02,3.91,2.11,8.27,3.28,13.08h.12c1.25-5.16,2.35-9.62,3.28-13.37l3.17-12.43h5.22Z"></path>
    <path d="m718.88,199.65h-5.16v-29.79h5.16v29.79Zm0-35.95h-5.16v-5.81h5.16v5.81Z"></path>
    <path
        d="m739.82,169.21c3.44,0,6.1,1.04,7.97,3.11,1.88,2.07,2.81,5.12,2.81,9.15v18.18h-5.16v-17.77c0-3.01-.59-5.17-1.76-6.48-1.17-1.31-2.87-1.96-5.1-1.96s-4.08.8-5.54,2.4c-1.47,1.61-2.2,3.85-2.2,6.74v17.06h-5.16v-29.79h4.99v3.93h.12c1.99-3.05,5-4.57,9.03-4.57"></path>
    <path
        d="m771.24,169.21c3.44,0,6.1,1.04,7.97,3.11,1.88,2.07,2.81,5.12,2.81,9.15v18.18h-5.16v-17.77c0-3.01-.59-5.17-1.76-6.48-1.17-1.31-2.87-1.96-5.1-1.96s-4.08.8-5.54,2.4c-1.47,1.61-2.2,3.85-2.2,6.74v17.06h-5.16v-29.79h4.99v3.93h.12c1.99-3.05,5-4.57,9.03-4.57"></path>
    <path d="m793.7,199.65h-5.16v-29.79h5.16v29.79Zm0-35.95h-5.16v-5.81h5.16v5.81Z"></path>
    <path
        d="m814.64,169.21c3.44,0,6.1,1.04,7.97,3.11,1.88,2.07,2.81,5.12,2.81,9.15v18.18h-5.16v-17.77c0-3.01-.59-5.17-1.76-6.48-1.17-1.31-2.87-1.96-5.1-1.96s-4.08.8-5.54,2.4c-1.47,1.61-2.2,3.85-2.2,6.74v17.06h-5.16v-29.79h4.99v3.93h.12c1.99-3.05,5-4.57,9.03-4.57"></path>
    <path
        d="m843.19,173.37c-2.43,0-4.37.99-5.83,2.96-1.47,1.97-2.2,4.6-2.2,7.89s.73,5.85,2.2,7.83c1.47,1.97,3.41,2.96,5.83,2.96,2.58,0,4.61-.97,6.1-2.9,1.48-1.94,2.23-4.56,2.23-7.89s-.74-6.01-2.23-7.95c-1.49-1.94-3.52-2.9-6.1-2.9m-.82-4.28c3.91,0,6.88,1.7,8.91,5.1h.12v-4.34h4.98v27.97c0,4.34-1.11,7.61-3.34,9.82-2.23,2.21-5.45,3.31-9.67,3.31-3.79,0-6.77-.84-8.94-2.52-2.17-1.68-3.29-3.99-3.37-6.92h5.16c.08,1.72.75,3.06,2.02,4.02,1.27.96,3,1.44,5.19,1.44,2.7,0,4.69-.74,5.98-2.23,1.29-1.49,1.94-3.87,1.94-7.16v-3.22h-.12c-2.15,3.32-5.1,4.98-8.86,4.98s-6.89-1.38-9.18-4.13c-2.29-2.76-3.43-6.42-3.43-11s1.15-8.29,3.43-11.02c2.29-2.74,5.35-4.1,9.18-4.1"></path>
</svg>