<svg width="291" height="58" viewBox="0 0 291 58" fill="none" xmlns="http://www.w3.org/2000/svg">
    <g clip-path="url(#clip0_558_1001)">
        <path
            d="M46.6237 11.9956H57.9892C59.3921 11.9956 60.6775 12.1766 61.855 12.5419C63.0293 12.9071 64.0481 13.4439 64.905 14.1521C65.7652 14.8604 66.4317 15.7433 66.9046 16.8041C67.3775 17.8617 67.6155 19.0812 67.6155 20.4533C67.6155 21.5935 67.3806 22.6701 66.9141 23.6801C66.4475 24.6901 65.7874 25.573 64.9368 26.332C64.0862 27.0879 63.0642 27.685 61.8772 28.1265C60.687 28.5679 59.3667 28.7871 57.9099 28.7871H53.6347V38.1309L56.7673 38.4485L57.0847 41.996H46.3095L46.6269 38.4485L49.5944 38.1309V15.5654L46.9443 15.2478L46.6269 11.9988L46.6237 11.9956ZM53.6316 15.5622V25.4015H57.9892C58.7732 25.4015 59.4905 25.2967 60.1443 25.0807C60.7981 24.8679 61.3599 24.5535 61.8359 24.1438C62.3088 23.7309 62.6802 23.2164 62.95 22.5971C63.2166 21.9778 63.353 21.2632 63.353 20.4533C63.353 18.9129 62.8865 17.7124 61.9502 16.8549C61.0171 15.9942 59.5254 15.5654 57.4783 15.5654H53.6347L53.6316 15.5622Z"
            fill="#1D1D1B" />
        <path
            d="M69.6658 11.9956H81.0314C82.4342 11.9956 83.7196 12.1766 84.8971 12.5419C86.0714 12.9071 87.0902 13.4439 87.9472 14.1521C88.8073 14.8604 89.4738 15.7433 89.9467 16.8041C90.4196 17.8617 90.6576 19.0812 90.6576 20.4533C90.6576 21.5935 90.4228 22.6701 89.9562 23.6801C89.4896 24.6901 88.8295 25.573 87.9789 26.332C87.1283 27.0879 86.1063 27.685 84.9193 28.1265C83.7291 28.5679 82.4088 28.7871 80.952 28.7871H76.6769V38.1309L79.8094 38.4485L80.1268 41.996H69.3516L69.669 38.4485L72.6366 38.1309V15.5654L69.9864 15.2478L69.669 11.9988L69.6658 11.9956ZM76.6737 15.5622V25.4015H81.0314C81.8153 25.4015 82.5326 25.2967 83.1864 25.0807C83.8402 24.8679 84.402 24.5535 84.8781 24.1438C85.351 23.7309 85.7223 23.2164 85.9921 22.5971C86.2587 21.9778 86.3952 21.2632 86.3952 20.4533C86.3952 18.9129 85.9286 17.7124 84.9923 16.8549C84.0592 15.9942 82.5675 15.5654 80.5204 15.5654H76.6769L76.6737 15.5622Z"
            fill="#1D1D1B" />
        <path
            d="M92.7111 11.9956H104.077C105.479 11.9956 106.765 12.1766 107.942 12.5419C109.117 12.9071 110.135 13.4439 110.992 14.1521C111.852 14.8604 112.519 15.7433 112.992 16.8041C113.465 17.8617 113.703 19.0812 113.703 20.4533C113.703 21.5935 113.468 22.6701 113.001 23.6801C112.535 24.6901 111.875 25.573 111.024 26.332C110.174 27.0879 109.152 27.685 107.965 28.1265C106.774 28.5679 105.454 28.7871 103.997 28.7871H99.7221V38.1309L102.855 38.4485L103.172 41.996H92.3969L92.7142 38.4485L95.6818 38.1309V15.5654L93.0316 15.2478L92.7142 11.9988L92.7111 11.9956ZM99.7189 15.5622V25.4015H104.077C104.861 25.4015 105.578 25.2967 106.232 25.0807C106.885 24.8679 107.447 24.5535 107.923 24.1438C108.396 23.7309 108.768 23.2164 109.037 22.5971C109.304 21.9778 109.44 21.2632 109.44 20.4533C109.44 18.9129 108.974 17.7124 108.038 16.8549C107.104 15.9942 105.613 15.5654 103.566 15.5654H99.7221L99.7189 15.5622Z"
            fill="#1D1D1B" />
        <path
            d="M18.1924 0.00950638C5.24952 -0.355733 -1.46316 11.7861 0.26976 23.0767C3.02783 22.6734 0.241196 15.448 3.43091 11.3287C7.6902 5.31659 13.8062 5.71994 18.2908 9.05156C24.483 3.96997 32.9952 7.23172 34.6456 15.5306C35.9437 22.5209 32.059 30.642 19.2208 28.9746C17.856 30.5753 18.2845 30.3244 16.8912 28.9746C16.8912 28.9746 12.4954 28.8221 9.71194 29.0286C-4.73856 31.4645 1.6123 49.5042 0.26976 57.9206C35.839 60.436 51.3178 1.55622 18.1924 0.00950638Z"
            fill="#D70B42" />
        <path
            d="M13.9078 19.8501C14.2156 19.4912 14.1902 15.8484 12.3208 13.9714C10.5403 12.1833 6.92848 12.1356 6.57301 12.5104C6.22071 12.8788 6.38575 16.455 8.15993 18.2304C10.0579 20.1296 13.5967 20.2122 13.9078 19.8501Z"
            fill="#D70B42" />
        <path
            d="M28.2186 17.9253C29.996 16.1499 30.161 12.5737 29.8055 12.2053C29.4501 11.8337 25.8382 11.8782 24.0577 13.6663C22.1883 15.5433 22.1597 19.1893 22.4708 19.545C22.7818 19.9071 26.3206 19.8213 28.2186 17.9253Z"
            fill="#D70B42" />
        <path
            d="M118.848 30.2415C118.857 29.0474 119.048 27.958 119.422 26.9766C119.797 25.9952 120.317 25.1536 120.987 24.4485C121.657 23.7434 122.453 23.2035 123.377 22.8224C124.3 22.4445 125.313 22.2539 126.42 22.2539C127.528 22.2539 128.56 22.4445 129.486 22.8224C130.413 23.2004 131.207 23.7371 131.867 24.4326C132.527 25.1282 133.041 25.9666 133.412 26.948C133.781 27.9294 133.965 29.0188 133.965 30.2129C133.965 31.4071 133.781 32.4711 133.412 33.4556C133.044 34.4434 132.527 35.2914 131.867 35.9996C131.207 36.7079 130.413 37.2605 129.486 37.6543C128.56 38.0481 127.538 38.245 126.42 38.245C125.303 38.245 124.256 38.0513 123.332 37.6607C122.409 37.2732 121.618 36.7269 120.958 36.0218C120.298 35.3168 119.784 34.4751 119.413 33.4937C119.044 32.5124 118.854 31.4294 118.844 30.2415H118.848ZM121.717 30.2415C121.717 31.1054 121.841 31.8899 122.088 32.5886C122.336 33.2873 122.675 33.8844 123.107 34.3735C123.539 34.8658 124.04 35.2437 124.608 35.5105C125.176 35.7773 125.782 35.9107 126.42 35.9107C127.058 35.9107 127.715 35.7805 128.293 35.5169C128.871 35.2533 129.372 34.8785 129.801 34.3862C130.229 33.8971 130.562 33.3 130.807 32.6013C131.048 31.9026 131.172 31.1149 131.172 30.2384C131.172 29.3618 131.051 28.5138 130.807 27.8024C130.562 27.0941 130.232 26.5002 129.81 26.0238C129.388 25.5474 128.883 25.1885 128.303 24.944C127.719 24.7026 127.093 24.5787 126.424 24.5787C125.754 24.5787 125.179 24.6994 124.611 24.944C124.043 25.1885 123.542 25.5474 123.11 26.0238C122.678 26.5002 122.339 27.0941 122.091 27.8024C121.844 28.5106 121.72 29.3237 121.72 30.2384L121.717 30.2415Z"
            fill="#1D1D1B" />
        <path
            d="M136.297 22.6924H141.106V23.9469C141.747 23.4514 142.445 23.0576 143.204 22.7654C143.962 22.4732 144.743 22.3271 145.549 22.3271C146.539 22.3271 147.447 22.5114 148.272 22.8798C149.098 23.2482 149.808 23.769 150.405 24.4392C151.002 25.1093 151.465 25.9128 151.795 26.8529C152.125 27.7899 152.29 28.8284 152.29 29.9654C152.29 31.1818 152.106 32.2871 151.738 33.2875C151.37 34.2879 150.856 35.1455 150.202 35.8601C149.548 36.5747 148.767 37.1305 147.863 37.5306C146.958 37.9308 145.968 38.1277 144.892 38.1277C144.124 38.1277 143.442 38.0483 142.845 37.8863C142.248 37.7275 141.677 37.5211 141.134 37.267V42.1517H143.496V44.6576H136.329V42.1517H138.399V25.1982H136.301V22.6924H136.297ZM144.835 24.7187C144.137 24.7187 143.464 24.8584 142.816 25.1411C142.169 25.4237 141.61 25.8112 141.134 26.3067V34.4849C141.455 34.8152 141.915 35.1105 142.512 35.3741C143.108 35.6377 143.854 35.768 144.749 35.768C145.371 35.768 145.968 35.6473 146.543 35.4027C147.114 35.1613 147.622 34.7993 148.057 34.3165C148.491 33.8338 148.844 33.2399 149.104 32.5316C149.367 31.8234 149.497 31.0008 149.497 30.067C149.497 29.2127 149.374 28.4536 149.126 27.793C148.879 27.1324 148.542 26.5735 148.12 26.1161C147.698 25.6588 147.206 25.3126 146.641 25.0744C146.076 24.8362 145.476 24.7187 144.835 24.7187Z"
            fill="#1D1D1B" />
        <path
            d="M154.972 15.1113H159.866V35.2852H162.139V37.7911H154.972V35.2852H157.156V17.6172H154.972V15.1113Z"
            fill="#1D1D1B" />
        <path
            d="M167.357 30.5945C167.357 31.0233 167.388 31.4139 167.452 31.7665C167.515 32.1222 167.604 32.4588 167.722 32.7796C168.08 33.7515 168.655 34.4819 169.448 34.9742C170.238 35.4665 171.137 35.7111 172.136 35.7111C172.924 35.7111 173.688 35.6031 174.431 35.3839C175.174 35.1648 175.955 34.8218 176.77 34.3549L177.862 36.2065C176.872 36.8862 175.875 37.3912 174.875 37.7215C173.876 38.0518 172.835 38.2169 171.759 38.2169C170.74 38.2169 169.794 38.0454 168.925 37.7056C168.055 37.3657 167.309 36.8608 166.681 36.1906C166.055 35.5205 165.563 34.6852 165.211 33.6848C164.856 32.6843 164.678 31.5187 164.678 30.1848C164.678 29.105 164.827 28.0887 165.129 27.1295C165.43 26.1735 165.878 25.3351 166.477 24.6237C167.074 23.9091 167.814 23.3437 168.699 22.9245C169.582 22.5053 170.613 22.2988 171.787 22.2988C172.962 22.2988 173.873 22.4703 174.634 22.8165C175.396 23.1627 176.018 23.6169 176.5 24.1854C176.983 24.7539 177.345 25.4018 177.592 26.1323C177.84 26.8596 178.011 27.6059 178.11 28.3618C178.157 28.7302 178.189 29.105 178.205 29.4829C178.218 29.8609 178.227 30.2325 178.227 30.5913H167.36L167.357 30.5945ZM171.597 24.5728C170.965 24.5728 170.413 24.6618 169.943 24.8428C169.474 25.0238 169.071 25.2811 168.74 25.6146C168.41 25.9512 168.144 26.3609 167.947 26.8469C167.747 27.3328 167.601 27.8759 167.503 28.4793H175.326C175.288 27.9172 175.196 27.3963 175.056 26.9199C174.917 26.4435 174.701 26.0306 174.409 25.6813C174.117 25.3319 173.742 25.0588 173.289 24.865C172.832 24.6713 172.27 24.5728 171.6 24.5728H171.597Z"
            fill="#1D1D1B" />
        <path
            d="M181.791 22.6924H186.714V35.2884H188.986V37.7943H181.82V35.2884H183.975V25.2015H181.791V22.6956V22.6924ZM183.467 17.3441C183.467 17.09 183.518 16.8518 183.619 16.6231C183.721 16.3944 183.857 16.1943 184.029 16.026C184.2 15.8545 184.4 15.7211 184.635 15.6163C184.87 15.5115 185.114 15.4639 185.378 15.4639C185.641 15.4639 185.87 15.5147 186.098 15.6163C186.327 15.7179 186.527 15.8545 186.695 16.026C186.863 16.1975 187 16.3944 187.104 16.6231C187.206 16.8518 187.257 17.0932 187.257 17.3441C187.257 17.595 187.206 17.8554 187.104 18.0872C187.003 18.3191 186.866 18.5255 186.695 18.7066C186.523 18.8876 186.327 19.0273 186.098 19.129C185.87 19.2306 185.628 19.2814 185.378 19.2814C185.127 19.2814 184.867 19.2306 184.635 19.129C184.403 19.0273 184.2 18.8876 184.029 18.7066C183.857 18.5255 183.724 18.3191 183.619 18.0872C183.518 17.8554 183.467 17.6077 183.467 17.3441Z"
            fill="#1D1D1B" />
        <path
            d="M200.38 15.1113H205.144V35.2852H207.36V37.7911H202.437V36.5525C201.952 37.0479 201.39 37.4354 200.749 37.7117C200.108 37.988 199.381 38.1278 198.565 38.1278C197.546 38.1278 196.597 37.9499 195.718 37.5942C194.839 37.2385 194.077 36.7208 193.43 36.0348C192.782 35.3488 192.281 34.5103 191.916 33.513C191.551 32.5158 191.37 31.3788 191.37 30.0957C191.37 28.9301 191.544 27.8693 191.894 26.9101C192.243 25.9542 192.738 25.1379 193.379 24.4615C194.02 23.785 194.791 23.2609 195.696 22.8862C196.6 22.5114 197.603 22.324 198.711 22.324C199.438 22.324 200.104 22.4034 200.707 22.5654C201.31 22.7242 201.888 23.0037 202.44 23.4038V17.6172H200.387V15.1113H200.38ZM198.908 35.768C199.714 35.768 200.39 35.6505 200.933 35.4123C201.475 35.1741 201.977 34.8184 202.434 34.342V25.8875C201.948 25.4778 201.39 25.1824 200.758 24.9982C200.127 24.814 199.482 24.7219 198.822 24.7219C198.162 24.7219 197.578 24.8426 197.016 25.0776C196.451 25.3158 195.959 25.662 195.537 26.1193C195.115 26.5767 194.782 27.1356 194.541 27.7962C194.296 28.4569 194.176 29.2159 194.176 30.0703C194.176 31.004 194.293 31.8234 194.525 32.5348C194.756 33.2431 195.083 33.8402 195.502 34.3197C195.921 34.7993 196.42 35.1614 197.004 35.4059C197.587 35.6505 198.222 35.7712 198.911 35.7712L198.908 35.768Z"
            fill="#1D1D1B" />
        <path
            d="M209.835 22.6924H214.758V35.2884H217.03V37.7943H209.864V35.2884H212.019V25.2015H209.835V22.6956V22.6924ZM211.511 17.3441C211.511 17.09 211.562 16.8518 211.663 16.6231C211.765 16.3944 211.901 16.1943 212.073 16.026C212.244 15.8545 212.444 15.7211 212.679 15.6163C212.914 15.5115 213.158 15.4639 213.422 15.4639C213.685 15.4639 213.914 15.5147 214.142 15.6163C214.371 15.7179 214.571 15.8545 214.739 16.026C214.907 16.1975 215.044 16.3944 215.148 16.6231C215.25 16.8518 215.301 17.0932 215.301 17.3441C215.301 17.595 215.25 17.8554 215.148 18.0872C215.047 18.3191 214.91 18.5255 214.739 18.7066C214.568 18.8876 214.371 19.0273 214.142 19.129C213.914 19.2306 213.672 19.2814 213.422 19.2814C213.171 19.2814 212.911 19.2306 212.679 19.129C212.447 19.0273 212.244 18.8876 212.073 18.7066C211.901 18.5255 211.768 18.3191 211.663 18.0872C211.562 17.8554 211.511 17.6077 211.511 17.3441Z"
            fill="#1D1D1B" />
        <path
            d="M229.456 35.2886H231.583V28.3935C231.583 27.2374 231.287 26.3608 230.7 25.7638C230.113 25.1667 229.269 24.8681 228.174 24.8681C227.542 24.8681 226.907 25.0174 226.266 25.3191C225.625 25.6208 225.019 25.9956 224.445 26.4402V35.2886H226.571V37.7944H219.522V35.2886H221.62V25.2016H219.522V22.6957H224.33V24.4743H224.359C224.679 24.1916 225.022 23.9249 225.387 23.674C225.752 23.4199 226.133 23.2039 226.53 23.0165C226.926 22.8323 227.342 22.6862 227.774 22.5782C228.206 22.4702 228.659 22.4194 229.135 22.4194C229.942 22.4194 230.668 22.5306 231.319 22.7561C231.97 22.9784 232.522 23.3182 232.979 23.7756C233.436 24.2329 233.788 24.8173 234.036 25.5319C234.283 26.2465 234.407 27.0881 234.407 28.06V35.2917H236.505V37.7976H229.456V35.2917V35.2886Z"
            fill="#1D1D1B" />
        <path
            d="M250.464 36.4667C249.969 36.9907 249.394 37.4004 248.737 37.6926C248.083 37.9848 247.337 38.1309 246.503 38.1309C245.484 38.1309 244.535 37.953 243.656 37.5973C242.777 37.2416 242.015 36.7239 241.367 36.0379C240.72 35.3519 240.219 34.5134 239.854 33.5162C239.489 32.5189 239.308 31.3819 239.308 30.0988C239.308 28.9332 239.482 27.8724 239.831 26.9133C240.18 25.9573 240.676 25.1411 241.317 24.4646C241.958 23.7881 242.729 23.2641 243.634 22.8893C244.538 22.5145 245.541 22.3271 246.649 22.3271C247.407 22.3271 248.09 22.4129 248.696 22.5812C249.302 22.7527 249.892 23.0449 250.467 23.4642V22.6924H253.177V37.1972C253.177 39.5887 252.612 41.3958 251.479 42.6186C250.346 43.8413 248.588 44.4543 246.198 44.4543C245.674 44.4543 245.125 44.4162 244.551 44.3368C243.976 44.2574 243.411 44.1335 242.853 43.9652C242.294 43.7937 241.751 43.5777 241.221 43.3173C240.691 43.0569 240.203 42.7329 239.758 42.355L241.215 40.154C241.507 40.4081 241.84 40.6399 242.212 40.8527C242.586 41.0655 242.986 41.2497 243.415 41.399C243.843 41.5483 244.284 41.669 244.741 41.7547C245.198 41.8436 245.655 41.8849 246.109 41.8849C246.858 41.8849 247.506 41.8055 248.055 41.6531C248.604 41.4974 249.054 41.2243 249.41 40.8305C249.765 40.4367 250.029 39.9063 250.203 39.233C250.378 38.5597 250.467 37.7117 250.467 36.6826V36.4635L250.464 36.4667ZM246.852 35.768C247.299 35.768 247.706 35.7235 248.077 35.6377C248.445 35.5488 248.782 35.4376 249.083 35.2947C249.385 35.155 249.648 34.9898 249.877 34.8056C250.105 34.6214 250.302 34.4277 250.467 34.2212V25.9573C249.972 25.519 249.4 25.2046 248.756 25.0109C248.109 24.8171 247.449 24.7187 246.766 24.7187C246.125 24.7187 245.522 24.8394 244.96 25.0744C244.395 25.3126 243.903 25.6588 243.481 26.1161C243.059 26.5735 242.726 27.1324 242.485 27.793C242.24 28.4536 242.12 29.2127 242.12 30.067C242.12 31.0008 242.237 31.8202 242.469 32.5316C242.7 33.2399 243.027 33.837 243.446 34.3165C243.865 34.7961 244.364 35.1582 244.948 35.4027C245.532 35.6473 246.166 35.768 246.855 35.768H246.852Z"
            fill="#1D1D1B" />
        <path
            d="M259.465 30.5945C259.465 31.0233 259.496 31.4139 259.56 31.7665C259.623 32.1222 259.712 32.4588 259.83 32.7796C260.188 33.7515 260.763 34.4819 261.556 34.9742C262.347 35.4665 263.245 35.7111 264.244 35.7111C265.032 35.7111 265.796 35.6031 266.539 35.3839C267.282 35.1648 268.063 34.8218 268.878 34.3549L269.97 36.2065C268.98 36.8862 267.983 37.3912 266.984 37.7215C265.984 38.0518 264.943 38.2169 263.867 38.2169C262.848 38.2169 261.902 38.0454 261.033 37.7056C260.163 37.3657 259.417 36.8608 258.789 36.1906C258.163 35.5205 257.671 34.6852 257.319 33.6848C256.964 32.6843 256.786 31.5187 256.786 30.1848C256.786 29.105 256.935 28.0887 257.237 27.1295C257.538 26.1735 257.986 25.3351 258.586 24.6237C259.182 23.9091 259.922 23.3437 260.807 22.9245C261.69 22.5053 262.721 22.2988 263.895 22.2988C265.07 22.2988 265.981 22.4703 266.742 22.8165C267.504 23.1627 268.126 23.6169 268.609 24.1854C269.091 24.7539 269.453 25.4018 269.7 26.1323C269.948 26.8596 270.119 27.6059 270.218 28.3618C270.265 28.7302 270.297 29.105 270.313 29.4829C270.326 29.8609 270.335 30.2325 270.335 30.5913H259.468L259.465 30.5945ZM263.705 24.5728C263.073 24.5728 262.521 24.6618 262.051 24.8428C261.582 25.0238 261.179 25.2811 260.848 25.6146C260.518 25.9512 260.252 26.3609 260.055 26.8469C259.855 27.3328 259.709 27.8759 259.611 28.4793H267.434C267.396 27.9172 267.304 27.3963 267.164 26.9199C267.025 26.4435 266.809 26.0306 266.517 25.6813C266.225 25.3319 265.85 25.0588 265.397 24.865C264.94 24.6713 264.378 24.5728 263.708 24.5728H263.705Z"
            fill="#1D1D1B" />
        <path
            d="M283.954 35.2886H286.08V28.3935C286.08 27.2374 285.785 26.3608 285.198 25.7638C284.611 25.1667 283.767 24.8681 282.672 24.8681C282.04 24.8681 281.405 25.0174 280.764 25.3191C280.123 25.6208 279.517 25.9956 278.943 26.4402V35.2886H281.069V37.7944H274.02V35.2886H276.118V25.2016H274.02V22.6957H278.828V24.4743H278.857C279.177 24.1916 279.52 23.9249 279.885 23.674C280.25 23.4199 280.631 23.2039 281.028 23.0165C281.424 22.8323 281.84 22.6862 282.272 22.5782C282.704 22.4702 283.157 22.4194 283.633 22.4194C284.44 22.4194 285.166 22.5306 285.817 22.7561C286.468 22.9784 287.02 23.3182 287.477 23.7756C287.934 24.2329 288.286 24.8173 288.534 25.5319C288.781 26.2465 288.905 27.0881 288.905 28.06V35.2917H291.003V37.7976H283.954V35.2917V35.2886Z"
            fill="#1D1D1B" />
        <path
            d="M47.4267 52.4964C47.4838 52.7631 47.6044 52.9823 47.7917 53.157C47.9789 53.3316 48.2138 53.4174 48.4931 53.4174C48.7153 53.4174 48.8994 53.3761 49.0422 53.2904C49.185 53.2078 49.2993 53.0935 49.3818 52.9505C49.4643 52.8076 49.5246 52.6393 49.5595 52.4487C49.5944 52.2582 49.6135 52.0517 49.6135 51.8358V46.7319H50.6513V51.877C50.6513 52.1343 50.6228 52.4074 50.5688 52.6933C50.5117 52.9791 50.4069 53.2459 50.2546 53.4904C50.1022 53.735 49.8864 53.9383 49.6103 54.0971C49.3342 54.2559 48.9787 54.3384 48.5471 54.3384C47.9821 54.3384 47.5219 54.1923 47.1633 53.897C46.8046 53.6016 46.5729 53.2268 46.4619 52.7663L47.4267 52.4932V52.4964Z"
            fill="#D70B42" />
        <path
            d="M57.0943 54.1543C57.0816 54.0272 57.0689 53.8875 57.0625 53.7287C57.0562 53.5699 57.053 53.4397 57.053 53.3349H57.0308C56.9038 53.6016 56.6943 53.8271 56.396 54.0113C56.0977 54.1956 55.7676 54.2877 55.4058 54.2877C55.0852 54.2877 54.8059 54.2337 54.5742 54.1289C54.3394 54.0241 54.1489 53.878 53.9966 53.6937C53.8474 53.5095 53.7332 53.2936 53.6602 53.049C53.5872 52.8045 53.5491 52.5409 53.5491 52.2614V49.1807H54.533V51.9279C54.533 52.1312 54.5488 52.3249 54.5806 52.5091C54.6123 52.6933 54.6694 52.8553 54.752 52.995C54.8345 53.1348 54.9519 53.2459 55.0979 53.3317C55.2439 53.4143 55.4343 53.4587 55.6629 53.4587C56.0596 53.4587 56.3833 53.3095 56.6277 53.0141C56.8721 52.7187 56.9959 52.3217 56.9959 51.8231V49.1807H57.9798V53.0808C57.9798 53.2142 57.9829 53.3857 57.9893 53.5953C57.9956 53.8049 58.0051 53.9891 58.021 54.1511H57.0879L57.0943 54.1543Z"
            fill="#D70B42" />
        <path
            d="M60.9377 49.7427C60.9314 49.533 60.9219 49.3488 60.906 49.1869H61.8391C61.8518 49.3139 61.8645 49.4568 61.8709 49.622C61.8772 49.7871 61.8804 49.9205 61.8804 50.0253H61.9121C62.0518 49.7331 62.2549 49.4949 62.5247 49.3171C62.7944 49.1392 63.096 49.0503 63.4292 49.0503C63.5816 49.0503 63.7117 49.063 63.8164 49.0916L63.7752 50.0031C63.6355 49.9682 63.4863 49.9491 63.3245 49.9491C63.0864 49.9491 62.8801 49.9936 62.7056 50.0793C62.531 50.1682 62.385 50.2826 62.2708 50.4318C62.1565 50.5811 62.0708 50.7494 62.0137 50.94C61.9565 51.1306 61.9312 51.3338 61.9312 51.5434V54.1541H60.9473V50.254C60.9473 50.1206 60.9441 49.9491 60.9377 49.7395V49.7427Z"
            fill="#D70B42" />
        <path
            d="M67.1489 47.3925C67.1489 47.5736 67.0855 47.726 66.9553 47.8435C66.8284 47.961 66.6729 48.0214 66.4919 48.0214C66.311 48.0214 66.1587 47.961 66.0349 47.8372C65.9111 47.7165 65.8477 47.5672 65.8477 47.3925C65.8477 47.2178 65.9111 47.059 66.0349 46.9352C66.1587 46.8145 66.311 46.751 66.4919 46.751C66.6729 46.751 66.8252 46.8113 66.9553 46.9352C67.0823 47.059 67.1489 47.2083 67.1489 47.3925ZM66.9902 54.1542H66.0063V49.187H66.9902V54.1542Z"
            fill="#D70B42" />
        <path
            d="M73.9251 53.3667C73.7379 53.6684 73.4808 53.8971 73.1539 54.0527C72.8302 54.2115 72.4874 54.2877 72.1319 54.2877C71.7479 54.2877 71.4019 54.221 71.0941 54.0845C70.7862 53.9479 70.5259 53.7605 70.3069 53.5223C70.0911 53.2841 69.9229 53.0046 69.8055 52.6838C69.688 52.3631 69.6277 52.0201 69.6277 51.658C69.6277 51.2959 69.688 50.9529 69.8055 50.6353C69.9229 50.3177 70.0943 50.0382 70.3133 49.8032C70.5323 49.565 70.7957 49.3808 71.1036 49.2474C71.4114 49.114 71.751 49.0473 72.1192 49.0473C72.5255 49.0473 72.8778 49.1331 73.1761 49.3046C73.4776 49.4761 73.7125 49.6825 73.887 49.9271H73.9093V46.2271H74.8931V54.1512H73.941V53.3635H73.9188L73.9251 53.3667ZM70.6561 51.6644C70.6561 51.893 70.691 52.1185 70.7608 52.3345C70.8306 52.5505 70.9354 52.741 71.075 52.9093C71.2147 53.0777 71.3861 53.2111 71.5892 53.3127C71.7923 53.4143 72.0303 53.4651 72.3001 53.4651C72.5509 53.4651 72.7794 53.4175 72.9857 53.319C73.192 53.2206 73.3697 53.0904 73.5157 52.9284C73.6617 52.7664 73.776 52.5759 73.8553 52.3599C73.9346 52.1439 73.9759 51.9184 73.9759 51.6802C73.9759 51.442 73.9346 51.2165 73.8553 51.0006C73.776 50.7846 73.6617 50.594 73.5157 50.4257C73.3697 50.2574 73.192 50.1272 72.9857 50.0287C72.7794 49.9303 72.5509 49.8826 72.3001 49.8826C72.0272 49.8826 71.7891 49.9303 71.5892 50.0287C71.3861 50.1272 71.2147 50.2574 71.075 50.4257C70.9354 50.594 70.8306 50.7846 70.7608 51.0006C70.691 51.2165 70.6561 51.4389 70.6561 51.6707V51.6644Z"
            fill="#D70B42" />
        <path
            d="M79.0255 47.3925C79.0255 47.5736 78.962 47.726 78.8319 47.8435C78.7049 47.961 78.5494 48.0214 78.3685 48.0214C78.1876 48.0214 78.0352 47.961 77.9114 47.8372C77.7877 47.7165 77.7242 47.5672 77.7242 47.3925C77.7242 47.2178 77.7877 47.059 77.9114 46.9352C78.0352 46.8145 78.1876 46.751 78.3685 46.751C78.5494 46.751 78.7017 46.8113 78.8319 46.9352C78.9588 47.059 79.0255 47.2083 79.0255 47.3925ZM78.8668 54.1542H77.8829V49.187H78.8668V54.1542Z"
            fill="#D70B42" />
        <path
            d="M84.5225 50.4443C84.4115 50.2633 84.2528 50.114 84.0496 49.9997C83.8465 49.8853 83.6212 49.8282 83.3704 49.8282C83.2593 49.8282 83.1483 49.8409 83.034 49.8663C82.9229 49.8917 82.8214 49.9298 82.7357 49.9806C82.65 50.0314 82.577 50.0981 82.5262 50.1807C82.4722 50.2601 82.4468 50.3617 82.4468 50.4793C82.4468 50.6889 82.5421 50.8445 82.7293 50.9461C82.9166 51.0478 83.2022 51.1399 83.5767 51.2224C83.8148 51.2796 84.0338 51.3463 84.2369 51.4225C84.44 51.4987 84.6146 51.594 84.7669 51.7115C84.9161 51.8259 85.0335 51.9656 85.1192 52.1244C85.2017 52.2864 85.2462 52.4738 85.2462 52.6897C85.2462 52.9819 85.189 53.2328 85.078 53.4329C84.9669 53.6362 84.8177 53.8013 84.6336 53.9316C84.4495 54.0618 84.2369 54.1539 83.9989 54.2079C83.7608 54.2619 83.5164 54.2904 83.2657 54.2904C82.888 54.2904 82.5198 54.2174 82.1612 54.0713C81.8026 53.9252 81.5042 53.6997 81.2662 53.4012L81.9676 52.8041C82.1009 53.001 82.285 53.163 82.5167 53.2964C82.7515 53.4297 83.0054 53.4964 83.2847 53.4964C83.4117 53.4964 83.5323 53.4837 83.6466 53.4583C83.7608 53.4329 83.8656 53.3948 83.9608 53.3376C84.056 53.2805 84.129 53.2074 84.1861 53.1185C84.2432 53.0264 84.2686 52.9121 84.2686 52.7723C84.2686 52.5405 84.1575 52.3721 83.9386 52.2578C83.7196 52.1466 83.3958 52.0418 82.9705 51.9434C82.8023 51.9021 82.6341 51.8513 82.4627 51.7909C82.2913 51.7306 82.1358 51.648 81.9962 51.5432C81.8565 51.4384 81.7423 51.3082 81.6566 51.1494C81.5677 50.9906 81.5264 50.7969 81.5264 50.5682C81.5264 50.3014 81.5804 50.0727 81.6883 49.8822C81.7962 49.6916 81.939 49.5328 82.1136 49.4089C82.2882 49.2883 82.4881 49.1962 82.7103 49.1358C82.9324 49.0755 83.1641 49.0469 83.4022 49.0469C83.7576 49.0469 84.1036 49.1167 84.4337 49.2565C84.7638 49.3962 85.0208 49.5995 85.2017 49.8631L84.5225 50.438V50.4443Z"
            fill="#D70B42" />
        <path
            d="M91.2257 50.4445C91.121 50.2826 90.9623 50.1492 90.7528 50.0412C90.5433 49.9332 90.3212 49.8792 90.0831 49.8792C89.8261 49.8792 89.5944 49.9269 89.3976 50.0253C89.2008 50.1238 89.0294 50.254 88.8898 50.4191C88.7501 50.5843 88.6422 50.7749 88.5692 50.9908C88.4962 51.2068 88.4581 51.4355 88.4581 51.6737C88.4581 51.9119 88.4962 52.1374 88.5692 52.3565C88.6422 52.5725 88.7501 52.763 88.8898 52.9282C89.0294 53.0933 89.2008 53.2235 89.4039 53.322C89.6071 53.4205 89.8356 53.4681 90.0958 53.4681C90.3561 53.4681 90.5751 53.4205 90.7814 53.322C90.9877 53.2235 91.1559 53.0902 91.2892 52.925L91.9494 53.5221C91.7399 53.7666 91.4765 53.9572 91.1622 54.0938C90.848 54.2303 90.4926 54.297 90.0927 54.297C89.6928 54.297 89.3532 54.2335 89.0294 54.1096C88.7057 53.9826 88.4232 53.8079 88.1852 53.5793C87.9471 53.3538 87.7599 53.0774 87.6266 52.7567C87.4901 52.4359 87.4235 52.0738 87.4235 51.6768C87.4235 51.2798 87.4901 50.9305 87.6234 50.6065C87.7567 50.2857 87.9408 50.0094 88.1788 49.7776C88.4169 49.5457 88.6962 49.3679 89.0231 49.244C89.3468 49.117 89.6991 49.0566 90.0768 49.0566C90.4259 49.0566 90.7719 49.1265 91.1178 49.2663C91.4638 49.406 91.7367 49.6093 91.9398 49.8729L91.2289 50.4477L91.2257 50.4445Z"
            fill="#D70B42" />
        <path
            d="M95.2057 49.9395C95.3231 49.695 95.5263 49.4854 95.8119 49.3107C96.0975 49.136 96.4181 49.0503 96.7767 49.0503C97.0973 49.0503 97.3734 49.1043 97.6051 49.2122C97.8368 49.3202 98.0272 49.4663 98.1828 49.6474C98.3351 49.8284 98.4494 50.0412 98.5224 50.2857C98.5954 50.5303 98.6334 50.7939 98.6334 51.0702V54.1509H97.6496V51.3973C97.6496 51.1941 97.6337 51.0003 97.6019 50.8193C97.5702 50.6383 97.5131 50.4763 97.4306 50.3365C97.348 50.1968 97.2338 50.0856 97.091 49.9999C96.9481 49.9173 96.7609 49.8729 96.5324 49.8729C96.142 49.8729 95.8214 50.0221 95.5675 50.3207C95.3168 50.6192 95.1898 51.0162 95.1898 51.5117V54.1477H94.2059V46.2236H95.1898V49.9332H95.212L95.2057 49.9395Z"
            fill="#D70B42" />
        <path
            d="M106.194 51.6292V51.7975C106.194 51.8547 106.19 51.9087 106.184 51.9658H102.236C102.242 52.1755 102.29 52.3692 102.379 52.5534C102.464 52.7376 102.582 52.8964 102.731 53.033C102.88 53.1695 103.048 53.2744 103.239 53.3506C103.429 53.4268 103.635 53.4649 103.851 53.4649C104.188 53.4649 104.477 53.3919 104.721 53.2458C104.965 53.0997 105.159 52.9218 105.299 52.7122L105.99 53.268C105.724 53.6205 105.413 53.8778 105.054 54.0461C104.696 54.2113 104.296 54.297 103.854 54.297C103.477 54.297 103.128 54.2335 102.807 54.1096C102.487 53.9858 102.21 53.8079 101.979 53.5793C101.747 53.3538 101.566 53.0774 101.433 52.7567C101.3 52.4359 101.233 52.0802 101.233 51.6864C101.233 51.2925 101.296 50.9464 101.426 50.6224C101.557 50.2985 101.737 50.019 101.966 49.7903C102.198 49.5584 102.471 49.3806 102.785 49.2504C103.099 49.1202 103.439 49.0566 103.804 49.0566C104.169 49.0566 104.499 49.117 104.794 49.2345C105.089 49.352 105.343 49.5235 105.549 49.749C105.756 49.9713 105.914 50.2445 106.025 50.5621C106.136 50.8797 106.194 51.2385 106.194 51.6355V51.6292ZM105.187 51.2322C105.181 51.0353 105.146 50.8543 105.089 50.6827C105.029 50.5112 104.943 50.362 104.826 50.2381C104.708 50.1142 104.569 50.0126 104.397 49.9396C104.226 49.8665 104.026 49.8284 103.794 49.8284C103.585 49.8284 103.388 49.8665 103.201 49.9396C103.017 50.0126 102.855 50.1111 102.718 50.2381C102.582 50.3651 102.471 50.5112 102.382 50.6827C102.293 50.8543 102.245 51.0385 102.229 51.2322H105.184H105.187Z"
            fill="#D70B42" />
        <path
            d="M117.715 51.6575C117.715 52.0418 117.648 52.3944 117.512 52.7151C117.375 53.0359 117.188 53.3154 116.947 53.5473C116.705 53.7823 116.42 53.9633 116.093 54.0935C115.763 54.2238 115.41 54.2873 115.036 54.2873C114.661 54.2873 114.306 54.2238 113.979 54.0935C113.649 53.9633 113.366 53.7823 113.132 53.5473C112.894 53.3122 112.706 53.0359 112.573 52.7151C112.437 52.3944 112.37 52.0418 112.37 51.6575C112.37 51.2732 112.437 50.9239 112.573 50.6031C112.709 50.2855 112.897 50.0124 113.132 49.7805C113.37 49.5487 113.652 49.3708 113.979 49.2406C114.306 49.1104 114.658 49.0469 115.036 49.0469C115.414 49.0469 115.766 49.1104 116.093 49.2406C116.42 49.3708 116.705 49.5487 116.947 49.7805C117.188 50.0124 117.375 50.2855 117.512 50.6031C117.648 50.9207 117.715 51.2732 117.715 51.6575ZM116.689 51.6639C116.689 51.4257 116.651 51.2002 116.578 50.9842C116.505 50.7683 116.397 50.5777 116.258 50.4157C116.118 50.2538 115.944 50.1204 115.737 50.0251C115.531 49.9266 115.293 49.879 115.03 49.879C114.766 49.879 114.528 49.9266 114.319 50.0251C114.112 50.1235 113.938 50.2538 113.798 50.4157C113.658 50.5777 113.551 50.7683 113.478 50.9842C113.405 51.2002 113.366 51.4257 113.366 51.6639C113.366 51.9021 113.405 52.1276 113.478 52.3436C113.551 52.5595 113.658 52.7501 113.798 52.9184C113.938 53.0867 114.112 53.217 114.319 53.3154C114.525 53.4139 114.763 53.4615 115.03 53.4615C115.296 53.4615 115.531 53.4139 115.737 53.3154C115.944 53.217 116.118 53.0867 116.258 52.9184C116.397 52.7501 116.505 52.5595 116.578 52.3436C116.651 52.1276 116.689 51.9021 116.689 51.6639Z"
            fill="#D70B42" />
        <path
            d="M121.317 56.6695H120.333V49.1869H121.298V49.9618H121.33C121.488 49.695 121.726 49.4791 122.034 49.3075C122.345 49.136 122.704 49.0503 123.116 49.0503C123.485 49.0503 123.821 49.117 124.126 49.2504C124.427 49.3838 124.691 49.568 124.91 49.8062C125.129 50.0444 125.297 50.3207 125.417 50.6383C125.535 50.9559 125.595 51.2957 125.595 51.661C125.595 52.0262 125.535 52.366 125.417 52.6868C125.3 53.0076 125.132 53.2871 124.916 53.5253C124.7 53.7635 124.44 53.9509 124.132 54.0874C123.827 54.224 123.481 54.2907 123.097 54.2907C122.742 54.2907 122.409 54.2145 122.094 54.0588C121.78 53.9064 121.533 53.6872 121.352 53.4078H121.32V56.6663L121.317 56.6695ZM124.586 51.661C124.586 51.4291 124.551 51.2068 124.481 50.9908C124.411 50.7749 124.307 50.5811 124.167 50.416C124.027 50.2476 123.856 50.1143 123.65 50.019C123.443 49.9205 123.205 49.8729 122.932 49.8729C122.682 49.8729 122.453 49.9205 122.247 50.019C122.041 50.1174 121.866 50.2508 121.717 50.416C121.571 50.5843 121.457 50.7749 121.377 50.9908C121.298 51.2068 121.257 51.4355 121.257 51.6737C121.257 51.9119 121.298 52.1374 121.377 52.3565C121.457 52.5725 121.571 52.763 121.717 52.9282C121.863 53.0933 122.041 53.2235 122.247 53.322C122.453 53.4205 122.682 53.4681 122.932 53.4681C123.205 53.4681 123.443 53.4173 123.65 53.3157C123.856 53.214 124.027 53.0806 124.167 52.9123C124.307 52.744 124.411 52.5534 124.481 52.3343C124.551 52.1183 124.586 51.8928 124.586 51.6641V51.661Z"
            fill="#D70B42" />
        <path d="M129.236 54.1541H128.252V46.23H129.236V54.1541Z" fill="#D70B42" />
        <path
            d="M136.85 51.6292V51.7975C136.85 51.8547 136.847 51.9087 136.84 51.9658H132.892C132.898 52.1755 132.946 52.3692 133.035 52.5534C133.12 52.7376 133.238 52.8964 133.387 53.033C133.536 53.1695 133.704 53.2744 133.895 53.3506C134.085 53.4268 134.292 53.4649 134.507 53.4649C134.844 53.4649 135.133 53.3919 135.377 53.2458C135.621 53.0997 135.815 52.9218 135.955 52.7122L136.647 53.268C136.38 53.6205 136.069 53.8778 135.71 54.0461C135.352 54.2113 134.952 54.297 134.511 54.297C134.133 54.297 133.784 54.2335 133.463 54.1096C133.143 53.9858 132.867 53.8079 132.635 53.5793C132.403 53.3538 132.222 53.0774 132.089 52.7567C131.956 52.4359 131.889 52.0802 131.889 51.6864C131.889 51.2925 131.952 50.9464 132.083 50.6224C132.213 50.2985 132.394 50.019 132.622 49.7903C132.854 49.5584 133.127 49.3806 133.441 49.2504C133.755 49.1202 134.095 49.0566 134.46 49.0566C134.825 49.0566 135.155 49.117 135.45 49.2345C135.745 49.352 135.999 49.5235 136.205 49.749C136.412 49.9713 136.57 50.2445 136.681 50.5621C136.793 50.8797 136.85 51.2385 136.85 51.6355V51.6292ZM135.844 51.2322C135.837 51.0353 135.802 50.8543 135.745 50.6827C135.685 50.5112 135.599 50.362 135.482 50.2381C135.364 50.1142 135.225 50.0126 135.053 49.9396C134.882 49.8665 134.682 49.8284 134.45 49.8284C134.241 49.8284 134.044 49.8665 133.857 49.9396C133.673 50.0126 133.511 50.1111 133.374 50.2381C133.238 50.3651 133.127 50.5112 133.038 50.6827C132.949 50.8543 132.901 51.0385 132.886 51.2322H135.84H135.844Z"
            fill="#D70B42" />
        <path
            d="M140.62 47.3925C140.62 47.5736 140.557 47.726 140.427 47.8435C140.3 47.961 140.144 48.0214 139.963 48.0214C139.782 48.0214 139.63 47.961 139.506 47.8372C139.382 47.7165 139.319 47.5672 139.319 47.3925C139.319 47.2178 139.382 47.059 139.506 46.9352C139.63 46.8145 139.782 46.751 139.963 46.751C140.144 46.751 140.296 46.8113 140.427 46.9352C140.554 47.059 140.62 47.2083 140.62 47.3925ZM140.461 54.1542H139.478V49.187H140.461V54.1542Z"
            fill="#D70B42" />
        <path
            d="M147.396 53.3667C147.209 53.6684 146.952 53.8971 146.625 54.0527C146.301 54.2115 145.959 54.2877 145.603 54.2877C145.219 54.2877 144.873 54.221 144.565 54.0845C144.257 53.9479 143.997 53.7605 143.778 53.5223C143.562 53.2841 143.394 53.0046 143.277 52.6838C143.159 52.3631 143.099 52.0201 143.099 51.658C143.099 51.2959 143.159 50.9529 143.277 50.6353C143.394 50.3177 143.566 50.0382 143.785 49.8032C144.004 49.565 144.267 49.3808 144.575 49.2474C144.883 49.114 145.222 49.0473 145.59 49.0473C145.997 49.0473 146.349 49.1331 146.647 49.3046C146.949 49.4761 147.184 49.6825 147.358 49.9271H147.381V46.2271H148.364V54.1512H147.412V53.3635H147.39L147.396 53.3667ZM144.127 51.6644C144.127 51.893 144.162 52.1185 144.232 52.3345C144.302 52.5505 144.407 52.741 144.546 52.9093C144.686 53.0777 144.857 53.2111 145.06 53.3127C145.264 53.4143 145.502 53.4651 145.771 53.4651C146.022 53.4651 146.251 53.4175 146.457 53.319C146.663 53.2206 146.841 53.0904 146.987 52.9284C147.133 52.7664 147.247 52.5759 147.327 52.3599C147.406 52.1439 147.447 51.9184 147.447 51.6802C147.447 51.442 147.406 51.2165 147.327 51.0006C147.247 50.7846 147.133 50.594 146.987 50.4257C146.841 50.2574 146.663 50.1272 146.457 50.0287C146.251 49.9303 146.022 49.8826 145.771 49.8826C145.498 49.8826 145.26 49.9303 145.06 50.0287C144.857 50.1272 144.686 50.2574 144.546 50.4257C144.407 50.594 144.302 50.7846 144.232 51.0006C144.162 51.2165 144.127 51.4389 144.127 51.6707V51.6644Z"
            fill="#D70B42" />
        <path
            d="M152.497 47.3925C152.497 47.5736 152.433 47.726 152.303 47.8435C152.176 47.961 152.021 48.0214 151.84 48.0214C151.659 48.0214 151.506 47.961 151.383 47.8372C151.259 47.7165 151.195 47.5672 151.195 47.3925C151.195 47.2178 151.259 47.059 151.383 46.9352C151.506 46.8145 151.659 46.751 151.84 46.751C152.021 46.751 152.173 46.8113 152.303 46.9352C152.43 47.059 152.497 47.2083 152.497 47.3925ZM152.338 54.1542H151.354V49.187H152.338V54.1542Z"
            fill="#D70B42" />
        <path
            d="M156.204 49.1866C156.216 49.3137 156.229 49.4534 156.236 49.6122C156.242 49.771 156.245 49.9012 156.245 50.006H156.277C156.34 49.8726 156.426 49.7488 156.534 49.6344C156.642 49.5201 156.766 49.4185 156.905 49.3295C157.045 49.2438 157.197 49.1739 157.365 49.1263C157.534 49.0786 157.708 49.0532 157.889 49.0532C158.21 49.0532 158.486 49.1072 158.717 49.2152C158.949 49.3232 159.14 49.4693 159.292 49.6503C159.444 49.8313 159.559 50.0441 159.632 50.2887C159.705 50.5332 159.743 50.7968 159.743 51.0732V54.1539H158.759V51.3971C158.759 51.1938 158.743 51.0033 158.711 50.8223C158.679 50.6412 158.622 50.4792 158.54 50.3395C158.457 50.1998 158.34 50.0886 158.194 50.0028C158.048 49.9203 157.857 49.8758 157.629 49.8758C157.238 49.8758 156.918 50.0251 156.67 50.3204C156.423 50.619 156.299 51.0128 156.299 51.5114V54.1539H155.315V50.2537C155.315 50.1204 155.312 49.9489 155.306 49.7392C155.299 49.5296 155.29 49.3454 155.274 49.1834H156.207L156.204 49.1866Z"
            fill="#D70B42" />
        <path
            d="M163.053 55.0021C163.269 55.2467 163.542 55.4436 163.865 55.5897C164.189 55.7358 164.522 55.8088 164.865 55.8088C165.208 55.8088 165.468 55.7612 165.694 55.6659C165.919 55.5706 166.097 55.4436 166.233 55.2784C166.37 55.1133 166.468 54.9195 166.525 54.6972C166.585 54.4749 166.614 54.2335 166.614 53.9731V53.3347H166.592C166.411 53.6142 166.163 53.827 165.849 53.9731C165.535 54.1192 165.198 54.1922 164.843 54.1922C164.465 54.1922 164.123 54.1255 163.811 53.9921C163.5 53.8588 163.237 53.6777 163.021 53.4459C162.805 53.214 162.637 52.9441 162.52 52.6328C162.402 52.3216 162.342 51.9881 162.342 51.6324C162.342 51.2767 162.402 50.94 162.52 50.6256C162.637 50.3112 162.805 50.038 163.021 49.803C163.237 49.568 163.5 49.3838 163.805 49.2472C164.113 49.1106 164.456 49.0439 164.83 49.0439C165.186 49.0439 165.525 49.1202 165.852 49.2758C166.176 49.4282 166.433 49.6633 166.623 49.9777H166.646V49.1805H167.598V53.8969C167.598 54.2589 167.553 54.6083 167.461 54.9386C167.369 55.2689 167.217 55.5643 167.001 55.8183C166.785 56.0724 166.503 56.2789 166.154 56.4313C165.805 56.5838 165.373 56.6632 164.856 56.6632C164.424 56.6632 163.989 56.5838 163.551 56.4281C163.113 56.2693 162.739 56.0502 162.425 55.7612L163.053 54.9958V55.0021ZM163.345 51.6165C163.345 51.8483 163.383 52.0675 163.456 52.2771C163.529 52.4867 163.637 52.6709 163.783 52.8329C163.926 52.9949 164.1 53.1219 164.303 53.2204C164.507 53.3188 164.738 53.3665 164.998 53.3665C165.259 53.3665 165.481 53.322 165.69 53.2299C165.9 53.1378 166.078 53.0139 166.227 52.8583C166.373 52.7027 166.487 52.5153 166.57 52.3025C166.649 52.0897 166.69 51.8611 166.69 51.6165C166.69 51.372 166.649 51.156 166.57 50.9464C166.49 50.7368 166.373 50.5525 166.224 50.3906C166.074 50.2286 165.894 50.1016 165.687 50.0095C165.481 49.9142 165.252 49.8665 164.998 49.8665C164.745 49.8665 164.507 49.9142 164.303 50.0095C164.1 50.1047 163.926 50.2286 163.783 50.3874C163.64 50.543 163.532 50.7304 163.456 50.9432C163.383 51.156 163.345 51.3815 163.345 51.6197V51.6165Z"
            fill="#D70B42" />
        <path
            d="M175.183 51.6292V51.7975C175.183 51.8547 175.18 51.9087 175.174 51.9658H171.226C171.232 52.1755 171.28 52.3692 171.368 52.5534C171.454 52.7376 171.572 52.8964 171.721 53.033C171.87 53.1695 172.038 53.2744 172.229 53.3506C172.419 53.4268 172.625 53.4649 172.841 53.4649C173.178 53.4649 173.466 53.3919 173.711 53.2458C173.955 53.0997 174.149 52.9218 174.288 52.7122L174.98 53.268C174.714 53.6205 174.403 53.8778 174.044 54.0461C173.685 54.2113 173.285 54.297 172.844 54.297C172.467 54.297 172.117 54.2335 171.797 54.1096C171.476 53.9858 171.2 53.8079 170.969 53.5793C170.737 53.3538 170.556 53.0774 170.423 52.7567C170.289 52.4359 170.223 52.0802 170.223 51.6864C170.223 51.2925 170.286 50.9464 170.416 50.6224C170.546 50.2985 170.727 50.019 170.956 49.7903C171.188 49.5584 171.46 49.3806 171.775 49.2504C172.089 49.1202 172.428 49.0566 172.793 49.0566C173.158 49.0566 173.489 49.117 173.784 49.2345C174.079 49.352 174.333 49.5235 174.539 49.749C174.745 49.9713 174.904 50.2445 175.015 50.5621C175.126 50.8797 175.183 51.2385 175.183 51.6355V51.6292ZM174.177 51.2322C174.171 51.0353 174.136 50.8543 174.079 50.6827C174.019 50.5112 173.933 50.362 173.815 50.2381C173.698 50.1142 173.558 50.0126 173.387 49.9396C173.216 49.8665 173.016 49.8284 172.784 49.8284C172.574 49.8284 172.378 49.8665 172.19 49.9396C172.006 50.0126 171.844 50.1111 171.708 50.2381C171.572 50.3651 171.46 50.5112 171.372 50.6827C171.283 50.8543 171.235 51.0385 171.219 51.2322H174.174H174.177Z"
            fill="#D70B42" />
        <path
            d="M178.69 49.1866C178.703 49.3137 178.716 49.4534 178.722 49.6122C178.729 49.771 178.732 49.9012 178.732 50.006H178.763C178.827 49.8726 178.913 49.7488 179.021 49.6344C179.128 49.5201 179.252 49.4185 179.392 49.3295C179.531 49.2438 179.684 49.1739 179.852 49.1263C180.02 49.0786 180.195 49.0532 180.376 49.0532C180.696 49.0532 180.972 49.1072 181.204 49.2152C181.436 49.3232 181.626 49.4693 181.779 49.6503C181.931 49.8313 182.045 50.0441 182.118 50.2887C182.191 50.5332 182.229 50.7968 182.229 51.0732V54.1539H181.245V51.3971C181.245 51.1938 181.229 51.0033 181.198 50.8223C181.166 50.6412 181.109 50.4792 181.026 50.3395C180.944 50.1998 180.826 50.0886 180.68 50.0028C180.534 49.9203 180.344 49.8758 180.115 49.8758C179.725 49.8758 179.405 50.0251 179.157 50.3204C178.909 50.619 178.786 51.0128 178.786 51.5114V54.1539H177.802V50.2537C177.802 50.1204 177.799 49.9489 177.792 49.7392C177.786 49.5296 177.776 49.3454 177.76 49.1834H178.694L178.69 49.1866Z"
            fill="#D70B42" />
        <path
            d="M194.309 52.6647H194.331V46.7319H195.369V54.1511H194.061L190.145 48.0944H190.123V54.1511H189.085V46.7319H190.437L194.312 52.6647H194.309Z"
            fill="#D70B42" />
        <path
            d="M203.399 51.6575C203.399 52.0418 203.332 52.3944 203.196 52.7151C203.059 53.0359 202.872 53.3154 202.631 53.5473C202.39 53.7823 202.104 53.9633 201.777 54.0935C201.447 54.2238 201.095 54.2873 200.72 54.2873C200.346 54.2873 199.99 54.2238 199.663 54.0935C199.333 53.9633 199.051 53.7823 198.816 53.5473C198.578 53.3122 198.39 53.0359 198.257 52.7151C198.121 52.3944 198.054 52.0418 198.054 51.6575C198.054 51.2732 198.121 50.9239 198.257 50.6031C198.394 50.2855 198.581 50.0124 198.816 49.7805C199.054 49.5487 199.336 49.3708 199.663 49.2406C199.99 49.1104 200.342 49.0469 200.72 49.0469C201.098 49.0469 201.45 49.1104 201.777 49.2406C202.104 49.3708 202.39 49.5487 202.631 49.7805C202.872 50.0124 203.059 50.2855 203.196 50.6031C203.332 50.9207 203.399 51.2732 203.399 51.6575ZM202.374 51.6639C202.374 51.4257 202.336 51.2002 202.263 50.9842C202.19 50.7683 202.082 50.5777 201.942 50.4157C201.802 50.2538 201.628 50.1204 201.422 50.0251C201.215 49.9266 200.977 49.879 200.714 49.879C200.45 49.879 200.212 49.9266 200.003 50.0251C199.797 50.1235 199.622 50.2538 199.482 50.4157C199.343 50.5777 199.235 50.7683 199.162 50.9842C199.089 51.2002 199.051 51.4257 199.051 51.6639C199.051 51.9021 199.089 52.1276 199.162 52.3436C199.235 52.5595 199.343 52.7501 199.482 52.9184C199.622 53.0867 199.797 53.217 200.003 53.3154C200.209 53.4139 200.447 53.4615 200.714 53.4615C200.98 53.4615 201.215 53.4139 201.422 53.3154C201.628 53.217 201.802 53.0867 201.942 52.9184C202.082 52.7501 202.19 52.5595 202.263 52.3436C202.336 52.1276 202.374 51.9021 202.374 51.6639Z"
            fill="#D70B42" />
        <path
            d="M211.045 51.6575C211.045 52.0418 210.978 52.3944 210.841 52.7151C210.705 53.0359 210.518 53.3154 210.277 53.5473C210.035 53.7823 209.75 53.9633 209.423 54.0935C209.093 54.2238 208.74 54.2873 208.366 54.2873C207.991 54.2873 207.636 54.2238 207.309 54.0935C206.979 53.9633 206.696 53.7823 206.462 53.5473C206.224 53.3122 206.036 53.0359 205.903 52.7151C205.766 52.3944 205.7 52.0418 205.7 51.6575C205.7 51.2732 205.766 50.9239 205.903 50.6031C206.039 50.2855 206.227 50.0124 206.462 49.7805C206.7 49.5487 206.982 49.3708 207.309 49.2406C207.636 49.1104 207.988 49.0469 208.366 49.0469C208.744 49.0469 209.096 49.1104 209.423 49.2406C209.75 49.3708 210.035 49.5487 210.277 49.7805C210.518 50.0124 210.705 50.2855 210.841 50.6031C210.978 50.9207 211.045 51.2732 211.045 51.6575ZM210.019 51.6639C210.019 51.4257 209.981 51.2002 209.908 50.9842C209.835 50.7683 209.727 50.5777 209.588 50.4157C209.448 50.2538 209.274 50.1204 209.067 50.0251C208.861 49.9266 208.623 49.879 208.36 49.879C208.096 49.879 207.858 49.9266 207.649 50.0251C207.442 50.1235 207.268 50.2538 207.128 50.4157C206.988 50.5777 206.88 50.7683 206.807 50.9842C206.734 51.2002 206.696 51.4257 206.696 51.6639C206.696 51.9021 206.734 52.1276 206.807 52.3436C206.88 52.5595 206.988 52.7501 207.128 52.9184C207.268 53.0867 207.442 53.217 207.649 53.3154C207.855 53.4139 208.093 53.4615 208.36 53.4615C208.626 53.4615 208.861 53.4139 209.067 53.3154C209.274 53.217 209.448 53.0867 209.588 52.9184C209.727 52.7501 209.835 52.5595 209.908 52.3436C209.981 52.1276 210.019 51.9021 210.019 51.6639Z"
            fill="#D70B42" />
        <path
            d="M213.65 49.7427C213.644 49.533 213.634 49.3488 213.619 49.1869H214.552C214.564 49.3139 214.577 49.4568 214.583 49.622C214.59 49.7871 214.593 49.9205 214.593 50.0253H214.625C214.764 49.7331 214.967 49.4949 215.237 49.3171C215.507 49.1392 215.808 49.0503 216.142 49.0503C216.294 49.0503 216.424 49.063 216.529 49.0916L216.488 50.0031C216.348 49.9682 216.199 49.9491 216.037 49.9491C215.799 49.9491 215.593 49.9936 215.418 50.0793C215.244 50.1682 215.098 50.2826 214.983 50.4318C214.869 50.5811 214.783 50.7494 214.726 50.94C214.669 51.1306 214.644 51.3338 214.644 51.5434V54.1541H213.66V50.254C213.66 50.1206 213.657 49.9491 213.65 49.7395V49.7427Z"
            fill="#D70B42" />
        <path
            d="M222.483 53.3667C222.296 53.6684 222.039 53.8971 221.712 54.0527C221.388 54.2115 221.045 54.2877 220.69 54.2877C220.306 54.2877 219.96 54.221 219.652 54.0845C219.344 53.9479 219.084 53.7605 218.865 53.5223C218.649 53.2841 218.481 53.0046 218.363 52.6838C218.246 52.3631 218.186 52.0201 218.186 51.658C218.186 51.2959 218.246 50.9529 218.363 50.6353C218.481 50.3177 218.652 50.0382 218.871 49.8032C219.09 49.565 219.354 49.3808 219.662 49.2474C219.969 49.114 220.309 49.0473 220.677 49.0473C221.083 49.0473 221.436 49.1331 221.734 49.3046C222.036 49.4761 222.27 49.6825 222.445 49.9271H222.467V46.2271H223.451V54.1512H222.499V53.3635H222.477L222.483 53.3667ZM219.214 51.6644C219.214 51.893 219.249 52.1185 219.319 52.3345C219.389 52.5505 219.493 52.741 219.633 52.9093C219.773 53.0777 219.944 53.2111 220.147 53.3127C220.35 53.4143 220.588 53.4651 220.858 53.4651C221.109 53.4651 221.337 53.4175 221.544 53.319C221.75 53.2206 221.928 53.0904 222.074 52.9284C222.22 52.7664 222.334 52.5759 222.413 52.3599C222.493 52.1439 222.534 51.9184 222.534 51.6802C222.534 51.442 222.493 51.2165 222.413 51.0006C222.334 50.7846 222.22 50.594 222.074 50.4257C221.928 50.2574 221.75 50.1272 221.544 50.0287C221.337 49.9303 221.109 49.8826 220.858 49.8826C220.585 49.8826 220.347 49.9303 220.147 50.0287C219.944 50.1272 219.773 50.2574 219.633 50.4257C219.493 50.594 219.389 50.7846 219.319 51.0006C219.249 51.2165 219.214 51.4389 219.214 51.6707V51.6644Z"
            fill="#D70B42" />
        <path d="M228.472 52.0164H226.041V51.1875H228.472V52.0164Z" fill="#D70B42" />
        <path
            d="M236.318 52.6647H236.34V46.7319H237.378V54.1511H236.07L232.154 48.0944H232.132V54.1511H231.094V46.7319H232.446L236.321 52.6647H236.318Z"
            fill="#D70B42" />
        <path
            d="M245.021 51.6292V51.7975C245.021 51.8547 245.017 51.9087 245.011 51.9658H241.063C241.069 52.1755 241.117 52.3692 241.206 52.5534C241.291 52.7376 241.409 52.8964 241.558 53.033C241.707 53.1695 241.875 53.2744 242.066 53.3506C242.256 53.4268 242.462 53.4649 242.678 53.4649C243.015 53.4649 243.303 53.3919 243.548 53.2458C243.792 53.0997 243.986 52.9218 244.126 52.7122L244.817 53.268C244.551 53.6205 244.24 53.8778 243.881 54.0461C243.522 54.2113 243.123 54.297 242.681 54.297C242.304 54.297 241.955 54.2335 241.634 54.1096C241.313 53.9858 241.037 53.8079 240.806 53.5793C240.574 53.3538 240.393 53.0774 240.26 52.7567C240.126 52.4359 240.06 52.0802 240.06 51.6864C240.06 51.2925 240.123 50.9464 240.253 50.6224C240.384 50.2985 240.564 50.019 240.793 49.7903C241.025 49.5584 241.298 49.3806 241.612 49.2504C241.926 49.1202 242.266 49.0566 242.631 49.0566C242.996 49.0566 243.326 49.117 243.621 49.2345C243.916 49.352 244.17 49.5235 244.376 49.749C244.583 49.9713 244.741 50.2445 244.852 50.5621C244.963 50.8797 245.021 51.2385 245.021 51.6355V51.6292ZM244.014 51.2322C244.008 51.0353 243.973 50.8543 243.916 50.6827C243.856 50.5112 243.77 50.362 243.653 50.2381C243.535 50.1142 243.396 50.0126 243.224 49.9396C243.053 49.8665 242.853 49.8284 242.621 49.8284C242.412 49.8284 242.215 49.8665 242.028 49.9396C241.844 50.0126 241.682 50.1111 241.545 50.2381C241.409 50.3651 241.298 50.5112 241.209 50.6827C241.12 50.8543 241.072 51.0385 241.056 51.2322H244.011H244.014Z"
            fill="#D70B42" />
        <path
            d="M251.597 53.3667C251.409 53.6684 251.152 53.8971 250.826 54.0527C250.502 54.2115 250.159 54.2877 249.804 54.2877C249.42 54.2877 249.074 54.221 248.766 54.0845C248.458 53.9479 248.198 53.7605 247.979 53.5223C247.763 53.2841 247.595 53.0046 247.477 52.6838C247.36 52.3631 247.299 52.0201 247.299 51.658C247.299 51.2959 247.36 50.9529 247.477 50.6353C247.595 50.3177 247.766 50.0382 247.985 49.8032C248.204 49.565 248.467 49.3808 248.775 49.2474C249.083 49.114 249.423 49.0473 249.791 49.0473C250.197 49.0473 250.549 49.1331 250.848 49.3046C251.149 49.4761 251.384 49.6825 251.559 49.9271H251.581V46.2271H252.565V54.1512H251.613V53.3635H251.59L251.597 53.3667ZM248.328 51.6644C248.328 51.893 248.363 52.1185 248.432 52.3345C248.502 52.5505 248.607 52.741 248.747 52.9093C248.886 53.0777 249.058 53.2111 249.261 53.3127C249.464 53.4143 249.702 53.4651 249.972 53.4651C250.222 53.4651 250.451 53.4175 250.657 53.319C250.864 53.2206 251.041 53.0904 251.187 52.9284C251.333 52.7664 251.448 52.5759 251.527 52.3599C251.606 52.1439 251.648 51.9184 251.648 51.6802C251.648 51.442 251.606 51.2165 251.527 51.0006C251.448 50.7846 251.333 50.594 251.187 50.4257C251.041 50.2574 250.864 50.1272 250.657 50.0287C250.451 49.9303 250.222 49.8826 249.972 49.8826C249.699 49.8826 249.461 49.9303 249.261 50.0287C249.058 50.1272 248.886 50.2574 248.747 50.4257C248.607 50.594 248.502 50.7846 248.432 51.0006C248.363 51.2165 248.328 51.4389 248.328 51.6707V51.6644Z"
            fill="#D70B42" />
        <path
            d="M260.185 51.6292V51.7975C260.185 51.8547 260.182 51.9087 260.176 51.9658H256.227C256.234 52.1755 256.281 52.3692 256.37 52.5534C256.456 52.7376 256.573 52.8964 256.723 53.033C256.872 53.1695 257.04 53.2744 257.23 53.3506C257.421 53.4268 257.627 53.4649 257.843 53.4649C258.179 53.4649 258.468 53.3919 258.713 53.2458C258.957 53.0997 259.151 52.9218 259.29 52.7122L259.982 53.268C259.715 53.6205 259.404 53.8778 259.046 54.0461C258.687 54.2113 258.287 54.297 257.846 54.297C257.468 54.297 257.119 54.2335 256.799 54.1096C256.478 53.9858 256.202 53.8079 255.97 53.5793C255.739 53.3538 255.558 53.0774 255.424 52.7567C255.291 52.4359 255.224 52.0802 255.224 51.6864C255.224 51.2925 255.288 50.9464 255.418 50.6224C255.548 50.2985 255.729 50.019 255.958 49.7903C256.189 49.5584 256.462 49.3806 256.776 49.2504C257.091 49.1202 257.43 49.0566 257.795 49.0566C258.16 49.0566 258.49 49.117 258.786 49.2345C259.081 49.352 259.335 49.5235 259.541 49.749C259.747 49.9713 259.906 50.2445 260.017 50.5621C260.128 50.8797 260.185 51.2385 260.185 51.6355V51.6292ZM259.179 51.2322C259.173 51.0353 259.138 50.8543 259.081 50.6827C259.02 50.5112 258.935 50.362 258.817 50.2381C258.7 50.1142 258.56 50.0126 258.389 49.9396C258.217 49.8665 258.017 49.8284 257.786 49.8284C257.576 49.8284 257.38 49.8665 257.192 49.9396C257.008 50.0126 256.846 50.1111 256.71 50.2381C256.573 50.3651 256.462 50.5112 256.373 50.6827C256.285 50.8543 256.237 51.0385 256.221 51.2322H259.176H259.179Z"
            fill="#D70B42" />
        <path
            d="M262.794 49.7427C262.788 49.533 262.778 49.3488 262.762 49.1869H263.695C263.708 49.3139 263.721 49.4568 263.727 49.622C263.734 49.7871 263.737 49.9205 263.737 50.0253H263.768C263.908 49.7331 264.111 49.4949 264.381 49.3171C264.651 49.1392 264.952 49.0503 265.286 49.0503C265.438 49.0503 265.568 49.063 265.673 49.0916L265.631 50.0031C265.492 49.9682 265.343 49.9491 265.181 49.9491C264.943 49.9491 264.736 49.9936 264.562 50.0793C264.387 50.1682 264.241 50.2826 264.127 50.4318C264.013 50.5811 263.927 50.7494 263.87 50.94C263.813 51.1306 263.787 51.3338 263.787 51.5434V54.1541H262.804V50.254C262.804 50.1206 262.8 49.9491 262.794 49.7395V49.7427Z"
            fill="#D70B42" />
        <path d="M268.859 54.1541H267.875V46.23H268.859V54.1541Z" fill="#D70B42" />
        <path
            d="M274.921 50.9366C274.921 50.565 274.81 50.2919 274.585 50.114C274.36 49.9362 274.064 49.8472 273.696 49.8472C273.417 49.8472 273.153 49.9012 272.906 50.0092C272.658 50.1172 272.449 50.2569 272.284 50.4221L271.76 49.7932C272.005 49.5614 272.303 49.3804 272.655 49.247C273.008 49.1136 273.385 49.0469 273.791 49.0469C274.147 49.0469 274.458 49.0977 274.718 49.1993C274.978 49.301 275.194 49.4375 275.362 49.6122C275.531 49.7869 275.654 49.9933 275.74 50.2315C275.823 50.4697 275.867 50.7238 275.867 50.9969V53.1661C275.867 53.3345 275.873 53.5092 275.883 53.6965C275.893 53.8807 275.912 54.0332 275.94 54.1539H275.048C274.991 53.9157 274.966 53.6775 274.966 53.4425H274.934C274.753 53.7092 274.525 53.9157 274.248 54.0618C273.972 54.2079 273.645 54.2809 273.271 54.2809C273.074 54.2809 272.871 54.2555 272.658 54.2015C272.446 54.1475 272.252 54.0649 272.078 53.9443C271.903 53.8268 271.757 53.6679 271.643 53.4742C271.528 53.2773 271.471 53.0391 271.471 52.7501C271.471 52.3721 271.573 52.0736 271.776 51.8545C271.979 51.6353 272.243 51.467 272.573 51.3526C272.9 51.2383 273.271 51.1621 273.684 51.1272C274.096 51.0922 274.512 51.0732 274.931 51.0732V50.9366H274.921ZM274.68 51.7846C274.436 51.7846 274.182 51.7941 273.922 51.8163C273.658 51.8386 273.423 51.8799 273.211 51.9434C272.998 52.0069 272.82 52.1022 272.681 52.226C272.541 52.3499 272.471 52.5182 272.471 52.7279C272.471 52.874 272.5 52.9978 272.56 53.0931C272.62 53.1915 272.696 53.2709 272.795 53.3345C272.893 53.398 273.001 53.4425 273.119 53.4647C273.236 53.4901 273.36 53.5028 273.484 53.5028C273.944 53.5028 274.299 53.3662 274.547 53.0899C274.794 52.8136 274.918 52.4674 274.918 52.0482V51.7846H274.677H274.68Z"
            fill="#D70B42" />
        <path
            d="M279.657 49.1866C279.669 49.3137 279.682 49.4534 279.688 49.6122C279.695 49.771 279.698 49.9012 279.698 50.006H279.73C279.793 49.8726 279.879 49.7488 279.987 49.6344C280.095 49.5201 280.218 49.4185 280.358 49.3295C280.498 49.2438 280.65 49.1739 280.818 49.1263C280.987 49.0786 281.161 49.0532 281.342 49.0532C281.663 49.0532 281.939 49.1072 282.17 49.2152C282.402 49.3232 282.592 49.4693 282.745 49.6503C282.897 49.8313 283.011 50.0441 283.084 50.2887C283.157 50.5332 283.196 50.7968 283.196 51.0732V54.1539H282.212V51.3971C282.212 51.1938 282.196 51.0033 282.164 50.8223C282.132 50.6412 282.075 50.4792 281.993 50.3395C281.91 50.1998 281.793 50.0886 281.647 50.0028C281.501 49.9203 281.31 49.8758 281.082 49.8758C280.691 49.8758 280.371 50.0251 280.123 50.3204C279.876 50.619 279.752 51.0128 279.752 51.5114V54.1539H278.768V50.2537C278.768 50.1204 278.765 49.9489 278.758 49.7392C278.752 49.5296 278.743 49.3454 278.727 49.1834H279.66L279.657 49.1866Z"
            fill="#D70B42" />
        <path
            d="M290.08 53.3667C289.892 53.6684 289.635 53.8971 289.308 54.0527C288.985 54.2115 288.642 54.2877 288.286 54.2877C287.902 54.2877 287.556 54.221 287.248 54.0845C286.941 53.9479 286.68 53.7605 286.461 53.5223C286.246 53.2841 286.077 53.0046 285.96 52.6838C285.842 52.3631 285.782 52.0201 285.782 51.658C285.782 51.2959 285.842 50.9529 285.96 50.6353C286.077 50.3177 286.249 50.0382 286.468 49.8032C286.687 49.565 286.95 49.3808 287.258 49.2474C287.566 49.114 287.905 49.0473 288.274 49.0473C288.68 49.0473 289.032 49.1331 289.331 49.3046C289.632 49.4761 289.867 49.6825 290.041 49.9271H290.064V46.2271H291.048V54.1512H290.095V53.3635H290.073L290.08 53.3667ZM286.81 51.6644C286.81 51.893 286.845 52.1185 286.915 52.3345C286.985 52.5505 287.09 52.741 287.229 52.9093C287.369 53.0777 287.54 53.2111 287.744 53.3127C287.947 53.4143 288.185 53.4651 288.455 53.4651C288.705 53.4651 288.934 53.4175 289.14 53.319C289.346 53.2206 289.524 53.0904 289.67 52.9284C289.816 52.7664 289.93 52.5759 290.01 52.3599C290.089 52.1439 290.13 51.9184 290.13 51.6802C290.13 51.442 290.089 51.2165 290.01 51.0006C289.93 50.7846 289.816 50.594 289.67 50.4257C289.524 50.2574 289.346 50.1272 289.14 50.0287C288.934 49.9303 288.705 49.8826 288.455 49.8826C288.182 49.8826 287.944 49.9303 287.744 50.0287C287.54 50.1272 287.369 50.2574 287.229 50.4257C287.09 50.594 286.985 50.7846 286.915 51.0006C286.845 51.2165 286.81 51.4389 286.81 51.6707V51.6644Z"
            fill="#D70B42" />
    </g>
    <defs>
        <clipPath id="clip0_558_1001">
            <rect width="291" height="58" fill="white" />
        </clipPath>
    </defs>
</svg>
    