<svg id="Group_5" data-name="Group 5" xmlns="http://www.w3.org/2000/svg" width="260.005" height="51.387" viewBox="0 0 260.005 51.387">
  <path id="Path_116" data-name="Path 116" d="M551.271,2h6.34V41.378h-6.34Zm6.34-2h-8.342V43.38h10.344V0Z" transform="translate(-419.956 -0.002)" fill="#e1081f"/>
  <path id="Path_117" data-name="Path 117" d="M641.643,67.384H635.3V36.018h6.34Zm2-33.368H633.3v35.37h10.344V34.016Z" transform="translate(-484.204 -26.008)" fill="#00559e"/>
  <path id="Path_118" data-name="Path 118" d="M759.155,65.2a10.343,10.343,0,0,0-8.707,4.77q-.127.2-.245.4h2.41a8.337,8.337,0,0,1,13.085,0h2.41a10.347,10.347,0,0,0-8.952-5.172" transform="translate(-573.584 -49.849)" fill="#00559e"/>
  <path id="Path_119" data-name="Path 119" d="M746.563,96.732a8.306,8.306,0,0,1,.356-1.062H744.79a10.321,10.321,0,0,0,0,6.34h2.128a8.365,8.365,0,0,1-.356-5.278" transform="translate(-569.064 -73.147)" fill="#00559e"/>
  <path id="Path_120" data-name="Path 120" d="M729.927,29.765a18.72,18.72,0,0,0-17.952,13.514h2.09a16.684,16.684,0,0,1,31.725,0h2.09a18.715,18.715,0,0,0-17.952-13.514" transform="translate(-544.356 -22.757)" fill="#00559e"/>
  <path id="Path_121" data-name="Path 121" d="M740.052,139.189l-4.551-4.551-1.454-1.454a8.337,8.337,0,0,1-10.663-2.08h-2.41a10.328,10.328,0,0,0,12.647,4.487l4.736,4.736a16.682,16.682,0,0,1-24.293-9.223h-2.09a18.656,18.656,0,0,0,29.5,9.5Z" transform="translate(-544.356 -100.238)" fill="#00559e"/>
  <path id="Path_122" data-name="Path 122" d="M745.955,89.168a18.677,18.677,0,0,0-.459-2h-35.9a18.68,18.68,0,0,0,0,10.344h35.9a18.538,18.538,0,0,0,.459-8.342m-2.032,6.34H711.164a16.645,16.645,0,0,1,0-6.34h32.759a16.639,16.639,0,0,1,0,6.34" transform="translate(-541.973 -66.645)" fill="#e1081f"/>
  <path id="Path_123" data-name="Path 123" d="M1061.876,138.067a3.67,3.67,0,1,1-3.67,3.67,3.671,3.671,0,0,1,3.67-3.67m0-2a5.673,5.673,0,1,0,5.673,5.672,5.679,5.679,0,0,0-5.673-5.672" transform="translate(-807.544 -104.031)" fill="#e1081f"/>
  <rect id="Rectangle_9" data-name="Rectangle 9" width="6.34" height="2.002" transform="translate(218.542 28.842) rotate(-45)" fill="#00559e"/>
  <path id="Path_124" data-name="Path 124" d="M937.315,34.016l-5.177,5.177-2,2-1.857,1.857,1.416,1.416,8.45-8.45h8.966L934.177,48.951l1.416,1.416,16.351-16.351Z" transform="translate(-709.736 -26.008)" fill="#00559e"/>
  <path id="Path_125" data-name="Path 125" d="M914.531,24.361l-1.416-1.416-4.483-4.483-1.416-1.416-4.483,4.483V2h6.34V15.189l2-2V0H900.732V43.38h10.344V35.534l7.846,7.846h14.628Zm-5.458,17.017h-6.34V27.192l6.34,6.34Zm10.678,0L908.633,30.259l-5.9-5.9,4.483-4.483,4.483,4.483,1.416,1.416,15.6,15.6Z" transform="translate(-688.675 -0.002)" fill="#e1081f"/>
  <path id="Path_126" data-name="Path 126" d="M189.888,36.018h6.34v5.1a15.406,15.406,0,0,1,2-.875V34.016H187.886V54.871a15.418,15.418,0,0,1,2-7.61Z" transform="translate(-143.652 -26.008)" fill="#e1081f"/>
  <path id="Path_127" data-name="Path 127" d="M203.016,124.6a7.154,7.154,0,0,1-.286-2h-6.34a13.622,13.622,0,0,0,.149,2Z" transform="translate(-150.154 -93.736)" fill="#e1081f"/>
  <path id="Path_128" data-name="Path 128" d="M284.1,67.384h-6.34V36.018h6.34Zm2-33.368H275.761v35.37h10.344V34.016Z" transform="translate(-210.839 -26.008)" fill="#e1081f"/>
  <path id="Path_129" data-name="Path 129" d="M284.264,134.05v1.062h1.987a15.63,15.63,0,0,0,4.353-4.9V122.6a13.5,13.5,0,0,1-6.34,11.451" transform="translate(-217.34 -93.736)" fill="#00559e"/>
  <path id="Path_130" data-name="Path 130" d="M284.264,64.19v2.3a13.5,13.5,0,0,1,6.34,11.451v-7.61a15.619,15.619,0,0,0-6.34-6.141" transform="translate(-217.34 -49.078)" fill="#00559e"/>
  <path id="Path_131" data-name="Path 131" d="M208.575,87.611v-.026A13.518,13.518,0,0,1,190.038,77.1a13.518,13.518,0,0,1,6.191-13.453V75.1a7.169,7.169,0,0,0,12.346,4.964V75.1a5.172,5.172,0,1,1-10.344,0V60.472a15.438,15.438,0,0,0-2,.875,15.62,15.62,0,0,0-6.34,6.141A15.508,15.508,0,0,0,208.88,89.613h-.3Z" transform="translate(-143.653 -46.235)" fill="#00559e"/>
  <path id="Path_132" data-name="Path 132" d="M378.883,31.767A16.684,16.684,0,1,1,362.2,48.451a16.684,16.684,0,0,1,16.684-16.684m0-2a18.686,18.686,0,1,0,18.686,18.686,18.707,18.707,0,0,0-18.686-18.686" transform="translate(-275.397 -22.757)" fill="#00559e"/>
  <path id="Path_133" data-name="Path 133" d="M405.974,51.875a10.335,10.335,0,0,0-8.342,4.237V47.773a16.7,16.7,0,0,0-2,1.361V75.3a16.7,16.7,0,0,0,2,1.361V68.326a10.342,10.342,0,1,0,8.342-16.451m0,18.686a8.342,8.342,0,1,1,8.342-8.342,8.342,8.342,0,0,1-8.342,8.342" transform="translate(-302.488 -36.526)" fill="#e1081f"/>
  <path id="Path_134" data-name="Path 134" d="M362.2,2h6.34v8.139a18.723,18.723,0,0,1,2-1.161V0H360.2V25.693a18.565,18.565,0,0,1,2-8.4Z" transform="translate(-275.397)" fill="#e1081f"/>
  <path id="Path_135" data-name="Path 135" d="M368.539,124.817H362.2v-7.283a18.565,18.565,0,0,1-2-8.4v17.685h10.344v-.971a18.722,18.722,0,0,1-2-1.161Z" transform="translate(-275.397 -83.441)" fill="#e1081f"/>
  <path id="Path_136" data-name="Path 136" d="M45.777,67.2a8.342,8.342,0,1,1-8.342,8.342A8.342,8.342,0,0,1,45.777,67.2m0-2A10.344,10.344,0,1,0,56.121,75.542,10.356,10.356,0,0,0,45.777,65.2" transform="translate(-27.091 -49.849)" fill="#e1081f"/>
  <path id="Path_137" data-name="Path 137" d="M18.686,31.767A16.684,16.684,0,1,1,2,48.451,16.684,16.684,0,0,1,18.686,31.767m0-2A18.686,18.686,0,1,0,37.372,48.451,18.707,18.707,0,0,0,18.686,29.765" transform="translate(0 -22.757)" fill="#e1081f"/>
  <path id="Path_138" data-name="Path 138" d="M37.435,47.773a16.7,16.7,0,0,0-2,1.361V62.219a10.288,10.288,0,0,1,2-6.107Z" transform="translate(-27.091 -36.526)" fill="#00559e"/>
  <path id="Path_139" data-name="Path 139" d="M37.435,115.242a10.287,10.287,0,0,1-2-6.107V122.22a16.7,16.7,0,0,0,2,1.361Z" transform="translate(-27.091 -83.442)" fill="#00559e"/>
  <path id="Path_140" data-name="Path 140" d="M8.342,124.687v8.139H2V117.534a18.566,18.566,0,0,1-2-8.4v25.693H10.344v-8.98a18.677,18.677,0,0,1-2-1.161" transform="translate(0 -83.442)" fill="#00559e"/>
  <path id="Path_141" data-name="Path 141" d="M2,36.018h6.34v.131a18.681,18.681,0,0,1,2-1.161v-.972H0V51.7a18.566,18.566,0,0,1,2-8.4Z" transform="translate(0 -26.008)" fill="#00559e"/>
</svg>
