<svg xmlns="http://www.w3.org/2000/svg" xmlns:xlink="http://www.w3.org/1999/xlink" width="344.351"
  height="69.49" viewBox="0 0 344.351 69.49">
  <defs>
    <clipPath id="clip-path">
      <rect id="Rectangle_3" data-name="Rectangle 3" width="344.351" height="69.49" fill="#fff" />
    </clipPath>
  </defs>
  <g id="Group_1" data-name="Group 1" clip-path="url(#clip-path)">
    <path id="Path_1" data-name="Path 1"
      d="M59.072,68.776l-12.184-.859L22.52,66.155,21,66.047l-.761-.057-.379-.027-.337-.036c-.993-.107-1.983-.236-2.962-.391a39.522,39.522,0,0,1-5.748-1.3,16.622,16.622,0,0,1-5-2.4,6.677,6.677,0,0,1-.907-.841,3.336,3.336,0,0,1-.573-.868L4.29,60.01v0l-.018-.185L4.2,59.077l-.134-1.488c-.346-3.973-.608-7.949-.731-11.916-.069-1.983-.1-3.967-.072-5.935.012-.984.045-1.966.1-2.938.03-.486.063-.972.1-1.447l.072-.71.006-.048c.307-.227.638-.462.954-.68q.752-.528,1.536-1.032,1.557-1.007,3.18-1.936c2.162-1.238,4.387-2.368,6.651-3.433a97.7,97.7,0,0,1,14.06-5.282q3.619-1.051,7.308-1.843,3.682-.81,7.421-1.363a112.959,112.959,0,0,1,15.062-1.187l.665-.012.143-.17C63.355,12.735,74.415,2.218,117.261.107c-1.184-.024-2.371-.054-3.555-.054q-1.244,0-2.482.018-3.942.076-7.883.346A122.64,122.64,0,0,0,87.664,2.541,85.588,85.588,0,0,0,72.434,7.1a59.21,59.21,0,0,0-7.188,3.534c-1.16.677-2.294,1.4-3.394,2.2q-.828.591-1.62,1.247c-.268.221-.531.444-.79.68l-.319.3a114.856,114.856,0,0,0-14.9.963c-2.565.334-5.124.755-7.662,1.274s-5.056,1.148-7.546,1.861a100.945,100.945,0,0,0-14.576,5.381c-2.359,1.083-4.659,2.285-6.908,3.588q-1.687.975-3.323,2.046c-.546.358-1.089.722-1.626,1.1s-1.053.752-1.623,1.208l-.471.376-.1.588c-.033.191-.045.3-.066.45l-.051.4-.075.787c-.042.525-.075,1.041-.1,1.557C.039,37.655.016,38.678,0,39.7c-.018,2.04.027,4.068.11,6.091.188,4.044.528,8.071.948,12.077l.161,1.5.084.752.021.185.006.051.009.075.015.086c.015.081.03.134.045.191a3.309,3.309,0,0,0,.2.561A6.128,6.128,0,0,0,2.7,62.91a9.564,9.564,0,0,0,1.33,1.2A18.582,18.582,0,0,0,10,66.859a42.094,42.094,0,0,0,6.186,1.226c1.035.134,2.07.239,3.1.322l.424.03.385.018.764.033,1.527.066c4.068.185,8.14.325,12.214.462s8.143.28,12.217.364c.081,0,.161.006.239.006H68.891c-1.244-.06-2.482-.134-3.722-.212Z"
      transform="translate(-0.001 0.105)" fill="#fff" />
    <path id="Path_2" data-name="Path 2"
      d="M20.294,17.621l.257-.3c.051-.057.173-.188.265-.283l.316-.31c.218-.212.444-.415.674-.617.465-.406.951-.8,1.447-1.178,1-.761,2.043-1.473,3.12-2.145A56.881,56.881,0,0,1,33.155,9.21,88.053,88.053,0,0,1,47.836,4.232,131.181,131.181,0,0,1,63.208,1.4Q67.1.9,71.02.593C73.63.378,76.246.208,78.87.1,78.253.083,77.642.083,77.024.071c-42.846,2.115-53.9,12.632-56.73,17.55"
      transform="translate(40.236 0.141)" fill="#fff" />
    <path id="Path_3" data-name="Path 3"
      d="M18.813,12.139q5.1.242,10.2.68l-.1-.006a1.784,1.784,0,0,1,.191.012l.137.018c.089.012.173.03.254.048a3.713,3.713,0,0,1,.48.143,3.652,3.652,0,0,1,.886.48,3.818,3.818,0,0,1,1.214,1.551,6.43,6.43,0,0,1,.367,3.254,14.987,14.987,0,0,1-.623,2.8c-.143.441-.289.877-.45,1.3-.191.5-.367.877-.564,1.3a26.853,26.853,0,0,1-2.8,4.716,20.054,20.054,0,0,1-1.861,2.124,14.7,14.7,0,0,1-2.288,1.825l-.3.191-.316.054c-1.074.179-2.094.313-3.138.45-1.041.119-2.079.23-3.12.316-1.593.14-3.188.194-4.781.251.251,0,.5.018.755.015,1.98-.06,3.964-.146,5.941-.325.987-.089,1.975-.2,2.962-.319s1.96-.265,2.98-.447l.3-.051.283-.191A14.259,14.259,0,0,0,27.6,30.518a19.948,19.948,0,0,0,1.766-2.112,26.81,26.81,0,0,0,2.661-4.689c.188-.421.355-.8.537-1.291.152-.427.292-.859.427-1.3a15.275,15.275,0,0,0,.594-2.783,6.67,6.67,0,0,0-.349-3.233,3.744,3.744,0,0,0-1.154-1.542,3.356,3.356,0,0,0-.838-.477,3.11,3.11,0,0,0-.456-.143c-.078-.018-.158-.036-.242-.048l-.128-.018a1.687,1.687,0,0,0-.182-.012l.092.006q-4.845-.434-9.691-.674t-9.685-.349c-.277-.006-.552-.006-.829-.012,2.9.075,5.8.167,8.694.3"
      transform="translate(20.062 23.477)" fill="#fff" />
    <path id="Path_4" data-name="Path 4"
      d="M14.711,17.67c-.128.027-.271.048-.4.075-.075.048-.137.122-.212.17Z"
      transform="translate(27.949 35.034)" fill="#fff" />
    <path id="Path_5" data-name="Path 5"
      d="M31.164,30.391c-2.019.316-4.042.638-6.073.9-2.028.289-4.068.537-6.111.781l-6.165.692-.009.334a59,59,0,0,0,6.225.638c2.085.119,4.17.137,6.261.11.489-.015.981-.06,1.47-.078-1.727.012-3.46.009-5.184-.1a53.864,53.864,0,0,1-5.909-.635l.006-.331,5.855-.689c1.939-.242,3.874-.489,5.8-.778,1.93-.257,3.851-.579,5.765-.895.957-.161,1.915-.322,2.866-.5.82-.146,1.643-.3,2.446-.468a11.27,11.27,0,0,0,1.45-1.229,17.155,17.155,0,0,0,1.5-1.721,27.5,27.5,0,0,0,2.574-4c.182-.343.376-.731.507-1.032.161-.37.31-.737.441-1.11a12.393,12.393,0,0,0,.6-2.2,4.046,4.046,0,0,0-.045-1.834,1.129,1.129,0,0,0-.307-.486,1.014,1.014,0,0,0-.23-.149l-.128-.051-.063-.015-.021-.006h.027l-.057,0-.036,0c-3.177-.432-6.374-.775-9.574-1.107s-6.407-.608-9.616-.874-6.422-.51-9.637-.725-6.434-.412-9.655-.585l.006-.334q4.841-.1,9.679-.069c2.95.009,5.9.054,8.856.11-.5-.012-1.005-.039-1.509-.051q-5.1-.1-10.2-.122t-10.195.069l0,.334c3.388.176,6.777.385,10.165.591s6.771.456,10.15.728,6.759.546,10.129.88,6.735.677,10.084,1.113l.033,0,.063,0h-.027l.021.006.063.015.137.051a1.069,1.069,0,0,1,.242.149,1.127,1.127,0,0,1,.325.489,3.893,3.893,0,0,1,.048,1.846,12.187,12.187,0,0,1-.629,2.21c-.137.373-.3.746-.462,1.116-.14.3-.346.695-.537,1.038a27.607,27.607,0,0,1-2.711,4.024,17.579,17.579,0,0,1-1.584,1.73,11.589,11.589,0,0,1-1.527,1.241c.131-.027.274-.048.4-.075l-.614.245c.075-.048.137-.122.212-.17-.841.161-1.709.322-2.574.465-1,.179-2.01.343-3.018.5"
      transform="translate(5.502 23.357)" fill="#fff" />
    <path id="Path_6" data-name="Path 6"
      d="M3.909,11.877l-.006.334c3.221.173,6.44.379,9.655.585s6.428.456,9.637.725,6.419.543,9.616.874,6.4.674,9.574,1.107l.036,0,.057,0h-.027l.021.006.063.015.128.051a1.014,1.014,0,0,1,.23.149,1.129,1.129,0,0,1,.307.486,4.046,4.046,0,0,1,.045,1.834,12.392,12.392,0,0,1-.6,2.2c-.131.373-.28.74-.441,1.11-.131.3-.325.689-.507,1.032a27.5,27.5,0,0,1-2.574,4,17.155,17.155,0,0,1-1.5,1.721,11.071,11.071,0,0,1-1.45,1.229c.125-.024.259-.045.382-.072l-.585.245c.072-.048.131-.122.2-.173-.8.164-1.626.325-2.446.468-.951.176-1.909.337-2.866.5-1.915.316-3.836.638-5.765.895-1.927.289-3.863.537-5.8.778l-5.855.689L13.433,33a53.862,53.862,0,0,0,5.909.635c1.727.1,3.457.11,5.187.1,1.6-.057,3.191-.107,4.781-.251,1.041-.087,2.079-.2,3.12-.316,1.044-.137,2.064-.271,3.138-.45l.316-.054.3-.191a14.7,14.7,0,0,0,2.288-1.825,20.055,20.055,0,0,0,1.861-2.124,26.853,26.853,0,0,0,2.8-4.716c.2-.424.373-.805.564-1.3.161-.427.307-.862.45-1.3a14.988,14.988,0,0,0,.623-2.8,6.43,6.43,0,0,0-.367-3.254,3.818,3.818,0,0,0-1.214-1.551,3.653,3.653,0,0,0-.886-.48,3.714,3.714,0,0,0-.48-.143c-.081-.018-.164-.036-.254-.048l-.137-.018a1.783,1.783,0,0,0-.191-.012l.1.006q-5.1-.438-10.2-.68c-2.9-.131-5.8-.221-8.694-.3q-4.429-.089-8.856-.113-4.836-.027-9.679.069"
      transform="translate(7.738 23.399)" fill="#fff" />
    <path id="Path_7" data-name="Path 7"
      d="M15.239,17.657c-.122.027-.257.048-.382.072-.072.051-.131.125-.2.173Z"
      transform="translate(29.054 35.008)" fill="#fff" />
    <path id="Path_8" data-name="Path 8" d="M58.238,18.583v0" transform="translate(115.467 36.831)"
      fill="#fff" />
    <path id="Path_9" data-name="Path 9"
      d="M88.745,37.417l-5.124,1.22Q78.5,39.868,73.435,41.3c-1.685.486-3.373.975-5.047,1.533-.525.17-1.044.346-1.569.528.277-1.757.5-3.508.668-5.273a77.985,77.985,0,0,0,.394-8.226,45.479,45.479,0,0,0-.761-8.31,23.137,23.137,0,0,0-1.2-4.182,13.108,13.108,0,0,0-2.494-4.1A8.874,8.874,0,0,0,61.144,11.5a8.618,8.618,0,0,0-2.568-.85c-.689.1-1.384.221-2.079.358l.233-.1c-.078.033-.152.069-.233.1q-5.8,2.55-11.591,5.1c-.373.343-.752.683-1.107,1.035a34.779,34.779,0,0,0-3.018,3.433,36.174,36.174,0,0,0-2.431,3.672,31.645,31.645,0,0,0-3.188,7.779c.024-.057,8.993-19.709,21.395-19.984,0,0,10.251-1.36,9.571,16.959,0,0,.078,13.449-1.476,18.731h0C74.969,41.3,96.617,36,102.648,34.6c.024-.021.039-.039.063-.063-2.95.543-5.888,1.116-8.811,1.742Z"
      transform="translate(69.714 21.117)" fill="#fff" />
    <path id="Path_10" data-name="Path 10" d="M58.327,18.585l0-.006-.146.027v.012l.149-.033"
      transform="translate(115.347 36.836)" fill="#fff" />
    <path id="Path_11" data-name="Path 11" d="M40.465,11.169l-.212.1-.107.054.107-.054Z"
      transform="translate(79.596 22.143)" fill="#fff" />
    <path id="Path_12" data-name="Path 12" d="M42.022,10.923l.259-.11-.259.11"
      transform="translate(83.315 21.438)" fill="#fff" />
    <path id="Path_13" data-name="Path 13"
      d="M38.617,13.333c.605-.534,1.241-1.05,1.912-1.542-.671.492-1.3,1.011-1.912,1.542"
      transform="translate(76.564 23.377)" fill="#fff" />
    <path id="Path_14" data-name="Path 14"
      d="M43.869,10.63h-.006c-.477.086-.954.179-1.432.28.48-.1.96-.194,1.438-.28"
      transform="translate(84.126 21.076)" fill="#fff" />
    <path id="Path_15" data-name="Path 15"
      d="M58.949,18.6v-.012c-.367.066-.731.149-1.1.218l-.06.06c.492-.113.892-.206,1.16-.265"
      transform="translate(114.576 36.856)" fill="#fff" />
    <path id="Path_16" data-name="Path 16" d="M58.26,18.583v-.006l-.033.006,0,.006.03-.006"
      transform="translate(115.444 36.832)" fill="#fff" />
    <path id="Path_17" data-name="Path 17"
      d="M42.6,10.922l-.054.024c-.078.036-.155.072-.233.1.692-.137,1.387-.254,2.079-.358-.1-.018-.2-.048-.3-.063-.477.086-.957.179-1.438.28l-.057.012"
      transform="translate(83.898 21.076)" fill="#fff" />
    <path id="Path_18" data-name="Path 18" d="M58.524,18.558l-.286.057v.006l.286-.063"
      transform="translate(115.466 36.794)" fill="#fff" />
    <path id="Path_19" data-name="Path 19"
      d="M50.018,10.771h0c-.2.039-.409.081-.614.125-.086.039-.173.075-.259.11q-5.087,2.188-10.18,4.37c-.185.164-.355.334-.534.5Q44.219,13.323,50.018,10.771Z"
      transform="translate(76.193 21.355)" fill="#fff" />
    <path id="Path_20" data-name="Path 20"
      d="M49.046,11.259h0l.614-.125c.081-.033.158-.069.236-.1l.054-.024.057-.012c.48-.1.954-.194,1.432-.28-.1-.015-.191-.051-.289-.063a10,10,0,0,0-1.11-.063,11.814,11.814,0,0,0-2.121.2,15.446,15.446,0,0,0-2.78.808c-.43.167-.847.343-1.244.534l-.385.188-.212.1-.1.054-.182.1c-.119.057-.236.125-.328.179a24.059,24.059,0,0,0-2.115,1.4l-.027.024c-.671.492-1.306,1.008-1.912,1.542l-.021.018,10.177-4.367.259-.11"
      transform="translate(76.55 20.992)" fill="#fff" />
    <path id="Path_21" data-name="Path 21" d="M42.5,10.724l-.057.012-.054.024.054-.024.057-.012"
      transform="translate(84.053 21.262)" fill="#fff" />
    <path id="Path_22" data-name="Path 22"
      d="M38.612,15.217l0,0q5.091-2.188,10.18-4.37L38.612,15.217"
      transform="translate(76.548 21.512)" fill="#fff" />
    <path id="Path_23" data-name="Path 23" d="M42.109,10.9c.206-.045.412-.086.614-.125l-.614.125"
      transform="translate(83.488 21.355)" fill="#fff" />
    <path id="Path_24" data-name="Path 24"
      d="M58.182,18.615l-.006.048c.054-.018.11-.033.164-.051l-.009-.03c-.033.006-.11.024-.149.033"
      transform="translate(115.343 36.842)" fill="#fff" />
    <path id="Path_25" data-name="Path 25" d="M58.347,18.557h0l-.015.006.015-.006"
      transform="translate(115.653 36.792)" fill="#fff" />
    <path id="Path_26" data-name="Path 26" d="M58.238,18.579l0,.03h0l-.006-.03"
      transform="translate(115.466 36.836)" fill="#fff" />
    <path id="Path_27" data-name="Path 27"
      d="M83.046,18.682c-6.034,1.4-27.679,6.7-38,13.133l.793-.412a42.324,42.324,0,0,1,4.435-1.87c1.578-.579,3.182-1.148,4.805-1.694,3.242-1.1,6.526-2.153,9.81-3.209l9.893-3.138q4.018-1.275,8.032-2.583l.033-.03s.083-.086.194-.2"
      transform="translate(89.319 37.04)" fill="#fff" />
    <path id="Path_28" data-name="Path 28"
      d="M57.94,18.858c-.11.11-.194.194-.194.2v0l0,0h0l-.033.03c.459-.149.922-.292,1.381-.444l.006-.048c-.268.06-.668.152-1.16.265"
      transform="translate(114.425 36.864)" fill="#fff" />
    <path id="Path_29" data-name="Path 29" d="M57.726,18.747h0l0,0Z"
      transform="translate(114.445 37.169)" fill="#fff" />
    <path id="Path_30" data-name="Path 30" d="M58.228,18.585l.009.03.024-.009,0-.027-.03.006"
      transform="translate(115.446 36.836)" fill="#fff" />
    <path id="Path_31" data-name="Path 31" d="M58.242,18.649l.277-.089.012,0h-.009l-.283.063,0,.03"
      transform="translate(115.468 36.792)" fill="#fff" />
    <path id="Path_32" data-name="Path 32"
      d="M66.13,28.094c.68-18.319-9.571-16.959-9.571-16.959-12.4.277-21.371,19.93-21.395,19.984l0,.006a45.562,45.562,0,0,1,4.516-7.239,37.12,37.12,0,0,1,2.837-3.311,36.661,36.661,0,0,1,3.224-3.036,34.409,34.409,0,0,1,3.639-2.664,20.955,20.955,0,0,1,1.945-1.113,1.557,1.557,0,0,1,.215-.1l.259-.113.525-.221c.352-.14.7-.274,1.059-.391a8.816,8.816,0,0,1,4.015-.513,4.638,4.638,0,0,1,2.887,1.688,10.306,10.306,0,0,1,1.778,3.251,23.767,23.767,0,0,1,.951,3.746,49.518,49.518,0,0,1,.608,7.865,110.947,110.947,0,0,1-1.163,15.948l-.245,1.754q1.123.13,2.243.257l-1.026.531h0l1.223-.632v0c1.554-5.282,1.476-18.731,1.476-18.731"
      transform="translate(69.712 22.03)" fill="#fff" />
    <path id="Path_33" data-name="Path 33"
      d="M44.3,23.033l-.11.79H45.52l1.026-.534q-1.119-.125-2.243-.257"
      transform="translate(87.619 45.667)" fill="#fff" />
    <path id="Path_34" data-name="Path 34"
      d="M20.628,30.466a5.755,5.755,0,0,1-1.121.137,1.132,1.132,0,0,1-.453-.075c-.1-.072-.048-.057-.048-.128a2.292,2.292,0,0,1,.424-.805l-.009.012.03-.051c.358-.635.7-1.271,1.032-1.915s.668-1.289.963-1.957.585-1.342.847-2.046a10.469,10.469,0,0,0,.62-2.318l-.018.146c.018-.051.06-.182.1-.274s.081-.2.125-.3a2.661,2.661,0,0,1,.307-.5,1.1,1.1,0,0,1,.313-.286.4.4,0,0,1,.212-.066h.015l.17-.045c3.874-1.062,7.847-2.031,11.79-2.968s7.916-1.837,11.889-2.7,7.958-1.685,11.952-2.508l1.5-.31.048-.009.024-.006-.03,0h0l.078-.012.176-.024.358-.036c.239-.021.48-.039.719-.048a13.137,13.137,0,0,1,1.417.018,3.821,3.821,0,0,1,1.238.277c.334.173.477.31.486.662a1.717,1.717,0,0,1-.122.6l-.066.158-.081.179-.155.352c-.418.94-.817,1.891-1.2,2.845q.935-1.235,1.828-2.491l.224-.316.107-.152.119-.179a2.7,2.7,0,0,0,.37-.85,1.716,1.716,0,0,0-.116-1.092,2.113,2.113,0,0,0-.7-.808,4.99,4.99,0,0,0-1.649-.707A10.2,10.2,0,0,0,62.692,9.6c-.271-.024-.54-.042-.811-.054l-.409-.009-.209,0h-.107L61,9.549l-1.539.11c-4.107.328-8.193.862-12.253,1.563s-8.086,1.575-12.077,2.6a120.973,120.973,0,0,0-11.838,3.672l.185-.048a3.118,3.118,0,0,0-1.3.623,3.847,3.847,0,0,0-.814.951,5.226,5.226,0,0,0-.462.984c-.057.167-.107.331-.149.5a4.981,4.981,0,0,0-.116.537l-.018.11v.036a8.873,8.873,0,0,1-.265,1.873c-.152.665-.337,1.339-.54,2.013s-.4,1.354-.62,2.028-.45,1.351-.686,2.016l.021-.039a5.2,5.2,0,0,0-.236.617,1.922,1.922,0,0,0-.086.77.892.892,0,0,0,.221.48.882.882,0,0,0,.432.236,1.744,1.744,0,0,0,.71-.018,5.464,5.464,0,0,0,1.154-.418,9.553,9.553,0,0,0,1.044-.573c-.379.113-.758.212-1.136.292"
      transform="translate(36.069 18.909)" fill="#fff" />
    <path id="Path_35" data-name="Path 35" d="M56.185,6.609,56.176,6.6,56.1,6.505l.081.1"
      transform="translate(111.235 12.897)" fill="#fff" />
    <path id="Path_36" data-name="Path 36" d="M47.764.883,47.74.895l-.03.03.03-.03.024-.012"
      transform="translate(94.592 1.751)" fill="#fff" />
    <path id="Path_37" data-name="Path 37"
      d="M51.311,1.692,51.3,1.683c.787.534,1.569,1.121,2.344,1.745l0,0c-.77-.62-1.548-1.2-2.329-1.733"
      transform="translate(101.708 3.337)" fill="#fff" />
    <path id="Path_38" data-name="Path 38"
      d="M49,.644a4.9,4.9,0,0,0-.871.1h0a4.7,4.7,0,0,1,.877-.1h0"
      transform="translate(95.427 1.277)" fill="#fff" />
    <path id="Path_39" data-name="Path 39"
      d="M49.868.824a3.549,3.549,0,0,1,.725-.158,3.7,3.7,0,0,0-.725.155,9.39,9.39,0,0,0-1.268.57,7.655,7.655,0,0,0-.862.191c.075-.063.149-.125.221-.191v0h-.006c-.069.066-.143.128-.215.188l-.161.051-.006,0-.006,0a7.156,7.156,0,0,1,1.512-.3c-.161.015-.319.033-.477.06a9.225,9.225,0,0,1,1.268-.57"
      transform="translate(94.305 1.32)" fill="#fff" />
    <path id="Path_40" data-name="Path 40"
      d="M47.611,1.467c.131-.119.265-.239.4-.349l-.006,0c-.134.113-.262.23-.394.343-.227.137-.45.286-.665.444-.072.06-.146.134-.218.2a8.429,8.429,0,0,1,1.017-.713c.125-.075.265-.11.394-.176-.128.066-.268.1-.394.173-.045.024-.089.051-.134.078"
      transform="translate(92.646 2.217)" fill="#fff" />
    <path id="Path_41" data-name="Path 41"
      d="M51.113,1.563c.072.039.143.075.212.116l-.006-.006c-.069-.039-.137-.072-.206-.11"
      transform="translate(101.339 3.099)" fill="#fff" />
    <path id="Path_42" data-name="Path 42"
      d="M64.838,12.454c-.608-.713-1.22-1.426-1.843-2.127.623.7,1.235,1.417,1.843,2.13q-1.038-1.011-2.109-1.992c-.2-.179-.4-.358-.6-.54l-.006,0a47.744,47.744,0,0,0-5.342-5.041,15.239,15.239,0,0,0-2.124-1.309c-.164-.084-.322-.185-.492-.262-.277-.158-.561-.307-.844-.444-.134-.078-.268-.158-.406-.233L52.9,2.621c-.161-.1-.325-.185-.492-.274A15.624,15.624,0,0,0,49.2,1.01a15.862,15.862,0,0,1,3.2,1.336c.528.28,1.047.588,1.56.913l.728.477.734.564C57.4,5.827,59.305,7.456,61.2,9.1s3.69,3.367,5.443,5.148c-.591-.6-1.2-1.2-1.8-1.79"
      transform="translate(97.553 2.002)" fill="#fff" />
    <path id="Path_43" data-name="Path 43"
      d="M49.749.876a2.189,2.189,0,0,0-.31.033c-.227-.018-.453-.027-.677-.027s-.447.012-.671.03a8.151,8.151,0,0,1,1.476.021c-.042-.006-.084-.021-.125-.024.1-.021.206-.021.307-.033"
      transform="translate(95.348 1.737)" fill="#fff" />
    <path id="Path_44" data-name="Path 44"
      d="M49.563.918h0A12.937,12.937,0,0,1,52,1.723,12.937,12.937,0,0,0,49.563.918"
      transform="translate(98.266 1.82)" fill="#fff" />
    <path id="Path_45" data-name="Path 45"
      d="M48.826.655h-.009a7.159,7.159,0,0,1,1,.173,6.693,6.693,0,0,0,1.086.54,6.693,6.693,0,0,1-1.086-.54,7.18,7.18,0,0,0-.99-.173"
      transform="translate(96.787 1.299)" fill="#fff" />
    <path id="Path_46" data-name="Path 46"
      d="M47.6,1.009l-.048.024c.149-.075.3-.146.441-.206l-.024.009c-.119.051-.245.113-.37.173"
      transform="translate(94.273 1.64)" fill="#fff" />
    <path id="Path_47" data-name="Path 47"
      d="M57.01,7.956c-.364-.579-.737-1.154-1.118-1.721l-.006-.006c.385.57.761,1.148,1.124,1.727-.179-.224-.382-.427-.564-.647.623.752,1.247,1.506,1.819,2.3l-.009-.018c-.018-.021-.03-.042-.045-.063v0c-.388-.537-.79-1.062-1.2-1.578"
      transform="translate(110.803 12.35)" fill="#fff" />
    <path id="Path_48" data-name="Path 48"
      d="M52.069,2.049c-.746-.292-1.491-.573-2.249-.886a5.7,5.7,0,0,0-.752-.251,6.937,6.937,0,0,1,.752.251c.758.313,1.5.6,2.249.886"
      transform="translate(97.285 1.81)" fill="#fff" />
    <path id="Path_49" data-name="Path 49"
      d="M55.923,6.36c-.289-.3-.576-.608-.868-.907.507.522.99,1.071,1.479,1.608-.206-.227-.394-.468-.6-.692l-.009-.009"
      transform="translate(109.155 10.811)" fill="#fff" />
    <path id="Path_50" data-name="Path 50"
      d="M53.974,4.162q1.351,1.472,2.643,3.012-1.289-1.539-2.643-3.012"
      transform="translate(107.012 8.252)" fill="#fff" />
    <path id="Path_51" data-name="Path 51"
      d="M47.842.853,47.8.868c.119-.045.239-.089.349-.128l-.027.009c-.089.03-.188.069-.283.1"
      transform="translate(94.777 1.467)" fill="#fff" />
    <path id="Path_52" data-name="Path 52"
      d="M56.35,6.826c.039.051.078.1.113.152l0-.006-.039-.054c-.021-.027-.051-.063-.072-.092"
      transform="translate(111.723 13.534)" fill="#fff" />
    <path id="Path_53" data-name="Path 53"
      d="M49.648.78h0c-.251-.051-.5-.1-.746-.122h-.006c.251.027.5.075.755.122"
      transform="translate(96.938 1.305)" fill="#fff" />
    <path id="Path_54" data-name="Path 54"
      d="M57.91,7.861c-.644-.707-1.3-1.4-1.992-2.046A42.708,42.708,0,0,0,51.56,2.027a42.708,42.708,0,0,1,4.358,3.788c.695.644,1.351,1.339,1.992,2.046"
      transform="translate(102.226 4.019)" fill="#fff" />
    <path id="Path_55" data-name="Path 55"
      d="M48.047.748,48.014.76c.092-.03.179-.054.257-.075l-.036.009c-.06.015-.122.036-.188.054"
      transform="translate(95.195 1.358)" fill="#fff" />
    <path id="Path_56" data-name="Path 56"
      d="M48.325.655l-.012,0c-.039.006-.078.015-.122.024l-.009,0,.143-.03"
      transform="translate(95.528 1.299)" fill="#fff" />
    <path id="Path_57" data-name="Path 57"
      d="M57.162,7.348a46.426,46.426,0,0,0-5.417-5.041,46.684,46.684,0,0,1,5.417,5.041"
      transform="translate(102.593 4.574)" fill="#fff" />
    <path id="Path_58" data-name="Path 58"
      d="M53.267,3.309c.233.224.441.459.671.686-.23-.227-.435-.459-.668-.686h0"
      transform="translate(105.61 6.561)" fill="#fff" />
    <path id="Path_59" data-name="Path 59"
      d="M55.1,5.276c.027.033.063.069.089.1-.027-.033-.063-.069-.089-.1"
      transform="translate(109.252 10.46)" fill="#fff" />
    <path id="Path_60" data-name="Path 60"
      d="M47.58,1.185c-.251.176-.5.352-.764.567l-.009.009c.262-.218.519-.4.773-.576"
      transform="translate(92.802 2.349)" fill="#fff" />
    <path id="Path_61" data-name="Path 61"
      d="M55.151,5.33l-.006-.006c.737.865,1.4,1.679,2,2.44L57.1,7.7c-.594-.743-1.235-1.53-1.951-2.374"
      transform="translate(109.334 10.556)" fill="#fff" />
    <path id="Path_62" data-name="Path 62"
      d="M52.346,2.483l-.024-.018c.931.778,1.846,1.59,2.732,2.437l-.009-.009c-.874-.838-1.784-1.64-2.7-2.41"
      transform="translate(103.737 4.887)" fill="#fff" />
    <path id="Path_63" data-name="Path 63"
      d="M47.772.961c-.149.081-.31.179-.468.274l-.045.03c.179-.11.361-.221.531-.313l-.018.009"
      transform="translate(93.698 1.887)" fill="#fff" />
    <path id="Path_64" data-name="Path 64"
      d="M50.449,1.554c.134.075.268.155.406.233.283.137.567.286.844.444.167.078.328.179.492.262-.155-.081-.292-.2-.45-.274a12.29,12.29,0,0,0-1.291-.665"
      transform="translate(100.023 3.081)" fill="#fff" />
    <path id="Path_65" data-name="Path 65"
      d="M51.745,2.307a47.745,47.745,0,0,1,5.342,5.041l.006,0c.2.182.4.361.6.543q-.259-.273-.528-.546a46.684,46.684,0,0,0-5.417-5.041"
      transform="translate(102.593 4.574)" fill="#fff" />
    <path id="Path_66" data-name="Path 66"
      d="M72.251,17.3l-.006-.006-.006-.009c-.051-.066-.122-.146-.176-.215-.605-.761-1.268-1.572-2-2.437l-.033-.042-.092-.1c-.689-.811-1.441-1.658-2.222-2.508l-.009-.012c-.191-.209-.379-.409-.576-.62l-.009-.009c-.638-.683-1.309-1.36-1.989-2.031-.23-.23-.438-.462-.671-.689-.03-.027-.06-.051-.087-.078-.886-.85-1.8-1.661-2.732-2.44-.122-.1-.236-.221-.361-.322l-.018-.015c-.107-.089-.221-.158-.331-.248-.775-.623-1.557-1.211-2.344-1.745-.089-.06-.176-.137-.265-.2l-.027-.018-.03-.018-.021-.012c-.069-.039-.14-.075-.212-.113.069.036.14.072.206.11l.009,0,.048.027c-.03-.021-.06-.036-.089-.054-.125-.084-.251-.149-.376-.227-.048-.03-.092-.054-.14-.084-.5-.313-1-.611-1.494-.874l-.012-.009c-.23-.122-.456-.218-.686-.328-.447-.215-.892-.412-1.333-.579-.254-.1-.5-.173-.755-.254h0C53.123,1.06,52.84.968,52.559.9,52.428.873,52.3.864,52.169.84c-.254-.051-.507-.1-.755-.125-.143-.015-.289-.06-.43-.069l-.06,0,.063,0c-.137-.009-.268-.012-.4-.015l-.146,0c-.251,0-.5.012-.749.036l-.084.012c-.039.006-.1.018-.173.033-.042.006-.089.018-.143.027s-.069.015-.119.027l-.006,0,.006,0L49.15.771l-.009.006a4.668,4.668,0,0,1,.874-.1c.119-.009.236-.042.355-.042.167,0,.331.009.492.021C50.7.64,50.537.634,50.37.634c-.119,0-.233.033-.352.042a4.731,4.731,0,0,0-.88.1c-.015,0-.024.015-.039.021L49.09.8a2.854,2.854,0,0,0-1.151.588l-.024.012-.033.03-.039.036c-.072.066-.146.128-.221.191a7.655,7.655,0,0,1,.862-.191A9.391,9.391,0,0,1,49.753.9a4,4,0,0,1,.725-.158A3.82,3.82,0,0,0,49.753.9a9.225,9.225,0,0,0-1.268.57c.158-.027.316-.045.477-.06l.027-.006h.03c.224-.018.447-.03.671-.03s.45.006.677.027a2.19,2.19,0,0,1,.31-.033c-.1.012-.206.012-.307.033.042,0,.084.018.125.024a10.291,10.291,0,0,1,1.8.325l.045.015a15.721,15.721,0,0,1,3.2,1.336c.167.089.331.179.492.274l.027.012a13.542,13.542,0,0,1,1.292.665c.158.075.3.194.45.277a15.659,15.659,0,0,1,2.121,1.306,46.427,46.427,0,0,1,5.417,5.041q.268.273.528.546,1.069.98,2.109,1.989c-.608-.713-1.22-1.426-1.843-2.13.623.7,1.238,1.417,1.843,2.127.608.594,1.211,1.187,1.8,1.793l.009.006.009.012c.292.3.579.6.868.907l.009.009c.209.224.4.465.6.692.534.585,1.053,1.178,1.56,1.787.185.221.385.424.564.647-.364-.579-.737-1.157-1.121-1.727l-.021-.033M50.868.655h0c.116.006.209.042.322.054a7.18,7.18,0,0,1,.99.173,6.959,6.959,0,0,0,1.086.543,7.216,7.216,0,0,1-1.086-.54,6.762,6.762,0,0,0-1-.176C51.074.7,50.981.664,50.868.655m1.816,1.074a6.185,6.185,0,0,0-.752-.254,6.016,6.016,0,0,1,.752.254c.761.313,1.506.594,2.249.886-.743-.292-1.491-.573-2.249-.886m.728-.233v0a12.908,12.908,0,0,1,2.431.805,12.689,12.689,0,0,0-2.431-.8M63.723,8.589A42.732,42.732,0,0,0,59.366,4.8a42.732,42.732,0,0,1,4.358,3.791c.695.644,1.351,1.339,1.992,2.046-.641-.707-1.3-1.4-1.992-2.046"
      transform="translate(94.42 1.245)" fill="#fff" />
    <path id="Path_67" data-name="Path 67" d="M56.711,7.407l-.045-.075v.012l.045.063"
      transform="translate(112.349 14.537)" fill="#fff" />
    <path id="Path_68" data-name="Path 68"
      d="M47.569,1.146l.161-.051c.072-.06.146-.122.215-.185-.125.075-.251.155-.376.236"
      transform="translate(94.313 1.804)" fill="#fff" />
    <path id="Path_69" data-name="Path 69"
      d="M57.286,8.035c-.2-.268-.418-.549-.653-.853l-.081-.1c-.1-.134-.215-.271-.325-.412s-.224-.292-.349-.45l.006.012.021.033c.385.567.758,1.142,1.121,1.721.412.516.814,1.041,1.2,1.578l0-.015c-.248-.465-.552-.9-.826-1.357-.036-.051-.075-.1-.113-.152"
      transform="translate(110.787 12.324)" fill="#fff" />
    <path id="Path_70" data-name="Path 70"
      d="M48.013.783c-.1.039-.206.081-.316.128.11-.048.215-.089.316-.128"
      transform="translate(94.567 1.552)" fill="#fff" />
    <path id="Path_71" data-name="Path 71" d="M48.1.707l.1-.024.021-.009L48.1.707"
      transform="translate(95.366 1.336)" fill="#fff" />
    <path id="Path_72" data-name="Path 72"
      d="M48.2.709c-.089.027-.179.057-.28.089.1-.033.194-.063.28-.089"
      transform="translate(95.009 1.406)" fill="#fff" />
    <path id="Path_73" data-name="Path 73"
      d="M47.185,1.217l-.027.024c.1-.069.2-.122.3-.185-.092.057-.176.1-.271.161"
      transform="translate(93.498 2.094)" fill="#fff" />
    <path id="Path_74" data-name="Path 74"
      d="M47.771.9c-.11.054-.221.1-.334.167C47.55,1,47.661.95,47.771.9"
      transform="translate(94.051 1.776)" fill="#fff" />
    <path id="Path_75" data-name="Path 75"
      d="M48.648,1.608h0q.192-.125.385-.242l-.006.006.006,0,.039-.039L49.1,1.3l.024-.012A2.81,2.81,0,0,1,50.282.7L50.3.692,50.324.68l0,0h0c-.033.006-.063.015-.1.024-.081.018-.167.045-.257.072s-.185.057-.28.089-.23.084-.352.131c-.1.039-.206.081-.316.128-.14.06-.289.134-.441.206-.11.057-.221.107-.334.17-.17.089-.352.2-.531.31-.1.063-.2.116-.3.185-.137.11-.268.23-.4.349.045-.027.089-.054.134-.078.122-.075.265-.107.394-.173a7.279,7.279,0,0,1,1.083-.477l.009,0,0,0"
      transform="translate(93.234 1.342)" fill="#fff" />
    <path id="Path_76" data-name="Path 76"
      d="M48.134.69l.024-.012-.03.015L48.119.7c.015-.006.024-.018.039-.021h0L48.134.69,48.116.7l.012-.006.006,0"
      transform="translate(95.397 1.344)" fill="#fff" />
    <path id="Path_77" data-name="Path 77" d="M48.159.673l-.006,0-.021.009.006,0,.021-.009"
      transform="translate(95.43 1.335)" fill="#fff" />
    <path id="Path_78" data-name="Path 78"
      d="M47.568,1.151h0c.125-.084.251-.161.379-.239l0,0q-.192.116-.385.242"
      transform="translate(94.311 1.802)" fill="#fff" />
    <path id="Path_79" data-name="Path 79" d="M48.137.677l-.006,0h0l.009,0h-.006"
      transform="translate(95.427 1.342)" fill="#fff" />
    <path id="Path_80" data-name="Path 80" d="M47.7.933h0L47.738.9,47.7.933"
      transform="translate(94.565 1.778)" fill="#fff" />
    <path id="Path_81" data-name="Path 81"
      d="M48.886.685a2.883,2.883,0,0,0-1.157.591A2.862,2.862,0,0,1,48.877.688l.009,0"
      transform="translate(94.63 1.358)" fill="#fff" />
    <path id="Path_82" data-name="Path 82" d="M48.124.687l.009,0-.012,0-.006.006.009-.006"
      transform="translate(95.395 1.356)" fill="#fff" />
    <path id="Path_83" data-name="Path 83" d="M48.126.69l-.006,0,.03-.015L48.126.69"
      transform="translate(95.405 1.344)" fill="#fff" />
    <path id="Path_84" data-name="Path 84" d="M46.791,1.415l.033-.021.015-.015-.048.036"
      transform="translate(92.77 2.734)" fill="#fff" />
    <path id="Path_85" data-name="Path 85" d="M47.176,1.135l.03-.024-.06.042.03-.018"
      transform="translate(93.474 2.203)" fill="#fff" />
    <path id="Path_86" data-name="Path 86"
      d="M47.591,1.316c-.254.179-.51.358-.773.576l-.018.015c.215-.158.438-.307.665-.441.131-.116.259-.233.394-.346l-.027.018c-.078.054-.164.122-.242.179"
      transform="translate(92.79 2.219)" fill="#fff" />
    <path id="Path_87" data-name="Path 87"
      d="M47.206,1.113l.006,0c-.021.012-.045.033-.066.048l0,0,.057-.042"
      transform="translate(93.474 2.201)" fill="#fff" />
    <path id="Path_88" data-name="Path 88"
      d="M47.308,1.125l0,0c-.078.051-.158.122-.239.176.081-.057.164-.128.242-.179"
      transform="translate(93.316 2.23)" fill="#fff" />
    <path id="Path_89" data-name="Path 89" d="M32.65,10.2h0Z" transform="translate(64.722 20.216)"
      fill="#fff" />
    <path id="Path_90" data-name="Path 90"
      d="M48.71.637c.113.009.206.042.319.057h.006c-.11-.015-.206-.048-.322-.057h0"
      transform="translate(96.575 1.263)" fill="#fff" />
    <path id="Path_91" data-name="Path 91"
      d="M48.424.672h0c.119-.006.233-.042.352-.042.167,0,.328.006.492.021h0c-.164-.012-.328-.021-.5-.021-.119,0-.233.033-.355.042"
      transform="translate(96.008 1.249)" fill="#fff" />
    <path id="Path_92" data-name="Path 92"
      d="M132.3,20.506l0,0c-.209-.349-.409-.7-.632-1.041s-.43-.692-.665-1.026c-.125-.185-.268-.358-.4-.54l-.018-.021c-.519-.725-1.038-1.453-1.593-2.153l-.021-.024c-.092-.119-.2-.227-.289-.346-1.354-1.685-2.8-3.293-4.3-4.865-.149-.155-.289-.319-.441-.474l-.039-.039c-1.569-1.643-3.239-3.194-4.93-4.725l0,0c-.179-.161-.343-.34-.525-.5l-.728-.635-.233-.182-.188-.146-.31-.233-.084-.06c-.131-.1-.277-.185-.412-.28-.4-.286-.805-.573-1.232-.835a19.841,19.841,0,0,0-1.81-.975l-.072-.03-.015-.006a16.553,16.553,0,0,0-1.787-.722,12.828,12.828,0,0,0-1.807-.459h-.006l0,0A11.324,11.324,0,0,0,107.785,0h-.018l-.051,0c-.122,0-.248,0-.37.009a9.7,9.7,0,0,0-2,.3h0a.373.373,0,0,0-.057.009,10.054,10.054,0,0,0-2.189.814A11.54,11.54,0,0,0,101.476,2.2a13.838,13.838,0,0,0-1.739,1.563,17.71,17.71,0,0,0-2.4,3.317c-.31.549-.591,1.113-.85,1.682-.018.039-.042.075-.06.113-.14.307-.268.614-.391.931l-.182.477-.087.251-.045.128-.024.075-.036.134a5.3,5.3,0,0,1-.543,1.333,4.968,4.968,0,0,1-.88,1.121,6.035,6.035,0,0,1-.826.62,7.777,7.777,0,0,1-1.8.928l-.033.009a11.556,11.556,0,0,1-1.554.418c-.274.054-.549.1-.823.131l-.409.042c-.122.012-.289.024-.352.024l-.1,0-.092.009c-6.094.773-12.166,1.712-18.2,2.875-3.018.57-6.022,1.223-9.014,1.909s-5.977,1.411-8.936,2.234-5.906,1.688-8.826,2.622-5.813,1.978-8.677,3.069-5.682,2.3-8.456,3.594A69.09,69.09,0,0,0,18.1,36.177c1.372-.662,2.774-1.259,4.188-1.822s2.831-1.113,4.259-1.626c2.857-1.041,5.745-1.983,8.65-2.872s5.828-1.715,8.766-2.491,5.879-1.512,8.841-2.186,5.927-1.336,8.906-1.93,5.968-1.139,8.96-1.679q8.948-1.561,17.962-2.765c.11,0,.194-.012.283-.018l.03,0,.158-.009c.182-.018.364-.039.54-.06l.045-.009c.048-.006.092-.015.137-.021h0l.227-.039h0l.015,0,.009,0h0c.033-.006.063-.012.1-.015l.042-.009h0c.158-.027.322-.048.477-.081a14.04,14.04,0,0,0,2.079-.591,12,12,0,0,0,1.763-.835c.146-.086.289-.173.432-.265.161-.1.3-.242.456-.352.179-.128.355-.265.525-.409.206-.17.438-.3.629-.486l0,0,0,0c.116-.113.182-.265.292-.385v0c.084-.092.146-.2.227-.3a8.053,8.053,0,0,0,.823-1.092c.045-.081.078-.164.119-.245A8.031,8.031,0,0,0,98.8,11.6l.1-.3.08-.224.06-.176c.045-.119.1-.239.14-.358.06-.149.113-.3.173-.444.227-.531.477-1.056.746-1.563l.054-.086c.236-.438.492-.865.764-1.283.089-.134.188-.259.28-.391.215-.3.438-.6.674-.886.116-.137.239-.268.361-.4.233-.257.477-.5.728-.725.137-.122.271-.242.412-.355.036-.03.078-.051.113-.078.075-.066.146-.14.221-.2l-.033.024.048-.039.012-.009c.26-.215.51-.391.761-.567.081-.054.161-.125.239-.176.021-.015.045-.036.066-.048l-.006,0-.027.024.006,0,.024-.024c.1-.06.182-.1.274-.158l.045-.03c.158-.1.316-.194.468-.274l.018-.009c.116-.063.221-.113.334-.167l.048-.024c.125-.063.251-.122.37-.176l.024-.009c.11-.048.212-.086.316-.128l.039-.015c.1-.039.194-.075.283-.1l.027-.009c.1-.036.191-.066.28-.092l.033-.009c.069-.021.128-.039.188-.054l.036-.009.116-.033.009,0c.051-.012.075-.015.119-.024l.006,0c.051-.012.084-.018.125-.024l.012,0c.078-.015.131-.027.17-.033l.086-.012c.248-.024.5-.036.749-.036l.146,0c.134,0,.265.006.4.015h0l-.063,0,.06,0c.14.009.286.054.429.072h.006c.248.027.5.072.743.119l.006,0c.131.024.259.033.391.063.28.066.564.161.847.248.253.081.5.158.758.254.441.167.886.364,1.333.579.23.11.456.206.683.328.549.289,1.1.617,1.649.966.125.078.251.143.373.227l.092.054-.048-.024-.009-.006.006.006.021.009.027.018.03.018c.086.06.176.137.265.2l.012.009q1.172.8,2.329,1.733l0,0c.11.089.221.158.331.248l.018.018c.122.1.239.218.361.319l.024.021c.916.77,1.822,1.569,2.7,2.41l.012.009.086.081c.233.224.441.459.671.686.68.674,1.351,1.351,1.989,2.031.2.218.4.427.594.641.814.889,1.6,1.769,2.312,2.61l.024.027.012.015,0,.006c.719.844,1.357,1.629,1.951,2.374l.048.057c.054.069.122.149.176.215l.006.009.006.006.021.033,0,.006-.021-.033-.009-.012c.128.158.233.3.352.45l.322.412c.024.033.051.063.075.092l.006.012c.143.182.262.343.391.51.11.143.233.3.334.435l.042.054"
      transform="translate(35.89 0)" fill="#fff" />
    <path id="Path_93" data-name="Path 93"
      d="M59.174,10H50.882v18.97h3.627V21.425l3.188.364,3.135,7.179h4.1l-3.6-7.463q.492-.157.752-.259a3.477,3.477,0,0,0,.752-.492q1.53-1.195,1.53-4.847a6.391,6.391,0,0,0-1.479-4.638A4.909,4.909,0,0,0,59.174,10m-4.638,8.578V13.213h4.3a1.682,1.682,0,0,1,1.4.582A3.6,3.6,0,0,1,60.7,15.96a3.524,3.524,0,0,1-.43,2.1,1.763,1.763,0,0,1-1.438.519Z"
      transform="translate(100.882 19.823)" fill="#fff" />
    <path id="Path_94" data-name="Path 94"
      d="M68.144,11.744H64.517v9.873a8.492,8.492,0,0,1-1.038.7,4.828,4.828,0,0,1-2.279.492q-1.53,0-1.53-1.84V11.744H56.043v9.148q0,4.845,4.092,4.847a5.707,5.707,0,0,0,1.763-.259,4.455,4.455,0,0,0,.713-.3c.251-.131.453-.242.608-.337s.373-.23.647-.4.492-.3.65-.388l.7,1.45h2.929Z"
      transform="translate(111.114 23.284)" fill="#fff" />
    <path id="Path_95" data-name="Path 95"
      d="M67.389,25.181c.251-.131.453-.242.608-.337s.373-.23.647-.4.5-.3.65-.388l.7,1.45h2.929V11.744H69.295v9.873a8.493,8.493,0,0,1-1.038.7,4.837,4.837,0,0,1-2.279.492q-1.53,0-1.53-1.84V11.744H60.821v9.148q0,4.845,4.1,4.847a5.688,5.688,0,0,0,1.76-.259,4.455,4.455,0,0,0,.713-.3"
      transform="translate(120.587 23.284)" fill="#fff" />
    <path id="Path_96" data-name="Path 96"
      d="M70.082,30.035a6.013,6.013,0,0,0,2.282-.465,7.367,7.367,0,0,0,1.891-1.089l.62,1.4h3.007V9.538H74.255v7.281a9.9,9.9,0,0,0-2.073-.659,10.306,10.306,0,0,0-2.1-.248,3.989,3.989,0,0,0-3.212,1.244A5.2,5.2,0,0,0,65.987,19a17.046,17.046,0,0,0-.388,4.379,9.736,9.736,0,0,0,1.035,4.886,3.674,3.674,0,0,0,3.448,1.775m-.635-9.744a2.253,2.253,0,0,1,.585-1.229,1.539,1.539,0,0,1,1.008-.3,9.03,9.03,0,0,1,3.215.516v6.815a5.921,5.921,0,0,1-3.215.829,1.446,1.446,0,0,1-1.372-.892,6.818,6.818,0,0,1-.441-2.851,13.8,13.8,0,0,1,.221-2.89"
      transform="translate(130.06 18.911)" fill="#fff" />
    <path id="Path_97" data-name="Path 97"
      d="M76.428,21.451h6.505v7.516H86.56V10H82.933v8.137H76.428V10H72.8v18.97h3.627Z"
      transform="translate(144.34 19.822)" fill="#fff" />
    <path id="Path_98" data-name="Path 98"
      d="M84.82,11.657a17.444,17.444,0,0,0-6.3.934v2.228q4.094-.282,5.417-.283a3.279,3.279,0,0,1,1.763.322,1.638,1.638,0,0,1,.441,1.36V17.1a7.586,7.586,0,0,1-1.011.024q-1.011,0-3.057-.012a3.914,3.914,0,0,0-3.033,1.05,3.85,3.85,0,0,0-.984,2.72v1.3a3.614,3.614,0,0,0,1.035,2.55,3.856,3.856,0,0,0,2.956,1.1,5.478,5.478,0,0,0,1.891-.364,7.4,7.4,0,0,0,1.542-.74,2.493,2.493,0,0,0,.662-.555l.749,1.5h2.878V16.089a4.1,4.1,0,0,0-1.283-3.433,5.871,5.871,0,0,0-3.669-1m1.324,10.186-.468.283a6.746,6.746,0,0,1-1.232.531,4.437,4.437,0,0,1-1.438.274,1.652,1.652,0,0,1-.984-.248,1.219,1.219,0,0,1-.337-1.023v-.674q0-1.3,1.116-1.4l3.344-.259Z"
      transform="translate(154.762 23.112)" fill="#fff" />
    <path id="Path_99" data-name="Path 99"
      d="M89.156,21.256l-3.007-9.512H82.263L87.056,25.5h4.068l5-13.759H92.24Z"
      transform="translate(163.099 23.284)" fill="#fff" />
    <path id="Path_100" data-name="Path 100"
      d="M92.194,22.736a2.328,2.328,0,0,1-.868-.313,1.278,1.278,0,0,1-.57-.787,5.445,5.445,0,0,1-.155-1.453h4.379q2.541,0,3.394-1.476a4.734,4.734,0,0,0,.441-2.294,7.185,7.185,0,0,0-.465-2.681,2.561,2.561,0,0,0-.6-.895,3.608,3.608,0,0,0-.8-.6,3.7,3.7,0,0,0-1.077-.337,11.762,11.762,0,0,0-1.309-.155c-.432-.027-1.035-.039-1.813-.039a12.289,12.289,0,0,0-2.073.155,3.753,3.753,0,0,0-2.917,1.879,11.984,11.984,0,0,0-.79,5.13,10.384,10.384,0,0,0,.987,5.223A3.82,3.82,0,0,0,91.508,25.7q1.141,0,2-.027c.432,0,.793-.009,1.089-.027s.832-.06,1.62-.128a8.708,8.708,0,0,0,2.344-.546V22.515a25.6,25.6,0,0,1-3.886.283c-1.348,0-2.171-.021-2.476-.063m-1.593-5.8a6.936,6.936,0,0,1,.1-1.127,1.412,1.412,0,0,1,.48-.895,1.687,1.687,0,0,1,.778-.364,11.237,11.237,0,0,1,1.464-.063,1.945,1.945,0,0,1,1.411.376,2.654,2.654,0,0,1,.352,1.67c0,.692-.382,1.035-1.142,1.035H90.6Z"
      transform="translate(172.434 23.215)" fill="#fff" />
    <path id="Path_101" data-name="Path 101"
      d="M95.229,13.568l-.57-1.736H91.6V25.591h3.627V16.807a3.236,3.236,0,0,1,1.441-1.2,5.576,5.576,0,0,1,2.058-.325q1.244,0,1.969.078v-3.5a5.067,5.067,0,0,0-1.527-.155,5.743,5.743,0,0,0-3.94,1.867"
      transform="translate(181.615 23.199)" fill="#fff" />
    <path id="Path_102" data-name="Path 102"
      d="M108.1,16.069h-4.611L99.6,20.68h-.752V9.564H95.225V29.828h3.627V23.454H99.6l4.173,6.374H108.1l-5.157-7.773Z"
      transform="translate(188.798 18.961)" fill="#fff" />
    <path id="Path_103" data-name="Path 103"
      d="M110.655,13.255q-1.36-1.557-4.912-1.554a7.88,7.88,0,0,0-4.2.907,3.41,3.41,0,0,0-1.217,1.333,6.9,6.9,0,0,0-.647,2.049,17.815,17.815,0,0,0-.209,2.992q0,3.628,1.348,5.157,1.4,1.579,4.921,1.581,3.606,0,4.939-1.476t1.333-5.455q0-3.977-1.36-5.533m-2.6,8.578a1.177,1.177,0,0,1-.5.647,2,2,0,0,1-.728.259,8.794,8.794,0,0,1-1.127.051,5.452,5.452,0,0,1-1.19-.1,1.527,1.527,0,0,1-.793-.507A2.377,2.377,0,0,1,103.231,21a13.989,13.989,0,0,1-.131-2.177,18.568,18.568,0,0,1,.1-2.216,2.885,2.885,0,0,1,.427-1.283,1.443,1.443,0,0,1,.778-.6,5.982,5.982,0,0,1,1.53-.116,3.115,3.115,0,0,1,1.67.4,1.213,1.213,0,0,1,.492.713,5.965,5.965,0,0,1,.221,1.244c.042.492.066,1.271.066,2.332a7.684,7.684,0,0,1-.337,2.526"
      transform="translate(197.221 23.199)" fill="#fff" />
    <path id="Path_104" data-name="Path 104"
      d="M109.476,15.6a5.576,5.576,0,0,1,2.058-.325q1.244,0,1.969.078v-3.5a5.067,5.067,0,0,0-1.527-.155,5.743,5.743,0,0,0-3.94,1.867l-.57-1.736h-3.057V25.591h3.627V16.807a3.236,3.236,0,0,1,1.441-1.2"
      transform="translate(207.005 23.199)" fill="#fff" />
    <path id="Path_105" data-name="Path 105"
      d="M113.447,28.071h3.162V25.842a12.832,12.832,0,0,1-1.736-.543,1.622,1.622,0,0,1-.883-.778,4.586,4.586,0,0,1-.286-1.945V17.059h3.084V14.285H113.7V10.449h-3.03l-.6,3.836-2.228.752v2.022h2.228v6.091q0,4.921,3.37,4.921"
      transform="translate(213.827 20.717)" fill="#fff" />
    <path id="Path_106" data-name="Path 106"
      d="M62.79,17.484l-3.4,9.178h.865l.954-2.771h3.836l.9,2.771h.838l-3.233-9.178Zm-1.315,5.691,1.694-4.65,1.629,4.65Z"
      transform="translate(117.756 34.665)" fill="#fff" />
    <path id="Path_107" data-name="Path 107"
      d="M66.819,23.644a11.727,11.727,0,0,1-1.354.591,3.745,3.745,0,0,1-1.19.152A1.287,1.287,0,0,1,63.3,24a1.419,1.419,0,0,1-.37-1.035V18.329h-.716v4.638a2.192,2.192,0,0,0,.555,1.506,1.858,1.858,0,0,0,1.47.626,3.808,3.808,0,0,0,1.787-.45c.209-.11.474-.257.79-.438l.227.775h.489V18.329h-.716Z"
      transform="translate(123.355 36.34)" fill="#fff" />
    <path id="Path_108" data-name="Path 108"
      d="M66.264,17.7h-.528l-.188,1.855-1.178.188v.528h1.178v3.585q0,2.371,1.617,2.371h1.017v-.5c-.06,0-.409-.072-1.053-.215a1.023,1.023,0,0,1-.579-.337,2.115,2.115,0,0,1-.286-1.318V20.274H68.3v-.716H66.264Z"
      transform="translate(127.624 35.099)" fill="#fff" />
    <path id="Path_109" data-name="Path 109"
      d="M68.929,18.308a3.84,3.84,0,0,0-1.7.307,1.84,1.84,0,0,0-.889,1.059,5.47,5.47,0,0,0-.28,1.9,8.836,8.836,0,0,0,.131,1.748,2.4,2.4,0,0,0,.462,1.011,1.809,1.809,0,0,0,.877.582,4.594,4.594,0,0,0,1.4.176,2.877,2.877,0,0,0,2.252-.719,4.135,4.135,0,0,0,.62-2.622,4.358,4.358,0,0,0-.62-2.669,2.757,2.757,0,0,0-2.252-.773m1.906,5.178a1.572,1.572,0,0,1-.286.465,1.1,1.1,0,0,1-.424.268,2.457,2.457,0,0,1-.537.125,6.661,6.661,0,0,1-.74.033A4.259,4.259,0,0,1,68,24.3a1.094,1.094,0,0,1-.376-.119,1.563,1.563,0,0,1-.3-.212,1.1,1.1,0,0,1-.245-.319,2.977,2.977,0,0,1-.17-.453,3.282,3.282,0,0,1-.1-.614c-.021-.233-.033-.528-.033-.889a7.912,7.912,0,0,1,.057-1,2.93,2.93,0,0,1,.191-.767,1.751,1.751,0,0,1,.289-.489.961.961,0,0,1,.424-.274,2.349,2.349,0,0,1,.528-.119c.17-.018.391-.024.665-.024a6.026,6.026,0,0,1,.674.03,2.337,2.337,0,0,1,.54.131,1.023,1.023,0,0,1,.43.289,1.95,1.95,0,0,1,.277.5,2.946,2.946,0,0,1,.185.752,11.557,11.557,0,0,1,.054,1.342,3.352,3.352,0,0,1-.251,1.423"
      transform="translate(130.974 36.298)" fill="#fff" />
    <path id="Path_110" data-name="Path 110"
      d="M71.93,21.356H70.072a1.985,1.985,0,0,1-.74-.1c-.182-.092-.274-.337-.274-.74V19.94a1.063,1.063,0,0,1,.194-.71,1.107,1.107,0,0,1,.82-.218h3.15v-.528c-.352-.033-.889-.072-1.6-.113s-1.235-.063-1.545-.063a1.792,1.792,0,0,0-1.336.415,1.7,1.7,0,0,0-.394,1.217v.576a1.538,1.538,0,0,0,.394,1.241,2.194,2.194,0,0,0,1.336.313H71.93q.913,0,.913.841v.614a.9.9,0,0,1-.313.728.93.93,0,0,1-.6.125H68.619v.513c.274.036.823.075,1.646.125s1.42.078,1.784.078a1.887,1.887,0,0,0,.984-.265,1.4,1.4,0,0,0,.525-1.3V22.91a1.5,1.5,0,0,0-.432-1.133,1.648,1.648,0,0,0-1.2-.421"
      transform="translate(135.499 36.298)" fill="#fff" />
    <path id="Path_111" data-name="Path 111"
      d="M72.707,24.378A1.175,1.175,0,0,1,71.4,23.373a5.887,5.887,0,0,1-.173-1.611,7.952,7.952,0,0,1,.137-1.649,1.913,1.913,0,0,1,.17-.489,1.362,1.362,0,0,1,.218-.313.879.879,0,0,1,.277-.182,1.175,1.175,0,0,1,.313-.086c.1-.012.37-.018.814-.018s1.2.036,2.282.113v-.5a14.629,14.629,0,0,0-2.732-.325,3.369,3.369,0,0,0-.728.069,1.675,1.675,0,0,0-.6.283,1.451,1.451,0,0,0-.468.582,3.943,3.943,0,0,0-.289.984,8.335,8.335,0,0,0-.113,1.467,5.613,5.613,0,0,0,.415,2.458,1.791,1.791,0,0,0,1.781.94,11.116,11.116,0,0,0,2.822-.364V24.2l-.453.036a23.32,23.32,0,0,1-2.368.14"
      transform="translate(139.801 36.298)" fill="#fff" />
    <path id="Path_112" data-name="Path 112"
      d="M75.792,20.326a3.525,3.525,0,0,0-1.629.45c-.209.1-.471.248-.79.438V17.266H72.66V27.1h.713v-5.33c.376-.182.668-.319.877-.406a4.272,4.272,0,0,1,.74-.227,4.637,4.637,0,0,1,.987-.1,1.234,1.234,0,0,1,.922.376,1.44,1.44,0,0,1,.361,1.041V27.1h.716V22.456a2.022,2.022,0,0,0-.94-1.828,2.28,2.28,0,0,0-1.244-.3"
      transform="translate(144.06 34.233)" fill="#fff" />
    <path id="Path_113" data-name="Path 113"
      d="M78.221,18.287a12.17,12.17,0,0,0-3.147.376v.513c1.33-.131,2.341-.2,3.033-.2q1.293,0,1.292,1.241v.841H76.527a1.853,1.853,0,0,0-.889.2,1.517,1.517,0,0,0-.776,1.467v.767a1.573,1.573,0,0,0,.474,1.214,1.653,1.653,0,0,0,1.16.438,4.5,4.5,0,0,0,1.536-.313c.242-.084.465-.167.671-.257s.37-.161.5-.221.194-.086.2-.086l.188.8h.528V20.217a1.851,1.851,0,0,0-.534-1.453,1.956,1.956,0,0,0-1.36-.477M79.4,23.754l-.2.075c-.307.11-.719.23-1.229.364-.242.066-.5.122-.758.17a4.5,4.5,0,0,1-.746.069.942.942,0,0,1-.629-.239.983.983,0,0,1-.262-.764v-.653a.9.9,0,0,1,.951-1.005L79.4,21.6Z"
      transform="translate(148.428 36.257)" fill="#fff" />
    <path id="Path_114" data-name="Path 114"
      d="M81.792,20.849a6.932,6.932,0,0,0-1.286-.364,6.483,6.483,0,0,0-1.184-.137,1.871,1.871,0,0,0-1.6.725,2.53,2.53,0,0,0-.382.784,4.805,4.805,0,0,0-.194.928,8.576,8.576,0,0,0-.051.99,7.585,7.585,0,0,0,.057.978,4.58,4.58,0,0,0,.206.9,2.8,2.8,0,0,0,.394.784,1.841,1.841,0,0,0,.647.531,2.03,2.03,0,0,0,.954.209,4.051,4.051,0,0,0,1.345-.289,3.953,3.953,0,0,0,1.086-.525l.212.74h.492V17.261h-.692Zm-.012,5a6.188,6.188,0,0,1-2.458.614,1.245,1.245,0,0,1-1.11-.659,3.8,3.8,0,0,1-.409-1.969,5.259,5.259,0,0,1,.277-1.96,1.232,1.232,0,0,1,1.241-.817,9.857,9.857,0,0,1,2.458.34Z"
      transform="translate(152.845 34.223)" fill="#fff" />
    <path id="Path_115" data-name="Path 115"
      d="M84.558,21.474a2.02,2.02,0,0,0,.188-1,3.111,3.111,0,0,0-.239-1.235,1.329,1.329,0,0,0-.653-.689,3.9,3.9,0,0,0-1.655-.239,4.711,4.711,0,0,0-1.6.215,1.319,1.319,0,0,0-.54.352,2.164,2.164,0,0,0-.355.6,3.415,3.415,0,0,0-.221.91,14.447,14.447,0,0,0-.063,1.56A6.873,6.873,0,0,0,79.61,23.7a1.806,1.806,0,0,0,.671,1.053,2.438,2.438,0,0,0,1.393.331,10.983,10.983,0,0,0,2.947-.349v-.528a22.048,22.048,0,0,1-3.01.164,1.643,1.643,0,0,1-.841-.176c-.427-.233-.638-.937-.638-2.106h2.9a1.659,1.659,0,0,0,1.53-.614m-4.226-1.682a1.608,1.608,0,0,1,.262-.412.878.878,0,0,1,.4-.233,2.186,2.186,0,0,1,.519-.1c.173-.012.426-.018.767-.018a5.762,5.762,0,0,1,.808.045,1.2,1.2,0,0,1,.54.212.845.845,0,0,1,.319.489,3.38,3.38,0,0,1,.081.808.706.706,0,0,1-.257.647,1.455,1.455,0,0,1-.746.155h-2.9a4.361,4.361,0,0,1,.2-1.593"
      transform="translate(157.455 36.306)" fill="#fff" />
    <path id="Path_116" data-name="Path 116"
      d="M85.894,20.326a3.525,3.525,0,0,0-1.629.45c-.209.1-.471.248-.79.438V17.266h-.713V27.1h.713v-5.33c.376-.182.668-.319.877-.406a4.273,4.273,0,0,1,.74-.227,4.637,4.637,0,0,1,.987-.1,1.234,1.234,0,0,1,.922.376,1.44,1.44,0,0,1,.361,1.041V27.1h.716V22.456a2.022,2.022,0,0,0-.94-1.828,2.28,2.28,0,0,0-1.244-.3"
      transform="translate(164.089 34.233)" fill="#fff" />
    <path id="Path_117" data-name="Path 117"
      d="M90.111,21.474a2.054,2.054,0,0,0,.188-1,3.112,3.112,0,0,0-.239-1.235,1.341,1.341,0,0,0-.653-.689,3.9,3.9,0,0,0-1.655-.239,4.7,4.7,0,0,0-1.6.215,1.3,1.3,0,0,0-.54.352,2.028,2.028,0,0,0-.355.6,3.305,3.305,0,0,0-.221.91,14.45,14.45,0,0,0-.063,1.56,6.872,6.872,0,0,0,.194,1.751,1.806,1.806,0,0,0,.671,1.053,2.432,2.432,0,0,0,1.393.331,10.983,10.983,0,0,0,2.947-.349v-.528a22.077,22.077,0,0,1-3.009.164,1.644,1.644,0,0,1-.841-.176c-.427-.233-.641-.937-.641-2.106h2.9a1.659,1.659,0,0,0,1.53-.614m-4.226-1.682a1.608,1.608,0,0,1,.262-.412.878.878,0,0,1,.4-.233,2.186,2.186,0,0,1,.519-.1c.173-.012.427-.018.767-.018a5.791,5.791,0,0,1,.808.045,1.177,1.177,0,0,1,.537.212.835.835,0,0,1,.322.489,3.38,3.38,0,0,1,.081.808.706.706,0,0,1-.256.647,1.455,1.455,0,0,1-.746.155h-2.9a4.346,4.346,0,0,1,.2-1.593"
      transform="translate(168.464 36.306)" fill="#fff" />
    <path id="Path_118" data-name="Path 118"
      d="M89.906,18.352a1.49,1.49,0,0,0-.283.063c-.1.036-.188.06-.251.078a1.5,1.5,0,0,0-.262.1c-.113.054-.194.089-.239.107a2.421,2.421,0,0,0-.245.125c-.116.069-.191.11-.221.125s-.11.063-.245.137-.209.119-.224.125l-.227-.838h-.489v6.657h.716V19.8c.024-.009.116-.051.274-.125s.248-.119.271-.131a2.126,2.126,0,0,1,.23-.107q.2-.089.251-.107c.036-.012.11-.042.227-.087a.9.9,0,0,1,.251-.075,2.042,2.042,0,0,0,.233-.051,1.187,1.187,0,0,1,.268-.051l.265-.018c.1-.009.268-.015.513-.015a3.4,3.4,0,0,1,.716.078v-.7a1.941,1.941,0,0,0-.7-.1,6.2,6.2,0,0,0-.826.048"
      transform="translate(172.931 36.291)" fill="#fff" />
    <path id="Path_119" data-name="Path 119"
      d="M92.5,21.356H90.646a1.985,1.985,0,0,1-.74-.1c-.185-.092-.274-.337-.274-.74V19.94a1.047,1.047,0,0,1,.194-.71,1.107,1.107,0,0,1,.82-.218h3.147v-.528c-.349-.033-.886-.072-1.6-.113s-1.232-.063-1.542-.063a1.792,1.792,0,0,0-1.336.415,1.7,1.7,0,0,0-.394,1.217v.576a1.537,1.537,0,0,0,.394,1.241,2.194,2.194,0,0,0,1.336.313H92.5q.917,0,.916.841v.614a.9.9,0,0,1-.313.728.935.935,0,0,1-.6.125H89.193v.513c.274.036.823.075,1.646.125s1.417.078,1.781.078a1.872,1.872,0,0,0,.984-.265,1.394,1.394,0,0,0,.528-1.3V22.91a1.508,1.508,0,0,0-.433-1.133,1.65,1.65,0,0,0-1.2-.421"
      transform="translate(176.29 36.298)" fill="#fff" />
    <path id="Path_120" data-name="Path 120"
      d="M92.753,17.7h-.528l-.188,1.855-1.178.188v.528h1.178v3.585q0,2.371,1.617,2.371h1.017v-.5c-.06,0-.409-.072-1.053-.215a1,1,0,0,1-.576-.337,2.09,2.09,0,0,1-.289-1.318V20.274h2.031v-.716H92.753Z"
      transform="translate(180.142 35.099)" fill="#fff" />
    <path id="Path_121" data-name="Path 121"
      d="M97.691,21.474a2.054,2.054,0,0,0,.188-1,3.111,3.111,0,0,0-.239-1.235,1.341,1.341,0,0,0-.653-.689,3.9,3.9,0,0,0-1.655-.239,4.7,4.7,0,0,0-1.6.215,1.319,1.319,0,0,0-.54.352,2.166,2.166,0,0,0-.355.6,3.418,3.418,0,0,0-.221.91,14.453,14.453,0,0,0-.063,1.56,6.874,6.874,0,0,0,.194,1.751,1.806,1.806,0,0,0,.671,1.053,2.432,2.432,0,0,0,1.393.331,10.983,10.983,0,0,0,2.947-.349v-.528a22.077,22.077,0,0,1-3.009.164,1.636,1.636,0,0,1-.841-.176c-.427-.233-.638-.937-.638-2.106h2.9a1.659,1.659,0,0,0,1.53-.614m-4.226-1.682a1.609,1.609,0,0,1,.262-.412.878.878,0,0,1,.4-.233,2.186,2.186,0,0,1,.519-.1c.173-.012.427-.018.767-.018a5.791,5.791,0,0,1,.808.045,1.177,1.177,0,0,1,.537.212.835.835,0,0,1,.322.489,3.381,3.381,0,0,1,.081.808.706.706,0,0,1-.257.647,1.455,1.455,0,0,1-.746.155h-2.9a4.361,4.361,0,0,1,.2-1.593"
      transform="translate(183.493 36.306)" fill="#fff" />
    <path id="Path_122" data-name="Path 122"
      d="M95.8,26.033a2.1,2.1,0,0,1-.286-1.315V17.27H94.8v7.448q0,2.371,1.617,2.371h1.017V26.6c-.06,0-.409-.078-1.053-.227a1.027,1.027,0,0,1-.579-.34"
      transform="translate(187.96 34.24)" fill="#fff" />
    <path id="Path_123" data-name="Path 123"
      d="M104.086,22.849l-.239-.239-1.593,1.617-3.185-4.3A1.682,1.682,0,0,1,98.658,19v-.075c.066-.5.513-.74,1.342-.74h2.544v-.477a12.2,12.2,0,0,0-2.052-.227,10.248,10.248,0,0,0-1.277.066,1.544,1.544,0,0,0-.892.456,1.355,1.355,0,0,0-.406,1.02,1.934,1.934,0,0,0,.412,1.08l.79,1.065-1.08.916a2.589,2.589,0,0,0-1.014,2.007,2.445,2.445,0,0,0,.513,1.485,2.627,2.627,0,0,0,1.092.928,2.848,2.848,0,0,0,1.053.233,2.255,2.255,0,0,0,1.581-.614l.9-.841,1.026,1.393h.865l-1.366-1.894.665-.689Zm-3.335,2.783a1.571,1.571,0,0,1-1.029.4,1.905,1.905,0,0,1-.313-.027,1.885,1.885,0,0,1-.853-3.436l.978-.814,2.192,2.959Z"
      transform="translate(192.369 34.657)" fill="#fff" />
    <path id="Path_124" data-name="Path 124"
      d="M104.82,21.846h-1.667a3.372,3.372,0,0,1-.778-.075.9.9,0,0,1-.3-.137,1.1,1.1,0,0,1-.257-.3,1.639,1.639,0,0,1-.137-.814V19.69a1.439,1.439,0,0,1,.412-1.229,2.014,2.014,0,0,1,1.154-.286h.176l3.021.113v-.555c-.343-.048-.856-.107-1.542-.173s-1.2-.1-1.542-.1a3.02,3.02,0,0,0-1.694.427,2.059,2.059,0,0,0-.7,1.8v.829a2.885,2.885,0,0,0,.2,1.166q.416.89,2.007.889h1.643a1.235,1.235,0,0,1,.978.334,1.487,1.487,0,0,1,.286,1v.853a1.2,1.2,0,0,1-.415,1,1.373,1.373,0,0,1-.438.221,2.275,2.275,0,0,1-.468.1c-.137.015-.561.018-1.268.018s-1.465-.036-2.276-.11v.552c.3.057.814.119,1.536.182s1.3.092,1.736.092a3.455,3.455,0,0,0,1.217-.212,1.753,1.753,0,0,0,1.092-1.843V23.9a2.507,2.507,0,0,0-.364-1.4,1.789,1.789,0,0,0-1.617-.653"
      transform="translate(200.187 34.615)" fill="#fff" />
    <path id="Path_125" data-name="Path 125"
      d="M108.132,19.044a1.874,1.874,0,0,0-.647-.531,1.807,1.807,0,0,0-.856-.209,5.127,5.127,0,0,0-1.268.227,3.453,3.453,0,0,0-1.262.591l-.2-.74h-.5V28.412h.689V24.636a9.272,9.272,0,0,0,1.1.328,5.739,5.739,0,0,0,1.375.176,1.877,1.877,0,0,0,1.6-.728,2.639,2.639,0,0,0,.388-.784,4.615,4.615,0,0,0,.2-.928,12.469,12.469,0,0,0,.051-1.268,4.81,4.81,0,0,0-.277-1.6,2.649,2.649,0,0,0-.394-.79m-.483,4.841a1.264,1.264,0,0,1-1.089.54,9.879,9.879,0,0,1-2.461-.34v-4.45a6.251,6.251,0,0,1,2.461-.614,1.265,1.265,0,0,1,1.116.671,4.236,4.236,0,0,1,.412,2.139,3.57,3.57,0,0,1-.438,2.055"
      transform="translate(205.005 36.291)" fill="#fff" />
    <path id="Path_126" data-name="Path 126"
      d="M110.279,23.644a11.728,11.728,0,0,1-1.354.591,3.745,3.745,0,0,1-1.19.152,1.287,1.287,0,0,1-.972-.385,1.419,1.419,0,0,1-.37-1.035V18.329h-.716v4.638a2.2,2.2,0,0,0,.552,1.506,1.865,1.865,0,0,0,1.473.626,3.808,3.808,0,0,0,1.787-.45c.209-.11.474-.257.79-.438l.227.775H111V18.329h-.716Z"
      transform="translate(209.521 36.34)" fill="#fff" />
    <path id="Path_127" data-name="Path 127"
      d="M108.224,17.635c-.167,0-.251.089-.251.265v.7l.051.164a.211.211,0,0,0,.2.086h.465c.158,0,.239-.084.239-.251v-.7c0-.176-.081-.265-.239-.265Z"
      transform="translate(214.073 34.964)" fill="#fff" />
    <rect id="Rectangle_1" data-name="Rectangle 1" width="0.716" height="6.657"
      transform="translate(322.148 54.669)" fill="#fff" />
    <path id="Path_128" data-name="Path 128"
      d="M110.51,17.7h-.528l-.188,1.855-1.178.188v.528h1.178v3.585q0,2.371,1.617,2.371h1.017v-.5c-.06,0-.409-.072-1.053-.215a1,1,0,0,1-.576-.337,2.09,2.09,0,0,1-.289-1.318V20.274h2.031v-.716H110.51Z"
      transform="translate(215.348 35.099)" fill="#fff" />
    <path id="Path_129" data-name="Path 129"
      d="M115.448,21.474a2.054,2.054,0,0,0,.188-1,3.112,3.112,0,0,0-.239-1.235,1.341,1.341,0,0,0-.653-.689,3.9,3.9,0,0,0-1.655-.239,4.7,4.7,0,0,0-1.6.215,1.32,1.32,0,0,0-.54.352,2.164,2.164,0,0,0-.355.6,3.416,3.416,0,0,0-.221.91,14.457,14.457,0,0,0-.063,1.56A6.873,6.873,0,0,0,110.5,23.7a1.806,1.806,0,0,0,.671,1.053,2.432,2.432,0,0,0,1.393.331,10.983,10.983,0,0,0,2.947-.349v-.528a22.078,22.078,0,0,1-3.01.164,1.636,1.636,0,0,1-.841-.176c-.427-.233-.638-.937-.638-2.106h2.9a1.659,1.659,0,0,0,1.53-.614m-4.226-1.682a1.609,1.609,0,0,1,.262-.412.878.878,0,0,1,.4-.233,2.186,2.186,0,0,1,.519-.1c.173-.012.427-.018.767-.018a5.792,5.792,0,0,1,.808.045,1.177,1.177,0,0,1,.537.212.835.835,0,0,1,.322.489,3.38,3.38,0,0,1,.081.808.706.706,0,0,1-.257.647,1.455,1.455,0,0,1-.746.155h-2.9a4.361,4.361,0,0,1,.2-1.593"
      transform="translate(218.699 36.306)" fill="#fff" />
    <path id="Path_130" data-name="Path 130"
      d="M115.243,18.352a1.491,1.491,0,0,0-.283.063c-.1.036-.188.06-.251.078a1.5,1.5,0,0,0-.262.1c-.113.054-.194.089-.239.107a2.42,2.42,0,0,0-.245.125c-.116.069-.191.11-.221.125s-.11.063-.245.137-.209.119-.224.125l-.227-.838h-.489v6.657h.716V19.8c.024-.009.116-.051.274-.125s.248-.119.271-.131a2.12,2.12,0,0,1,.23-.107q.2-.089.251-.107c.036-.012.11-.042.227-.087a.9.9,0,0,1,.251-.075,2.041,2.041,0,0,0,.233-.051,1.187,1.187,0,0,1,.268-.051l.265-.018c.1-.009.268-.015.513-.015a3.4,3.4,0,0,1,.716.078v-.7a1.941,1.941,0,0,0-.7-.1,6.2,6.2,0,0,0-.826.048"
      transform="translate(223.166 36.291)" fill="#fff" />
    <path id="Path_131" data-name="Path 131"
      d="M114.55,17.635c-.167,0-.251.089-.251.265v.7l.051.164a.214.214,0,0,0,.2.086h.465c.158,0,.239-.084.239-.251v-.7c0-.176-.081-.265-.239-.265Z"
      transform="translate(226.616 34.964)" fill="#fff" />
    <rect id="Rectangle_2" data-name="Rectangle 2" width="0.716" height="6.657"
      transform="translate(341.019 54.669)" fill="#fff" />
    <path id="Path_132" data-name="Path 132"
      d="M115.848,17.635h-.465c-.167,0-.251.089-.251.265v.7l.051.164a.211.211,0,0,0,.2.086h.465c.158,0,.236-.084.236-.251v-.7c0-.176-.078-.265-.236-.265"
      transform="translate(228.267 34.964)" fill="#fff" />
    <path id="Path_133" data-name="Path 133"
      d="M115.886,18.329h-.716V28.372h.462a13.029,13.029,0,0,0,.265-2.983c0-.116-.006-.236-.012-.352Z"
      transform="translate(228.342 36.34)" fill="#fff" />
  </g>
</svg>