<svg width="151" height="40" viewBox="0 0 151 40" fill="none" xmlns="http://www.w3.org/2000/svg">
    <g>
        <path
            d="M55.8215 37.9373C53.3819 39.1151 49.5246 39.9626 44.9538 39.9626C35.5193 39.9626 28.8516 34.1766 28.8516 24.2436C28.8516 10.6714 39.2582 0.0311279 53.8181 0.0311279C57.0647 0.0311279 59.872 0.641815 61.5825 1.32728L58.8126 9.96102C57.4728 9.41577 55.9025 9.01072 53.6374 9.01072C45.6205 9.01072 40.6447 15.828 40.6447 22.9973C40.6447 28.3097 43.9785 30.9394 48.1599 30.9394C51.4221 30.9394 53.79 30.1604 55.7249 29.3472L55.8215 37.9342V37.9373Z"
            fill="#FF6915"></path>
        <path d="M57.9277 39.1401L65.1999 0.859985H76.4602L69.1881 39.1401H57.9277Z" fill="#FF6915"></path>
        <path
            d="M90.1888 0.859985L91.9367 17.629C92.3293 22.3119 92.7468 25.2002 92.9587 28.0636H93.2142C94.2143 25.3155 95.4076 22.3929 97.4765 17.6788L105.194 0.859985H117.779L96.4764 39.1401H85.0228L78.5732 0.859985H90.1888Z"
            fill="#FF6915"></path>
        <path
            d="M143.097 39.1401L150.179 1.85387C146.982 0.856831 142.212 0 137.75 0C118.928 0 110.351 13.7841 110.351 26.6739C110.351 34.6658 115.077 40 121.932 40C126.384 40 131.292 37.9187 134.803 31.5625H134.99C134.787 34.2888 134.576 36.9123 134.488 39.1401H143.091H143.097ZM126.711 30.93C123.605 30.93 122.078 28.3471 122.084 24.5895C122.097 17.4794 127.394 8.55896 134.678 8.55896C135.819 8.55896 136.897 8.68671 137.757 8.88612L135.987 17.7255C134.242 27.0946 130.07 30.9332 126.711 30.9332V30.93Z"
            fill="#FF6915"></path>
        <path
            d="M19.5264 16.015C16.4293 14.51 14.8715 13.2108 14.8715 11.6217C14.8715 9.556 16.8624 8.26608 19.8442 8.26608C23.1936 8.26608 25.8825 9.18523 27.4903 9.93301L30.1698 1.97227C28.2941 0.919146 24.8014 0 20.3427 0C10.4938 0 3.52391 5.25315 3.52391 13.1859C3.52391 17.9311 7.21296 21.1809 11.6186 23.3463C15.1519 25.0818 16.3857 26.3779 16.3857 28.2505C16.3857 30.1231 14.7406 31.7121 11.5625 31.7277C7.88596 31.7433 3.81368 30.1854 1.62642 29.098L0 37.6756C2.46767 38.9936 6.39664 39.9626 10.5157 39.9626C20.6481 39.9626 28.0885 35.2298 28.0885 26.4683C28.0885 21.1591 23.6953 18.1399 19.5264 16.015Z"
            fill="#FF6915"></path>
    </g>
</svg>