<svg xmlns="http://www.w3.org/2000/svg" xmlns:xlink="http://www.w3.org/1999/xlink" width="230" height="56.532" viewBox="0 0 230 56.532"><defs><linearGradient id="a" x1="0.527" y1="0.528" x2="-0.24" y2="-2.073" gradientUnits="objectBoundingBox"><stop offset="0"/><stop offset="0.074" stop-color="#060606"/><stop offset="0.174" stop-color="#171717"/><stop offset="0.291" stop-color="#343434"/><stop offset="0.42" stop-color="#5d5d5d"/><stop offset="0.558" stop-color="#919191"/><stop offset="0.702" stop-color="#cfcfcf"/><stop offset="0.802" stop-color="#fff"/></linearGradient><linearGradient id="b" x1="0.737" y1="0.413" x2="-0.67" y2="-0.865" gradientUnits="objectBoundingBox"><stop offset="0.008" stop-color="#fff"/><stop offset="0.033" stop-color="#ebebeb"/><stop offset="0.102" stop-color="#bababa"/><stop offset="0.177" stop-color="#8e8e8e"/><stop offset="0.256" stop-color="#686868"/><stop offset="0.34" stop-color="#474747"/><stop offset="0.429" stop-color="#2d2d2d"/><stop offset="0.528" stop-color="#191919"/><stop offset="0.639" stop-color="#0a0a0a"/><stop offset="0.774" stop-color="#020202"/><stop offset="1"/></linearGradient></defs><g transform="translate(-39.401 -29.234)"><path d="M44.113,33.945V36.3h4.711V55.144h2.355V36.3h0V33.945Z" fill="#cf6815"/><path d="M55.89,31.59H41.757V55.144H39.4V29.234H55.89ZM46.468,55.144V38.656H44.112V55.144Zm28.266,0V29.234H58.246V59.856H74.734V57.5H60.6V31.59H72.378V55.144Zm-4.711,0v-21.2H62.956V36.3h4.712v7.067H62.956v2.356h4.712v9.421ZM62.956,38.656v2.355h2.355V38.656Zm0,16.488h2.355V48.078H62.956ZM53.534,57.5H39.4V78.7L55.89,85.766V83.411L41.757,77.354v-17.5H55.89V33.945H53.534Zm0,20.257-7.066-2.826V62.211H44.112V76.344L55.89,81.055V62.211H53.534ZM72.378,62.211H58.246V85.766L74.734,78.7V71.633H72.378v5.721L60.6,82.4V64.567H72.378v2.355H62.956v2.355H74.734V62.211Zm-23.554,0V73.518l2.355.942V62.211Zm21.2,13.8V71.633H62.956v7.4l2.355-1.011V73.988h2.357v3.029Z" fill="url(#a)"/><path d="M44.113,33.945V36.3h4.711V55.144h2.355V36.3h0V33.945Z" opacity="0.1" fill="url(#b)" style="mix-blend-mode:multiply;isolation:isolate"/><path d="M101.147,55.235h-3.22V53.572h8.263v1.663h-3.251v9.076h-1.792Z"/><path d="M110.732,53.572h4a6.245,6.245,0,0,1,.839.056,3.48,3.48,0,0,1,.776.2,2.517,2.517,0,0,1,.666.387,2.273,2.273,0,0,1,.523.629,3.253,3.253,0,0,1,.342.918,5.79,5.79,0,0,1,.12,1.257,4.233,4.233,0,0,1-.079.862,3.23,3.23,0,0,1-.21.673,2.513,2.513,0,0,1-.3.512,2.96,2.96,0,0,1-.343.376,2.348,2.348,0,0,1-.933.5v.015l2.265,4.35h-2.062l-2.009-3.943h-1.784v3.943h-1.806Zm3.981,5.1q1.416,0,1.415-1.754a2.614,2.614,0,0,0-.1-.778,1.275,1.275,0,0,0-.294-.516,1.117,1.117,0,0,0-.463-.282,1.989,1.989,0,0,0-.6-.087h-2.13v3.417Z"/><path d="M123.448,53.572h1.791v7.18a4.06,4.06,0,0,0,.113,1.053,1.336,1.336,0,0,0,.372.652,1.469,1.469,0,0,0,.674.331,4.715,4.715,0,0,0,1.016.093,4.229,4.229,0,0,0,.944-.093,1.547,1.547,0,0,0,.674-.331,1.423,1.423,0,0,0,.4-.652,3.529,3.529,0,0,0,.132-1.053v-7.18h1.791v7.285a5.546,5.546,0,0,1-.214,1.633,2.634,2.634,0,0,1-.689,1.147,2.959,2.959,0,0,1-1.223.682,6.377,6.377,0,0,1-1.817.225,6.546,6.546,0,0,1-1.822-.221,2.994,2.994,0,0,1-1.23-.674,2.616,2.616,0,0,1-.7-1.141,5.362,5.362,0,0,1-.218-1.621Z"/><path d="M137.141,53.572H143.6V55.25h-4.651v2.822h3.9v1.649h-3.9v2.912h4.779v1.678h-6.585Z"/><path d="M155.806,53.572h1.806v9.061h4.44v1.678h-6.246Z"/><path d="M166.836,53.572h6.457V55.25h-4.651v2.822h3.9v1.649h-3.9v2.912h4.779v1.678h-6.585Z"/><path d="M180.785,53.572h2.393l3.515,10.739H184.7l-.9-2.912h-3.657l-.866,2.912H177.3Zm2.514,6.209-1.325-4.546h-.03l-1.325,4.546Z"/><path d="M191.251,53.572H195.1a7.625,7.625,0,0,1,1.14.083,3.866,3.866,0,0,1,1.012.293,2.948,2.948,0,0,1,.851.587,3.222,3.222,0,0,1,.654.964,5.8,5.8,0,0,1,.418,1.414,11.349,11.349,0,0,1,.147,1.942,12.878,12.878,0,0,1-.136,2.006,6.326,6.326,0,0,1-.391,1.46,3.266,3.266,0,0,1-.625.993,2.78,2.78,0,0,1-.839.609,3.617,3.617,0,0,1-1.03.3,8.139,8.139,0,0,1-1.2.083h-3.853Zm3.364,9.061q.384,0,.745-.019a2.3,2.3,0,0,0,.674-.132,1.78,1.78,0,0,0,.572-.342,1.848,1.848,0,0,0,.443-.651,4.371,4.371,0,0,0,.286-1.064,10.375,10.375,0,0,0,.1-1.585,9.507,9.507,0,0,0-.1-1.479,3.97,3.97,0,0,0-.279-1,1.814,1.814,0,0,0-.433-.622,1.722,1.722,0,0,0-.567-.331,2.6,2.6,0,0,0-.682-.131q-.365-.022-.763-.023h-1.558v7.383Z"/><path d="M204.643,53.572H211.1V55.25h-4.651v2.822h3.9v1.649h-3.9v2.912h4.779v1.678h-6.585Z"/><path d="M216.372,53.572h4a6.256,6.256,0,0,1,.839.056,3.494,3.494,0,0,1,.776.2,2.512,2.512,0,0,1,.665.387,2.276,2.276,0,0,1,.524.629,3.283,3.283,0,0,1,.342.918,5.791,5.791,0,0,1,.12,1.257,4.232,4.232,0,0,1-.079.862,3.227,3.227,0,0,1-.211.673,2.468,2.468,0,0,1-.3.512,2.884,2.884,0,0,1-.342.376,2.348,2.348,0,0,1-.933.5v.015l2.265,4.35h-2.062l-2.009-3.943h-1.784v3.943h-1.806Zm3.981,5.1q1.415,0,1.415-1.754a2.615,2.615,0,0,0-.1-.778,1.276,1.276,0,0,0-.3-.516,1.107,1.107,0,0,0-.462-.282,1.993,1.993,0,0,0-.6-.087h-2.13v3.417Z"/><path d="M228.658,62.708q.384.052.828.091.384.038.876.06t1.043.022a5.71,5.71,0,0,0,1.159-.093,1.553,1.553,0,0,0,.655-.28.817.817,0,0,0,.289-.455,2.7,2.7,0,0,0,.064-.624,4.614,4.614,0,0,0-.026-.508,1.131,1.131,0,0,0-.124-.41.928.928,0,0,0-.279-.312,1.473,1.473,0,0,0-.5-.215l-2.19-.572a3.089,3.089,0,0,1-.881-.365,1.844,1.844,0,0,1-.583-.583,2.531,2.531,0,0,1-.323-.854,5.9,5.9,0,0,1-.1-1.178,3.6,3.6,0,0,1,.241-1.381,2.494,2.494,0,0,1,.68-.96,2.838,2.838,0,0,1,1.066-.557,5.016,5.016,0,0,1,1.392-.18,8.734,8.734,0,0,1,1.17.072q.531.071.914.154a8.4,8.4,0,0,1,.821.218V55.19q-.339-.045-.715-.083-.324-.037-.726-.064t-.832-.026a10.907,10.907,0,0,0-1.1.045,1.731,1.731,0,0,0-.677.188.763.763,0,0,0-.346.407,2.059,2.059,0,0,0-.1.7,2.914,2.914,0,0,0,.027.429.787.787,0,0,0,.12.331.818.818,0,0,0,.271.248,2.228,2.228,0,0,0,.479.2l2.042.587a7.047,7.047,0,0,1,.7.236,2.351,2.351,0,0,1,.531.3,1.772,1.772,0,0,1,.389.394,1.916,1.916,0,0,1,.26.539,3.764,3.764,0,0,1,.143.733,9.254,9.254,0,0,1,.045.971,6.4,6.4,0,0,1-.147,1.472,1.979,1.979,0,0,1-.553,1,2.479,2.479,0,0,1-1.119.572,7.555,7.555,0,0,1-1.842.184,10.758,10.758,0,0,1-1.45-.079,7.6,7.6,0,0,1-.938-.176,2.74,2.74,0,0,1-.656-.256Z"/><path d="M240.561,53.572h1.806v4.455h4.606V53.572h1.806V64.311h-1.806V59.705h-4.606v4.606h-1.806Z"/><path d="M254.6,53.572h1.806V64.311H254.6Z"/><path d="M262.229,53.572h4.26a4.775,4.775,0,0,1,.7.053,2.572,2.572,0,0,1,.677.2,2.4,2.4,0,0,1,.6.4,2.322,2.322,0,0,1,.489.637,3.485,3.485,0,0,1,.328.936,6.312,6.312,0,0,1,.116,1.287,5.7,5.7,0,0,1-.128,1.284,3.507,3.507,0,0,1-.346.929,2.211,2.211,0,0,1-.512.624,2.487,2.487,0,0,1-.624.38,2.735,2.735,0,0,1-.682.189,5.038,5.038,0,0,1-.688.048h-2.386v3.778h-1.806Zm3.981,5.283a1.391,1.391,0,0,0,.658-.135,1.043,1.043,0,0,0,.4-.377,1.559,1.559,0,0,0,.2-.564,4.377,4.377,0,0,0,.053-.7,4.469,4.469,0,0,0-.053-.7,1.694,1.694,0,0,0-.2-.584,1.1,1.1,0,0,0-.4-.4,1.3,1.3,0,0,0-.658-.147h-2.175v3.6Z"/></g></svg>