<svg xmlns="http://www.w3.org/2000/svg" xmlns:xlink="http://www.w3.org/1999/xlink" width="78.741"
    height="80" viewBox="0 0 78.741 80">
    <defs>
        <clipPath id="clip-path">
            <rect id="Rectangle_24" data-name="Rectangle 24" width="78.741" height="80"
                fill="#f8f8fd" />
        </clipPath>
    </defs>
    <g id="Group_3" data-name="Group 3" transform="translate(-14.259 17.272)">
        <g id="Group_1" data-name="Group 1" transform="translate(14.259 -17.272)"
            clip-path="url(#clip-path)">
            <path id="Path_1" data-name="Path 1"
                d="M99.3,14.315a35.19,35.19,0,0,1,10.542,10.442,2.454,2.454,0,1,0,4.115-2.673,40.131,40.131,0,0,0-12.022-11.909,2.453,2.453,0,0,0-2.634,4.14"
                transform="translate(-40.07 -3.997)" fill="#f8f8fd" />
            <path id="Path_2" data-name="Path 2"
                d="M12.482,21.793a2.453,2.453,0,0,0,3.387-.753A34.817,34.817,0,0,1,57.2,7.021a2.453,2.453,0,1,0,1.689-4.606A39.723,39.723,0,0,0,11.729,18.406a2.454,2.454,0,0,0,.753,3.387"
                transform="translate(-4.631)" fill="#f8f8fd" />
            <path id="Path_3" data-name="Path 3"
                d="M26.4,109.768A35.19,35.19,0,0,1,15.857,99.326,2.454,2.454,0,0,0,11.742,102a40.123,40.123,0,0,0,12.022,11.909,2.453,2.453,0,1,0,2.634-4.139"
                transform="translate(-4.631 -40.087)" fill="#f8f8fd" />
            <path id="Path_4" data-name="Path 4"
                d="M90.485,98.087a2.453,2.453,0,0,0-3.387.753,34.817,34.817,0,0,1-41.33,14.018,2.453,2.453,0,1,0-1.689,4.607,39.723,39.723,0,0,0,47.159-15.991,2.454,2.454,0,0,0-.753-3.387"
                transform="translate(-17.335 -39.881)" fill="#f8f8fd" />
            <path id="Path_5" data-name="Path 5"
                d="M35.1,49.152H28.287a21.1,21.1,0,0,1-.731,2.386l-3.018,8.52L19.621,49.1H16.213l-4.723,11L8.666,52.267a17.436,17.436,0,0,1-.876-3.116H0A50.458,50.458,0,0,1,2.191,54.02L9.883,72.278h1.509l6.183-14.022,6.573,14.022h1.364l6.621-16.6c.876-2.094,1.947-4.674,2.97-6.524"
                transform="translate(0 -20.043)" fill="#f8f8fd" />
            <path id="Path_6" data-name="Path 6"
                d="M72.562,34.918a3.653,3.653,0,1,0-7.3,0,3.652,3.652,0,1,0,7.3,0"
                transform="translate(-26.637 -12.723)" fill="#f8f8fd" />
            <path id="Path_7" data-name="Path 7"
                d="M64.044,71.777h7.011c-.1-.926-.146-3.165-.146-4.966V54.1c0-1.753.049-3.846.146-4.918H63.411A18.275,18.275,0,0,1,61.8,53.032H64.19V66.811c0,1.7-.049,3.944-.146,4.966"
                transform="translate(-25.227 -20.076)" fill="#f8f8fd" />
            <path id="Path_8" data-name="Path 8"
                d="M113.666,54.775c0-.925.584-1.7,2.239-1.7,1.364,0,4.285.828,5.356,2.337V49.321c-1.217-.1-3.214-.876-5.7-.876-5.5,0-8.568,2.58-8.568,6.865,0,6.962,8.568,7.254,8.568,10.127,0,1.071-.876,1.752-2.288,1.752a10.558,10.558,0,0,1-6.719-3.116v6.67c1.314.147,4.333,1.315,7.157,1.315,5.6,0,8.52-2.97,8.52-7.109,0-7.205-8.569-7.449-8.569-10.175"
                transform="translate(-43.495 -19.774)" fill="#f8f8fd" />
            <path id="Path_9" data-name="Path 9"
                d="M67.14,80.422a7.934,7.934,0,0,0,3.4,3.247,8.669,8.669,0,0,0,2.3.731,17.779,17.779,0,0,0,4.118.226,12.33,12.33,0,0,0,3.931-.746c.148-.06.294-.125.438-.194a7.894,7.894,0,0,0,3.344-3.1,12.383,12.383,0,0,0,1.554-5.325c.042-.5.063-1,.066-1.5,0,0,.012-1.984.017-1.984V54.1c0-1.558.049-3.749.146-4.917H78.809c-.389,1.071-1.071,2.727-1.606,3.846h2.386s0,18.745,0,18.745l-.014,2.187c-.011,1.777-.479,3.887-2.218,4.752-2.038,1.014-4.043-.385-4.678-2.351a7.147,7.147,0,0,1-.3-1.516H65.652a27.684,27.684,0,0,0,.479,3.064,10.718,10.718,0,0,0,1.009,2.51"
                transform="translate(-26.793 -20.076)" fill="#f8f8fd" />
            <path id="Path_10" data-name="Path 10"
                d="M92.627,31.169a3.669,3.669,0,0,0-3.652,3.749,3.652,3.652,0,0,0,7.3,0,3.669,3.669,0,0,0-3.652-3.749"
                transform="translate(-36.318 -12.723)" fill="#f8f8fd" />
        </g>
    </g>
</svg>
  