<?xml version="1.0" standalone="no"?>
<!DOCTYPE svg PUBLIC "-//W3C//DTD SVG 20010904//EN"
 "http://www.w3.org/TR/2001/REC-SVG-20010904/DTD/svg10.dtd">
<svg version="1.0" xmlns="http://www.w3.org/2000/svg"
 width="512.000000pt" height="512.000000pt" viewBox="0 0 512.000000 512.000000"
 preserveAspectRatio="xMidYMid meet">
<metadata>
Created by potrace 1.14, written by Peter Selinger 2001-2017
</metadata>
<g transform="translate(0.000000,512.000000) scale(0.100000,-0.100000)"
fill="#000000" stroke="none">
<path d="M3180 3939 c-52 -9 -109 -20 -125 -23 -65 -12 -312 -113 -342 -140
-1 -1 12 -17 29 -36 122 -135 229 -391 231 -557 0 -17 14 -16 24 1 11 17 97
78 151 105 134 68 348 74 517 16 135 -46 271 -164 338 -292 l38 -73 349 0
c327 0 349 1 345 18 -30 154 -110 339 -204 474 -57 82 -151 184 -226 243 -27
22 -52 42 -55 45 -12 13 -139 88 -185 109 -105 49 -266 97 -395 116 -100 16
-392 12 -490 -6z"/>
<path d="M723 3932 l-33 -3 0 -1380 0 -1379 332 2 332 3 0 522 c0 465 2 523
15 527 14 3 105 2 130 -2 7 -2 64 -96 136 -224 6 -10 66 -116 135 -235 69
-119 138 -239 153 -267 16 -28 44 -76 62 -106 18 -30 34 -60 36 -65 2 -6 24
-43 48 -83 l43 -72 365 0 365 0 -29 49 c-23 41 -365 605 -394 651 -87 139
-236 396 -233 402 3 5 14 8 25 8 34 0 184 65 260 113 241 152 362 402 346 719
-3 62 -8 122 -10 133 -3 11 -8 34 -12 50 -19 82 -84 228 -123 277 -113 142
-252 241 -417 296 -185 61 -226 64 -925 66 -316 0 -590 0 -607 -2z m1189 -576
c198 -57 276 -237 209 -482 -12 -43 -83 -134 -106 -134 -7 0 -15 -4 -17 -9 -1
-5 -34 -18 -73 -29 -61 -16 -103 -19 -320 -18 l-250 1 -1 340 c0 267 2 341 12
345 7 3 121 4 253 3 183 -1 252 -5 293 -17z"/>
<path d="M2715 2383 c-64 -66 -166 -139 -246 -175 -27 -13 -49 -25 -49 -28 0
-3 16 -29 35 -59 19 -29 35 -54 35 -56 0 -2 54 -92 120 -200 66 -108 133 -220
150 -248 17 -29 35 -59 40 -67 5 -8 51 -82 101 -165 50 -82 92 -151 94 -153 4
-5 102 -30 145 -37 139 -26 352 -32 480 -16 128 17 153 22 230 42 146 39 308
119 429 212 129 99 285 289 345 421 31 65 72 169 81 201 5 17 9 32 10 35 1 3
5 19 9 35 4 17 10 38 13 48 4 16 -17 17 -346 17 l-351 0 -21 -42 c-93 -186
-246 -303 -454 -349 -72 -15 -239 -12 -310 6 -233 60 -407 261 -459 530 -8 44
-16 87 -18 95 -2 10 -24 -6 -63 -47z"/>
</g>
</svg>
