<?xml version="1.0" standalone="no"?>
<!DOCTYPE svg PUBLIC "-//W3C//DTD SVG 20010904//EN"
 "http://www.w3.org/TR/2001/REC-SVG-20010904/DTD/svg10.dtd">
<svg version="1.0" xmlns="http://www.w3.org/2000/svg"
 width="512.000000pt" height="512.000000pt" viewBox="0 0 512.000000 512.000000"
 preserveAspectRatio="xMidYMid meet">
<metadata>
Created by potrace 1.14, written by Peter Selinger 2001-2017
</metadata>
<g transform="translate(0.000000,512.000000) scale(0.100000,-0.100000)"
fill="#000000" stroke="none">
<path d="M3146 4049 c-177 -19 -332 -62 -481 -134 -131 -63 -126 -55 -72 -115
126 -140 207 -331 242 -573 l6 -38 50 45 c66 60 137 99 229 127 62 20 97 24
200 23 148 0 217 -15 340 -76 112 -55 227 -167 285 -280 l40 -78 379 0 379 0
-7 43 c-21 132 -127 370 -227 510 -111 156 -301 318 -474 405 -238 119 -582
173 -889 141z"/>
<path d="M380 2535 l0 -1495 358 2 357 3 3 568 2 567 78 0 77 0 274 -478 c150
-262 298 -519 328 -569 l54 -93 395 0 c357 0 396 2 390 16 -3 9 -162 273 -352
587 -190 315 -346 575 -347 580 -1 4 37 21 86 37 152 52 239 103 346 204 111
106 196 260 232 421 22 100 17 342 -9 449 -88 352 -337 577 -739 668 -95 21
-120 22 -815 25 l-718 4 0 -1496z m1281 871 c175 -37 268 -146 277 -323 9
-168 -42 -290 -146 -346 -87 -47 -160 -57 -439 -57 l-253 0 0 370 0 370 248 0
c174 0 267 -5 313 -14z"/>
<path d="M2554 2359 c-74 -75 -163 -139 -256 -185 -32 -16 -58 -32 -58 -36 0
-4 97 -169 217 -365 119 -197 257 -426 307 -510 l91 -151 55 -16 c190 -53 506
-65 724 -27 297 53 539 174 735 370 110 110 180 208 250 348 50 100 107 257
118 326 l6 37 -379 0 -379 0 -30 -57 c-96 -185 -274 -319 -474 -359 -122 -24
-290 -16 -391 19 -232 82 -395 295 -445 584 -8 48 -16 88 -18 89 -2 2 -34 -28
-73 -67z"/>
</g>
</svg>
